<?xml version="1.0" encoding="utf-8"?>
<!-- Generator: Adobe Illustrator 16.0.0, SVG Export Plug-In . SVG Version: 6.00 Build 0)  -->
<!DOCTYPE svg PUBLIC "-//W3C//DTD SVG 1.1//EN" "http://www.w3.org/Graphics/SVG/1.1/DTD/svg11.dtd">
<svg version="1.1" id="Capa_3" xmlns="http://www.w3.org/2000/svg" xmlns:xlink="http://www.w3.org/1999/xlink" x="0px" y="0px"
	 width="255.12px" height="255.12px" viewBox="0 0 255.12 255.12" enable-background="new 0 0 255.12 255.12" xml:space="preserve">
<g>
	<g transform="matrix(1 0 0 1 -623.3333 396)">
		<path fill="#010202" d="M620.141-399.192v261.505h261.504v-261.505H620.141z"/>
	</g>
	<g transform="matrix(1 0 0 1 -2831.6863 405.2708)">
		<path fill="none" stroke="#FFFFFF" stroke-width="2.96" d="M2891.97-256.031c0,31.107,25.217,56.326,56.325,56.326
			c31.105,0,56.324-25.219,56.324-56.326c0-31.108,0-54.739,0-54.739h-48.862c12.036,0,20.7,9.399,20.7,20.88
			c0,17.205,0,82.64,0,82.64"/>
	</g>
	<g transform="matrix(1 0 0 1 -2831.6863 405.2708)">
		<path fill="#FFFFFF" d="M2976.503-207.265c16.811-9.747,28.117-27.935,28.117-48.766c0-31.108,0-54.401,0-54.401h-28.084
			c0,9.028-0.078,9.061-0.078,20.541c0,17.205,0,82.623,0,82.623"/>
	</g>
	<g transform="matrix(1 0 0 1 -2615.6843 733.05)">
		<path fill="none" stroke="#FFFFFF" stroke-width="2.96" d="M2774.854-648.056c9.787,0,17.721-7.934,17.721-17.72
			s-7.934-17.721-17.721-17.721c-9.785,0-17.721,7.934-17.721,17.721C2757.134-655.989,2765.069-648.056,2774.854-648.056z"/>
	</g>
	<g transform="matrix(-1 0 0 -1 3597.373 493.9187)">
		<path fill="none" stroke="#010202" stroke-width="0.296" d="M3452.557,399.397c0-31.108,0-111.045,0-111.045h-48.795
			c12.02,0,20.672,9.398,20.672,20.88c0,17.206,0,90.178,0,90.178L3452.557,399.397z"/>
	</g>
	<g transform="matrix(-1 0 0 -1 3597.373 493.9187)">
		<path fill="none" stroke="#FFFFFF" stroke-width="2.96" d="M3452.557,399.397c0-31.108,0-111.045,0-111.045h-48.186
			c11.873,0,20.416,9.398,20.416,20.88c0,17.206,0,90.178,0,90.178L3452.557,399.397z"/>
	</g>
</g>
</svg>
