<svg width="150" height="150" viewBox="0 0 150 150" fill="none" xmlns="http://www.w3.org/2000/svg">
<path d="M75 140C110.899 140 140 110.899 140 75C140 39.1015 110.899 10 75 10C39.1015 10 10 39.1015 10 75C10 110.899 39.1015 140 75 140Z" fill="#5865F2"/>
<path d="M102.768 49.2019C97.5891 46.7718 92.0519 45.0056 86.263 44C85.552 45.2892 84.7214 47.0232 84.1488 48.4026C77.995 47.4744 71.8978 47.4744 65.8572 48.4026C65.2846 47.0232 64.4352 45.2892 63.7179 44C57.9227 45.0056 52.3792 46.7783 47.2006 49.2148C36.7555 65.0458 33.924 80.4837 35.3397 95.7023C42.2675 100.891 48.9814 104.043 55.5819 106.106C57.2116 103.856 58.6651 101.465 59.9173 98.9446C57.5325 98.0358 55.2484 96.9142 53.0902 95.6121C53.6628 95.1867 54.2229 94.7419 54.7639 94.2842C67.9273 100.459 82.2297 100.459 95.2358 94.2842C95.7832 94.7419 96.3432 95.1867 96.9095 95.6121C94.7449 96.9206 92.4546 98.0422 90.0699 98.9511C91.322 101.465 92.7692 103.863 94.4052 106.112C101.012 104.05 107.732 100.898 114.66 95.7023C116.321 78.06 111.822 62.764 102.768 49.2019ZM61.7106 86.343C57.7591 86.343 54.5185 82.643 54.5185 78.1374C54.5185 73.6317 57.6899 69.9254 61.7106 69.9254C65.7314 69.9254 68.9719 73.6252 68.9027 78.1374C68.9089 82.643 65.7314 86.343 61.7106 86.343ZM88.2891 86.343C84.3376 86.343 81.0971 82.643 81.0971 78.1374C81.0971 73.6317 84.2683 69.9254 88.2891 69.9254C92.3098 69.9254 95.5504 73.6252 95.4812 78.1374C95.4812 82.643 92.3098 86.343 88.2891 86.343Z" fill="white"/>
</svg>
