<svg width="150" height="150" viewBox="0 0 150 150" fill="none" xmlns="http://www.w3.org/2000/svg">
<path d="M75 140C108.137 140 135 113.137 135 80C135 46.8629 108.137 20 75 20C41.8629 20 15 46.8629 15 80C15 113.137 41.8629 140 75 140Z" fill="white"/>
<path d="M75.0005 10C39.1064 10 10 39.1011 10 75.0005C10 103.719 28.6246 128.084 54.4513 136.679C57.6999 137.281 58.8925 135.269 58.8925 133.552C58.8925 132.002 58.8322 126.882 58.8042 121.451C40.721 125.383 36.9052 113.781 36.9052 113.781C33.9484 106.268 29.6881 104.271 29.6881 104.271C23.7906 100.236 30.1326 100.319 30.1326 100.319C36.6598 100.778 40.0967 107.018 40.0967 107.018C45.8941 116.955 55.3028 114.082 59.012 112.421C59.5954 108.22 61.2799 105.352 63.1388 103.729C48.7013 102.086 33.5243 96.512 33.5243 71.6056C33.5243 64.509 36.0635 58.7106 40.2216 54.1586C39.5467 52.5214 37.3218 45.9102 40.8513 36.9569C40.8513 36.9569 46.3096 35.2099 58.731 43.6197C63.916 42.1795 69.4765 41.4573 75.0005 41.4325C80.5245 41.4573 86.0894 42.1795 91.284 43.6197C103.69 35.2099 109.141 36.9569 109.141 36.9569C112.679 45.9102 110.453 52.5214 109.778 54.1586C113.946 58.7106 116.468 64.509 116.468 71.6056C116.468 96.5712 101.262 102.068 86.788 103.677C89.1194 105.695 91.1969 109.65 91.1969 115.715C91.1969 124.412 91.1215 131.412 91.1215 133.552C91.1215 135.282 92.2915 137.309 95.5863 136.671C121.399 128.066 140 103.71 140 75.0005C140 39.1011 110.898 10 75.0005 10ZM34.3448 102.595C34.2017 102.918 33.6936 103.014 33.2308 102.793C32.7593 102.581 32.4945 102.14 32.6474 101.816C32.7873 101.484 33.2964 101.391 33.7668 101.614C34.2393 101.826 34.5084 102.271 34.3448 102.595ZM37.5421 105.448C37.2321 105.735 36.6261 105.601 36.2149 105.147C35.7898 104.694 35.7101 104.088 36.0244 103.796C36.3441 103.509 36.9318 103.644 37.3581 104.097C37.7832 104.555 37.8661 105.157 37.5421 105.448ZM39.7356 109.098C39.3373 109.374 38.6861 109.115 38.2836 108.537C37.8853 107.959 37.8853 107.266 38.2922 106.988C38.6958 106.71 39.3373 106.96 39.7453 107.534C40.1425 108.121 40.1425 108.815 39.7356 109.098ZM43.4452 113.325C43.0889 113.718 42.3301 113.613 41.7747 113.077C41.2063 112.552 41.0481 111.809 41.4055 111.416C41.7661 111.022 42.5292 111.133 43.0889 111.664C43.653 112.187 43.8252 112.937 43.4452 113.325ZM48.2396 114.752C48.0824 115.261 47.3515 115.493 46.6153 115.277C45.8801 115.054 45.399 114.457 45.5475 113.943C45.7004 113.431 46.4345 113.189 47.1761 113.421C47.9102 113.643 48.3924 114.235 48.2396 114.752ZM53.6957 115.358C53.714 115.894 53.0897 116.338 52.3169 116.348C51.5397 116.365 50.9111 115.931 50.9025 115.404C50.9025 114.863 51.5128 114.422 52.29 114.409C53.0628 114.394 53.6957 114.825 53.6957 115.358ZM59.0558 115.152C59.1483 115.675 58.6112 116.212 57.8438 116.356C57.0892 116.493 56.3907 116.17 56.2949 115.652C56.2012 115.116 56.748 114.579 57.5015 114.44C58.27 114.306 58.9578 114.621 59.0558 115.152Z" fill="#14171A"/>
</svg>
