<svg width="32" height="32" viewBox="0 0 32 32" fill="none" xmlns="http://www.w3.org/2000/svg">
<path d="M10 14.0001C9.99997 13.0093 10.2453 12.034 10.7141 11.1611C11.1829 10.2883 11.8605 9.54507 12.6865 8.99791C13.5125 8.45076 14.4611 8.11667 15.4477 8.02547C16.4342 7.93428 17.428 8.08881 18.3403 8.47529C19.2526 8.86176 20.055 9.46814 20.6758 10.2403C21.2967 11.0124 21.7166 11.9263 21.8982 12.9003C22.0798 13.8743 22.0174 14.8781 21.7165 15.8221C21.4156 16.766 20.8856 17.6208 20.1739 18.3101C19.9709 18.5061 19.8149 18.7101 19.7209 18.9291L18.9589 20.698C18.9202 20.7877 18.8562 20.8641 18.7746 20.9177C18.693 20.9714 18.5975 21 18.4999 21H13.5C13.4022 21.0002 13.3064 20.9717 13.2247 20.918C13.1429 20.8643 13.0787 20.7879 13.04 20.698L12.279 18.9281C12.17 18.6943 12.0161 18.4843 11.826 18.3101C11.2476 17.7512 10.7878 17.0816 10.4741 16.341C10.1604 15.6005 9.99912 14.8044 10 14.0001V14.0001ZM13 22.5C13 22.3674 13.0526 22.2402 13.1464 22.1465C13.2402 22.0527 13.3674 22 13.5 22H18.4999C18.6325 22 18.7597 22.0527 18.8535 22.1465C18.9472 22.2402 18.9999 22.3674 18.9999 22.5C18.9999 22.6326 18.9472 22.7598 18.8535 22.8536C18.7597 22.9473 18.6325 23 18.4999 23L18.2759 23.447C18.1929 23.6131 18.0653 23.7528 17.9074 23.8504C17.7495 23.9481 17.5676 23.9999 17.3819 24H14.6179C14.4323 23.9999 14.2503 23.9481 14.0924 23.8504C13.9345 23.7528 13.8069 23.6131 13.724 23.447L13.5 23C13.3674 23 13.2402 22.9473 13.1464 22.8536C13.0526 22.7598 13 22.6326 13 22.5Z" fill="black"/>
</svg>
