<svg width="150" height="150" viewBox="0 0 150 150" fill="none" xmlns="http://www.w3.org/2000/svg">
<path d="M75 140C110.899 140 140 110.899 140 75C140 39.1015 110.899 10 75 10C39.1015 10 10 39.1015 10 75C10 110.899 39.1015 140 75 140Z" fill="#0A66C2"/>
<path d="M55.6589 109.879H41.1504V63.202H55.6589V109.879Z" fill="white"/>
<path d="M109.994 109.879H95.5006V87.1815C95.5006 81.769 95.404 74.8015 87.9625 74.8015C80.4139 74.8015 79.2589 80.6986 79.2589 86.7875V109.878H64.7656V63.202H78.6792V69.5807H78.874C81.711 64.7298 86.9862 61.8325 92.6019 62.041C107.292 62.041 110 71.7034 110 84.2737L109.994 109.879Z" fill="white"/>
<path d="M48.4122 56.8217C43.7671 56.8226 40.0008 53.0576 40 48.4124C39.9992 43.7672 43.7641 40.0008 48.4092 40C53.0543 39.9992 56.8205 43.7642 56.8214 48.4094C56.8218 50.6401 55.936 52.7796 54.359 54.3572C52.782 55.9348 50.6429 56.8213 48.4122 56.8217Z" fill="white"/>
</svg>
