<svg width="150" height="150" viewBox="0 0 150 150" fill="none" xmlns="http://www.w3.org/2000/svg">
<path d="M75 140C110.899 140 140 110.899 140 75C140 39.1015 110.899 10 75 10C39.1015 10 10 39.1015 10 75C10 110.899 39.1015 140 75 140Z" fill="#E7562E"/>
<path d="M74.9997 42.5L42.4998 75L74.9997 107.5L107.5 75L74.9997 42.5Z" fill="white"/>
<path d="M75 26.25C84.6419 26.25 94.0672 29.1091 102.084 34.4659C110.101 39.8226 116.349 47.4363 120.039 56.3442C123.729 65.2521 124.694 75.0541 122.813 84.5107C120.932 93.9672 116.289 102.654 109.471 109.471C102.654 116.289 93.9672 120.932 84.5107 122.813C75.0541 124.694 65.2521 123.729 56.3442 120.039C47.4363 116.349 39.8226 110.101 34.4659 102.084C29.1092 94.0672 26.25 84.6418 26.25 75C26.2646 62.0752 31.4055 49.6839 40.5447 40.5447C49.684 31.4055 62.0752 26.2646 75 26.25ZM75 18.125C63.7512 18.125 52.755 21.4607 43.402 27.7102C34.0489 33.9597 26.7591 42.8423 22.4544 53.2349C18.1496 63.6274 17.0233 75.0631 19.2179 86.0958C21.4124 97.1284 26.8292 107.263 34.7833 115.217C42.7374 123.171 52.8716 128.588 63.9043 130.782C74.9369 132.977 86.3726 131.85 96.7651 127.546C107.158 123.241 116.04 115.951 122.29 106.598C128.539 97.245 131.875 86.2488 131.875 75C131.875 59.9158 125.883 45.4494 115.217 34.7833C104.551 24.1172 90.0842 18.125 75 18.125Z" fill="white"/>
</svg>
