<svg width="150" height="150" viewBox="0 0 150 150" fill="none" xmlns="http://www.w3.org/2000/svg">
<path d="M75 140C110.899 140 140 110.899 140 75C140 39.1015 110.899 10 75 10C39.1015 10 10 39.1015 10 75C10 110.899 39.1015 140 75 140Z" fill="#FFE01B"/>
<path d="M115.271 115.104C115.112 115.209 114.948 115.261 114.777 115.261C114.525 115.261 114.306 115.171 114.121 114.99C113.936 114.809 113.844 114.572 113.844 114.279C113.844 114.005 113.924 113.771 114.083 113.578C114.242 113.385 114.46 113.289 114.737 113.289C114.913 113.289 115.066 113.325 115.195 113.398C115.406 113.516 115.538 113.722 115.588 114.017L115.164 114.01C115.138 113.873 115.084 113.782 115.001 113.735C114.932 113.69 114.855 113.669 114.773 113.669C114.648 113.669 114.545 113.72 114.466 113.823C114.386 113.926 114.346 114.081 114.346 114.289C114.346 114.495 114.39 114.644 114.478 114.737C114.566 114.831 114.672 114.877 114.795 114.877C114.908 114.877 114.994 114.846 115.052 114.785C115.11 114.723 115.148 114.645 115.164 114.552H115.577C115.532 114.815 115.43 114.999 115.271 115.104ZM113.758 113.309C113.493 113.581 113.36 113.902 113.36 114.274C113.36 114.66 113.495 114.988 113.765 115.256C114.034 115.527 114.357 115.661 114.737 115.661C115.115 115.661 115.438 115.526 115.706 115.254C115.974 114.982 116.108 114.655 116.108 114.274C116.108 113.904 115.975 113.582 115.708 113.309C115.439 113.032 115.115 112.894 114.737 112.894C114.354 112.894 114.028 113.032 113.758 113.309ZM115.902 115.469C115.579 115.783 115.19 115.939 114.737 115.939C114.269 115.939 113.874 115.779 113.553 115.458C113.232 115.137 113.072 114.743 113.072 114.274C113.072 113.788 113.245 113.383 113.591 113.061C113.917 112.76 114.299 112.609 114.737 112.609C115.196 112.609 115.588 112.772 115.914 113.098C116.239 113.422 116.402 113.815 116.402 114.274C116.402 114.747 116.235 115.145 115.902 115.469Z" fill="#59473D"/>
<path d="M119.461 97.5956C119.455 97.4287 119.44 97.2692 119.422 97.1196C119.409 97.0202 119.391 96.9215 119.366 96.8256C119.325 96.6034 119.274 96.3827 119.199 96.1732L119.197 96.1692C119.044 95.7335 118.806 95.3155 118.501 94.9631C118.197 94.6114 117.833 94.3328 117.469 94.1402L117.457 94.1335C117.069 93.9298 116.687 93.8165 116.341 93.7502C116.239 93.7317 116.145 93.7222 116.05 93.7115C116.492 91.8159 115.939 90.3686 115.581 89.6917C115.608 89.6649 115.637 89.6384 115.664 89.6128C116.136 89.1565 116.538 88.72 116.876 88.2815L116.939 88.1939C117.211 87.8039 117.391 87.4045 117.505 87.0379C117.603 86.7229 117.651 86.4379 117.68 86.1778L117.683 86.1782L117.685 86.1624L117.687 86.1253L117.698 86.0452H117.692L117.696 85.9552H117.699L117.7 85.9016C117.702 85.8483 117.703 85.7934 117.703 85.735C117.706 85.6276 117.706 85.5163 117.7 85.394C117.674 84.8071 117.568 84.0438 117.182 83.2173C116.99 82.8057 116.724 82.3822 116.369 81.9899C116.017 81.5983 115.577 81.2415 115.071 80.9593L115.074 80.9605C115.037 80.94 115.008 80.9203 114.974 80.9005C113.925 79.3546 112.725 78.1563 111.662 77.247C111.11 76.7757 110.595 76.3822 110.156 76.0613C109.722 75.742 109.356 75.4898 109.152 75.3387L109.154 75.3399C108.686 74.9969 108.338 74.7905 108.172 74.6965C107.788 74.4637 107.503 74.2778 107.331 74.1479C107.197 74.0465 107.132 73.9814 107.107 73.9545L107.094 73.9375C107.092 73.934 107.077 73.9052 107.057 73.8018C107.035 73.6984 107.012 73.5219 107.002 73.2666C106.984 72.8652 106.998 72.2775 107.042 71.5016C107.112 70.254 107.254 68.532 107.401 66.1982C107.449 65.4562 107.456 64.7572 107.429 64.0981C107.385 63.0415 107.249 62.0844 107.028 61.2169L107.027 61.2122C106.978 61.0149 106.922 60.8211 106.863 60.63L106.862 60.6285L106.861 60.6261C106.816 60.4836 106.777 60.3763 106.753 60.3076L106.755 60.3115C106.71 60.1844 106.664 60.0589 106.613 59.9314L106.611 59.9259C106.586 59.864 106.554 59.7838 106.512 59.6844L106.511 59.682L106.51 59.6804C106.43 59.4926 106.339 59.2905 106.224 59.0726L106.193 59.0146L106.136 58.9116L106.095 58.8425C105.882 58.4924 105.657 58.1731 105.422 57.8759C105.303 57.3392 105.097 56.5455 104.755 55.6432C104.451 54.8491 104.044 53.9682 103.465 53.0991C103.264 52.7999 103.035 52.5031 102.785 52.2126L102.868 52.1262C102.985 52.0039 105.767 49.0907 107.945 45.3104C112.004 38.2642 110.653 33.9562 108.805 31.5834L108.753 31.5171L108.697 31.4547C106.916 29.4746 104.493 28.2815 101.496 27.9093C95.2888 27.1373 88.2694 30.183 86.4289 31.0494L83.0832 27.3536L83.0706 27.3398C82.7746 27.0145 82.4462 26.724 82.0941 26.4691C81.7397 26.2133 81.36 25.9931 80.9618 25.8084C80.1622 25.4374 79.2852 25.2053 78.3514 25.0893C76.479 24.8588 74.3769 25.0826 72.0905 25.6687C68.6639 26.5528 64.8153 28.2645 60.7927 30.6776C56.7721 33.0915 52.5822 36.2095 48.5142 39.9199C43.5431 44.4536 39.4369 49.247 36.4452 53.7965C34.9505 56.0718 33.7333 58.2864 32.8287 60.3869C31.9261 62.4886 31.3324 64.4754 31.1035 66.3139C30.9378 67.6503 30.9642 68.9128 31.2326 70.0768C31.3494 70.5859 31.5176 71.0749 31.7334 71.5383C32.0101 72.1338 32.3681 72.686 32.8133 73.1746L32.8243 73.1865L36.7171 77.2635L36.6946 77.3022C36.6524 77.376 36.6129 77.4506 36.5715 77.5252C36.5115 77.6357 36.4511 77.7462 36.3935 77.8579C36.3548 77.9345 36.3169 78.0107 36.2802 78.0876C36.2245 78.2017 36.1705 78.315 36.1176 78.4306C36.0821 78.508 36.0481 78.5857 36.0146 78.6643C35.9633 78.7811 35.9139 78.8991 35.867 79.0183C35.8358 79.0964 35.8054 79.175 35.7742 79.2539C35.7288 79.3743 35.6858 79.4974 35.6424 79.6194C35.6155 79.6987 35.5879 79.7781 35.5623 79.8578C35.5216 79.9825 35.4841 80.108 35.4466 80.2347C35.436 80.2698 35.4245 80.3038 35.4143 80.3389C35.4016 80.3835 35.3898 80.4289 35.3776 80.4735C35.3412 80.6029 35.3097 80.734 35.2777 80.865C35.2588 80.9432 35.2382 81.0217 35.2201 81.1014C35.2078 81.1591 35.1956 81.2159 35.1838 81.2739C35.1668 81.3548 35.1522 81.4357 35.136 81.5174C35.1222 81.5908 35.106 81.6646 35.0934 81.7384C35.0646 81.903 35.0405 82.0704 35.0172 82.2365C35.0113 82.2859 35.0018 82.3336 34.9959 82.3834L34.9943 82.3972L34.9904 82.4418C34.9773 82.5503 34.9679 82.6596 34.9564 82.7701C34.9402 82.9418 34.9264 83.1143 34.9174 83.2884C34.9118 83.3641 34.9083 83.4419 34.9047 83.5193C34.9024 83.5789 34.898 83.6377 34.8956 83.698C34.8925 83.8192 34.8941 83.9416 34.8933 84.0651C34.8933 84.1381 34.8925 84.2115 34.8933 84.2861C34.8941 84.3303 34.8925 84.3737 34.8933 84.4179V84.4428C34.8956 84.5217 34.8988 84.6011 34.9008 84.6792C34.9047 84.7661 34.9126 84.8509 34.9181 84.9366C34.9217 85.0005 34.9233 85.0644 34.9272 85.1276C34.9327 85.184 34.9355 85.2267 34.9395 85.2634C34.9466 85.3439 34.9541 85.4256 34.9627 85.5057C34.971 85.5984 34.9813 85.6971 34.9951 85.81L34.9959 85.8195V85.8179C35.0018 85.8621 35.0065 85.8913 35.0113 85.926C35.0235 86.0172 35.0381 86.1092 35.0519 86.1999C35.063 86.2816 35.0776 86.3732 35.0961 86.4877C35.1052 86.533 35.1123 86.5713 35.119 86.6053C35.1293 86.6605 35.1407 86.7154 35.1514 86.7695L35.1522 86.7738L35.1538 86.7813L35.1684 86.8512C35.1822 86.9266 35.2015 87.0213 35.2303 87.1507C35.2382 87.1855 35.2441 87.2087 35.2509 87.238C35.2718 87.3204 35.2872 87.382 35.2986 87.4258L35.3187 87.5095C35.3258 87.5367 35.3326 87.562 35.342 87.6011L35.3622 87.678L35.3795 87.7424L35.3945 87.8008C35.4028 87.83 35.4091 87.8501 35.417 87.8765L35.4383 87.9559C35.4569 88.0178 35.4774 88.0786 35.496 88.1406C35.5185 88.2124 35.5469 88.3083 35.5887 88.4366L35.5816 88.4157L35.5895 88.4398C35.5994 88.4705 35.6073 88.4907 35.6163 88.5163C35.6534 88.6229 35.6834 88.7046 35.698 88.7468L35.7004 88.7516V88.7524C35.7249 88.8222 35.7612 88.9244 35.8121 89.0574L35.8129 89.0594L35.8137 89.0626L35.8129 89.0594L35.8172 89.0716L35.8153 89.0657L35.8378 89.1206C35.8701 89.2027 35.8958 89.2662 35.9171 89.3148L35.9423 89.3771L35.9463 89.387C35.9593 89.4186 35.9771 89.4612 35.998 89.5105C36.0173 89.5567 36.0402 89.6108 36.0675 89.6728L36.0651 89.6676L36.0927 89.7272C36.1184 89.7841 36.1421 89.8377 36.1638 89.8811C36.1843 89.9234 36.202 89.9613 36.2166 89.992L36.2147 89.9869L36.2174 89.9936L36.2198 89.9988L36.2174 89.9936C36.2502 90.0619 36.2897 90.1495 36.3449 90.2585L36.3493 90.2687L36.3524 90.2742L36.3757 90.32C36.3994 90.3646 36.4219 90.4084 36.442 90.4463C36.4704 90.5004 36.4965 90.5466 36.5166 90.5856L36.5206 90.5943C36.5505 90.6488 36.5924 90.7289 36.6492 90.8315L36.6532 90.8382L36.6571 90.8461L36.6808 90.8856C36.7041 90.9271 36.7266 90.9665 36.7479 91.002C36.7842 91.0636 36.8181 91.1185 36.8446 91.1646L36.8529 91.1773L36.8545 91.1812C36.8821 91.2258 36.9243 91.2969 36.9839 91.3924L36.9894 91.4015L37.0064 91.4291C37.0356 91.4749 37.064 91.5191 37.0901 91.5589C37.1327 91.6221 37.1706 91.6793 37.203 91.7283L37.1974 91.72C37.233 91.7725 37.2815 91.8471 37.3478 91.941L37.3529 91.9489L37.3561 91.9548L37.3502 91.9449L37.3569 91.9552L37.3624 91.9627L37.3608 91.9615L37.3632 91.9647L37.364 91.9655C37.3956 92.0101 37.4271 92.0539 37.4587 92.0981C37.5025 92.1593 37.5444 92.2157 37.5815 92.2654L37.5791 92.2619C37.6146 92.31 37.6592 92.3704 37.7129 92.4414L37.7247 92.4568C37.7654 92.5097 37.8041 92.5587 37.8419 92.6068C37.8913 92.6684 37.9383 92.726 37.9821 92.7797L37.9967 92.7982C38.0267 92.8345 38.0614 92.8776 38.1084 92.9328L38.1293 92.9577L38.1285 92.9581L38.1356 92.9668L38.1478 92.9798C38.2181 93.0623 38.2812 93.1329 38.3444 93.2036L38.4115 93.2805L38.4123 93.2817L38.415 93.2845L38.4202 93.2896L38.4186 93.2884C38.4502 93.3232 38.4884 93.367 38.5362 93.4175L38.5512 93.4345L38.5516 93.4357L38.554 93.4376L38.5634 93.4471L38.5611 93.4447C38.6372 93.5272 38.7118 93.603 38.7868 93.6792C38.8176 93.7104 38.8484 93.7447 38.8796 93.7751L38.8831 93.7786C38.8993 93.794 38.9356 93.8319 38.9944 93.8907L39.0059 93.901L39.0394 93.9361C39.1298 94.0245 39.2241 94.1098 39.3173 94.1958L39.339 94.2171L39.3449 94.2219L39.3473 94.2242L39.3504 94.2274C39.3745 94.2487 39.4128 94.2842 39.4684 94.3343L39.4744 94.3407C39.5939 94.4464 39.7143 94.5494 39.8339 94.6489L39.8406 94.6548L39.9085 94.7109L39.9547 94.7484L39.9531 94.7468L40.0226 94.8016C40.1236 94.8826 40.2231 94.9611 40.3186 95.0341L40.3454 95.0554L40.3581 95.0645C40.3948 95.0917 40.4216 95.1115 40.4366 95.1233L40.4551 95.1379L40.4697 95.1478C40.4974 95.1679 40.525 95.1873 40.5538 95.2078C40.6387 95.269 40.7231 95.3289 40.8088 95.3877L40.8806 95.4383L40.8889 95.4442L40.9777 95.5046L40.9816 95.5062L41.027 95.5354C41.1135 95.5938 41.2058 95.651 41.2974 95.7098C41.3455 95.7406 41.3894 95.7698 41.4395 95.8002L41.5172 95.8476L41.561 95.8732L41.5899 95.8902C41.7323 95.9758 41.8665 96.0532 41.9889 96.1207L42.0007 96.1266L42.0769 96.168L42.0824 96.172C42.2517 96.2624 42.4132 96.3453 42.5655 96.421L42.592 96.4337L42.6752 96.4735L42.676 96.4727C42.7585 96.5126 42.8386 96.5473 42.9203 96.584C42.9582 96.6018 42.9973 96.6196 43.036 96.6365C43.0821 96.6574 43.1307 96.6819 43.1769 96.7016L43.2163 96.7186L43.2278 96.7234L43.2463 96.7316C43.3257 96.7652 43.4034 96.7936 43.4816 96.8256L43.5214 96.8406C43.6094 96.8761 43.6975 96.9132 43.7851 96.9464L43.806 96.9539L43.8707 96.9771C43.9118 96.9917 43.954 97.0048 43.9954 97.0198L44.0341 97.0328C44.1596 97.0778 44.2855 97.1232 44.4134 97.1638L44.4434 97.1733L44.4545 97.1769L44.4588 97.1792C44.6554 97.2404 44.8519 97.2968 45.0477 97.3497L45.0556 97.3517L45.0887 97.36L45.0773 97.3576C45.2505 97.403 45.421 97.4421 45.59 97.48H45.5919L45.6547 97.4965L45.7202 97.5104C45.8812 97.5455 46.0454 97.5739 46.2108 97.6027L46.2574 97.6153L46.3738 97.6331C46.4733 97.6493 46.5727 97.6623 46.6722 97.6757C46.6876 97.7172 46.7022 97.7574 46.7152 97.7926L46.7168 97.7981C46.9887 98.5405 47.2835 99.2789 47.6001 100.011C52.2692 112.932 65.1761 122.948 79.9041 124.779C94.6328 126.611 110.355 116.821 116.76 103.593C117.036 103.087 117.288 102.59 117.518 102.109C118.153 101.455 118.646 100.777 118.974 100.058C119.366 99.213 119.498 98.3234 119.461 97.5956Z" fill="#59473D"/>
<path d="M106.509 59.6769L106.51 59.6807L106.511 59.682L106.509 59.6769Z" fill="#59473D"/>
<path d="M41.5184 95.8486L41.5174 95.8476H41.5164L41.5184 95.8486Z" fill="#59473D"/>
<path d="M37.3469 91.9406L37.3479 91.9426V91.9411L37.3469 91.9406Z" fill="#59473D"/>
<path d="M37.3499 91.9452L37.351 91.9457L37.3479 91.9422L37.3499 91.9452Z" fill="#59473D"/>
<path d="M35.3963 87.8072L35.3946 87.8009L35.3938 87.7996L35.3963 87.8072Z" fill="#59473D"/>
<path d="M35.231 87.154L35.2305 87.151L35.2295 87.1499L35.231 87.154Z" fill="#59473D"/>
<path d="M37.7266 92.4592L37.7314 92.4651L37.7246 92.4568L37.7207 92.4517L37.7266 92.4592Z" fill="#59473D"/>
<path d="M106.864 33.0236C106.15 32.2307 105.325 31.6331 104.429 31.1907C104.264 31.1295 104.098 31.0687 103.927 31.0194C103.844 30.9641 103.759 30.912 103.673 30.8611C102.88 30.5576 102.042 30.3595 101.179 30.2486C96.8998 29.698 92.0282 31.2558 89.2422 32.3621C89.0894 32.426 88.9355 32.4896 88.7796 32.5559C88.5456 32.6557 88.3096 32.7576 88.0704 32.8629C87.669 33.0398 87.2628 33.2249 86.8472 33.4183C86.7869 33.4459 86.7269 33.4747 86.6669 33.5031L85.5693 32.2279L85.2547 31.862L85.1189 31.7034L82.2472 28.3691L81.9978 28.0794L81.6891 27.7214L81.6343 27.7336L80.822 27.9176L79.8839 28.1299C79.3653 27.8892 78.7492 27.7175 78.036 27.6287C76.6076 27.4487 74.794 27.6141 72.7279 28.1481C70.6617 28.6785 68.3449 29.5705 65.888 30.794C60.9738 33.2395 55.5031 37.0083 50.2389 41.8108C48.402 43.4858 46.6891 45.1972 45.1143 46.9136C43.5845 48.5788 42.1858 50.2495 40.9307 51.8969C38.3818 55.2422 36.4281 58.496 35.1806 61.3985C34.3474 63.3324 33.8319 65.1093 33.6437 66.63C33.5047 67.7355 33.541 68.7025 33.7261 69.5013C33.7861 69.7598 33.8655 69.9947 33.9551 70.2192C34.1414 70.6913 34.3861 71.0982 34.7022 71.4467L37.8873 74.7834L38.2287 75.1405L38.2512 75.1165C38.3483 75.004 38.4477 74.8919 38.5488 74.7822L38.5756 74.753C38.6123 74.7135 38.6506 74.6764 38.6873 74.6385C38.7828 74.5386 38.8795 74.4388 38.9782 74.3413C39.0394 74.2809 39.1013 74.2229 39.1637 74.1641C39.2245 74.1069 39.2833 74.0477 39.3448 73.9912C39.3729 73.966 39.4013 73.9427 39.4297 73.9174C39.4944 73.8586 39.5615 73.801 39.6286 73.743C39.7218 73.6625 39.8153 73.5827 39.9116 73.5042C39.9677 73.4584 40.0241 73.413 40.0809 73.3676L40.1058 73.3483C40.2068 73.269 40.3095 73.1912 40.4117 73.1146C40.4764 73.0661 40.5415 73.0187 40.607 72.9714C40.7132 72.896 40.8217 72.821 40.9307 72.7476C40.9962 72.7038 41.0609 72.66 41.1272 72.6169C41.2389 72.5443 41.353 72.4737 41.4671 72.4042C41.5338 72.3639 41.5981 72.3237 41.6644 72.2854C41.784 72.2152 41.9052 72.1488 42.0259 72.0825C42.0907 72.0478 42.1542 72.0115 42.2189 71.9776L42.2915 71.9393L42.3026 71.933C42.4052 71.8801 42.5102 71.8311 42.6144 71.781C42.6728 71.753 42.7289 71.7238 42.7885 71.6965C42.8757 71.6551 42.9649 71.6172 43.0537 71.5785C43.1306 71.545 43.2068 71.5107 43.285 71.4783L43.371 71.4404C43.5676 71.3603 43.7657 71.2845 43.9662 71.2135C44.0293 71.1906 44.0949 71.1712 44.1588 71.1491C44.2275 71.1262 44.2961 71.1029 44.3664 71.0808L44.4473 71.0532C44.4887 71.0406 44.5306 71.0264 44.5712 71.0141C44.6569 70.9889 44.7433 70.9664 44.8286 70.9415L44.8921 70.9241C44.9916 70.8961 45.0902 70.8685 45.1905 70.8432C45.2836 70.8192 45.3776 70.799 45.4719 70.7773C45.5883 70.7505 45.7048 70.724 45.8216 70.7C45.8705 70.6905 45.9191 70.6798 45.968 70.6704C46.017 70.6613 46.0675 70.6542 46.1168 70.6451C46.2317 70.6246 46.3473 70.6049 46.4626 70.5871C46.5648 70.5717 46.6666 70.5583 46.7684 70.5441C46.8509 70.5338 46.9318 70.5224 47.0139 70.5133C47.0475 70.5097 47.0806 70.507 47.1138 70.5042C47.1517 70.4999 47.1876 70.4943 47.2255 70.4912L47.287 70.4876C47.6955 70.4714 48.1419 70.4746 48.6309 70.5109L48.7055 70.5157C49.1989 70.5563 49.7325 70.6345 50.2929 70.7533C50.4267 70.7821 50.5601 70.8097 50.6983 70.8432C50.7267 70.7907 50.7559 70.7367 50.7847 70.6842C51.0815 70.1518 51.3815 69.6328 51.685 69.1228C53.4587 66.1493 55.3611 63.5499 57.3029 61.2836C57.9652 60.5097 58.6334 59.7728 59.3016 59.0742C62.0868 56.1658 64.8883 53.9007 67.4498 52.1519C68.0189 51.7635 68.5762 51.4004 69.1189 51.061C69.8581 50.5996 70.5698 50.1824 71.2466 49.8075C71.798 49.502 72.3265 49.2241 72.8281 48.9719C73.6645 48.5512 74.4262 48.2023 75.096 47.9153C75.3036 47.8265 75.5029 47.7433 75.6912 47.6667C75.9836 47.5475 76.254 47.4417 76.4991 47.3498C76.2879 47.3277 76.0736 47.3107 75.8546 47.2992C75.6505 47.2886 75.4429 47.2846 75.2333 47.2842C75.1804 47.2839 75.1283 47.2846 75.0755 47.2846C74.8639 47.2874 74.6504 47.2925 74.4341 47.306C74.0236 47.3304 73.6045 47.3734 73.1751 47.4409C73.0318 47.4634 72.8877 47.4887 72.7421 47.5175C73.8081 46.9657 74.86 46.5513 75.8747 46.2399C76.5492 46.0327 77.2083 45.8701 77.841 45.7466C78.7136 45.578 79.5385 45.4802 80.2995 45.4304C80.8098 45.3977 81.2901 45.3858 81.7349 45.3898C82.1825 45.3941 82.5942 45.4135 82.9644 45.4411C84.2577 45.5382 85.0372 45.7359 85.0372 45.7359C84.8537 45.4774 84.6224 45.252 84.371 45.0555C83.9132 44.7007 83.3859 44.4465 82.9233 44.2665C82.7414 44.1959 82.5681 44.1343 82.4158 44.0865C82.2946 44.0486 82.1817 44.0159 82.0886 43.9906C82.3068 43.9531 82.5219 43.9216 82.7343 43.8931C82.9596 43.8627 83.1826 43.8367 83.4013 43.8158C85.2654 43.6413 86.8954 43.802 88.1201 44.0293C89.597 44.3024 90.4862 44.6738 90.4862 44.6738C90.2759 44.2633 89.9637 43.9129 89.6223 43.6173C89.3732 43.4025 89.1104 43.2159 88.8589 43.0611C89.3539 43.1756 89.8243 43.3031 90.2715 43.4396C91.4524 43.8004 92.4569 44.2199 93.247 44.6008C93.5028 44.7243 93.7368 44.8431 93.9468 44.9556C94.0068 44.9876 94.0617 45.0176 94.1173 45.0484C94.8404 45.4431 95.2402 45.7264 95.2402 45.7264C95.1194 45.301 94.8739 44.8992 94.5874 44.5384C94.5155 44.4481 94.4425 44.3585 94.3675 44.274L94.4023 44.2898C94.4287 44.2985 94.4855 44.3162 94.5645 44.3431C94.6221 44.3624 94.6916 44.3865 94.7748 44.4165C95.0894 44.5309 95.5705 44.7232 96.1361 45.0042C96.1629 45.0172 96.191 45.0314 96.2186 45.0452C96.2952 45.0847 96.3737 45.1245 96.4522 45.1664C96.6464 45.2686 96.8469 45.3823 97.0518 45.5042C97.2424 45.6179 97.4374 45.7399 97.6331 45.8717C97.7342 45.9396 97.8348 46.0094 97.9359 46.082C98.1517 46.2368 98.3661 46.4029 98.5788 46.5805C98.7963 46.7625 99.0106 46.9571 99.2182 47.1635C99.2588 47.2045 99.3007 47.2448 99.3413 47.2874C99.4929 47.4429 99.6389 47.6067 99.7798 47.7768C100.048 48.0973 100.296 48.4434 100.517 48.816C100.781 49.2628 101.006 49.7451 101.175 50.27C101.184 50.2996 101.192 50.3304 101.2 50.36C101.322 50.229 101.537 49.9933 101.817 49.6721C104.142 46.9993 110.988 38.3198 106.864 33.0236Z" fill="#141C26"/>
<path d="M117.095 97.8687L117.096 97.8683C117.096 97.8683 117.176 97.2672 116.859 96.7297L116.851 96.7151C116.833 96.6827 116.813 96.6539 116.793 96.6251L116.772 96.5939C116.737 96.5469 116.695 96.5019 116.652 96.4566C116.574 96.3749 116.483 96.2983 116.375 96.23C116.319 96.1929 116.258 96.159 116.192 96.1266C116.012 96.0406 115.796 95.975 115.54 95.9375C115.352 95.9103 115.138 95.9024 114.904 95.9095C114.81 95.9127 114.717 95.9147 114.615 95.9241L114.569 95.9269C114.569 95.9269 114.576 95.9518 114.586 95.9889C114.597 96.0279 114.611 96.0844 114.631 96.159C114.638 96.1882 114.646 96.2186 114.655 96.2521C114.688 96.3851 114.728 96.554 114.768 96.7451C114.768 96.7466 114.756 96.7837 114.726 96.8536L114.711 96.8907C114.594 97.1622 114.276 97.7894 113.568 98.6052C113.448 98.7437 113.315 98.889 113.171 99.0382C111.197 101.078 106.925 103.982 97.9359 105.607C94.8858 106.037 92.0737 106.061 89.6716 105.762C86.1199 105.321 83.4585 104.186 82.2204 102.66C82.1131 102.529 82.0148 102.394 81.9212 102.258C81.8522 102.157 81.7855 102.056 81.7239 101.953C81.7018 101.915 81.6817 101.876 81.66 101.838C81.1279 100.898 80.8962 99.8721 80.9093 98.8791C80.9262 97.6734 81.3024 96.5197 81.939 95.6329C82.4556 94.9137 83.1424 94.3703 83.9456 94.1192C84.3395 93.9965 84.7606 93.9412 85.203 93.9712C85.2922 93.9775 85.4102 93.9902 85.5575 94.0083C85.8527 94.0454 86.2651 94.1035 86.7711 94.1686C86.8279 94.1757 86.8804 94.1824 86.9396 94.1899C88.6265 94.3995 91.3127 94.6529 94.5613 94.4547C100.471 94.0948 108.25 92.235 115.314 85.8656L115.333 85.8408V85.8297C115.357 85.2961 115.285 84.3327 114.611 83.5832C114.494 83.4522 114.356 83.3282 114.2 83.2134C114.11 83.1479 114.018 83.0851 113.914 83.0267C113.81 82.9691 113.716 82.911 113.624 82.8526C113.499 82.7741 113.381 82.6959 113.276 82.6182L113.261 82.5957C113.213 82.5211 113.162 82.4485 113.114 82.3739C111.281 79.5989 108.757 77.9882 107.751 77.2501C107.276 76.9012 106.974 76.7422 106.974 76.7422C104.794 75.4144 104.475 74.974 104.678 71.3682C104.751 70.0697 104.892 68.3631 105.037 66.0494C105.056 65.7483 105.065 65.4625 105.07 65.1815C105.071 65.1144 105.073 65.0489 105.073 64.983C105.075 64.7174 105.072 64.4581 105.062 64.209L105.06 64.1376L105.054 64.061C105.043 63.8653 105.029 63.675 105.013 63.4899C105.005 63.4086 104.997 63.3269 104.989 63.2468C104.967 63.049 104.942 62.8568 104.911 62.6713C104.896 62.5766 104.878 62.4854 104.86 62.3931C104.841 62.2893 104.82 62.1879 104.798 62.0884C104.777 61.9905 104.755 61.8918 104.731 61.7975L104.73 61.7971L104.731 61.7959V61.7971C104.702 61.6807 104.668 61.5706 104.636 61.4605C104.624 61.4202 104.615 61.3784 104.602 61.3393C104.589 61.3022 104.576 61.2682 104.565 61.2311L104.552 61.1944L104.515 61.0887L104.514 61.0816C104.484 60.9963 104.452 60.9134 104.421 60.8325L104.411 60.8057L104.38 60.7291L104.342 60.6348L104.333 60.6166V60.6143C104.268 60.4615 104.199 60.3131 104.127 60.1742L104.069 60.0716C103.987 59.9354 103.902 59.8075 103.815 59.684L103.781 59.6323L103.738 59.5751C103.676 59.4902 103.613 59.4069 103.551 59.3292L103.466 59.2222C103.382 59.1231 103.299 59.0272 103.215 58.9376V58.9369L103.213 58.9226L103.21 58.9053L103.206 58.8812L103.199 58.8469L103.194 58.8125L103.183 58.7569L103.178 58.7233L103.163 58.6456L103.157 58.6179C103.127 58.4699 103.085 58.2781 103.029 58.0504L103.026 58.0338C103.011 57.979 102.997 57.9213 102.981 57.8617L102.975 57.8392C102.959 57.7773 102.942 57.7145 102.923 57.6486L102.921 57.6443C102.878 57.4915 102.829 57.3265 102.774 57.156C102.757 57.1008 102.736 57.0428 102.716 56.9855C102.677 56.8656 102.636 56.7464 102.59 56.6216C102.564 56.5502 102.535 56.4792 102.507 56.4061C102.462 56.2901 102.416 56.1745 102.365 56.0557C102.332 55.9775 102.296 55.9006 102.262 55.8216C102.209 55.704 102.153 55.5876 102.096 55.4704C102.056 55.3902 102.017 55.3109 101.975 55.2312C101.912 55.1112 101.844 54.994 101.776 54.876C101.731 54.8006 101.687 54.7244 101.642 54.6486C101.562 54.5219 101.477 54.3976 101.39 54.2737C101.346 54.2125 101.306 54.1486 101.26 54.087C101.22 54.0337 101.175 53.9844 101.133 53.9323C101.033 53.8052 100.935 53.6781 100.826 53.5585L100.813 53.5451L100.751 53.4863C100.611 53.3359 100.464 53.1891 100.306 53.0541L100.277 53.03C100.208 52.9708 100.135 52.914 100.062 52.8587L100.055 52.8524L100.028 52.8335C99.9653 52.7861 99.9002 52.7407 99.8347 52.6965L99.8 52.6721L99.8138 52.6839C99.7447 52.6326 99.6188 52.5663 99.4538 52.4925C99.3962 52.4676 99.3331 52.4404 99.2652 52.4127C98.925 52.2766 98.4651 52.1219 97.9205 51.977C97.8865 51.9675 97.8506 51.9593 97.8175 51.951C97.3648 51.8334 96.8616 51.724 96.3279 51.6392C96.1484 51.6108 95.9664 51.5843 95.7817 51.5622C95.6945 51.5512 95.6049 51.5468 95.5173 51.5373C95.4817 51.5338 95.4454 51.531 95.4099 51.5275C94.9908 51.4872 94.5649 51.4596 94.1371 51.4635L94.1118 51.4643C93.5608 51.4695 93.0087 51.5152 92.4829 51.6194C92.6065 51.4142 92.9408 51.1877 93.2763 50.9982C93.6938 50.7618 94.1126 50.5862 94.1126 50.5862C93.8738 50.6039 93.6291 50.6379 93.3848 50.6773C93.3063 50.6904 93.2269 50.701 93.1476 50.7156C93.0959 50.7251 93.045 50.7353 92.9941 50.7448L92.9495 50.7539C92.906 50.7626 92.8646 50.7717 92.822 50.7807C91.5933 51.0424 90.4109 51.4849 89.7533 51.7532C89.6602 51.7911 89.5785 51.8255 89.5066 51.8559L89.4652 51.8732C89.3997 51.8811 89.3326 51.891 89.2671 51.8989L89.2687 51.8969C89.7533 51.0006 90.4689 50.5175 91.0135 50.2625C91.1087 50.2179 91.1994 50.1777 91.2819 50.1465C91.3127 50.1346 91.3384 50.1267 91.366 50.1165C91.4445 50.0889 91.5116 50.0672 91.5697 50.0502C91.6983 50.0127 91.782 49.9961 91.782 49.9961C91.7236 49.9977 91.6691 50.0052 91.6119 50.0083C91.5633 50.0115 91.5156 50.0158 91.4678 50.0198C91.3968 50.0249 91.3249 50.0289 91.2551 50.0352C91.2133 50.0395 91.1694 50.0403 91.1276 50.0447C89.7691 50.1919 88.561 50.6525 87.5257 51.2244C86.8118 51.6186 86.1775 52.0646 85.6439 52.5043C85.5014 52.5339 85.3554 52.5643 85.2074 52.5959C83.7222 52.9128 82.0254 53.3213 80.2415 53.8687C79.5827 54.0708 78.9118 54.2922 78.2349 54.5346C77.7084 54.7236 77.1776 54.9296 76.6455 55.1459C76.2647 55.3006 75.8838 55.4632 75.5033 55.633C72.7642 56.8557 70.0654 58.479 67.7975 60.6569C67.7158 60.7354 67.6302 60.8092 67.5501 60.8889C67.3527 61.0851 67.1625 61.2907 66.9726 61.496C66.8949 61.5796 66.8132 61.6582 66.737 61.7434C66.6411 61.8492 66.5527 61.9633 66.4592 62.0718C66.0365 62.564 65.6299 63.0743 65.2538 63.617C64.9732 64.0196 64.7087 64.4375 64.4573 64.8701L64.4265 64.921C63.9071 65.8229 63.4537 66.7883 63.0775 67.8231C62.8897 68.3409 62.7207 68.8757 62.5727 69.4279C62.534 69.5743 62.4958 69.7212 62.4594 69.8699L62.4393 69.9473C62.296 70.5468 62.1812 71.17 62.0884 71.8114C62.0707 71.9377 62.0509 72.0624 62.034 72.1907C61.9937 72.5108 61.9621 72.8372 61.9353 73.1679C61.9104 73.4702 61.8919 73.7769 61.8781 74.0879L61.8749 74.1594C61.869 74.3113 61.8603 74.4625 61.8572 74.6168C61.854 74.7928 61.8552 74.9724 61.8552 75.1516C61.8544 75.1934 61.8544 75.2349 61.854 75.2771C61.8552 75.6272 61.8611 75.98 61.8765 76.3408L61.8804 76.3984C61.8958 76.7564 61.9211 77.1218 61.9523 77.4905C61.9653 77.6436 61.9783 77.7971 61.9937 77.9523C61.9977 77.9898 62 78.0276 62.0036 78.0659C62.0123 78.152 62.0229 78.2392 62.0324 78.3248C62.0778 78.7325 62.1326 79.1474 62.1966 79.5681C62.2136 79.6849 62.2293 79.8013 62.2483 79.919C62.3075 80.2872 62.3714 80.6582 62.4441 81.0359C62.4441 81.0359 62.3781 80.5516 62.4192 79.8392C62.4294 79.6754 62.4448 79.5002 62.4669 79.3135C62.5179 78.909 62.6043 78.463 62.7515 78.0028C62.7878 77.8903 62.8285 77.777 62.8723 77.663C62.8904 77.6132 62.9125 77.5643 62.9327 77.5146C63.0199 77.3038 63.1178 77.0922 63.2358 76.8835C63.2626 77.0323 63.291 77.1803 63.321 77.3302L63.3305 77.3788L63.3297 77.4467C63.3289 77.539 63.3274 77.6385 63.3266 77.7439C63.325 77.9712 63.325 78.2277 63.3274 78.5076C63.3305 78.7882 63.3356 79.0893 63.3459 79.4086C63.3866 80.7486 63.5022 82.366 63.7915 83.7438C63.7915 83.7438 63.846 81.2384 64.2703 80.9546C64.2703 80.9546 65.0119 85.5949 65.7002 87.3465C65.7894 87.5734 65.8782 87.7542 65.9638 87.8675L65.9461 87.4073L65.8482 84.8284C65.8482 84.8284 65.8525 84.7321 65.862 84.5632C66.3779 85.6198 66.9651 86.7059 67.6278 87.8217C67.8121 88.1303 67.9996 88.4406 68.195 88.7539C66.9198 89.8752 65.7408 91.4615 64.8946 93.3587C64.7597 93.6618 64.6326 93.9728 64.5153 94.2909C64.449 94.4721 64.3859 94.6572 64.3255 94.8435C64.3062 94.9019 64.288 94.9607 64.2703 95.0199C64.2296 95.1509 64.1897 95.282 64.1522 95.4154C64.1329 95.4833 64.1147 95.5512 64.0966 95.6198C64.0611 95.7524 64.0271 95.8862 63.9955 96.0216C63.9802 96.0848 63.964 96.1475 63.951 96.2111C63.9071 96.4045 63.8661 96.5986 63.8298 96.7956L63.827 96.8137C63.7915 97.0111 63.7599 97.2104 63.7319 97.4109C63.7228 97.4756 63.7149 97.5407 63.7074 97.6051C63.6889 97.7483 63.6727 97.892 63.6589 98.0361C63.651 98.1095 63.6451 98.1825 63.6388 98.2563C63.6265 98.4015 63.617 98.5488 63.6095 98.6952C63.6056 98.7615 63.6017 98.8278 63.5993 98.8945C63.5906 99.1061 63.5855 99.3196 63.5863 99.5347L63.5871 99.5623C63.5871 99.7277 63.5918 99.8927 63.5981 100.059C63.6048 100.227 63.6151 100.394 63.6273 100.563L63.6317 100.631L63.634 100.673C63.6502 100.878 63.6719 101.083 63.6972 101.29C63.7051 101.356 63.7165 101.421 63.7252 101.487C63.7445 101.628 63.7635 101.77 63.7879 101.913C63.8006 101.992 63.816 102.072 63.8298 102.151C63.8543 102.281 63.8783 102.411 63.9064 102.542C63.9241 102.626 63.9435 102.71 63.9616 102.795C63.9912 102.922 64.0212 103.05 64.0544 103.178C64.0757 103.263 64.0982 103.349 64.1222 103.435C64.1578 103.564 64.1937 103.692 64.2332 103.821C64.2584 103.906 64.2841 103.991 64.3109 104.076C64.3539 104.209 64.3997 104.343 64.4459 104.477C64.4743 104.557 64.5007 104.637 64.5303 104.717C64.5844 104.865 64.6424 105.013 64.7024 105.162C64.7289 105.228 64.7533 105.294 64.7814 105.361C64.9602 105.79 65.1607 106.222 65.384 106.654C65.418 106.717 65.4543 106.781 65.4874 106.846C65.5684 106.997 65.6508 107.149 65.7369 107.3C65.7823 107.379 65.8296 107.458 65.8774 107.537C65.9583 107.673 66.04 107.811 66.1264 107.947C66.1789 108.032 66.2342 108.117 66.289 108.202C66.3747 108.333 66.4623 108.464 66.5519 108.595C66.6119 108.683 66.6723 108.769 66.7335 108.856C66.8254 108.987 66.9209 109.117 67.0192 109.247C67.0828 109.333 67.1463 109.419 67.2118 109.504C67.3156 109.638 67.4214 109.772 67.5307 109.905C67.5954 109.986 67.6606 110.068 67.7277 110.149C67.8492 110.294 67.9759 110.44 68.1038 110.584C68.1638 110.653 68.2206 110.721 68.2818 110.789C68.4736 111.002 68.6702 111.215 68.8754 111.426L68.8746 111.425C68.8734 111.423 68.755 111.253 68.594 110.954L68.5881 110.944C68.5585 110.888 68.5269 110.827 68.4945 110.761L68.4843 110.743C68.4503 110.675 68.416 110.602 68.3805 110.526L68.3734 110.512C68.3363 110.431 68.298 110.344 68.2601 110.253C67.9578 109.526 67.6641 108.518 67.702 107.393C67.8188 107.549 67.938 107.7 68.0564 107.854C68.1942 108.134 68.3694 108.482 68.5739 108.873C68.6425 109.003 68.714 109.138 68.7882 109.277C69.0885 109.83 69.4366 110.446 69.8155 111.061C70.2714 111.799 70.7722 112.537 71.2897 113.175L71.2889 113.175C71.2865 113.17 70.6866 111.918 70.4857 111.096C70.4293 110.865 70.4024 110.667 70.4316 110.542C70.4802 110.591 70.5283 110.641 70.5769 110.691C70.625 110.741 70.6736 110.79 70.7225 110.84C70.818 110.967 70.9388 111.128 71.0742 111.306L71.1425 111.395C71.2096 111.484 71.2786 111.575 71.3536 111.672L71.3576 111.678C71.4436 111.79 71.534 111.906 71.6271 112.027C72.4714 113.112 73.5946 114.499 74.3954 115.261C74.6626 115.515 74.8935 115.7 75.0668 115.78L73.9112 113.709C76.5267 115.838 87.3197 118.571 97.9525 115.52C99.2356 115.153 100.518 114.699 101.781 114.149C102.544 113.819 103.3 113.457 104.048 113.055L104.156 112.994C104.679 112.708 105.198 112.401 105.713 112.077L105.725 112.07C106.112 111.826 106.495 111.571 106.874 111.307C107.509 110.859 108.138 110.388 108.751 109.876L108.753 109.875L108.755 109.873C108.79 109.842 108.827 109.811 108.864 109.78C109.471 109.249 110.04 108.704 110.568 108.148C111.266 107.414 111.893 106.664 112.46 105.912L112.502 105.857C112.64 105.672 112.776 105.487 112.908 105.305L112.945 105.251C112.988 105.188 113.026 105.129 113.068 105.067C113.252 104.803 113.433 104.539 113.602 104.277C113.643 104.214 113.685 104.15 113.726 104.087C113.814 103.948 113.898 103.809 113.983 103.672C114.047 103.564 114.113 103.457 114.175 103.35C114.244 103.234 114.313 103.118 114.38 103.003C114.499 102.793 114.615 102.585 114.726 102.378C114.77 102.296 114.812 102.217 114.854 102.136C114.939 101.975 115.022 101.816 115.101 101.658C115.138 101.585 115.175 101.511 115.21 101.438L115.243 101.369C115.341 101.171 115.435 100.973 115.526 100.78L115.543 100.738C115.886 100.419 116.152 100.115 116.365 99.8248C116.396 99.7837 116.428 99.7419 116.457 99.7008C116.931 99.0169 117.086 98.4118 117.095 97.8687Z" fill="#856249"/>
<path d="M53.5761 90.1819C53.5666 90.1333 53.5583 90.0856 53.55 90.0378L53.5583 90.0347C53.434 89.3499 53.3396 88.6474 53.2721 87.9294C53.2678 87.8781 53.2607 87.8288 53.2552 87.7779C53.1368 87.815 53.0034 87.9717 52.8692 88.1856C52.8191 88.2657 52.7697 88.3533 52.7204 88.4457C52.3612 89.1206 52.0376 90.0568 52.0376 90.0568C52.0628 89.7442 52.0972 89.4198 52.1355 89.0938C52.1398 89.0559 52.1453 89.0188 52.1501 88.9805C52.1899 88.6486 52.2361 88.3139 52.2854 87.9811C52.291 87.9409 52.2973 87.901 52.3032 87.8616C52.3608 87.4866 52.4216 87.114 52.4848 86.7545C52.493 86.7075 52.5005 86.6621 52.5092 86.6159L52.514 86.5923C52.5215 86.5508 52.5286 86.5086 52.5361 86.4671C52.5467 86.4052 52.5578 86.3432 52.5692 86.282C52.6209 85.9971 52.6742 85.7216 52.7259 85.4603C52.7729 85.2243 52.8183 85.0009 52.8621 84.7905L52.8759 84.7226C52.8822 84.6895 52.8893 84.6595 52.896 84.6279C52.9027 84.5971 52.909 84.5652 52.9154 84.5332L52.9177 84.5221C52.9292 84.4697 52.941 84.4156 52.9517 84.3659L52.9548 84.352C52.9647 84.3027 52.9742 84.2609 52.984 84.2147C53.0002 84.1425 53.0156 84.0683 53.0306 84.0008L53.0349 83.9818C53.0472 83.927 53.0586 83.8713 53.0701 83.8212C53.0866 83.749 53.102 83.6827 53.1151 83.6199L53.1159 83.6179L53.1166 83.6164C53.1245 83.5804 53.132 83.5493 53.1395 83.5161L53.1411 83.5102C53.1482 83.4802 53.1545 83.4486 53.1612 83.4222C53.1766 83.3559 53.1904 83.2959 53.2015 83.2497L53.2114 83.2086L53.2153 83.1936L53.2268 83.1451L53.2347 83.1116L53.2362 83.1068L53.2307 83.1112L53.1581 83.1771C53.0941 83.2339 53.0286 83.2896 52.9686 83.3527L52.9027 83.4253C52.8321 83.5043 52.7634 83.5871 52.6995 83.6752L52.6655 83.7178C52.5862 83.8283 52.5124 83.9443 52.4421 84.0623V84.0627L52.4331 84.0781L52.4327 84.0789L52.4042 84.1314C52.3881 84.1602 52.3727 84.1898 52.3573 84.219C52.3166 84.2928 52.2748 84.3647 52.2385 84.4393L52.2365 84.442L52.2353 84.4444L52.2333 84.4507L52.2191 84.4787L52.2061 84.5068C52.1493 84.6248 52.0976 84.742 52.049 84.8576C51.9117 85.1828 51.8055 85.4927 51.7258 85.7516C51.6982 85.8435 51.6721 85.9308 51.6512 86.0077C51.605 86.1747 51.5726 86.3053 51.558 86.3693L51.5573 86.3748L51.547 86.4178V86.417V86.4178L51.5509 86.3677C51.5565 86.2682 51.5679 86.1695 51.5758 86.0709C51.5912 85.8633 51.6042 85.6549 51.6271 85.4489C51.6453 85.2752 51.6721 85.1055 51.6966 84.933C51.7045 84.8793 51.7128 84.8253 51.7206 84.772C51.7313 84.6926 51.7424 84.6133 51.7554 84.5344C51.7668 84.4606 51.783 84.388 51.7968 84.3157L51.7976 84.3102V84.3098L51.813 84.2289L51.8177 84.2068C51.8339 84.1184 51.8509 84.0284 51.8679 83.94C51.8738 83.9057 51.8801 83.8713 51.8872 83.837L51.8994 83.7758L51.9018 83.7644C51.9077 83.7355 51.914 83.7059 51.9204 83.6775C51.9275 83.6412 51.9373 83.6061 51.9448 83.5717C51.974 83.4419 52.0056 83.3144 52.036 83.1861L52.0411 83.1648C52.0636 83.0693 52.0845 82.9734 52.109 82.8795L52.1098 82.8751L52.1122 82.8688L52.1197 82.8412C52.1698 82.6478 52.2254 82.4587 52.2811 82.2681L52.3103 82.1631C52.321 82.128 52.33 82.0909 52.3411 82.0554C52.4331 81.7463 52.5313 81.4413 52.6359 81.1429L52.6493 81.1054C52.7389 80.852 52.8297 80.6026 52.9248 80.3567L52.9355 80.3286C52.9785 80.2205 53.0227 80.1167 53.0649 80.0097L53.072 79.994C53.1368 79.8345 53.2007 79.6743 53.267 79.5199L53.2674 79.5184V79.5176L53.2686 79.5156L53.2761 79.4963C53.2939 79.4576 53.3349 79.3636 53.3988 79.2255L53.4 79.2231L53.4087 79.2046V79.2042C53.4336 79.1497 53.4573 79.0968 53.4813 79.0416C53.5204 78.9536 53.5599 78.8667 53.5985 78.7803L53.6337 78.7045L53.6345 78.701L54.3082 77.4905C54.3362 77.4392 54.3638 77.3887 54.3907 77.3377L54.4049 77.3133L54.4392 77.2509C54.5126 77.1167 54.5864 76.9817 54.6583 76.8507C54.7664 76.6557 54.8702 76.4694 54.9669 76.2946C55.1646 75.9386 55.334 75.6367 55.437 75.4547C55.4938 75.3537 55.5313 75.287 55.5424 75.2664L55.5471 75.2574H55.5463L55.5439 75.2554L55.5376 75.2507C55.5116 75.2329 55.3071 75.092 54.9705 74.8879C54.5864 74.6567 54.0284 74.3429 53.3495 74.0279C53.132 73.9265 52.9031 73.8263 52.6632 73.728C52.3758 73.61 52.0743 73.4955 51.7605 73.3901C51.6796 73.3633 51.5947 73.3416 51.513 73.3159C51.2502 73.233 50.9806 73.1588 50.7047 73.0929L50.6889 73.0894C50.4995 73.044 50.3112 72.9966 50.1171 72.9607C49.9647 72.9319 49.812 72.9035 49.6569 72.8822C49.583 72.8719 49.5065 72.866 49.4319 72.8593C49.3577 72.8518 49.2843 72.8443 49.2105 72.8368C49.0017 72.8182 48.7921 72.8088 48.5825 72.8036C48.4807 72.8013 48.3789 72.7981 48.277 72.8005C47.8208 72.8107 47.3728 72.851 46.9328 72.9137L46.8526 72.926C46.0593 73.0448 45.294 73.2445 44.5654 73.5196C44.318 73.6127 44.0741 73.7134 43.8345 73.8231C43.7666 73.8547 43.6991 73.8878 43.6316 73.921C43.5495 73.9608 43.4663 73.9999 43.3853 74.0414C42.6623 74.4135 41.987 74.8639 41.3669 75.377L41.3448 75.3955C40.8097 75.8391 40.3183 76.3309 39.8746 76.8653C39.7476 77.0177 39.6248 77.1736 39.5064 77.3326C39.3659 77.5205 39.2305 77.7123 39.1015 77.9088C38.8587 78.2802 38.6373 78.6666 38.4384 79.0672C38.3685 79.2077 38.2999 79.3494 38.2359 79.4931C38.2241 79.5199 38.2134 79.5484 38.202 79.5756C37.7927 80.5122 37.5058 81.5147 37.3641 82.561C37.336 82.7662 37.3132 82.973 37.2962 83.1822L37.2903 83.2603C37.278 83.4257 37.2697 83.5919 37.2646 83.7588C37.2583 83.9633 37.2571 84.1693 37.2622 84.3757C37.263 84.4093 37.2662 84.4408 37.267 84.4736C37.2721 84.6342 37.2784 84.7937 37.2903 84.9527L37.2993 85.0364C37.3025 85.0735 37.3061 85.1102 37.3092 85.1465C37.3199 85.2724 37.3317 85.3972 37.3463 85.5199L37.3514 85.5483V85.5562L37.3522 85.5574C37.3609 85.6194 37.3716 85.6817 37.3803 85.7441C37.3964 85.8558 37.4118 85.9683 37.4304 86.0788C37.445 86.1593 37.4627 86.2382 37.4781 86.318C37.4991 86.421 37.5172 86.5256 37.5413 86.6278C37.5602 86.7122 37.5827 86.7947 37.6036 86.8768L37.6175 86.9348L37.64 87.0213L37.6569 87.0872L37.6778 87.1669C37.7015 87.2526 37.7295 87.3382 37.7548 87.4235C37.7824 87.5134 37.8093 87.605 37.8389 87.6934C37.8673 87.781 37.8997 87.8671 37.9312 87.9539L37.9569 88.0234C37.9782 88.0853 37.9999 88.1481 38.0248 88.2101C38.0587 88.2977 38.0962 88.3849 38.1325 88.4729C38.1661 88.5526 38.1988 88.6332 38.2336 88.7125C38.2537 88.7579 38.275 88.8021 38.2959 88.8455C38.3176 88.8893 38.337 88.9339 38.3575 88.9777C38.393 89.0535 38.4285 89.1281 38.4664 89.2031C38.5118 89.2931 38.5596 89.3819 38.6073 89.4703C38.6452 89.5401 38.6815 89.61 38.7198 89.6791C38.7707 89.7698 38.8256 89.8594 38.8797 89.9498C38.9179 90.0126 38.955 90.0765 38.9945 90.1405C39.0521 90.232 39.1121 90.3208 39.1729 90.4104C39.212 90.47 39.251 90.5288 39.2909 90.5864C39.3549 90.6776 39.4212 90.7676 39.4879 90.858C39.5269 90.9113 39.5664 90.9645 39.6063 91.0166C39.6765 91.1094 39.7499 91.1994 39.8237 91.289C39.8616 91.3367 39.9003 91.3849 39.941 91.4315C40.0179 91.523 40.0976 91.6126 40.1786 91.7022C40.216 91.7444 40.2539 91.7863 40.2934 91.8285C40.3771 91.9201 40.4635 92.0097 40.5515 92.0965C40.5894 92.1336 40.6253 92.1715 40.6632 92.2086C40.7544 92.2978 40.8491 92.3862 40.9427 92.473C40.9786 92.505 41.0141 92.5374 41.0496 92.5701C41.1483 92.6577 41.2489 92.7442 41.3515 92.829C41.3855 92.857 41.4179 92.8855 41.4518 92.9127C41.5584 92.9999 41.6669 93.0832 41.7762 93.1665C41.8074 93.189 41.8398 93.2138 41.8702 93.2371C41.9846 93.3204 42.0995 93.4017 42.2163 93.4814L42.3031 93.5406C42.4239 93.6216 42.5466 93.7009 42.6706 93.7767L42.7495 93.8244C42.8778 93.903 43.0088 93.976 43.1406 94.0494L43.2085 94.0873C43.3451 94.1611 43.4832 94.2309 43.6218 94.2996L43.6814 94.3276C43.8246 94.3971 43.9687 94.4626 44.1151 94.5262L44.1668 94.5487C44.3168 94.6114 44.468 94.671 44.6199 94.729L44.6625 94.7444C44.8196 94.8017 44.9763 94.8565 45.1366 94.9078L45.1689 94.9185C45.2467 94.9426 45.3264 94.9635 45.4049 94.9864C45.4906 95.0112 45.5758 95.0381 45.6623 95.0614L45.6863 95.0681C45.8557 95.1123 46.0262 95.1525 46.1983 95.1892L46.2129 95.1936C46.2136 95.194 46.2152 95.194 46.2156 95.1944C46.3893 95.2311 46.5649 95.2642 46.7417 95.2918L46.75 95.2946C47.2927 95.3818 47.8484 95.4308 48.414 95.4375C48.5486 95.4399 48.6832 95.4414 48.8182 95.4399C48.9993 95.4355 49.1852 95.4237 49.3719 95.4083C49.6265 95.3878 49.8842 95.3574 50.1447 95.3183C50.374 95.2843 50.6021 95.2441 50.8302 95.1963C51.1855 95.1233 51.5363 95.0365 51.8746 94.9382C52.8893 94.6434 53.7856 94.2503 54.3216 93.8505C54.3216 93.8505 53.9692 92.2891 53.6708 90.7029C53.6384 90.5284 53.6064 90.354 53.5761 90.1819Z" fill="#856249"/>
<path d="M99.7992 52.672L99.8013 52.673L99.7957 52.6689L99.7992 52.672Z" fill="#856249"/>
<path d="M78.9082 31.534L78.7792 29.9526L79.5709 28.2002L79.8839 28.1299C79.3653 27.8892 78.7492 27.7175 78.036 27.6287C76.6076 27.4487 74.794 27.6141 72.7279 28.1481C70.6617 28.6785 68.3449 29.5705 65.888 30.794C60.9738 33.2395 55.5031 37.0083 50.2389 41.8108C48.402 43.4858 46.6891 45.1972 45.1143 46.9136C43.5845 48.5788 42.1858 50.2495 40.9307 51.8969C38.3818 55.2422 36.4281 58.496 35.1806 61.3985C34.3474 63.3324 33.8319 65.1093 33.6437 66.63C33.5047 67.7355 33.541 68.7025 33.7261 69.5013C33.7861 69.7598 33.8655 69.9947 33.9551 70.2192C34.1414 70.6913 34.3861 71.0982 34.7022 71.4467L37.8873 74.7834L38.2287 75.1405L38.2512 75.1165C38.3483 75.004 38.4477 74.8919 38.5488 74.7822L38.5756 74.753C38.6123 74.7135 38.6506 74.6764 38.6873 74.6385C38.7828 74.5386 38.8795 74.4388 38.9782 74.3413C39.0394 74.2809 39.1013 74.2229 39.1637 74.1641C39.2245 74.1069 39.2833 74.0477 39.3448 73.9912C39.3729 73.966 39.4013 73.9427 39.4297 73.9174C39.4944 73.8586 39.5615 73.801 39.6286 73.743C39.7218 73.6625 39.8153 73.5827 39.9116 73.5042C39.9677 73.4584 40.0241 73.413 40.0809 73.3676L40.1058 73.3483C40.2068 73.269 40.3095 73.1912 40.4117 73.1146C40.4764 73.0661 40.5415 73.0187 40.607 72.9714C40.7132 72.896 40.8217 72.821 40.9307 72.7476C40.9962 72.7038 41.0609 72.66 41.1272 72.6169C41.2389 72.5443 41.353 72.4737 41.4671 72.4042C41.5338 72.3639 41.5981 72.3237 41.6644 72.2854C41.784 72.2152 41.9052 72.1488 42.0259 72.0825C42.0907 72.0478 42.1542 72.0115 42.2189 71.9776L42.2915 71.9393L42.2959 71.9262C43.0584 69.8151 44.2006 67.5232 45.6815 65.1353C47.5006 62.2025 49.8249 59.1263 52.5845 56.0628C54.3199 54.1355 56.2254 52.2134 58.2829 50.3363C60.9446 47.9102 63.6581 45.7454 66.3344 43.8698C68.1373 42.6061 69.9213 41.4808 71.6626 40.4937C71.8276 40.4002 71.9934 40.3031 72.1576 40.2127C72.6217 39.9558 73.0811 39.7119 73.5382 39.4766C74.5328 38.9624 75.51 38.4959 76.4628 38.0838L75.9959 37.523L75.9185 37.4306L72.0506 32.7793L72.0806 29.9454L72.0443 29.9044L74.3686 29.2113L78.9082 31.534Z" fill="#3478AD"/>
<path d="M117.095 97.8687L117.096 97.8683C117.096 97.8683 117.176 97.2672 116.859 96.7297L116.851 96.7151C116.833 96.6827 116.813 96.6539 116.793 96.6251L116.772 96.5939C116.737 96.5469 116.695 96.5019 116.652 96.4566C116.574 96.3749 116.483 96.2983 116.375 96.23C116.319 96.1929 116.258 96.159 116.192 96.1266C116.012 96.0406 115.796 95.9751 115.539 95.9376C115.352 95.9103 115.138 95.9024 114.904 95.9095C114.81 95.9127 114.717 95.9147 114.615 95.9241L114.569 95.9269C114.569 95.9269 114.576 95.9518 114.586 95.9889C114.597 96.0279 114.611 96.0844 114.631 96.159C114.638 96.1882 114.646 96.2186 114.655 96.2521C114.688 96.3851 114.728 96.554 114.768 96.7451C114.768 96.7467 114.756 96.7838 114.726 96.8536L114.711 96.8907C114.594 97.1623 114.276 97.7894 113.568 98.6052C113.448 98.7437 113.315 98.889 113.171 99.0382C111.197 101.078 106.925 103.982 97.9358 105.607C94.8857 106.037 92.0736 106.061 89.6716 105.762C86.1198 105.321 83.4585 104.186 82.2204 102.66C82.113 102.529 82.0148 102.394 81.9212 102.258C81.8521 102.157 81.7854 102.056 81.7239 101.953C81.7018 101.915 81.6816 101.876 81.6599 101.838C81.1279 100.898 80.8962 99.8721 80.9092 98.8791C80.9262 97.6734 81.3024 96.5197 81.939 95.6329C82.4556 94.9137 83.1424 94.3703 83.9455 94.1193C84.3394 93.9965 84.7606 93.9412 85.203 93.9712C85.2922 93.9776 85.4102 93.9902 85.5574 94.0083C85.8526 94.0454 86.2651 94.1035 86.7711 94.1686C86.8279 94.1757 86.8804 94.1824 86.9396 94.1899C88.6265 94.3995 91.3127 94.6529 94.5613 94.4547C100.471 94.0948 108.25 92.235 115.314 85.8656L115.333 85.8408V85.8297C115.357 85.2961 115.285 84.3327 114.611 83.5832C114.494 83.4522 114.356 83.3282 114.2 83.2134C114.11 83.1479 114.018 83.0851 113.914 83.0267C113.81 82.9691 113.716 82.9111 113.624 82.8526C113.499 82.7741 113.381 82.696 113.276 82.6182L113.261 82.5957C113.213 82.5211 113.162 82.4485 113.114 82.3739C111.281 79.5989 108.757 77.9882 107.751 77.2501C107.276 76.9012 106.974 76.7422 106.974 76.7422C104.794 75.4145 104.475 74.974 104.678 71.3682C104.751 70.0697 104.892 68.3631 105.037 66.0494C105.056 65.7483 105.065 65.4625 105.07 65.1815C105.071 65.1144 105.073 65.0489 105.073 64.983C105.075 64.7174 105.072 64.4581 105.062 64.209L105.059 64.1376L105.054 64.061C105.043 63.8653 105.029 63.675 105.013 63.4899C105.005 63.4086 104.997 63.3269 104.989 63.2468C104.967 63.0491 104.942 62.8568 104.911 62.6713C104.896 62.5766 104.878 62.4854 104.86 62.3931C104.841 62.2893 104.82 62.1879 104.798 62.0884C104.777 61.9905 104.755 61.8918 104.731 61.7975L104.73 61.7971L104.731 61.7959V61.7971C104.702 61.6807 104.668 61.5706 104.636 61.4605C104.624 61.4202 104.615 61.3784 104.602 61.3393C104.589 61.3022 104.576 61.2682 104.565 61.2311L104.552 61.1944L104.515 61.0887L104.514 61.0816C104.484 60.9963 104.452 60.9134 104.421 60.8325L104.411 60.8057L104.38 60.7291L104.342 60.6348L104.333 60.6166V60.6143C104.268 60.4615 104.199 60.3131 104.127 60.1742L104.069 60.0716C103.987 59.9354 103.902 59.8075 103.815 59.684L103.781 59.6323L103.738 59.5751C103.676 59.4902 103.613 59.4069 103.551 59.3292L103.466 59.2222C103.382 59.1231 103.299 59.0272 103.215 58.9376L103.214 58.9369C103.111 58.8283 103.008 58.7257 102.903 58.631C102.783 58.5564 102.665 58.4893 102.547 58.4301C102.508 58.41 102.469 58.395 102.429 58.3776C102.352 58.3413 102.272 58.3058 102.194 58.2766C102.148 58.2592 102.103 58.2454 102.058 58.23C101.988 58.2075 101.916 58.1846 101.845 58.166C101.799 58.1546 101.751 58.1447 101.705 58.1353C101.636 58.1207 101.568 58.1084 101.499 58.0986C101.452 58.0922 101.406 58.0867 101.359 58.0828C101.291 58.0761 101.222 58.0729 101.154 58.0701C101.108 58.0689 101.063 58.0678 101.018 58.0689C100.948 58.0701 100.879 58.0737 100.809 58.0792C100.767 58.0824 100.723 58.0859 100.681 58.0907L100.588 58.1045C100.545 58.112 100.503 58.1167 100.459 58.125C100.422 58.1313 100.384 58.1376 100.347 58.1451C100.261 58.1633 100.175 58.1854 100.09 58.2099L100.015 58.2292C99.7901 58.2963 99.5655 58.3823 99.3437 58.4834L99.2695 58.5185C99.183 58.5584 99.0962 58.6002 99.0098 58.6444L98.9103 58.6981C98.8318 58.7387 98.7532 58.7821 98.6755 58.826L98.5689 58.8883C98.492 58.9329 98.4146 58.9787 98.3376 59.0264L98.2327 59.0912C98.1525 59.1413 98.0716 59.193 97.9907 59.2455L97.9015 59.3039C97.8103 59.3635 97.7188 59.4243 97.6276 59.4863L97.5731 59.523C97.4705 59.5928 97.3663 59.6647 97.2621 59.7365L97.2586 59.7396L97.2424 59.7495H97.2436C97.0494 59.8829 96.8556 60.0195 96.6594 60.1556C96.4953 60.2701 96.3279 60.3846 96.1598 60.4982L96.0789 60.5539C95.9095 60.6675 95.7383 60.7784 95.5666 60.889L95.4801 60.943C95.3073 61.0504 95.134 61.155 94.9592 61.2544L94.8672 61.3053C94.6916 61.4044 94.5128 61.4968 94.3324 61.5852L94.2424 61.6274C94.0601 61.7142 93.8738 61.7951 93.6855 61.8662L93.6078 61.8958C93.4136 61.9668 93.2162 62.032 93.0157 62.0848L92.9632 62.0971C92.7513 62.1515 92.5394 62.1954 92.3215 62.225C91.9556 62.2743 91.5901 62.2905 91.2227 62.2921C90.6244 62.2948 90.024 62.2463 89.421 62.1567C89.2201 62.1263 89.0172 62.0908 88.8151 62.0537C88.7433 62.0402 88.6719 62.0292 88.6008 62.0154C88.0751 61.9132 87.5462 61.7912 87.0138 61.6629C86.79 61.6096 86.5666 61.5556 86.3421 61.5011C85.9813 61.4131 85.617 61.3282 85.2523 61.245C85.1801 61.2284 85.1102 61.2102 85.0372 61.1944L85.0408 61.194C84.9895 61.183 84.9378 61.1723 84.8861 61.1617C84.8052 61.1439 84.7242 61.1266 84.6441 61.1084C84.5668 61.093 84.489 61.0776 84.4121 61.0622L84.3718 61.0539L84.345 61.0488C84.2739 61.0346 84.2033 61.0204 84.1318 61.0066C83.9665 60.9754 83.7999 60.9458 83.6333 60.9182C83.584 60.9095 83.5343 60.9032 83.4853 60.8957C83.3614 60.8763 83.2379 60.8574 83.1147 60.8408C83.0524 60.8317 82.9888 60.8258 82.9273 60.8183L82.9134 60.8167C82.8057 60.8029 82.6976 60.7903 82.5898 60.7796C82.518 60.7725 82.4454 60.7666 82.3747 60.7599C82.3423 60.7575 82.31 60.7556 82.2768 60.7528C82.2034 60.7473 82.1288 60.7413 82.0546 60.737C81.984 60.7323 81.9129 60.7283 81.8411 60.7252C81.727 60.7204 81.6153 60.7177 81.5029 60.7157C81.4689 60.7153 81.435 60.7149 81.401 60.7141C81.3702 60.7137 81.3379 60.7125 81.3063 60.7125C81.1666 60.7129 81.0249 60.7157 80.8828 60.722C80.8461 60.7232 80.8074 60.7228 80.7699 60.7256C80.5899 60.7331 80.4092 60.7473 80.2276 60.7662C80.1807 60.7709 80.1337 60.7781 80.0859 60.7828C79.9687 60.7966 79.8511 60.8124 79.7331 60.8305L79.6806 60.838C79.6163 60.8475 79.5507 60.8597 79.4868 60.8712C79.366 60.8933 79.2464 60.9166 79.1253 60.9426C79.0554 60.9584 78.986 60.9734 78.9165 60.9912C78.7973 61.0196 78.6769 61.0516 78.5565 61.0855C78.4883 61.1045 78.42 61.1234 78.3509 61.1447C78.2211 61.1842 78.0916 61.2284 77.9614 61.2746C77.9022 61.2951 77.8434 61.3136 77.7842 61.3369C77.5935 61.4068 77.4049 61.4833 77.213 61.5686C75.7152 62.431 74.4286 63.6079 73.4055 64.981C73.0649 65.4381 72.7531 65.9176 72.4729 66.4141C72.1761 66.9398 71.9188 67.4857 71.695 68.0449C71.6295 68.2083 71.5671 68.3717 71.5079 68.5375C71.41 68.8166 71.3165 69.098 71.2372 69.3825C71.2289 69.4129 71.2222 69.4441 71.2139 69.4749C71.1263 69.7958 71.0505 70.1194 70.9881 70.4462C70.9218 70.7872 70.8713 71.1302 70.8334 71.4747C70.8129 71.661 70.7939 71.8469 70.7817 72.0336C70.7493 72.5352 70.7529 73.0393 70.7833 73.5417C70.7852 73.5871 70.7892 73.6333 70.7924 73.6782C70.801 73.8069 70.8054 73.9344 70.8192 74.0631C70.8563 74.4206 70.9072 74.7782 70.979 75.133C71.0043 75.2641 71.0398 75.3876 71.0714 75.5139C71.101 75.6347 71.1278 75.7594 71.1602 75.8774V75.8766C71.41 76.7828 71.7716 77.599 72.1998 78.3406C73.8318 81.1602 76.5152 82.8463 78.4595 83.7513C79.2157 84.0848 80.005 84.3828 80.8252 84.6445C80.8252 84.6445 80.7865 84.6686 80.7265 84.7092C80.5817 84.7455 80.4119 84.7905 80.2241 84.8438C79.9395 84.9239 79.6111 85.0238 79.2488 85.1457C78.8419 85.2827 78.3931 85.4477 77.9199 85.6434C76.6577 86.1664 75.2254 86.91 73.9561 87.9369C73.7971 88.0652 73.6412 88.1978 73.488 88.3348C73.2275 88.5692 72.9793 88.8191 72.7405 89.0807C72.7133 89.1103 72.6841 89.1388 72.658 89.1688C72.6217 89.209 72.5862 89.2508 72.5507 89.2915C72.4607 89.3969 72.3715 89.5046 72.2846 89.6143C72.2499 89.6585 72.2156 89.7024 72.1808 89.7466C72.0668 89.8973 71.9555 90.0501 71.8501 90.2087C71.7467 90.3642 71.6472 90.5249 71.5533 90.6879C70.801 92.001 70.3744 93.573 70.5054 95.4478L70.5094 95.4284L70.5117 95.4146C70.5149 95.3976 70.5196 95.3739 70.5255 95.3447L70.5295 95.3293C70.535 95.3009 70.5433 95.2674 70.552 95.2303L70.5571 95.207C70.5674 95.1644 70.5796 95.1154 70.5934 95.0621L70.6029 95.0274C70.6183 94.9706 70.6353 94.909 70.6542 94.8423L70.655 94.8419C70.6736 94.7764 70.6968 94.7058 70.7197 94.6327L70.7347 94.5881C70.7592 94.5139 70.786 94.4362 70.8156 94.3561L70.831 94.3178C70.8583 94.242 70.8887 94.1642 70.9218 94.0841L70.9372 94.047C70.9727 93.9606 71.0122 93.8714 71.0528 93.7806L71.0793 93.7242C71.1231 93.6314 71.1677 93.5375 71.2178 93.4424V93.442C71.2198 93.438 71.2222 93.4345 71.2241 93.4309C71.2983 93.2888 71.382 93.144 71.4712 92.9984C71.5048 92.9431 71.5371 92.8882 71.5742 92.833L71.6026 92.7868L71.6034 92.7856C71.6796 92.6716 71.7597 92.5575 71.8462 92.4446C71.9164 92.3523 71.991 92.2607 72.068 92.1695C72.092 92.1411 72.1181 92.1127 72.1437 92.0843C72.2053 92.0152 72.2693 91.9461 72.3356 91.8782C72.3628 91.851 72.3896 91.823 72.4169 91.7961C72.5076 91.7073 72.6008 91.6205 72.6995 91.5364L72.7077 91.5286V91.5289V91.5286C72.7077 91.5286 71.0003 95.3917 71.7427 98.4548C71.7427 98.4548 71.742 98.4454 71.742 98.4292V98.4102C71.7412 98.3933 71.7412 98.3735 71.7412 98.3475C71.7412 98.3424 71.7412 98.3364 71.7408 98.3309C71.7412 98.2993 71.7412 98.263 71.7427 98.2196C71.7427 98.2141 71.7427 98.209 71.7435 98.2026C71.7435 98.1572 71.7467 98.1067 71.7491 98.0503C71.7491 98.0452 71.7498 98.0392 71.7498 98.0341C71.753 97.9761 71.7566 97.9125 71.7617 97.8451C71.7617 97.8387 71.7621 97.8336 71.7629 97.8281C71.7684 97.759 71.7743 97.6864 71.783 97.6094C71.7838 97.6035 71.7846 97.5972 71.7854 97.5905C71.7929 97.5135 71.8039 97.4338 71.8154 97.3497C71.8162 97.3422 71.8177 97.3347 71.8185 97.3272C71.8316 97.2384 71.8462 97.1461 71.8639 97.051L71.8679 97.0285L71.8769 96.9807V96.9787C71.8979 96.8718 71.9227 96.7624 71.9511 96.6515C71.9531 96.6444 71.9547 96.6369 71.9563 96.6294C71.9855 96.5213 72.0167 96.412 72.0514 96.3018C72.0624 96.2679 72.0727 96.2348 72.0838 96.2008L72.1074 96.1306V96.1294C72.1398 96.039 72.1753 95.9486 72.2136 95.8586L72.2195 95.844L72.2199 95.8432C72.2732 95.7173 72.3356 95.5954 72.4019 95.4742C72.4188 95.4422 72.4378 95.4103 72.4563 95.3791C72.527 95.2595 72.6012 95.1423 72.6856 95.0314L72.6892 95.0258V95.0266V95.0258H72.6896C72.6896 95.0258 72.5917 95.977 72.617 97.109C72.6217 97.287 72.63 97.4701 72.6414 97.6544C72.6485 97.7772 72.6564 97.9007 72.6679 98.0238C72.7433 96.8074 72.9655 95.6648 73.2891 94.5992C72.9655 95.6656 72.7433 96.8078 72.6683 98.025V98.0254C72.6193 98.8018 72.63 99.6073 72.7101 100.442C72.8459 101.834 73.1766 103.306 73.7592 104.856C73.7592 104.856 73.2252 103.074 73.9944 101.291C74.0639 101.453 74.1381 101.617 74.2158 101.781C74.279 102.31 74.3855 103.061 74.541 103.888C74.6898 105.266 75.349 109.399 78.1571 112.307C78.1571 112.307 77.0958 110.93 77.2608 109.137C77.3717 109.372 77.4814 109.584 77.586 109.768C78.0663 110.667 79.0219 112.341 80.0634 113.502C80.0634 113.502 79.2184 111.865 79.4154 111.513C79.4154 111.513 82.171 114.939 83.0476 115.273L81.8952 113.362L81.8691 113.306C85.8736 116.21 91.3675 117.288 98.1628 115.396C99.3307 115.07 100.537 114.657 101.781 114.149C102.544 113.819 103.3 113.457 104.048 113.055L104.156 112.994C104.679 112.708 105.198 112.401 105.713 112.077L105.725 112.07C106.112 111.826 106.495 111.571 106.874 111.307C107.509 110.859 108.138 110.388 108.751 109.876L108.753 109.875L108.755 109.873C108.79 109.842 108.827 109.811 108.864 109.78C109.471 109.249 110.04 108.704 110.568 108.148C111.266 107.414 111.893 106.664 112.46 105.912L112.502 105.858C112.64 105.672 112.776 105.487 112.908 105.305L112.945 105.251C112.988 105.188 113.026 105.129 113.068 105.067C113.252 104.803 113.433 104.539 113.602 104.277C113.643 104.214 113.685 104.15 113.726 104.087C113.814 103.948 113.898 103.809 113.983 103.672C114.047 103.564 114.113 103.457 114.175 103.35C114.244 103.234 114.313 103.118 114.38 103.003C114.499 102.793 114.615 102.585 114.726 102.378C114.77 102.296 114.812 102.217 114.854 102.136C114.939 101.975 115.022 101.816 115.101 101.658C115.138 101.585 115.175 101.511 115.21 101.438L115.243 101.369C115.341 101.171 115.435 100.973 115.526 100.78L115.543 100.738C115.886 100.419 116.152 100.115 116.365 99.8248C116.396 99.7837 116.428 99.7419 116.457 99.7008C116.931 99.0169 117.086 98.4118 117.095 97.8687Z" fill="#FCE9C9"/>
<path d="M53.255 87.7779C53.1366 87.815 53.0032 87.9717 52.869 88.1856C52.8188 88.2657 52.7695 88.3533 52.7202 88.4457C52.361 89.1206 52.0374 90.0568 52.0374 90.0568C52.0626 89.7442 52.097 89.4198 52.1352 89.0938C52.1396 89.0559 52.1451 89.0188 52.1499 88.9805C52.1897 88.6486 52.2359 88.3139 52.2852 87.9811C52.2908 87.9409 52.2971 87.901 52.303 87.8616C52.3606 87.4866 52.4214 87.114 52.4845 86.7545C52.4928 86.7075 52.5003 86.6621 52.509 86.6159L52.5137 86.5923C52.5212 86.5508 52.5284 86.5086 52.5359 86.4671C52.5465 86.4052 52.5576 86.3432 52.569 86.282C52.6207 85.9971 52.674 85.7216 52.7257 85.4603C52.7727 85.2243 52.818 85.0009 52.8619 84.7905L52.8757 84.7226C52.882 84.6895 52.8891 84.6595 52.8958 84.6279C52.9025 84.5971 52.9088 84.5652 52.9151 84.5332L52.9175 84.5222C52.929 84.4697 52.9408 84.4156 52.9515 84.3659L52.9546 84.352C52.9645 84.3027 52.9739 84.2609 52.9838 84.2147C53 84.1425 53.0154 84.0683 53.0304 84.0008L53.0347 83.9818C53.047 83.927 53.0584 83.8713 53.0699 83.8212C53.0864 83.749 53.1018 83.6827 53.1149 83.6199L53.1156 83.6179L53.1164 83.6164C53.1243 83.5804 53.1318 83.5493 53.1393 83.5161L53.1409 83.5102C53.148 83.4802 53.1543 83.4486 53.161 83.4222C53.1764 83.3559 53.1902 83.2959 53.2013 83.2497L53.2112 83.2086L53.2151 83.1937L53.2265 83.1451L53.2344 83.1116L53.236 83.1068L53.2305 83.1112L53.1579 83.1771C53.0939 83.2339 53.0284 83.2896 52.9684 83.3527L52.9025 83.4253C52.8319 83.5043 52.7632 83.5871 52.6992 83.6752L52.6653 83.7178C52.586 83.8283 52.5122 83.9443 52.4419 84.0623V84.0627L52.4328 84.0781L52.4324 84.0789L52.404 84.1314C52.3878 84.1602 52.3725 84.1898 52.3571 84.219C52.3164 84.2928 52.2746 84.3647 52.2383 84.4393L52.2363 84.442L52.2351 84.4444L52.2331 84.4507L52.2189 84.4787L52.2059 84.5068C52.1491 84.6248 52.0974 84.742 52.0488 84.8576C51.9115 85.1829 51.8053 85.4927 51.7256 85.7516C51.6979 85.8435 51.6719 85.9308 51.651 86.0077C51.6048 86.1747 51.5724 86.3053 51.5578 86.3693L51.557 86.3748L51.5468 86.4178V86.417V86.4178L51.5507 86.3677C51.5562 86.2682 51.5677 86.1696 51.5756 86.0709C51.591 85.8633 51.604 85.6549 51.6269 85.4489C51.6451 85.2752 51.6719 85.1055 51.6964 84.933C51.7043 84.8793 51.7125 84.8253 51.7204 84.772C51.7311 84.6927 51.7421 84.6133 51.7552 84.5344C51.7666 84.4606 51.7828 84.388 51.7966 84.3157L51.7974 84.3102V84.3098L51.8128 84.2289L51.8175 84.2068C51.8337 84.1184 51.8507 84.0284 51.8677 83.94C51.8736 83.9057 51.8799 83.8713 51.887 83.837L51.8992 83.7758L51.9016 83.7644C51.9075 83.7355 51.9138 83.7059 51.9201 83.6775C51.9273 83.6412 51.9371 83.6061 51.9446 83.5718C51.9738 83.4419 52.0054 83.3144 52.0358 83.1862L52.0409 83.1648C52.0634 83.0693 52.0843 82.9734 52.1088 82.8795L52.1096 82.8751L52.112 82.8688L52.1195 82.8412C52.1696 82.6478 52.2252 82.4588 52.2809 82.2681L52.3101 82.1631C52.3207 82.128 52.3298 82.0909 52.3409 82.0554C52.4328 81.7463 52.5311 81.4413 52.6357 81.1429L52.6491 81.1054C52.7387 80.852 52.8295 80.6026 52.9246 80.3567L52.9353 80.3286C52.9783 80.2205 53.0225 80.1167 53.0647 80.0097L53.0718 79.994C53.1366 79.8345 53.2005 79.6743 53.2668 79.5199L53.2672 79.5184V79.5176L53.2684 79.5156L53.2759 79.4963C53.2936 79.4576 53.3347 79.3636 53.3986 79.2255L53.3998 79.2231L53.4085 79.2046V79.2042C53.4334 79.1497 53.457 79.0968 53.4811 79.0416C53.5202 78.9536 53.5597 78.8667 53.5983 78.7803L53.6335 78.7045C53.5782 78.6745 53.5202 78.6477 53.4634 78.6193L53.431 78.6031L53.3706 78.5727C53.0016 78.3959 52.6132 78.2542 52.2106 78.15L52.1467 78.1342C51.8886 78.0695 51.6249 78.0201 51.3557 77.989C51.1998 77.9712 51.0436 77.957 50.8849 77.9507C50.7531 77.9452 50.6212 77.9436 50.4878 77.9463C50.2873 77.9507 50.09 77.9677 49.8958 77.989C49.8339 77.9969 49.7739 78.0075 49.7139 78.0154C49.6176 78.03 49.5224 78.0486 49.4269 78.0659C49.3898 78.0738 49.3508 78.0786 49.3137 78.0869C49.2466 78.1011 49.1803 78.1153 49.114 78.1322C48.9837 78.1642 48.8566 78.2001 48.7303 78.24C48.6715 78.2585 48.6131 78.2735 48.5559 78.2937C48.385 78.3537 48.2168 78.4192 48.0527 78.4922C47.9871 78.5214 47.9264 78.5549 47.8624 78.5849C47.7874 78.622 47.7132 78.6615 47.6394 78.6994L47.5632 78.7385C47.4819 78.7835 47.4026 78.8316 47.3241 78.8794C47.2511 78.924 47.1772 78.9713 47.1066 79.0199C47.0198 79.0771 46.9349 79.1351 46.8524 79.1959C46.8015 79.235 46.753 79.2748 46.702 79.3143C46.5679 79.4205 46.4404 79.5345 46.3149 79.651C46.2501 79.7114 46.1878 79.7729 46.1258 79.8353C46.0161 79.9442 45.9087 80.0551 45.8085 80.1716L45.7576 80.23C45.7047 80.2931 45.6554 80.3598 45.606 80.4257L45.5981 80.4352L45.5918 80.4439C45.5583 80.4881 45.5219 80.5307 45.4892 80.5757L45.4762 80.5935L45.4631 80.6112L45.4624 80.6128L45.4616 80.614C45.2591 80.8974 45.0815 81.1989 44.9276 81.5127C44.9051 81.5577 44.8849 81.6039 44.8636 81.6497C44.7926 81.8032 44.7271 81.9603 44.6679 82.1205C44.6446 82.1841 44.6185 82.2456 44.5968 82.31L44.596 82.3107V82.3111L44.5952 82.3123C44.5412 82.4753 44.4934 82.6403 44.4528 82.8108L44.4374 82.874L44.4224 82.9541L44.4204 82.9612C44.3924 83.0843 44.3655 83.2075 44.3462 83.3326C44.3363 83.3941 44.33 83.4569 44.3221 83.5193L44.3194 83.537C44.3115 83.6033 44.3047 83.6704 44.298 83.7375C44.2921 83.7876 44.2846 83.8386 44.2807 83.8899C44.2661 84.0872 44.2598 84.2861 44.2645 84.4878C44.2684 84.6437 44.2823 84.7969 44.2969 84.9504L44.298 84.9591L44.3032 85.0305C44.3115 85.1154 44.3261 85.199 44.3387 85.2831C44.3841 85.589 44.4464 85.8881 44.5345 86.1775C44.6 86.3981 44.6769 86.6128 44.7657 86.8224C44.9283 87.2076 45.1304 87.5703 45.3613 87.9113C45.8472 88.6308 46.4716 89.2473 47.2009 89.7174C47.6146 89.9838 48.0617 90.2005 48.5338 90.3662C48.9869 90.5265 49.4597 90.6429 49.9527 90.697C50.0636 90.7084 50.1756 90.7167 50.2881 90.7246C50.4563 90.7356 50.624 90.7427 50.7953 90.7392C50.9532 90.7356 51.1067 90.7163 51.2618 90.7013C51.3502 90.693 51.4414 90.6922 51.529 90.68C51.752 90.6488 51.9707 90.6034 52.1858 90.5497L52.2343 90.5391C52.3239 90.5158 52.4072 90.483 52.494 90.4562C52.7648 90.3737 53.0268 90.2743 53.2814 90.157L53.3367 90.1326C53.4077 90.1022 53.4811 90.073 53.5498 90.0378L53.5581 90.0347C53.4338 89.3499 53.3394 88.6474 53.2719 87.9294C53.2676 87.8781 53.2605 87.8288 53.255 87.7779Z" fill="#FCE9C9"/>
<path d="M79.8994 32.0412L80.0174 32.1012L80.0155 32.0854L79.8994 32.0412Z" fill="#4D94C3"/>
<path d="M114.655 96.2521C114.646 96.2186 114.638 96.1882 114.631 96.159C114.611 96.0844 114.597 96.0279 114.586 95.9889C114.393 95.3609 114.147 94.8703 113.929 94.5206C113.65 94.0691 113.419 93.8461 113.419 93.8461C113.465 93.6871 113.502 93.532 113.535 93.3792C113.578 93.1791 113.611 92.9834 113.633 92.7935C113.801 91.362 113.418 90.2482 113.111 89.6195C113.062 89.5188 113.016 89.4324 112.974 89.357C112.753 89.5141 112.529 89.6692 112.306 89.8204C108.062 92.6937 103.286 94.5372 98.1142 95.3297C94.5503 95.876 90.8008 95.9269 86.9025 95.4525L86.9704 95.4722C86.9704 95.4722 84.6208 95.7939 83.9834 98.0479L84.0233 98.0708L83.8291 99.5824C83.8978 101.63 84.8336 102.911 85.8988 103.585C87.0059 104.007 88.3427 104.329 89.8275 104.514C92.4111 104.835 95.3767 104.75 98.4039 104.269L98.4193 104.267L98.4347 104.265C102.461 103.725 108.144 101.575 112.206 98.8002C113.132 98.1679 113.974 97.5044 114.692 96.8185L114.719 96.7924L114.768 96.7451C114.728 96.554 114.688 96.3851 114.655 96.2521Z" fill="white"/>
<path d="M106.974 76.7422C104.794 75.4145 104.475 74.974 104.678 71.3682C104.751 70.0697 104.892 68.3631 105.037 66.0494C105.056 65.7483 105.065 65.4625 105.07 65.1815C105.071 65.1144 105.073 65.0489 105.073 64.983C105.075 64.7174 105.072 64.4581 105.062 64.209L105.059 64.1376L105.054 64.061C105.043 63.8653 105.029 63.675 105.013 63.4899C105.005 63.4086 104.997 63.3269 104.989 63.2468C104.967 63.049 104.942 62.8568 104.911 62.6713C104.896 62.5766 104.878 62.4854 104.86 62.3931C104.841 62.2893 104.82 62.1879 104.798 62.0884C104.777 61.9905 104.755 61.8918 104.731 61.7975L104.73 61.7971L104.731 61.7959C104.42 61.3342 104.051 60.9213 103.619 60.5704L103.534 60.5073L103.517 60.4943L103.453 60.4465L103.431 60.4303C103.369 60.3822 103.304 60.3352 103.239 60.2922C103.169 60.246 103.099 60.2006 103.028 60.158C102.384 59.7661 101.666 59.5198 100.897 59.4057C100.472 59.3434 100.032 59.3213 99.5809 59.3386C99.3713 59.3461 99.1594 59.3647 98.9459 59.3899C98.3901 59.4551 97.821 59.5739 97.2436 59.7495C97.0494 59.8829 96.8556 60.0195 96.6595 60.1556C96.4953 60.2701 96.3279 60.3845 96.1598 60.4982L96.0789 60.5539C95.9096 60.6675 95.7383 60.7784 95.5666 60.889L95.4801 60.943C95.3073 61.0504 95.134 61.155 94.9592 61.2544L94.8672 61.3053C94.6916 61.4044 94.5128 61.4968 94.3324 61.5852L94.2424 61.6274C94.0601 61.7142 93.8738 61.7951 93.6855 61.8662L93.6078 61.8958C93.4136 61.9668 93.2162 62.032 93.0157 62.0848L92.9633 62.0971C92.7513 62.1515 92.5394 62.1954 92.3215 62.225C91.9556 62.2743 91.5902 62.2905 91.2227 62.292C90.6244 62.2948 90.0241 62.2463 89.421 62.1567C89.2201 62.1263 89.0172 62.0908 88.8151 62.0537C88.7433 62.0402 88.6719 62.0292 88.6008 62.0154C88.0751 61.9132 87.5462 61.7912 87.0138 61.6629C86.79 61.6096 86.5666 61.5556 86.3421 61.5011C85.9813 61.4131 85.617 61.3282 85.2523 61.245C85.1801 61.2284 85.1103 61.2102 85.0372 61.1944C84.7314 61.211 84.4243 61.241 84.1161 61.2797L84.049 61.288C83.1546 61.4052 82.2551 61.6183 81.3663 61.9258C81.317 61.9428 81.2676 61.9574 81.2191 61.9751C81.0802 62.0245 80.9424 62.0785 80.8043 62.133C80.6192 62.2064 80.4345 62.2826 80.2509 62.3639C78.9635 62.9322 77.7131 63.7054 76.5508 64.6882C76.0799 65.0864 75.6395 65.5083 75.227 65.946C74.5943 66.619 74.0347 67.3357 73.5445 68.0809C73.5172 68.1227 73.4904 68.1641 73.4644 68.206C73.2027 68.6113 72.9631 69.0245 72.7464 69.4449C72.6683 69.5949 72.5894 69.7452 72.5175 69.8968L72.5029 69.9264C72.2693 70.4213 72.0668 70.9241 71.8923 71.4317C71.8825 71.4621 71.8738 71.4925 71.8651 71.5225C71.8402 71.5963 71.8213 71.6705 71.798 71.7439C71.7234 71.9795 71.6551 72.2167 71.5924 72.4535C71.5292 72.6994 71.4692 72.9461 71.4199 73.1928C71.41 73.2457 71.3982 73.299 71.3891 73.3522C71.3607 73.503 71.3335 73.6538 71.3098 73.8045C71.2257 74.3591 71.1795 74.9124 71.1677 75.4622C71.1638 75.6003 71.1586 75.7397 71.1602 75.8766C71.41 76.7828 71.7716 77.599 72.1998 78.3406C73.8318 81.1602 76.5153 82.8463 78.4595 83.7513C79.2157 84.0848 80.005 84.3828 80.8252 84.6445L80.8461 84.68L80.8469 84.6804L80.8504 84.6788L80.9033 84.6382C81.0079 84.5585 81.1125 84.4787 81.2207 84.3998C81.2585 84.3702 81.2976 84.3426 81.3363 84.3141C81.4464 84.2336 81.5597 84.1515 81.6753 84.071C81.714 84.0442 81.7535 84.017 81.7933 83.9897C81.9094 83.9088 82.0286 83.8267 82.1501 83.7466C82.1904 83.7194 82.231 83.6933 82.2721 83.6665C82.3948 83.5852 82.5196 83.5043 82.6474 83.4237C82.6901 83.3973 82.7315 83.3709 82.7737 83.3448C82.9036 83.2651 83.0338 83.1854 83.1657 83.1052C83.211 83.0784 83.2572 83.0512 83.3026 83.0235C83.4352 82.9466 83.5694 82.868 83.7072 82.7899C83.7569 82.763 83.8062 82.735 83.856 82.707C83.9909 82.6304 84.1291 82.5554 84.2696 82.4805C84.3248 82.4509 84.3805 82.4209 84.4373 82.3916C84.5755 82.3182 84.7156 82.2456 84.8577 82.1738C84.9184 82.1434 84.9792 82.1126 85.0408 82.0818C85.1821 82.0112 85.3254 81.9413 85.469 81.8719C85.5373 81.8391 85.6068 81.8071 85.6754 81.7744C85.8167 81.7077 85.96 81.6414 86.1056 81.5754C86.181 81.5403 86.26 81.5068 86.3377 81.472C86.4786 81.4093 86.6219 81.3465 86.7679 81.285C86.8532 81.2475 86.9412 81.2112 87.0276 81.1752C87.1685 81.1164 87.3114 81.058 87.4563 80.9992C87.5526 80.9609 87.6508 80.9226 87.7483 80.884C87.8884 80.8295 88.0289 80.7746 88.1722 80.7206C88.2796 80.6795 88.3889 80.6389 88.4966 80.5998C88.6356 80.5489 88.7729 80.498 88.9146 80.4478C89.0342 80.406 89.1558 80.3642 89.2769 80.3223C89.4127 80.2754 89.5489 80.2276 89.687 80.183C89.8196 80.1384 89.9538 80.0958 90.088 80.0528C90.2206 80.0097 90.3524 79.9671 90.487 79.9253C90.6342 79.8791 90.7838 79.8345 90.935 79.7891C91.0609 79.7524 91.1872 79.7133 91.3158 79.6766C91.4785 79.6289 91.645 79.5831 91.81 79.5369C91.8933 79.5144 91.9734 79.4892 92.0567 79.4678C92.702 77.8433 94.6174 73.8148 97.8984 73.3739C98.2512 73.323 98.5697 73.3045 98.8713 73.3013C98.9466 73.3005 99.0276 73.295 99.0994 73.2966C99.0615 73.0629 99.0315 72.8194 99.0161 72.5664C98.9135 70.8306 99.4471 69.3876 100.208 69.3419C100.797 69.2941 101.265 70.1545 101.346 70.4557C101.569 70.9834 101.726 71.6575 101.772 72.4054C101.812 73.0886 101.749 73.7193 101.619 74.245C101.685 74.3133 101.739 74.3891 101.799 74.4617C102.55 75.3943 102.678 76.6881 102.647 77.6045C102.939 77.5749 103.239 77.5493 103.539 77.5236C103.615 77.5165 103.69 77.5094 103.768 77.5023L103.815 77.498C103.858 77.4936 103.902 77.4913 103.945 77.4877C104.316 77.4569 104.691 77.4281 105.072 77.4009L105.089 77.4001C105.951 77.3401 106.837 77.2892 107.751 77.2501C107.276 76.9012 106.974 76.7422 106.974 76.7422Z" fill="#EFCFA5"/>
<path d="M115.23 101.042C113.794 102.321 112.291 103.347 110.8 104.171C110.056 104.581 109.316 104.937 108.588 105.253C106.969 105.959 105.416 106.449 104.047 106.782C101.028 107.518 98.8979 107.52 98.8979 107.52C100.549 108.433 102.64 108.441 104.073 108.297C105.06 108.198 105.739 108.029 105.739 108.029C105.708 108.635 105.632 109.193 105.524 109.713C105.404 110.289 105.24 110.813 105.043 111.291L105.028 111.333L105.026 111.335C104.78 111.927 104.484 112.447 104.154 112.905C104.118 112.954 104.084 113.007 104.047 113.055L104.156 112.994C104.679 112.708 105.198 112.401 105.713 112.077L105.725 112.07C106.112 111.826 106.495 111.571 106.874 111.307C107.509 110.859 108.138 110.388 108.751 109.876L108.753 109.875L108.755 109.873C108.79 109.842 108.827 109.811 108.864 109.78C109.471 109.249 110.04 108.704 110.568 108.148C111.266 107.414 111.892 106.664 112.46 105.912L112.501 105.858C112.64 105.672 112.776 105.487 112.908 105.305L112.945 105.251C112.988 105.188 113.026 105.129 113.068 105.067C113.251 104.803 113.433 104.539 113.602 104.277C113.643 104.214 113.685 104.15 113.725 104.087C113.813 103.948 113.898 103.809 113.983 103.672C114.047 103.564 114.113 103.457 114.175 103.35C114.244 103.234 114.313 103.118 114.38 103.003C114.499 102.793 114.615 102.585 114.726 102.378C114.77 102.296 114.812 102.217 114.854 102.136C114.939 101.975 115.022 101.816 115.101 101.658C115.138 101.585 115.175 101.511 115.21 101.438L115.243 101.369C115.341 101.171 115.435 100.973 115.526 100.78C115.427 100.87 115.328 100.956 115.23 101.042Z" fill="#EFCFA5"/>
<path d="M79.2488 85.1457C78.8419 85.2827 78.3931 85.4477 77.9199 85.6434C76.6577 86.1664 75.2254 86.91 73.9561 87.9369C73.7971 88.0652 73.6412 88.1978 73.488 88.3348C73.2275 88.5692 72.9793 88.8191 72.7405 89.0807C72.7133 89.1103 72.6841 89.1387 72.658 89.1687C72.6217 89.209 72.5862 89.2508 72.5507 89.2915C72.4607 89.3969 72.3715 89.5046 72.2846 89.6143C72.2499 89.6585 72.2156 89.7024 72.1808 89.7466C72.0668 89.8973 71.9555 90.0501 71.8501 90.2087C71.7467 90.3642 71.6472 90.5249 71.5533 90.6879C70.801 92.001 70.3744 93.573 70.5054 95.4477L70.5094 95.4284L70.5117 95.4146C70.5149 95.3976 70.5196 95.3739 70.5255 95.3447L70.5295 95.3293C70.535 95.3009 70.5433 95.2674 70.552 95.2303L70.5571 95.207C70.5674 95.1644 70.5796 95.1154 70.5934 95.0621L70.6029 95.0274C70.6183 94.9706 70.6353 94.909 70.6542 94.8423L70.655 94.8419C70.6736 94.7764 70.6968 94.7057 70.7197 94.6327L70.7347 94.5881C70.7592 94.5139 70.786 94.4362 70.8156 94.3561L70.831 94.3178C70.8583 94.242 70.8887 94.1642 70.9218 94.0841L70.9372 94.047C70.9727 93.9606 71.0122 93.8714 71.0528 93.7806L71.0793 93.7242C71.1231 93.6314 71.1677 93.5375 71.2178 93.4424V93.442C71.2198 93.438 71.2222 93.4345 71.2241 93.4309C71.2983 93.2888 71.382 93.144 71.4712 92.9983C71.5048 92.9431 71.5371 92.8882 71.5742 92.833L71.6026 92.7868L71.6034 92.7856C71.6796 92.6715 71.7597 92.5575 71.8462 92.4446C71.9164 92.3523 71.991 92.2607 72.068 92.1695C72.092 92.1411 72.1181 92.1127 72.1437 92.0843C72.2053 92.0152 72.2693 91.9461 72.3356 91.8782C72.3628 91.851 72.3896 91.823 72.4169 91.7961C72.5076 91.7073 72.6008 91.6205 72.6995 91.5364L72.7077 91.5285V91.5289V91.5285C72.7077 91.5285 71.0003 95.3917 71.7427 98.4548C71.7427 98.4548 71.742 98.4454 71.742 98.4292V98.4102C71.7412 98.3933 71.7412 98.3735 71.7412 98.3475C71.7412 98.3424 71.7412 98.3364 71.7408 98.3309C71.7412 98.2993 71.7412 98.263 71.7427 98.2196C71.7427 98.2141 71.7427 98.2089 71.7435 98.2026C71.7435 98.1572 71.7467 98.1067 71.7491 98.0503C71.7491 98.0452 71.7498 98.0392 71.7498 98.0341C71.753 97.9761 71.7566 97.9125 71.7617 97.845C71.7617 97.8387 71.7621 97.8336 71.7629 97.8281C71.7684 97.759 71.7743 97.6864 71.783 97.6094C71.7838 97.6035 71.7846 97.5972 71.7854 97.5905C71.7929 97.5135 71.8039 97.4338 71.8154 97.3497C71.8162 97.3422 71.8177 97.3347 71.8185 97.3272C71.8316 97.2384 71.8462 97.1461 71.8639 97.0509L71.8679 97.0284L71.8769 96.9807V96.9787C71.8979 96.8718 71.9227 96.7624 71.9511 96.6515C71.9531 96.6444 71.9547 96.6369 71.9563 96.6294C71.9855 96.5213 72.0167 96.412 72.0514 96.3018C72.0624 96.2679 72.0727 96.2347 72.0838 96.2008L72.1074 96.1305V96.1294C72.1398 96.039 72.1753 95.9486 72.2136 95.8586L72.2195 95.844L72.2199 95.8432C72.2732 95.7173 72.3356 95.5954 72.4019 95.4742C72.4188 95.4422 72.4378 95.4102 72.4563 95.3791C72.527 95.2595 72.6012 95.1423 72.6856 95.0314L72.6892 95.0258V95.0266V95.0258H72.6896C72.6896 95.0258 72.5917 95.977 72.617 97.109C72.6217 97.287 72.63 97.4701 72.6414 97.6544C72.6485 97.7772 72.6564 97.9007 72.6679 98.0238C72.7433 96.8074 72.9655 95.6648 73.2891 94.5992C73.3795 94.3055 73.4782 94.0194 73.5828 93.7372C73.5974 93.6965 73.6116 93.6559 73.627 93.6152C73.728 93.3484 73.835 93.0887 73.9467 92.833C73.9684 92.7852 73.9897 92.7375 74.0106 92.6897C74.1247 92.4371 74.2427 92.1892 74.3662 91.9473C74.3863 91.9098 74.4053 91.8731 74.4246 91.836C74.6867 91.3312 74.9681 90.8509 75.2602 90.3966C75.2819 90.3631 75.3028 90.3299 75.3241 90.2967C75.4354 90.1266 75.5495 89.9628 75.6635 89.8002C75.6931 89.7572 75.7219 89.7114 75.7519 89.6692C75.78 89.6309 75.806 89.593 75.8336 89.5551C75.9789 89.3546 76.1245 89.1593 76.2717 88.9702C76.2954 88.9402 76.3187 88.9106 76.342 88.8814C76.4951 88.6872 76.6479 88.4978 76.8014 88.317L76.8097 88.3072C77.0031 88.0786 77.1961 87.8604 77.3871 87.6524C77.5276 87.5 77.6665 87.3536 77.8043 87.2123C77.856 87.1594 77.9097 87.1069 77.9629 87.0532C78.2921 86.7209 78.6098 86.4225 78.9058 86.1581C79.7939 85.3632 80.4854 84.8722 80.7265 84.7092C80.5817 84.7455 80.4119 84.7905 80.2241 84.8438C79.9395 84.9239 79.6111 85.0238 79.2488 85.1457Z" fill="#EFCFA5"/>
<path d="M101.959 76.5914C101.959 76.5914 101.95 76.4927 101.915 76.3439C101.776 75.7791 101.218 74.4467 99.0198 74.6579C96.722 74.8793 95.9504 76.7335 95.7523 77.3654C95.7116 77.4964 95.6938 77.5789 95.6938 77.5789L95.7562 77.6322C96.0475 77.3847 96.6036 77.4139 97.1076 77.734C97.3381 77.8804 97.5216 78.0651 97.6471 78.2597V78.2605C97.8413 78.5597 97.8954 78.8821 97.758 79.1217C97.7288 79.173 97.6921 79.2164 97.6499 79.2547C97.6499 79.2547 97.7383 79.2887 97.8875 79.3321C98.5261 79.5203 100.297 79.8917 101.255 78.6544C101.301 78.5948 101.348 78.5395 101.39 78.4732C101.202 78.3769 101.096 78.1003 101.096 77.7723C101.094 77.6144 101.116 77.4455 101.167 77.277C101.324 76.7572 101.68 76.4501 101.959 76.5914Z" fill="#EFCFA5"/>
<path d="M90.5674 93.4708C89.0803 93.7775 87.7798 94.006 86.771 94.1686C86.8278 94.1757 86.8803 94.1824 86.9395 94.1899C88.6264 94.3995 91.3126 94.6529 94.5612 94.4547C100.471 94.0948 108.25 92.235 115.314 85.8656L115.333 85.8408V85.8297C115.357 85.2961 115.285 84.3327 114.611 83.5832C114.493 83.4522 114.356 83.3282 114.2 83.2134C114.173 83.198 114.149 83.1806 114.122 83.1652C113.936 83.0614 113.774 82.9564 113.624 82.8526C113.499 82.7741 113.381 82.696 113.276 82.6182L113.261 82.5957C112.827 83.2201 112.324 83.8141 111.76 84.3797C111.56 84.5794 111.348 84.772 111.135 84.9646C109.186 86.7201 106.668 88.182 103.95 89.3862C99.4324 91.3869 94.3836 92.685 90.5674 93.4708Z" fill="#EFCFA5"/>
<path d="M53.158 83.1771C53.0941 83.2339 53.0286 83.2896 52.9686 83.3527L52.9027 83.4253C52.832 83.5043 52.7634 83.5871 52.6994 83.6752L52.6655 83.7178C52.5861 83.8283 52.5123 83.9443 52.4421 84.0623V84.0627L52.433 84.0781L52.4326 84.0789L52.4042 84.1314C52.388 84.1602 52.3726 84.1898 52.3572 84.219C52.3166 84.2928 52.2747 84.3647 52.2384 84.4393L52.2365 84.442L52.2353 84.4444L52.2333 84.4507L52.2191 84.4787L52.2061 84.5068C52.1492 84.6248 52.0975 84.742 52.049 84.8576C51.9116 85.1829 51.8055 85.4927 51.7257 85.7516C51.6981 85.8435 51.6721 85.9308 51.6511 86.0077C51.605 86.1747 51.5726 86.3053 51.558 86.3693L51.5572 86.3748L51.5469 86.4178V86.417V86.4178L51.5509 86.3677C51.5564 86.2682 51.5679 86.1696 51.5758 86.0709C51.5911 85.8633 51.6042 85.6549 51.6271 85.4489C51.6452 85.2752 51.6721 85.1055 51.6965 84.933C51.7044 84.8793 51.7127 84.8253 51.7206 84.772C51.7313 84.6927 51.7423 84.6133 51.7553 84.5344C51.7668 84.4606 51.783 84.388 51.7968 84.3157L51.7976 84.3102V84.3098L51.813 84.2289L51.8177 84.2068C51.8339 84.1184 51.8509 84.0284 51.8678 83.94C51.8737 83.9057 51.8801 83.8713 51.8872 83.837L51.8994 83.7758L51.9018 83.7644C51.9077 83.7355 51.914 83.7059 51.9203 83.6775C51.9274 83.6412 51.9373 83.6061 51.9448 83.5718C51.974 83.4419 52.0056 83.3144 52.036 83.1862L52.0411 83.1648C52.0636 83.0693 52.0845 82.9734 52.109 82.8795L52.1098 82.8751L52.1121 82.8688L52.1196 82.8412C52.1698 82.6478 52.2254 82.4588 52.2811 82.2681L52.3103 82.1631C52.3209 82.128 52.33 82.0909 52.341 82.0554C52.433 81.7463 52.5313 81.4413 52.6359 81.1429L52.6493 81.1054C52.7389 80.852 52.8297 80.6026 52.9248 80.3567L52.9354 80.3286C52.9785 80.2205 53.0227 80.1167 53.0649 80.0097L53.072 79.994C53.1367 79.8345 53.2007 79.6743 53.267 79.5199L53.2674 79.5184V79.5176L53.2686 79.5156L53.276 79.4963C53.2938 79.4576 53.3349 79.3636 53.3988 79.2255L53.4 79.2231L53.4087 79.2046V79.2042C53.4335 79.1497 53.4572 79.0968 53.4813 79.0416C53.5204 78.9536 53.5598 78.8667 53.5985 78.7803L53.6336 78.7045C53.5784 78.6745 53.5204 78.6477 53.4635 78.6193L53.4312 78.6031L53.3708 78.5727C53.0017 78.3959 52.6134 78.2542 52.2108 78.15L52.1469 78.1342C51.8887 78.0695 51.6251 78.0201 51.3559 77.989C51.2 77.9712 51.0437 77.957 50.8851 77.9507C50.7532 77.9452 50.6214 77.9436 50.488 77.9463C50.2875 77.9507 50.0902 77.9677 49.896 77.989C49.8336 77.9965 49.774 78.0075 49.714 78.0154C49.6177 78.03 49.5226 78.0486 49.4271 78.0659C49.39 78.0738 49.3509 78.0786 49.3138 78.0869C49.2467 78.1011 49.1804 78.1153 49.1141 78.1322C48.9839 78.1642 48.8568 78.2001 48.7305 78.24C48.6717 78.2585 48.6133 78.2735 48.556 78.2937C48.3851 78.3537 48.217 78.4192 48.0528 78.4922C47.9873 78.5214 47.9265 78.5549 47.8626 78.5853C47.7876 78.622 47.7134 78.6615 47.6396 78.6994L47.5634 78.7385C47.4821 78.7835 47.4028 78.8316 47.3242 78.8794C47.2512 78.924 47.1774 78.9713 47.1068 79.0199C47.0199 79.0771 46.9351 79.1351 46.8526 79.1959C46.8017 79.235 46.7531 79.2748 46.7022 79.3143C46.568 79.4205 46.4405 79.5345 46.315 79.651C46.2503 79.7114 46.1879 79.7729 46.126 79.8353C46.0163 79.9442 45.9097 80.0551 45.8087 80.1716L45.7577 80.23C45.7049 80.2931 45.6555 80.3598 45.6062 80.4257L45.5983 80.4352L45.592 80.4439C45.5584 80.4881 45.5221 80.5307 45.4894 80.5761L45.4763 80.5935L45.4633 80.6112L45.4625 80.6128L45.4617 80.614C45.2593 80.8986 45.0817 81.1997 44.9277 81.5143C44.9052 81.5589 44.8851 81.6043 44.8646 81.6497C44.7927 81.8032 44.728 81.9603 44.668 82.1205C44.6447 82.1841 44.6187 82.2456 44.597 82.31L44.5962 82.3107V82.3111C44.6084 82.3526 44.6222 82.3917 44.6349 82.4323C44.6787 82.5748 44.7233 82.7129 44.7702 82.8471L44.7864 82.8933L44.8042 82.9399C44.8535 83.078 44.9044 83.2102 44.9569 83.3393C45.1164 83.7344 45.2845 84.0872 45.4511 84.3998C45.4763 84.4456 45.5012 84.4937 45.5257 84.5375L45.5434 84.5703L45.5667 84.6094C45.6922 84.8324 45.815 85.0293 45.929 85.2018C46.1106 85.4757 46.2696 85.6841 46.3829 85.8246C46.4078 85.855 46.4291 85.8803 46.4484 85.9043C46.4654 85.9245 46.4808 85.9426 46.4954 85.9584C46.5384 86.0081 46.5653 86.0365 46.5653 86.0369C46.5487 85.9667 46.5404 85.8976 46.5258 85.8266C46.4232 85.3226 46.3699 84.8249 46.3569 84.3374L46.3565 84.3086L46.3553 84.2522C46.3498 83.94 46.3545 83.6306 46.3794 83.3298H46.3798C46.4117 83.4455 46.4461 83.5572 46.4808 83.6677C46.5333 83.8342 46.5874 83.9964 46.6434 84.1523L46.6627 84.2084L46.6706 84.2285C46.9165 84.8935 47.1964 85.4524 47.4584 85.9027C47.7718 86.4423 48.0587 86.8243 48.23 87.0343C48.2648 87.0765 48.294 87.1121 48.3188 87.1401C48.3674 87.1965 48.3942 87.2253 48.3942 87.2253C48.2703 86.6897 48.2075 86.1605 48.1878 85.6419C48.1807 85.467 48.1744 85.2922 48.1775 85.1213C48.1807 84.9022 48.1921 84.6863 48.2099 84.4736V84.4744V84.4736C48.3054 84.8375 48.4151 85.1742 48.5324 85.4915L48.5406 85.516C48.9618 86.657 49.4816 87.4961 49.8403 87.9934L49.8814 88.0482C49.9445 88.1327 49.999 88.2038 50.0483 88.2677C50.0823 88.3103 50.1146 88.3518 50.1419 88.3825C50.1766 88.4248 50.2027 88.456 50.224 88.4792C50.2504 88.5092 50.2666 88.5282 50.2666 88.5282L50.252 88.4536C50.2358 88.3786 50.2204 88.3044 50.2058 88.2302C50.1541 87.9626 50.1202 87.6966 50.0949 87.4337C50.0779 87.2581 50.0618 87.0825 50.0554 86.9096C50.0491 86.7446 50.0499 86.582 50.0523 86.4198C50.0531 86.3906 50.0543 86.3614 50.0546 86.3322C50.0574 86.2481 50.0594 86.164 50.0637 86.0808L50.0669 86.0294L50.07 85.9923C50.0831 85.7788 50.1016 85.5673 50.1281 85.3601V85.3608V85.3601C50.1687 85.4978 50.2117 85.632 50.2559 85.7611C50.2891 85.8597 50.3238 85.9533 50.3586 86.0476L50.3661 86.0669L50.3775 86.0997L50.3984 86.1573C50.441 86.2702 50.4849 86.3783 50.5295 86.4857C50.6143 86.6858 50.6992 86.8749 50.7864 87.0521C50.8918 87.2703 50.9991 87.4716 51.1029 87.6559C51.1633 87.7597 51.2209 87.8576 51.2782 87.9512C51.3504 88.0688 51.4206 88.1785 51.4877 88.278C51.5493 88.3695 51.6065 88.45 51.661 88.5258C51.6748 88.5444 51.689 88.5637 51.7021 88.5819C51.753 88.6509 51.8015 88.716 51.8445 88.7705C51.8769 88.812 51.9069 88.8491 51.9341 88.8822C52.0048 88.9682 52.0549 89.0247 52.0774 89.0492L52.0904 89.063L52.1354 89.0938C52.1398 89.0559 52.1453 89.0188 52.15 88.9805C52.1899 88.6486 52.2361 88.3139 52.2854 87.9811C52.2909 87.9409 52.2972 87.901 52.3032 87.8616C52.3608 87.4866 52.4216 87.114 52.4847 86.7545C52.493 86.7075 52.5005 86.6621 52.5092 86.6159L52.5139 86.5923C52.5214 86.5508 52.5285 86.5086 52.536 86.4671C52.5467 86.4052 52.5577 86.3432 52.5692 86.282C52.6209 85.9971 52.6742 85.7216 52.7259 85.4603C52.7728 85.2243 52.8182 85.0009 52.862 84.7905L52.8758 84.7226C52.8822 84.6895 52.8893 84.6595 52.896 84.6279C52.9027 84.5971 52.909 84.5652 52.9153 84.5332L52.9177 84.5222C52.9291 84.4697 52.941 84.4156 52.9516 84.3659L52.9548 84.352C52.9646 84.3027 52.9741 84.2609 52.984 84.2147C53.0002 84.1425 53.0156 84.0683 53.0306 84.0008L53.0349 83.9818C53.0471 83.927 53.0586 83.8713 53.07 83.8212C53.0866 83.749 53.102 83.6827 53.115 83.6199L53.1158 83.6179L53.1166 83.6164C53.1245 83.5804 53.132 83.5493 53.1395 83.5161L53.1411 83.5102C53.1482 83.4802 53.1545 83.4486 53.1612 83.4222C53.1766 83.3559 53.1904 83.2959 53.2015 83.2497L53.2113 83.2086L53.2153 83.1937L53.2267 83.1451L53.2346 83.1116L53.2362 83.1068L53.2307 83.1112L53.158 83.1771Z" fill="#EFCFA5"/>
<path d="M100.99 99.6882C101.547 99.4956 102.032 99.3397 102.409 99.1755C103.164 98.8542 103.569 98.6376 103.544 98.5574C103.518 98.4757 103.062 98.5373 102.261 98.7185C101.859 98.8124 101.373 98.8941 100.814 99.0196C100.536 99.0863 100.229 99.1246 99.9109 99.1862C99.5905 99.2418 99.2534 99.3121 98.8974 99.3504C98.1953 99.4498 97.3921 99.5406 96.5392 99.6397C96.1188 99.674 95.6851 99.7099 95.2391 99.7458C94.7887 99.7683 94.3262 99.7912 93.8514 99.8145C91.9541 99.8702 89.86 99.7841 87.7291 99.3922C86.6054 99.1945 85.1036 98.6841 84.0234 98.0708L83.9835 98.0479C84.6209 95.7939 86.9705 95.4722 86.9705 95.4722L86.9026 95.4525C86.8635 95.4477 86.8241 95.4438 86.7842 95.4391C86.4424 95.3968 86.142 95.3558 85.8843 95.321C85.7004 95.2966 85.539 95.2745 85.4028 95.2575C85.2718 95.2413 85.1782 95.2315 85.1238 95.2279C83.7084 95.1308 82.9329 96.3295 82.6649 96.8489C82.6266 96.9239 82.5915 97.0008 82.556 97.0794C82.3515 97.5451 82.2157 98.0822 82.1794 98.6498C82.1096 99.7091 82.3823 100.872 83.1942 101.863C83.7353 102.53 84.6774 103.119 85.8989 103.585C84.8337 102.911 83.8979 101.63 83.8292 99.5824C85.0357 100.101 86.4416 100.418 87.4978 100.606C89.7597 101.023 91.9427 101.073 93.9047 100.952C94.3949 100.911 94.872 100.875 95.3354 100.829C95.7991 100.768 96.2495 100.71 96.686 100.654C97.5349 100.511 98.3184 100.372 99.0541 100.21C99.4207 100.141 99.761 100.041 100.083 99.953C100.405 99.8595 100.711 99.7892 100.99 99.6882Z" fill="#EFCFA5"/>
<path d="M99.1132 73.3069C100.295 73.3345 101.097 73.7094 101.632 74.2553C101.763 73.7292 101.827 73.0985 101.785 72.4153C101.739 71.6677 101.583 70.9936 101.359 70.4651C101.28 70.1648 100.811 69.304 100.221 69.3513C99.4601 69.3975 98.9281 70.8409 99.0307 72.5763C99.0453 72.8297 99.0745 73.0728 99.1132 73.3069Z" fill="#59473D"/>
<path d="M101.109 77.7822C101.11 78.1105 101.215 78.3868 101.404 78.4831C101.686 78.6244 102.039 78.3158 102.195 77.7956C102.21 77.7502 102.218 77.7048 102.229 77.6602V77.659C102.329 77.1866 102.227 76.7295 101.972 76.6017C101.692 76.4596 101.337 76.7674 101.181 77.2864C101.13 77.4558 101.108 77.6243 101.109 77.7822Z" fill="#59473D"/>
<path d="M95.7434 78.6197C95.8686 78.8237 96.0576 79.0207 96.2988 79.1746C96.8091 79.4982 97.3759 79.5255 97.6632 79.265C97.7058 79.2271 97.7425 79.1825 97.7713 79.1316C97.9091 78.892 97.855 78.5695 97.6616 78.27L97.6608 78.2692C97.5353 78.0754 97.3518 77.8903 97.1213 77.7439C96.6173 77.4238 96.0612 77.3942 95.7699 77.6424C95.7221 77.6835 95.6791 77.7293 95.6475 77.7849C95.5157 78.017 95.5647 78.3268 95.7434 78.6193V78.6197Z" fill="#59473D"/>
<path d="M115.333 85.8428V85.8321L115.3 85.8802C115.305 85.8759 115.31 85.8724 115.314 85.868L115.333 85.8428Z" fill="#59473D"/>
<path d="M114.72 96.7948L114.693 96.8205C113.975 97.5064 113.132 98.1703 112.207 98.8026C108.145 101.578 102.462 103.727 98.4349 104.267L98.4195 104.269L98.4041 104.272C95.3769 104.753 92.4112 104.837 89.8276 104.516C88.3428 104.331 87.0068 104.01 85.899 103.587C84.6782 103.121 83.7361 102.533 83.1942 101.865C82.3824 100.875 82.1096 99.7115 82.1799 98.6522C82.2166 98.0846 82.3524 97.5471 82.5568 97.0817C82.5915 97.0032 82.6275 96.9258 82.6653 96.8512C82.9337 96.3318 83.7085 95.1332 85.1246 95.2299C85.1783 95.2342 85.2726 95.2433 85.4029 95.2599C85.539 95.2765 85.7008 95.2986 85.8852 95.3234C86.1421 95.3582 86.4432 95.3988 86.785 95.441C86.8249 95.4462 86.8636 95.4501 86.9027 95.4545C90.8009 95.9289 94.5504 95.8783 98.1144 95.3321C103.286 94.5396 108.063 92.6956 112.306 89.8227C112.53 89.6712 112.753 89.5165 112.974 89.359L115.3 85.8802C108.241 92.2394 100.469 94.0968 94.5615 94.4567C91.3128 94.6552 88.6266 94.4018 86.9405 94.1923C86.8806 94.1848 86.8288 94.1781 86.7712 94.1706C86.2652 94.1062 85.8528 94.0478 85.5584 94.0107C85.4111 93.9922 85.2923 93.9795 85.2031 93.9736C84.7607 93.9436 84.3396 93.9985 83.9465 94.1216C83.1425 94.373 82.4558 94.9157 81.9399 95.6352C81.3025 96.5221 80.9272 97.6753 80.9094 98.8815C80.8972 99.8741 81.1281 100.9 81.6609 101.84C81.6818 101.878 81.7019 101.917 81.7244 101.955C81.786 102.058 81.8523 102.16 81.9214 102.26C82.0149 102.396 82.1132 102.531 82.2213 102.663C83.4587 104.188 86.1204 105.323 89.6717 105.765C92.0746 106.064 94.8867 106.039 97.9368 105.609C106.925 103.985 111.198 101.08 113.172 99.0402C113.316 98.8914 113.448 98.7465 113.569 98.6076C114.276 97.7918 114.595 97.1642 114.711 96.8931L114.727 96.856C114.757 96.7857 114.768 96.7486 114.769 96.747L114.72 96.7948Z" fill="#59473D"/>
<path d="M86.1156 65.6236C85.8323 65.4692 85.5228 65.3591 85.2106 65.2818C85.0042 65.2309 84.7966 65.1945 84.5918 65.1689C84.5148 65.1594 84.4382 65.1523 84.3613 65.146C83.309 65.054 82.3993 65.232 82.3993 65.232C82.2043 65.2766 82.0173 65.3272 81.8365 65.3824C80.4073 65.8158 79.4123 66.5601 78.7169 67.419C78.1541 68.1136 77.7882 68.8836 77.5546 69.6264C77.5337 69.692 77.5151 69.7571 77.4966 69.8218C77.4421 70.0148 77.3943 70.2039 77.3541 70.3898C77.2223 71.0145 77.1713 71.5908 77.1567 72.0466C77.139 72.6702 77.1875 73.072 77.1875 73.072C77.4358 72.5274 77.6963 72.0277 77.9647 71.56C78.6305 70.4004 79.3524 69.4662 80.0817 68.7155C81.503 67.2536 82.9507 66.482 84.0728 66.0767C85.2848 65.6386 86.1156 65.6236 86.1156 65.6236Z" fill="#E1B27E"/>
<path d="M103.188 63.5882L103.14 63.525C102.979 63.3222 102.787 63.1343 102.557 62.9772C102.014 62.6038 101.265 62.4093 100.227 62.622C100.227 62.622 98.9944 62.9133 98.2737 63.7196C98.2737 63.7196 100.422 62.802 102.696 64.4186C102.903 64.5658 103.111 64.7363 103.319 64.9285C103.531 65.1247 103.742 65.3425 103.953 65.59C103.953 65.59 103.862 64.5994 103.298 63.7457C103.264 63.692 103.227 63.6395 103.188 63.5882Z" fill="#E1B27E"/>
<path d="M86.3752 79.3183C87.1985 79.0637 88.0905 78.8288 89.0457 78.6126C89.2118 77.869 89.2529 76.9482 89.1352 75.965C88.8633 73.6593 87.8229 71.8931 86.8133 72.0178C85.8025 72.1425 85.2062 74.1128 85.4789 76.4173C85.6163 77.5781 85.949 78.6035 86.3752 79.3183Z" fill="#59473D"/>
<path d="M81.6893 27.7214L79.571 28.2002L80.0154 32.0854L74.3687 29.2113L72.0444 29.9044L72.0807 29.9454L78.9399 37.7633L79.0054 37.7219L79.0939 37.6666C79.3074 37.5305 79.5213 37.3947 79.7368 37.2609C79.8122 37.2139 79.8872 37.1654 79.9626 37.1188C80.2736 36.9282 80.585 36.7407 80.8976 36.5544L77.984 33.217L82.6985 35.5219L82.7163 35.5121C82.8583 35.4343 82.9992 35.3562 83.1409 35.2792L82.7064 31.9129L84.8456 34.3872L84.8716 34.3746C85.0528 34.2834 85.23 34.197 85.408 34.109L85.4636 34.0821L85.5501 34.0387C85.5805 34.0241 85.6116 34.0087 85.6416 33.9933C85.7174 33.9566 85.7952 33.9171 85.8698 33.8808C85.8852 33.8729 85.8998 33.8666 85.9152 33.8591C86.1689 33.7368 86.418 33.6199 86.667 33.5031L81.6893 27.7214Z" fill="#FACE56"/>
<path d="M79.5849 28.3233L79.571 28.2002L79.5849 28.3237V28.3233Z" fill="#4D94C3"/>
<path d="M79.5708 28.2002L79.8838 28.1299C79.3652 27.8892 78.7491 27.7175 78.0359 27.6287C76.6076 27.4487 74.794 27.6141 72.7278 28.1481C70.6617 28.6785 68.3449 29.5705 65.888 30.794C60.9738 33.2395 55.5031 37.0083 50.2388 41.8108C48.402 43.4858 46.689 45.1972 45.1143 46.9136L51.5085 54.7457C53.2352 52.8402 55.1191 50.9453 57.1493 49.0935C59.8639 46.6184 62.6318 44.4102 65.3686 42.4912C68.0204 40.6335 70.6396 39.0563 73.1612 37.7803L72.0505 32.7793L72.0805 29.9454L72.0442 29.9044L74.3685 29.2113L78.9082 31.534L78.7791 29.9526L79.5708 28.2002Z" fill="#4D94C3"/>
<path d="M79.5708 28.2002L78.7791 29.9526L78.9081 31.534L80.0152 32.0854L79.5708 28.2002Z" fill="#141C26"/>
<path d="M77.9839 33.217L82.6984 35.5219L80.8974 36.5544L77.9839 33.217Z" fill="#141C26"/>
<path d="M82.7061 31.9129L83.1406 35.2792L84.8452 34.3872L82.7061 31.9129Z" fill="#141C26"/>
<path d="M100.543 30.6685C100.834 30.6571 101.118 30.6539 101.398 30.6598C102.191 30.676 102.937 30.7695 103.643 30.946C103.681 30.9558 103.72 30.9614 103.758 30.9716L103.766 30.974L103.794 30.9799L103.863 31L103.927 31.0194C103.844 30.9641 103.759 30.912 103.673 30.8611C102.881 30.5576 102.042 30.3595 101.179 30.2486C96.8999 29.698 92.0283 31.2558 89.2423 32.3621C89.0895 32.426 88.9356 32.4896 88.7797 32.5559C88.5457 32.6557 88.3096 32.7576 88.0705 32.8629C87.6691 33.0398 87.2629 33.2249 86.8473 33.4183C86.787 33.4459 86.727 33.4747 86.667 33.5031C86.4179 33.6199 86.1689 33.7368 85.9151 33.8591C85.8997 33.8666 85.8851 33.8729 85.8697 33.8808C85.7951 33.9171 85.7174 33.9566 85.6416 33.9933C85.6116 34.0087 85.5804 34.0241 85.55 34.0387L85.4636 34.0821L85.4079 34.109C85.2299 34.197 85.0527 34.2834 84.8716 34.3746L84.8455 34.3872C84.84 34.3904 84.8345 34.3931 84.8293 34.3959C84.7843 34.4172 84.7421 34.4381 84.6979 34.4602L84.675 34.4713C84.6419 34.4882 84.6095 34.5056 84.5771 34.5226C84.2997 34.6631 84.0234 34.8083 83.7483 34.954C83.5557 35.0558 83.3639 35.1584 83.1717 35.2622L83.1409 35.2792C82.9992 35.3562 82.8583 35.4343 82.7162 35.5121L82.6984 35.5219C82.2375 35.7769 81.7796 36.037 81.3226 36.3042C81.2748 36.3318 81.2271 36.3582 81.1789 36.3867C81.1383 36.4107 81.0972 36.4344 81.0574 36.4581C81.0195 36.4802 80.9824 36.5035 80.9457 36.5256L80.8975 36.5544C80.5849 36.7407 80.2735 36.9282 79.9625 37.1188C79.8871 37.1654 79.8121 37.2139 79.7367 37.2609C79.5212 37.3947 79.3073 37.5305 79.0938 37.6666L79.0054 37.7219L78.9399 37.7633C78.3455 38.1442 77.7558 38.5353 77.1689 38.9343C76.2008 39.5935 75.2433 40.2735 74.2992 40.9768C74.1765 41.068 74.0549 41.1607 73.9322 41.2531C71.4571 43.1164 69.0665 45.1159 66.7762 47.1923C64.3579 49.3855 62.0538 51.6648 59.8771 53.9548C58.6982 55.1361 57.6854 56.1946 56.859 57.0846C55.2009 58.8702 54.2967 59.9741 54.3338 59.9989C54.3488 60.0151 54.4948 59.8797 54.7537 59.6208C54.5394 59.8695 54.3251 60.1177 54.1147 60.3652C57.7292 56.5115 61.738 52.5651 66.0424 48.8472C68.6572 46.5908 71.3782 44.4185 74.1891 42.4032V42.4036C75.4201 41.5199 76.6689 40.6674 77.933 39.8512C78.3368 39.5895 78.7441 39.3314 79.1518 39.0772C79.3551 38.9509 79.5603 38.8282 79.7644 38.7035C79.8792 38.6328 79.9949 38.5614 80.1113 38.4915C80.3296 38.3597 80.5486 38.2302 80.7673 38.1004C80.982 37.9741 81.1959 37.8478 81.411 37.7231C81.5239 37.6587 81.6364 37.5932 81.7488 37.5293C82.0216 37.373 82.2963 37.2202 82.5714 37.0679C82.7348 36.9771 82.8997 36.8855 83.0639 36.7963L83.0655 36.7956C83.5841 36.513 84.1055 36.2402 84.628 35.9723C84.6711 35.9498 84.7149 35.928 84.7591 35.9059C84.8408 35.8641 84.9225 35.8227 85.0042 35.7812C85.1127 35.7264 85.2201 35.6699 85.329 35.6159C85.3704 35.5957 85.4103 35.574 85.4514 35.5535L85.4687 35.5456C85.5429 35.5089 85.6155 35.4742 85.6886 35.4386C85.704 35.4311 85.7193 35.424 85.7347 35.4165L85.7604 35.4031C85.9893 35.2914 86.2166 35.1813 86.4408 35.0732C86.4819 35.0542 86.5233 35.0325 86.5651 35.0132C86.6382 34.9777 86.71 34.9453 86.7834 34.9106C87.0455 34.787 87.3068 34.6639 87.5641 34.5451C87.6351 34.5131 87.7074 34.4776 87.7776 34.446C87.8147 34.429 87.851 34.4129 87.8881 34.3963C87.9611 34.3635 88.0345 34.3308 88.108 34.2976C88.4107 34.1607 88.7118 34.0257 89.007 33.8974C89.277 33.7798 89.5391 33.672 89.8027 33.5611C91.2915 32.9352 92.691 32.4091 93.9915 31.9907C96.4914 31.1891 98.6495 30.7498 100.543 30.6685Z" fill="white"/>
</svg>
