<svg width="32" height="32" viewBox="0 0 32 32" fill="none" xmlns="http://www.w3.org/2000/svg">
<path d="M29.7228 24C28.4643 14.5618 22.7565 8 15.925 8C9.09357 8 3.34076 14.5618 2.08234 24H29.7228Z" fill="#CEAB4A"/>
<path d="M2.08234 24H29.7228C28.4643 14.5618 22.7565 8 15.925 8" fill="#B28E32"/>
<path d="M7.70028 15.1011L6.75646 18.0224L3.79017 17.0786L3.70029 12.1348L7.70028 15.1011Z" fill="#88C600"/>
<path d="M7.70028 15.1011L6.75646 18.0224L5.81265 16.0449L3.70029 12.1348L7.70028 15.1011Z" fill="#3AAD0B"/>
<path d="M5.67781 17.6179L5.76769 19.6404L3.74523 19.7303L2.57669 16.6741L5.67781 17.6179Z" fill="#88C600"/>
<path d="M5.67781 17.6179L5.76769 19.6404L4.73399 18.6067L2.57669 16.6741L5.67781 17.6179Z" fill="#3AAD0B"/>
<path d="M17.3632 17.2584C17.3632 20 15.0711 22.2022 12.3295 22.2022H11.8351C9.09357 22.2022 7.02615 20.0449 7.02615 17.2584V15.4606C7.02615 12.7191 9.09357 10.5168 11.8351 10.5168H12.3295C15.0711 10.5168 17.3632 12.7191 17.3632 15.4606V17.2584Z" fill="#722F01"/>
<path d="M11.9699 10.5168H12.3295C15.0711 10.5168 17.3632 12.7191 17.3632 15.4606V17.2584C17.3632 20 15.0711 22.2022 12.3295 22.2022H11.9699" fill="#562300"/>
<path d="M8.62985 12.4133C7.97962 13.1636 7.71101 13.9959 8.02989 14.2722C8.34877 14.5486 9.13439 14.1643 9.78463 13.414C10.4349 12.6637 10.7035 11.8314 10.3846 11.5551C10.0657 11.2787 9.28008 11.663 8.62985 12.4133Z" fill="#994207"/>
<path d="M20.6441 19.3708C19.161 21.7079 16.0598 22.382 13.7677 20.8989L13.3183 20.6292C10.9812 19.1461 10.307 16.0899 11.7902 13.7528L12.7789 12.2247C14.2621 9.88764 17.3183 9.21348 19.6553 10.6966L20.0598 10.9663C22.3969 12.4494 23.0711 15.5056 21.5879 17.8427L20.6441 19.3708Z" fill="#722F01"/>
<path d="M19.6553 10.6966L20.0598 10.9663C22.3969 12.4494 23.0711 15.5056 21.5879 17.8427L20.5992 19.3708C19.161 21.7079 16.0598 22.382 13.7677 20.8989L13.3183 20.6292" fill="#562300"/>
<path d="M15.8444 10.5982C14.8936 10.8844 14.2214 11.4439 14.343 11.848C14.4646 12.2521 15.334 12.3477 16.2848 12.0615C17.2356 11.7754 17.9078 11.2158 17.7862 10.8117C17.6646 10.4077 16.7952 10.3121 15.8444 10.5982Z" fill="#994207"/>
<path d="M24.2396 13.8876C23.3857 16.4045 22.1272 18.2022 21.4081 17.9775C20.689 17.7528 20.7789 15.5056 21.6329 13.0337C22.4868 10.5168 23.1609 10.4269 23.88 10.6516C24.5991 10.8764 25.0935 11.4157 24.2396 13.8876Z" fill="#EF112C"/>
<path d="M23.925 10.6516C24.6441 10.8763 25.0935 11.4157 24.2845 13.8876C23.4306 16.4044 22.1722 18.2022 21.4531 17.9774" fill="#B20026"/>
<path d="M24.1556 12.437C24.203 12.2958 23.8982 12.0659 23.4746 11.9235C23.0511 11.7811 22.6692 11.7801 22.6218 11.9213C22.5743 12.0625 22.8792 12.2924 23.3027 12.4348C23.7263 12.5772 24.1081 12.5782 24.1556 12.437Z" fill="#B20026"/>
<path d="M23.7935 13.5651C23.841 13.424 23.5363 13.1941 23.1128 13.0516C22.6893 12.9091 22.3075 12.908 22.26 13.0492C22.2125 13.1903 22.5173 13.4203 22.9408 13.5627C23.3643 13.7052 23.7461 13.7063 23.7935 13.5651Z" fill="#B20026"/>
<path d="M23.3894 14.6801C23.4368 14.5389 23.132 14.309 22.7084 14.1666C22.2849 14.0242 21.9031 14.0232 21.8556 14.1644C21.8081 14.3055 22.113 14.5354 22.5365 14.6778C22.9601 14.8202 23.3419 14.8212 23.3894 14.6801Z" fill="#B20026"/>
<path d="M23.0247 15.8078C23.0722 15.6666 22.7674 15.4367 22.3439 15.2942C21.9205 15.1517 21.5387 15.1507 21.4912 15.2918C21.4437 15.433 21.7485 15.6629 22.1719 15.8054C22.5954 15.9479 22.9772 15.949 23.0247 15.8078Z" fill="#B20026"/>
<path d="M22.9952 10.8333C22.7634 10.9776 22.6393 11.1971 22.718 11.3235C22.7968 11.4499 23.0485 11.4354 23.2803 11.2911C23.5121 11.1468 23.6361 10.9273 23.5574 10.8008C23.4787 10.6744 23.227 10.6889 22.9952 10.8333Z" fill="#F97A90"/>
<path d="M6.93624 20.7641C4.55422 21.8427 2.35197 22.2023 2.03736 21.4832C1.72276 20.809 3.43062 19.3708 5.81264 18.2472C8.19467 17.1685 8.77894 17.573 9.09354 18.2472C9.40815 18.9663 9.31826 19.6854 6.93624 20.7641Z" fill="#EF112C"/>
<path d="M9.09352 18.2921C9.40813 18.9663 9.36318 19.6854 6.93622 20.764C4.5542 21.8427 2.35196 22.2022 2.03735 21.4831" fill="#B20026"/>
<path d="M7.93984 19.7137C8.07538 19.652 8.03521 19.2724 7.85012 18.8658C7.66503 18.4592 7.4051 18.1796 7.26956 18.2413C7.13402 18.303 7.17419 18.6827 7.35928 19.0893C7.54437 19.4958 7.8043 19.7754 7.93984 19.7137Z" fill="#B20026"/>
<path d="M6.857 20.2014C6.99259 20.1398 6.95266 19.7601 6.76782 19.3534C6.58298 18.9466 6.32323 18.6668 6.18764 18.7284C6.05205 18.79 6.09198 19.1697 6.27682 19.5765C6.46166 19.9833 6.72141 20.2631 6.857 20.2014Z" fill="#B20026"/>
<path d="M5.77773 20.6867C5.91327 20.625 5.8731 20.2454 5.68801 19.8388C5.50292 19.4322 5.24299 19.1526 5.10745 19.2143C4.97191 19.276 5.01208 19.6556 5.19717 20.0622C5.38226 20.4688 5.64219 20.7484 5.77773 20.6867Z" fill="#B20026"/>
<path d="M4.6943 21.1757C4.82987 21.114 4.78986 20.7343 4.60493 20.3276C4.42001 19.9209 4.16019 19.6412 4.02462 19.7028C3.88905 19.7645 3.92906 20.1441 4.11398 20.5508C4.29891 20.9576 4.55873 21.2373 4.6943 21.1757Z" fill="#B20026"/>
<path d="M8.33269 17.76C8.06896 17.6893 7.8239 17.7486 7.78533 17.8925C7.74675 18.0363 7.92928 18.2103 8.19301 18.281C8.45674 18.3517 8.7018 18.2924 8.74037 18.1486C8.77895 18.0047 8.59642 17.8308 8.33269 17.76Z" fill="#F97A90"/>
<path d="M29.6328 12.5393C27.5654 13.3932 25.7677 12.2247 24.1497 14.0674C23.2059 15.146 23.6553 16.6292 24.1047 18.2921H24.0598C25.7227 18.7415 27.1609 19.0561 28.2396 18.1123C30.0373 16.4494 28.7789 14.6067 29.6328 12.5393Z" fill="#82C60A"/>
<path d="M24.1048 18.1573V18.2921H24.0598C25.7227 18.7415 27.1609 19.0562 28.2396 18.1123C30.0823 16.4494 28.8239 14.6067 29.6778 12.5393L29.7227 12.4944" fill="#5EA304"/>
<path d="M27.116 15.1011L26.8014 13.618V15.4607L28.6441 15.4157L27.116 15.1011Z" fill="#74B208"/>
<path d="M25.2284 17.0337L24.9138 15.5506V17.3483H26.7565L25.2284 17.0337Z" fill="#74B208"/>
<path d="M26.2171 16.0449L25.8126 14.3371V16.4045H27.88L26.2171 16.0449Z" fill="#74B208"/>
<path d="M16.1047 12.4044C18.5767 12.2696 20.689 13.3483 21.0935 14.7865C21.1385 14.6067 21.1385 14.4719 21.1385 14.2921C21.0486 12.5842 18.8014 11.2809 16.0598 11.4157C13.3182 11.5505 11.1609 13.0337 11.2508 14.7415C11.2508 14.9213 11.2958 15.0561 11.3407 15.2359C11.6104 13.7528 13.6328 12.4943 16.1047 12.4044Z" fill="#F4F1E6"/>
<path d="M30.0373 17.7978C27.9699 18.6517 26.1722 17.4832 24.5542 19.3258C23.6104 20.4045 24.1047 21.8876 24.5542 23.5506H24.4643C26.1272 24 27.5654 24.3146 28.5991 23.3708C30.4418 21.7079 29.1834 19.8202 30.0373 17.7978Z" fill="#82C60A"/>
<path d="M24.5542 23.5506H24.4643C26.1272 24 27.5654 24.3146 28.5992 23.3708C30.4418 21.7079 29.1834 19.8652 30.0374 17.7978H29.9924L30.0823 17.8427" fill="#5EA304"/>
<path d="M27.5205 20.3146L27.1609 18.8314L27.2059 20.6741L29.0036 20.6292L27.5205 20.3146Z" fill="#74B208"/>
<path d="M25.6328 22.2472L25.2733 20.764L25.3182 22.6067L27.116 22.5618L25.6328 22.2472Z" fill="#74B208"/>
<path d="M26.6216 21.2584L26.2171 19.5955V21.6629L28.2845 21.6179L26.6216 21.2584Z" fill="#74B208"/>
<path d="M29.7228 23.9999C28.4643 18.1573 22.7565 13.7528 15.925 13.7528C9.09357 13.7528 3.34076 18.1573 2.08234 23.9999H29.7228Z" fill="#FFDC6C"/>
<path d="M10.1722 23.9999H29.7228C28.4643 18.1573 22.6666 13.7528 15.7902 13.7528" fill="#EABB47"/>
<path d="M6.80138 19.9101C7.09924 19.9101 7.34071 19.6686 7.34071 19.3707C7.34071 19.0729 7.09924 18.8314 6.80138 18.8314C6.50352 18.8314 6.26205 19.0729 6.26205 19.3707C6.26205 19.6686 6.50352 19.9101 6.80138 19.9101Z" fill="#F4CB56"/>
<path d="M16.3744 22.2472C16.6723 22.2472 16.9137 22.0057 16.9137 21.7079C16.9137 21.41 16.6723 21.1685 16.3744 21.1685C16.0765 21.1685 15.8351 21.41 15.8351 21.7079C15.8351 22.0057 16.0765 22.2472 16.3744 22.2472Z" fill="#FFDC6C"/>
<path d="M24.1497 21.7528C24.4476 21.7528 24.689 21.5113 24.689 21.2135C24.689 20.9156 24.4476 20.6742 24.1497 20.6742C23.8518 20.6742 23.6104 20.9156 23.6104 21.2135C23.6104 21.5113 23.8518 21.7528 24.1497 21.7528Z" fill="#FFDC6C"/>
<path d="M18.4419 20.2247C18.7397 20.2247 18.9812 19.9832 18.9812 19.6854C18.9812 19.3875 18.7397 19.1461 18.4419 19.1461C18.144 19.1461 17.9025 19.3875 17.9025 19.6854C17.9025 19.9832 18.144 20.2247 18.4419 20.2247Z" fill="#FFDC6C"/>
<path d="M23.7901 19.5506C24.088 19.5506 24.3294 19.3091 24.3294 19.0112C24.3294 18.7134 24.088 18.4719 23.7901 18.4719C23.4923 18.4719 23.2508 18.7134 23.2508 19.0112C23.2508 19.3091 23.4923 19.5506 23.7901 19.5506Z" fill="#B28E32"/>
<path d="M19.8351 18.2471C20.3315 18.2471 20.7339 17.8447 20.7339 17.3483C20.7339 16.8518 20.3315 16.4494 19.8351 16.4494C19.3386 16.4494 18.9362 16.8518 18.9362 17.3483C18.9362 17.8447 19.3386 18.2471 19.8351 18.2471Z" fill="#FFDC6C"/>
<path d="M20.8238 20.1797C20.9728 20.1797 21.0935 20.059 21.0935 19.91C21.0935 19.7611 20.9728 19.6404 20.8238 19.6404C20.6749 19.6404 20.5542 19.7611 20.5542 19.91C20.5542 20.059 20.6749 20.1797 20.8238 20.1797Z" fill="#FFDC6C"/>
<path d="M16.1946 18.337C16.3684 18.337 16.5092 18.1962 16.5092 18.0224C16.5092 17.8486 16.3684 17.7078 16.1946 17.7078C16.0209 17.7078 15.88 17.8486 15.88 18.0224C15.88 18.1962 16.0209 18.337 16.1946 18.337Z" fill="#FFDC6C"/>
<path d="M11.2508 18.1123C11.5487 18.1123 11.7901 17.8709 11.7901 17.573C11.7901 17.2751 11.5487 17.0337 11.2508 17.0337C10.953 17.0337 10.7115 17.2751 10.7115 17.573C10.7115 17.8709 10.953 18.1123 11.2508 18.1123Z" fill="#F4CB56"/>
<path d="M12.5093 16.3146C12.8071 16.3146 13.0486 16.0731 13.0486 15.7753C13.0486 15.4774 12.8071 15.2359 12.5093 15.2359C12.2114 15.2359 11.9699 15.4774 11.9699 15.7753C11.9699 16.0731 12.2114 16.3146 12.5093 16.3146Z" fill="#CEAB4A"/>
<path d="M26.8463 22.7865C27.2187 22.7865 27.5205 22.4847 27.5205 22.1123C27.5205 21.74 27.2187 21.4382 26.8463 21.4382C26.474 21.4382 26.1722 21.74 26.1722 22.1123C26.1722 22.4847 26.474 22.7865 26.8463 22.7865Z" fill="#B28E32"/>
<path d="M20.4194 22.3371C20.5683 22.3371 20.689 22.2163 20.689 22.0674C20.689 21.9185 20.5683 21.7977 20.4194 21.7977C20.2705 21.7977 20.1497 21.9185 20.1497 22.0674C20.1497 22.2163 20.2705 22.3371 20.4194 22.3371Z" fill="#B28E32"/>
<path d="M13.5879 22.2921C13.7369 22.2921 13.8576 22.1714 13.8576 22.0224C13.8576 21.8735 13.7369 21.7528 13.5879 21.7528C13.439 21.7528 13.3183 21.8735 13.3183 22.0224C13.3183 22.1714 13.439 22.2921 13.5879 22.2921Z" fill="#B28E32"/>
<path d="M17.0935 16.4494C17.2424 16.4494 17.3632 16.3287 17.3632 16.1797C17.3632 16.0308 17.2424 15.9101 17.0935 15.9101C16.9446 15.9101 16.8239 16.0308 16.8239 16.1797C16.8239 16.3287 16.9446 16.4494 17.0935 16.4494Z" fill="#B28E32"/>
<path d="M8.05982 21.8876C8.20875 21.8876 8.32949 21.7668 8.32949 21.6179C8.32949 21.469 8.20875 21.3483 8.05982 21.3483C7.91089 21.3483 7.79016 21.469 7.79016 21.6179C7.79016 21.7668 7.91089 21.8876 8.05982 21.8876Z" fill="#F4CB56"/>
<path d="M9.40812 20.3145C9.55705 20.3145 9.67778 20.1938 9.67778 20.0449C9.67778 19.896 9.55705 19.7752 9.40812 19.7752C9.25919 19.7752 9.13846 19.896 9.13846 20.0449C9.13846 20.1938 9.25919 20.3145 9.40812 20.3145Z" fill="#CEAB4A"/>
<path d="M4.86878 22.9662C5.19147 22.9662 5.45305 22.7047 5.45305 22.382C5.45305 22.0593 5.19147 21.7977 4.86878 21.7977C4.5461 21.7977 4.28452 22.0593 4.28452 22.382C4.28452 22.7047 4.5461 22.9662 4.86878 22.9662Z" fill="#CEAB4A"/>
<path d="M17.9924 10.4719C20.1048 11.2809 21.4082 13.0337 21.1834 14.5618C21.2733 14.4269 21.3632 14.2921 21.4082 14.1573C22.0374 12.5393 20.6441 10.5168 18.352 9.61795C16.0149 8.71908 13.6329 9.25841 13.0037 10.8764C12.9587 11.0112 12.9138 11.191 12.8688 11.3258C13.7228 10.0224 15.8801 9.61796 17.9924 10.4719Z" fill="#F4F1E6"/>
</svg>
