<svg width="150" height="150" viewBox="0 0 150 150" fill="none" xmlns="http://www.w3.org/2000/svg">
<path d="M75 140C110.899 140 140 110.899 140 75C140 39.1015 110.899 10 75 10C39.1015 10 10 39.1015 10 75C10 110.899 39.1015 140 75 140Z" fill="#14171A"/>
<path d="M115 49.6963C112.057 51.0016 108.893 51.8839 105.573 52.2807C108.962 50.2493 111.564 47.0328 112.79 43.2003C109.619 45.081 106.106 46.447 102.367 47.1832C99.3734 43.9933 95.1078 42 90.3872 42C81.3227 42 73.9738 49.3486 73.9738 58.4126C73.9738 59.699 74.1192 60.9517 74.399 62.1529C60.7581 61.4685 48.6643 54.9342 40.5692 45.0044C39.1564 47.4284 38.347 50.2479 38.347 53.2557C38.347 58.9499 41.2449 63.9736 45.6488 66.9168C42.9582 66.8316 40.4276 66.0933 38.2145 64.864C38.2133 64.9325 38.2133 65.0013 38.2133 65.0703C38.2133 73.0226 43.8708 79.6564 51.3792 81.164C50.0019 81.5391 48.5519 81.7396 47.0549 81.7396C45.9973 81.7396 44.9691 81.6369 43.9671 81.4452C46.0556 87.966 52.1169 92.7111 59.2991 92.8437C53.6819 97.2456 46.6048 99.8696 38.9153 99.8696C37.5906 99.8696 36.284 99.792 35 99.6404C42.2635 104.297 50.8909 107.014 60.1597 107.014C90.3489 107.014 106.857 82.0047 106.857 60.3158C106.857 59.6042 106.842 58.8963 106.81 58.1925C110.017 55.8785 112.799 52.9877 115 49.6963Z" fill="#55ACEE"/>
</svg>
