<svg width="32" height="32" viewBox="0 0 32 32" fill="none" xmlns="http://www.w3.org/2000/svg">
<path d="M27.3419 10.5055C27.0752 9.52001 26.3054 8.75019 25.3199 8.48352C23.547 8 16.4115 8 16.4115 8C16.4115 8 9.27594 8.01465 7.50304 8.49817C6.51755 8.76484 5.74773 9.53466 5.48106 10.5201C4.9448 13.6703 4.73674 18.4703 5.49572 21.4945C5.76238 22.48 6.53221 23.2498 7.51769 23.5165C9.29059 24 16.4261 24 16.4261 24C16.4261 24 23.5616 24 25.3345 23.5165C26.32 23.2498 27.0899 22.48 27.3565 21.4945C27.9221 18.3399 28.0964 13.5429 27.3419 10.5055Z" fill="#FF0000"/>
<path d="M14.1404 19.4286L20.0598 16L14.1404 12.5714V19.4286Z" fill="white"/>
</svg>
