<svg width="150" height="150" viewBox="0 0 150 150" fill="none" xmlns="http://www.w3.org/2000/svg">
<path d="M75 140C110.899 140 140 110.899 140 75C140 39.1015 110.899 10 75 10C39.1015 10 10 39.1015 10 75C10 110.899 39.1015 140 75 140Z" fill="#212121"/>
<path d="M110.443 57.8297C109.61 54.75 107.204 52.3443 104.125 51.511C98.5844 50 76.2859 50 76.2859 50C76.2859 50 53.9873 50.0458 48.447 51.5568C45.3673 52.3901 42.9617 54.7958 42.1283 57.8753C40.4525 67.7197 39.8023 82.7197 42.1741 92.1703C43.0074 95.25 45.4132 97.6556 48.4928 98.4891C54.0331 100 76.3316 100 76.3316 100C76.3316 100 98.63 100 104.17 98.4891C107.25 97.6556 109.656 95.25 110.489 92.1703C112.257 82.3122 112.801 67.3216 110.443 57.8297Z" fill="#FF0000"/>
<path d="M69.1887 85.7144L87.6868 75L69.1887 64.2856V85.7144Z" fill="white"/>
</svg>
