<?xml version="1.0" encoding="UTF-8" standalone="no"?><!-- Generator: Gravit.io --><svg xmlns="http://www.w3.org/2000/svg" xmlns:xlink="http://www.w3.org/1999/xlink" style="isolation:isolate" viewBox="0 0 150 150" width="150pt" height="150pt"><circle vector-effect="non-scaling-stroke" cx="75" cy="75" r="65" fill="rgb(251,109,67)"/><g><path d=" M 75 35 C 52.91 35 35 52.91 35 75 C 35 97.093 52.91 115 75 115 L 75.516 114.994 C 97.369 114.715 108.479 96.918 108.479 75 C 108.479 52.91 97.09 35 75 35 Z " fill="rgb(0,0,0)"/><g><circle vector-effect="non-scaling-stroke" cx="74.99972870320127" cy="95.00108518719465" r="8.100651112316868" fill="rgb(255,255,255)"/><path d=" M 75 35 C 97.09 35 115 52.91 115 75 C 115 96.918 97.369 114.715 75.516 114.994 C 86.324 114.718 95 105.873 95 95 C 95 83.955 86.045 75 75 75 C 63.955 75 55 66.045 55 55 C 55 43.955 63.955 35 75 35 Z  M 83.101 55 C 83.101 50.529 79.474 46.902 75 46.902 C 70.526 46.902 66.899 50.529 66.899 55 C 66.899 59.474 70.526 63.101 75 63.101 C 79.474 63.101 83.101 59.474 83.101 55 Z " fill="rgb(255,255,255)"/></g></g></svg>