<?xml version="1.0" encoding="UTF-8" standalone="no"?><!-- Generator: Gravit.io --><svg xmlns="http://www.w3.org/2000/svg" xmlns:xlink="http://www.w3.org/1999/xlink" style="isolation:isolate" viewBox="0 0 150 150" width="150pt" height="150pt"><circle vector-effect="non-scaling-stroke" cx="75" cy="75" r="65" fill="rgb(250,175,58)"/><g><g><g><rect x="61.586" y="70.332" width="26.828" height="9.337" transform="matrix(0.707,-0.707,0.707,0.707,-31.066,75)" fill="rgb(255,255,255)"/><path d=" M 47.569 92.114 L 48.24 92.785 C 47.84 92.881 47.464 93.05 47.157 93.357 C 46.245 94.269 46.246 95.744 47.156 96.654 L 53.346 102.844 C 54.256 103.754 55.731 103.755 56.643 102.843 C 56.95 102.536 57.119 102.16 57.215 101.76 L 57.886 102.431 C 59.567 104.112 62.2 104.223 64.03 102.801 L 47.199 85.97 C 45.777 87.8 45.888 90.433 47.569 92.114 Z " fill="rgb(255,255,255)"/><path d=" M 93.357 47.157 C 93.05 47.464 92.881 47.84 92.785 48.24 L 92.115 47.569 C 90.433 45.888 87.8 45.777 85.971 47.199 L 102.802 64.03 C 104.223 62.2 104.113 59.567 102.431 57.886 L 101.761 57.215 C 102.161 57.119 102.537 56.951 102.844 56.643 C 103.755 55.732 103.754 54.257 102.844 53.347 L 96.654 47.157 C 95.744 46.246 94.269 46.245 93.357 47.157 Z " fill="rgb(255,255,255)"/><path d=" M 46.955 75.828 C 45.134 77.649 45.134 80.605 46.957 82.428 L 67.572 103.043 C 69.395 104.866 72.352 104.865 74.172 103.045 C 75.995 101.222 75.995 98.266 74.172 96.443 L 53.557 75.828 C 51.734 74.005 48.778 74.005 46.955 75.828 Z " fill="rgb(255,255,255)"/><path d=" M 75.828 46.955 C 74.005 48.778 74.005 51.734 75.828 53.557 L 96.443 74.172 C 98.266 75.995 101.222 75.995 103.045 74.172 C 104.866 72.351 104.866 69.395 103.043 67.572 L 82.428 46.957 C 80.605 45.134 77.649 45.134 75.828 46.955 Z " fill="rgb(255,255,255)"/></g></g></g></svg>