<?xml version="1.0" encoding="UTF-8" standalone="no"?><!-- Generator: Gravit.io --><svg xmlns="http://www.w3.org/2000/svg" xmlns:xlink="http://www.w3.org/1999/xlink" style="isolation:isolate" viewBox="0 0 150 150" width="150pt" height="150pt"><defs><clipPath id="_clipPath_JF1nnXhPrwvyQ49P4h76qPDYNlWqRlxq"><rect width="150" height="150"/></clipPath></defs><g clip-path="url(#_clipPath_JF1nnXhPrwvyQ49P4h76qPDYNlWqRlxq)"><circle vector-effect="non-scaling-stroke" cx="75" cy="75" r="65" fill="rgb(36,41,46)"/><path d=" M 75 40.867 C 55.663 40.867 40 56.538 40 75.867 C 40 91.334 50.028 104.45 63.931 109.073 C 65.681 109.402 66.323 108.32 66.323 107.39 C 66.323 106.559 66.294 104.357 66.279 101.44 C 56.543 103.552 54.49 96.744 54.49 96.744 C 52.898 92.705 50.596 91.625 50.596 91.625 C 47.426 89.455 50.841 89.499 50.841 89.499 C 54.356 89.744 56.202 93.104 56.202 93.104 C 59.323 98.456 64.395 96.91 66.396 96.015 C 66.711 93.752 67.612 92.209 68.613 91.334 C 60.84 90.459 52.67 87.449 52.67 74.038 C 52.67 70.217 54.026 67.096 56.272 64.646 C 55.878 63.762 54.697 60.204 56.578 55.383 C 56.578 55.383 59.51 54.444 66.203 58.97 C 69.003 58.192 71.978 57.807 74.953 57.789 C 77.928 57.807 80.903 58.192 83.703 58.97 C 90.353 54.444 93.285 55.383 93.285 55.383 C 95.166 60.204 93.985 63.762 93.635 64.646 C 95.866 67.096 97.222 70.217 97.222 74.038 C 97.222 87.484 89.041 90.444 81.253 91.305 C 82.478 92.355 83.616 94.501 83.616 97.78 C 83.616 102.464 83.572 106.226 83.572 107.364 C 83.572 108.282 84.185 109.376 85.978 109.026 C 99.981 104.435 110 91.31 110 75.867 C 110 56.538 94.329 40.867 75 40.867 Z " fill="rgb(255,255,255)"/></g></svg>