<?xml version="1.0" encoding="UTF-8" standalone="no"?><!-- Generator: Gravit.io --><svg xmlns="http://www.w3.org/2000/svg" xmlns:xlink="http://www.w3.org/1999/xlink" style="isolation:isolate" viewBox="0 0 150 150" width="150pt" height="150pt"><circle vector-effect="non-scaling-stroke" cx="75" cy="75" r="65" fill="rgb(225,0,152)"/><path d=" M 81.722 44.69 L 97.894 54.029 C 100.569 51.214 105.016 51.103 107.831 53.777 C 108.316 54.236 108.729 54.764 109.066 55.34 C 110.997 58.709 109.827 63.006 106.458 64.936 C 105.887 65.264 105.275 65.509 104.629 65.667 L 104.629 84.343 C 108.385 85.238 110.705 89.007 109.807 92.762 C 109.65 93.431 109.391 94.073 109.047 94.666 C 107.107 98.019 102.817 99.169 99.454 97.229 C 98.812 96.859 98.225 96.38 97.731 95.823 L 81.656 105.104 C 82.875 108.788 80.876 112.756 77.196 113.972 C 76.485 114.205 75.747 114.326 75 114.326 C 71.13 114.329 67.99 111.196 67.987 107.326 C 67.987 106.654 68.082 105.982 68.275 105.33 L 52.099 96 C 49.425 98.799 44.985 98.907 42.183 96.229 C 39.384 93.555 39.279 89.115 41.953 86.313 C 42.881 85.339 44.07 84.655 45.375 84.337 L 45.378 65.66 C 41.609 64.756 39.289 60.964 40.197 57.192 C 40.351 56.543 40.6 55.917 40.931 55.337 C 42.871 51.981 47.164 50.834 50.523 52.774 C 51.103 53.105 51.634 53.521 52.096 54.01 L 68.279 44.67 C 67.178 40.957 69.298 37.06 73.001 35.962 C 73.647 35.769 74.325 35.674 75 35.674 C 78.871 35.671 82.01 38.8 82.013 42.668 C 82.017 43.352 81.915 44.037 81.722 44.69 Z  M 80.034 47.564 C 79.972 47.632 79.913 47.691 79.844 47.754 L 101.018 84.425 C 101.103 84.396 101.201 84.373 101.286 84.35 L 101.286 65.647 C 97.534 64.72 95.25 60.921 96.181 57.166 C 96.2 57.087 96.22 57.005 96.243 56.93 L 80.034 47.564 Z  M 70.153 47.757 L 69.957 47.56 L 53.748 56.907 C 54.819 60.626 52.676 64.503 48.96 65.575 C 48.875 65.601 48.793 65.621 48.711 65.644 L 48.711 84.35 L 48.986 84.425 L 70.16 47.754 L 70.153 47.757 Z  M 76.957 49.418 C 75.679 49.786 74.325 49.786 73.05 49.418 L 51.88 86.087 C 52.843 87.014 53.525 88.2 53.846 89.498 L 96.158 89.498 C 96.475 88.194 97.164 87.004 98.134 86.077 L 76.957 49.418 Z  M 80.188 102.597 L 96.289 93.296 C 96.239 93.142 96.2 92.988 96.164 92.831 L 53.836 92.831 L 53.767 93.103 L 69.953 102.45 C 71.225 101.126 73.014 100.31 75 100.31 C 77.055 100.31 78.9 101.191 80.188 102.597 Z " fill="rgb(255,255,255)"/></svg>