<?xml version="1.0" encoding="UTF-8" standalone="no"?><!-- Generator: Gravit.io --><svg xmlns="http://www.w3.org/2000/svg" xmlns:xlink="http://www.w3.org/1999/xlink" style="isolation:isolate" viewBox="0 0 150 150" width="150pt" height="150pt"><defs><clipPath id="_clipPath_cXaMf6J4fRjN8slNbpAscOXXj4t6zFZv"><rect width="150" height="150"/></clipPath></defs><g clip-path="url(#_clipPath_cXaMf6J4fRjN8slNbpAscOXXj4t6zFZv)"><circle vector-effect="non-scaling-stroke" cx="75" cy="75" r="65" fill="rgb(17,17,17)"/><path d=" M 91.954 105.627 C 91.694 105.764 91.709 105.82 91.968 105.688 C 92.044 105.656 92.114 105.609 92.173 105.551 C 92.173 105.505 92.167 105.51 91.954 105.627 Z  M 92.473 105.353 C 92.351 105.449 92.351 105.455 92.499 105.379 C 92.581 105.338 92.651 105.292 92.651 105.277 C 92.651 105.222 92.616 105.236 92.473 105.353 Z  M 92.814 105.146 C 92.692 105.242 92.692 105.248 92.841 105.172 C 92.922 105.131 92.992 105.085 92.992 105.07 C 92.992 105.015 92.957 105.029 92.814 105.146 Z  M 93.156 104.942 C 93.033 105.038 93.033 105.044 93.182 104.968 C 93.263 104.927 93.333 104.88 93.333 104.866 C 93.333 104.81 93.298 104.825 93.156 104.942 Z  M 93.628 104.635 C 93.389 104.787 93.313 104.889 93.526 104.772 C 93.678 104.685 93.923 104.498 93.882 104.492 C 93.792 104.531 93.707 104.579 93.628 104.635 Z  M 72.706 40.011 C 72.554 40.026 72.076 40.072 71.644 40.107 C 61.704 41.003 52.391 46.367 46.493 54.612 C 43.232 59.138 41.113 64.385 40.315 69.905 C 40.035 71.827 40 72.396 40 75.004 C 40 77.611 40.035 78.177 40.315 80.102 C 42.217 93.245 51.571 104.288 64.256 108.381 C 66.528 109.113 68.923 109.611 71.644 109.912 C 72.706 110.029 77.288 110.029 78.35 109.912 C 83.049 109.393 87.033 108.229 90.959 106.225 C 91.56 105.916 91.677 105.834 91.595 105.767 C 89.677 103.233 87.777 100.686 85.896 98.125 L 80.298 90.565 L 73.286 80.187 C 70.955 76.714 68.601 73.257 66.225 69.815 C 66.199 69.809 66.169 74.42 66.158 80.05 C 66.137 89.909 66.132 90.305 66.006 90.539 C 65.887 90.811 65.674 91.032 65.405 91.16 C 65.186 91.271 64.994 91.291 63.961 91.291 L 62.777 91.291 L 62.462 91.093 C 62.268 90.97 62.11 90.798 62.004 90.594 L 61.861 90.285 L 61.876 76.567 L 61.896 62.844 L 62.109 62.578 C 62.252 62.41 62.424 62.269 62.617 62.161 C 62.897 62.024 63.008 62.009 64.192 62.009 C 65.589 62.009 65.819 62.065 66.184 62.462 C 69.022 66.686 71.837 70.926 74.628 75.182 C 79.172 82.071 85.382 91.478 88.436 96.098 L 93.978 104.492 L 94.258 104.309 C 96.925 102.535 99.343 100.413 101.448 98 C 105.858 92.953 108.718 86.74 109.685 80.108 C 109.965 78.186 110 77.617 110 75.01 C 110 72.402 109.965 71.836 109.685 69.911 C 107.783 56.768 98.429 45.725 85.744 41.633 C 83.373 40.878 80.932 40.367 78.458 40.107 C 77.802 40.04 73.278 39.964 72.712 40.02 L 72.706 40.011 Z  M 87.033 61.181 C 87.363 61.347 87.612 61.638 87.724 61.989 C 87.78 62.167 87.792 65.97 87.78 74.543 L 87.759 86.846 L 85.589 83.521 L 83.413 80.196 L 83.413 71.253 C 83.413 65.472 83.44 62.222 83.481 62.065 C 83.581 61.698 83.825 61.386 84.157 61.202 C 84.437 61.059 84.539 61.044 85.616 61.044 C 86.628 61.044 86.806 61.059 87.033 61.181 Z " fill="rgb(255,255,255)"/></g></svg>