<?xml version="1.0" encoding="UTF-8" standalone="no"?><!-- Generator: Gravit.io --><svg xmlns="http://www.w3.org/2000/svg" xmlns:xlink="http://www.w3.org/1999/xlink" style="isolation:isolate" viewBox="0 0 150 150" width="150pt" height="150pt"><circle vector-effect="non-scaling-stroke" cx="75" cy="75" r="65" fill="rgb(2,110,0)"/><path d=" M 74.995 114.469 C 73.939 114.469 72.887 114.192 71.963 113.656 L 62.306 107.943 C 60.865 107.137 61.569 106.851 62.043 106.683 C 63.967 106.016 64.355 105.861 66.411 104.697 C 66.625 104.575 66.907 104.621 67.128 104.753 L 74.548 109.157 C 74.817 109.305 75.196 109.305 75.442 109.157 L 104.369 92.462 C 104.639 92.307 104.81 91.998 104.81 91.679 L 104.81 58.296 C 104.81 57.97 104.636 57.664 104.359 57.5 L 75.446 40.818 C 75.179 40.663 74.824 40.663 74.554 40.818 L 45.647 57.503 C 45.368 57.664 45.19 57.98 45.19 58.296 L 45.19 91.679 C 45.19 91.998 45.368 92.301 45.647 92.452 L 53.57 97.03 C 57.869 99.181 60.504 96.649 60.504 94.103 L 60.504 61.144 C 60.504 60.677 60.879 60.312 61.346 60.312 L 65.013 60.312 C 65.47 60.312 65.852 60.68 65.852 61.144 L 65.852 94.103 C 65.852 99.842 62.727 103.131 57.287 103.131 C 55.616 103.131 54.297 103.131 50.624 101.319 L 43.032 96.955 C 41.158 95.872 40 93.846 40 91.679 L 40 58.296 C 40 56.128 41.161 54.102 43.032 53.023 L 71.959 36.308 C 73.791 35.272 76.222 35.272 78.037 36.308 L 106.961 53.023 C 108.836 54.105 110 56.128 110 58.296 L 110 91.679 C 110 93.846 108.836 95.866 106.961 96.955 L 78.037 113.656 C 77.116 114.192 76.067 114.469 74.995 114.469 Z  M 98.35 81.555 C 98.35 75.306 94.127 73.642 85.237 72.468 C 76.255 71.281 75.34 70.665 75.34 68.564 C 75.34 66.827 76.113 64.508 82.767 64.508 C 88.71 64.508 90.901 65.788 91.802 69.794 C 91.881 70.172 92.226 70.448 92.614 70.448 L 96.367 70.448 C 96.601 70.448 96.821 70.346 96.979 70.182 C 97.137 70.004 97.222 69.777 97.199 69.537 C 96.617 62.637 92.032 59.42 82.767 59.42 C 74.518 59.42 69.598 62.9 69.598 68.738 C 69.598 75.069 74.492 76.819 82.408 77.602 C 91.881 78.53 92.614 79.914 92.614 81.776 C 92.614 85.009 90.019 86.387 83.925 86.387 C 76.271 86.387 74.587 84.466 74.022 80.658 C 73.956 80.25 73.607 79.95 73.189 79.95 L 69.45 79.95 C 68.986 79.95 68.614 80.319 68.614 80.782 C 68.614 85.657 71.265 91.465 83.925 91.465 C 93.094 91.468 98.35 87.86 98.35 81.555 Z " fill="rgb(255,255,255)"/></svg>