<?xml version="1.0" encoding="UTF-8" standalone="no"?><!-- Generator: Gravit.io --><svg xmlns="http://www.w3.org/2000/svg" xmlns:xlink="http://www.w3.org/1999/xlink" style="isolation:isolate" viewBox="0 0 150 150" width="150pt" height="150pt"><defs><clipPath id="_clipPath_QNJVNtxRD76YbZ8KHQGI2d0R1AZt12K9"><rect width="150" height="150"/></clipPath></defs><g clip-path="url(#_clipPath_QNJVNtxRD76YbZ8KHQGI2d0R1AZt12K9)"><circle vector-effect="non-scaling-stroke" cx="75" cy="75" r="65" fill="rgb(119,123,180)"/><path d=" M 50.528 90.972 L 50.528 90.972 L 50.528 90.972 Q 47.888 90.972 45.952 89.872 L 45.952 89.872 L 45.952 89.872 Q 44.016 88.772 42.96 86.792 L 42.96 86.792 L 42.96 99.904 L 35.92 99.904 L 35.92 67.432 L 42.036 67.432 L 42.036 71.172 L 42.036 71.172 Q 43.312 69.192 45.226 68.092 L 45.226 68.092 L 45.226 68.092 Q 47.14 66.992 49.78 66.992 L 49.78 66.992 L 49.78 66.992 Q 52.112 66.992 54.07 67.916 L 54.07 67.916 L 54.07 67.916 Q 56.028 68.84 57.458 70.446 L 57.458 70.446 L 57.458 70.446 Q 58.888 72.052 59.702 74.23 L 59.702 74.23 L 59.702 74.23 Q 60.516 76.408 60.516 78.916 L 60.516 78.916 L 60.516 78.916 Q 60.516 81.512 59.768 83.712 L 59.768 83.712 L 59.768 83.712 Q 59.02 85.912 57.7 87.518 L 57.7 87.518 L 57.7 87.518 Q 56.38 89.124 54.532 90.048 L 54.532 90.048 L 54.532 90.048 Q 52.684 90.972 50.528 90.972 Z  M 48.152 85.032 L 48.152 85.032 L 48.152 85.032 Q 49.296 85.032 50.242 84.526 L 50.242 84.526 L 50.242 84.526 Q 51.188 84.02 51.892 83.184 L 51.892 83.184 L 51.892 83.184 Q 52.596 82.348 52.97 81.226 L 52.97 81.226 L 52.97 81.226 Q 53.344 80.104 53.344 78.872 L 53.344 78.872 L 53.344 78.872 Q 53.344 77.596 52.926 76.518 L 52.926 76.518 L 52.926 76.518 Q 52.508 75.44 51.782 74.648 L 51.782 74.648 L 51.782 74.648 Q 51.056 73.856 50.022 73.416 L 50.022 73.416 L 50.022 73.416 Q 48.988 72.976 47.8 72.976 L 47.8 72.976 L 47.8 72.976 Q 46.348 72.976 45.006 73.834 L 45.006 73.834 L 45.006 73.834 Q 43.664 74.692 42.96 76.144 L 42.96 76.144 L 42.96 80.896 L 42.96 80.896 Q 43.664 82.656 45.094 83.844 L 45.094 83.844 L 45.094 83.844 Q 46.524 85.032 48.152 85.032 Z  M 86.344 75.748 L 86.344 90.532 L 79.304 90.532 L 79.304 77.552 L 79.304 77.552 Q 79.304 75.308 78.424 74.252 L 78.424 74.252 L 78.424 74.252 Q 77.544 73.196 76.004 73.196 L 76.004 73.196 L 76.004 73.196 Q 75.388 73.196 74.662 73.482 L 74.662 73.482 L 74.662 73.482 Q 73.936 73.768 73.254 74.318 L 73.254 74.318 L 73.254 74.318 Q 72.572 74.868 72 75.616 L 72 75.616 L 72 75.616 Q 71.428 76.364 71.12 77.288 L 71.12 77.288 L 71.12 90.532 L 64.08 90.532 L 64.08 58.412 L 71.12 58.412 L 71.12 71.304 L 71.12 71.304 Q 72.396 69.236 74.486 68.114 L 74.486 68.114 L 74.486 68.114 Q 76.576 66.992 79.084 66.992 L 79.084 66.992 L 79.084 66.992 Q 81.416 66.992 82.846 67.806 L 82.846 67.806 L 82.846 67.806 Q 84.276 68.62 85.046 69.874 L 85.046 69.874 L 85.046 69.874 Q 85.816 71.128 86.08 72.69 L 86.08 72.69 L 86.08 72.69 Q 86.344 74.252 86.344 75.748 L 86.344 75.748 L 86.344 75.748 Z  M 105.616 90.972 L 105.616 90.972 L 105.616 90.972 Q 102.976 90.972 101.04 89.872 L 101.04 89.872 L 101.04 89.872 Q 99.104 88.772 98.048 86.792 L 98.048 86.792 L 98.048 99.904 L 91.008 99.904 L 91.008 67.432 L 97.124 67.432 L 97.124 71.172 L 97.124 71.172 Q 98.4 69.192 100.314 68.092 L 100.314 68.092 L 100.314 68.092 Q 102.228 66.992 104.868 66.992 L 104.868 66.992 L 104.868 66.992 Q 107.2 66.992 109.158 67.916 L 109.158 67.916 L 109.158 67.916 Q 111.116 68.84 112.546 70.446 L 112.546 70.446 L 112.546 70.446 Q 113.976 72.052 114.79 74.23 L 114.79 74.23 L 114.79 74.23 Q 115.604 76.408 115.604 78.916 L 115.604 78.916 L 115.604 78.916 Q 115.604 81.512 114.856 83.712 L 114.856 83.712 L 114.856 83.712 Q 114.108 85.912 112.788 87.518 L 112.788 87.518 L 112.788 87.518 Q 111.468 89.124 109.62 90.048 L 109.62 90.048 L 109.62 90.048 Q 107.772 90.972 105.616 90.972 Z  M 103.24 85.032 L 103.24 85.032 L 103.24 85.032 Q 104.384 85.032 105.33 84.526 L 105.33 84.526 L 105.33 84.526 Q 106.276 84.02 106.98 83.184 L 106.98 83.184 L 106.98 83.184 Q 107.684 82.348 108.058 81.226 L 108.058 81.226 L 108.058 81.226 Q 108.432 80.104 108.432 78.872 L 108.432 78.872 L 108.432 78.872 Q 108.432 77.596 108.014 76.518 L 108.014 76.518 L 108.014 76.518 Q 107.596 75.44 106.87 74.648 L 106.87 74.648 L 106.87 74.648 Q 106.144 73.856 105.11 73.416 L 105.11 73.416 L 105.11 73.416 Q 104.076 72.976 102.888 72.976 L 102.888 72.976 L 102.888 72.976 Q 101.436 72.976 100.094 73.834 L 100.094 73.834 L 100.094 73.834 Q 98.752 74.692 98.048 76.144 L 98.048 76.144 L 98.048 80.896 L 98.048 80.896 Q 98.752 82.656 100.182 83.844 L 100.182 83.844 L 100.182 83.844 Q 101.612 85.032 103.24 85.032 Z " fill="rgb(255,255,255)"/></g></svg>