<?xml version="1.0" encoding="UTF-8" standalone="no"?><!-- Generator: Gravit.io --><svg xmlns="http://www.w3.org/2000/svg" xmlns:xlink="http://www.w3.org/1999/xlink" style="isolation:isolate" viewBox="0 0 150 150" width="150pt" height="150pt"><circle vector-effect="non-scaling-stroke" cx="75" cy="75" r="65" fill="rgb(32,35,42)"/><path d=" M 75 66.977 C 72.134 66.977 69.486 68.506 68.053 70.988 C 66.621 73.469 66.621 76.527 68.053 79.009 C 69.486 81.491 72.134 83.019 75 83.019 C 77.866 83.019 80.514 81.491 81.947 79.009 C 83.379 76.527 83.379 73.469 81.947 70.988 C 80.514 68.506 77.866 66.977 75 66.977 L 75 66.977 Z  M 52.53 90.954 L 50.76 90.504 C 37.567 87.171 30 81.512 30 74.983 C 30 68.454 37.567 62.796 50.76 59.462 L 52.53 59.016 L 53.029 60.771 C 54.365 65.375 56.075 69.862 58.14 74.188 L 58.519 74.987 L 58.14 75.786 C 56.071 80.11 54.362 84.598 53.029 89.203 L 52.53 90.954 Z  M 49.939 63.561 C 39.911 66.377 33.757 70.686 33.757 74.983 C 33.757 79.277 39.911 83.586 49.939 86.406 C 51.165 82.505 52.646 78.69 54.371 74.983 C 52.644 71.277 51.163 67.462 49.939 63.561 L 49.939 63.561 Z  M 97.47 90.954 L 96.971 89.196 C 95.636 84.592 93.925 80.106 91.856 75.782 L 91.478 74.983 L 91.856 74.184 C 93.925 69.859 95.635 65.372 96.971 60.767 L 97.47 59.012 L 99.244 59.458 C 112.433 62.792 120 68.451 120 74.983 C 120 81.516 112.433 87.171 99.244 90.504 L 97.47 90.954 Z  M 95.629 74.983 C 97.429 78.879 98.917 82.708 100.061 86.406 C 110.093 83.586 116.243 79.277 116.243 74.983 C 116.243 70.686 110.089 66.381 100.061 63.561 C 98.837 67.462 97.356 71.277 95.629 74.983 L 95.629 74.983 Z  M 49.912 63.542 L 49.414 61.791 C 45.705 48.718 46.83 39.351 52.5 36.081 C 58.061 32.871 66.99 36.662 76.346 46.266 L 77.621 47.574 L 76.346 48.883 C 73.022 52.339 69.984 56.06 67.264 60.009 L 66.758 60.733 L 65.876 60.808 C 61.091 61.185 56.344 61.95 51.682 63.096 L 49.912 63.542 Z  M 57.022 38.679 C 56.018 38.679 55.129 38.897 54.379 39.328 C 50.651 41.477 49.991 48.947 52.56 59.027 C 56.556 58.138 60.606 57.51 64.684 57.148 C 67.037 53.803 69.607 50.616 72.379 47.608 C 66.529 41.912 60.99 38.679 57.022 38.679 Z  M 92.981 115.037 C 92.977 115.037 92.977 115.037 92.981 115.037 C 87.638 115.037 80.775 111.013 73.654 103.701 L 72.379 102.392 L 73.654 101.083 C 76.977 97.626 80.014 93.904 82.733 89.953 L 83.239 89.229 L 84.116 89.154 C 88.904 88.779 93.653 88.016 98.318 86.871 L 100.088 86.424 L 100.59 88.179 C 104.291 101.244 103.17 110.616 97.5 113.882 C 96.123 114.661 94.563 115.059 92.981 115.037 Z  M 77.621 102.358 C 83.471 108.054 89.01 111.287 92.977 111.287 L 92.981 111.287 C 93.983 111.287 94.875 111.069 95.621 110.638 C 99.349 108.489 100.013 101.016 97.44 90.936 C 93.443 91.826 89.392 92.454 85.312 92.814 C 82.963 96.162 80.393 99.35 77.621 102.358 L 77.621 102.358 Z  M 100.088 63.542 L 98.318 63.096 C 93.654 61.947 88.904 61.182 84.116 60.808 L 83.239 60.733 L 82.733 60.009 C 80.015 56.059 76.979 52.338 73.654 48.883 L 72.379 47.574 L 73.654 46.266 C 83.006 36.666 91.931 32.874 97.5 36.081 C 103.17 39.351 104.295 48.718 100.59 61.787 L 100.088 63.542 Z  M 85.313 57.148 C 89.595 57.538 93.664 58.172 97.44 59.027 C 100.013 48.947 99.349 41.477 95.621 39.328 C 91.916 37.187 84.953 40.468 77.621 47.608 C 80.392 50.616 82.961 53.803 85.312 57.148 L 85.313 57.148 Z  M 57.022 115.037 C 55.439 115.06 53.878 114.661 52.5 113.882 C 46.83 110.616 45.705 101.248 49.414 88.179 L 49.909 86.424 L 51.679 86.871 C 56.01 87.962 60.787 88.731 65.873 89.154 L 66.754 89.229 L 67.256 89.953 C 69.977 93.903 73.015 97.625 76.339 101.083 L 77.614 102.392 L 76.339 103.701 C 69.221 111.013 62.359 115.037 57.022 115.037 Z  M 52.56 90.936 C 49.988 101.016 50.651 108.489 54.379 110.638 C 58.08 112.749 65.04 109.494 72.379 102.358 C 69.608 99.348 67.038 96.16 64.684 92.814 C 60.606 92.454 56.556 91.826 52.56 90.936 L 52.56 90.936 Z  M 75 93.291 C 71.914 93.291 68.741 93.156 65.565 92.893 L 64.684 92.818 L 64.178 92.094 C 62.381 89.513 60.692 86.858 59.115 84.137 C 57.543 81.414 56.084 78.626 54.742 75.782 L 54.368 74.983 L 54.743 74.184 C 56.084 71.34 57.543 68.553 59.115 65.829 C 60.668 63.144 62.374 60.467 64.178 57.872 L 64.684 57.148 L 65.565 57.073 C 71.845 56.541 78.159 56.541 84.439 57.073 L 85.316 57.148 L 85.819 57.872 C 89.416 63.036 92.573 68.493 95.258 74.184 L 95.636 74.983 L 95.258 75.782 C 92.579 81.477 89.422 86.934 85.819 92.094 L 85.316 92.818 L 84.439 92.893 C 81.263 93.156 78.086 93.291 75 93.291 Z  M 66.761 89.226 C 72.311 89.642 77.689 89.642 83.243 89.226 C 86.343 84.693 89.096 79.932 91.477 74.983 C 89.1 70.032 86.346 65.27 83.239 60.741 C 77.754 60.324 72.246 60.324 66.761 60.741 C 63.653 65.269 60.898 70.031 58.523 74.983 C 60.907 79.931 63.661 84.692 66.761 89.226 L 66.761 89.226 Z " fill="rgb(97,218,251)"/></svg>