<?xml version="1.0" encoding="UTF-8" standalone="no"?><!-- Generator: Gravit.io --><svg xmlns="http://www.w3.org/2000/svg" xmlns:xlink="http://www.w3.org/1999/xlink" style="isolation:isolate" viewBox="0 0 150 150" width="150pt" height="150pt"><circle vector-effect="non-scaling-stroke" cx="75" cy="75" r="65" fill="rgb(0,0,0)"/><path d=" M 107.611 48.676 C 109.267 48.676 110.303 50.026 109.921 51.695 L 99.249 98.305 C 98.87 99.974 97.216 101.324 95.559 101.324 L 42.389 101.324 C 40.733 101.324 39.697 99.974 40.079 98.305 L 50.751 51.695 C 51.13 50.026 52.784 48.676 54.441 48.676 L 107.611 48.676 Z  M 83.184 75.932 C 83.916 74.783 83.846 73.292 82.922 72.307 L 66.606 54.95 C 65.498 53.768 63.581 53.763 62.33 54.938 C 61.079 56.113 60.965 58.021 62.074 59.199 L 75.671 73.666 L 75.671 73.986 L 54.03 89.657 C 52.717 90.611 52.475 92.507 53.484 93.895 C 54.493 95.284 56.374 95.637 57.684 94.683 L 81.685 77.449 C 82.502 76.874 82.962 76.381 83.184 75.932 Z  M 75.029 88.762 C 74.311 88.757 73.62 89.039 73.109 89.543 C 72.598 90.048 72.309 90.736 72.305 91.454 C 72.305 92.942 73.524 94.146 75.029 94.146 L 87.959 94.146 C 88.677 94.151 89.368 93.87 89.879 93.365 C 90.39 92.86 90.679 92.172 90.683 91.454 C 90.679 90.736 90.39 90.048 89.879 89.543 C 89.368 89.039 88.677 88.757 87.959 88.762 L 75.029 88.762 Z " fill="rgb(37,202,12)"/></svg>