<?xml version="1.0" encoding="UTF-8" standalone="no"?><!-- Generator: Gravit.io --><svg xmlns="http://www.w3.org/2000/svg" xmlns:xlink="http://www.w3.org/1999/xlink" style="isolation:isolate" viewBox="0 0 150 150" width="150pt" height="150pt"><defs><clipPath id="_clipPath_AjB2hDx7V569ZifU3V7v4Y5CDAl3Jotb"><rect width="150" height="150"/></clipPath></defs><g clip-path="url(#_clipPath_AjB2hDx7V569ZifU3V7v4Y5CDAl3Jotb)"><circle vector-effect="non-scaling-stroke" cx="75" cy="75" r="65" fill="rgb(35,40,45)"/><path d=" M 102.618 59.906 C 105.068 64.389 106.462 69.531 106.462 75 C 106.462 86.605 100.174 96.747 90.82 102.198 L 100.43 74.411 C 102.224 69.919 102.822 66.329 102.822 63.141 C 102.822 61.96 102.746 60.866 102.618 59.903 M 79.34 60.21 C 81.227 60.122 82.933 59.903 82.933 59.903 C 84.631 59.685 84.433 57.191 82.738 57.281 C 82.738 57.281 77.619 57.675 74.338 57.675 C 71.235 57.675 66.025 57.238 66.025 57.238 C 64.319 57.15 64.098 59.731 65.807 59.819 C 65.807 59.819 67.382 59.997 69.088 60.081 L 73.988 73.512 L 67.075 94.163 L 55.616 60.125 C 57.509 60.037 59.215 59.833 59.215 59.833 C 60.921 59.615 60.72 57.121 59.025 57.22 C 59.025 57.22 53.933 57.623 50.643 57.623 C 50.06 57.623 49.365 57.599 48.63 57.579 C 54.324 49.188 64.019 43.544 75 43.544 C 83.193 43.544 90.648 46.67 96.251 51.807 C 96.117 51.798 95.985 51.78 95.84 51.78 C 92.748 51.78 90.555 54.473 90.555 57.363 C 90.555 59.959 92.051 62.155 93.646 64.745 C 94.845 66.845 96.242 69.537 96.242 73.428 C 96.242 76.097 95.21 79.244 93.848 83.575 L 90.712 94.031 L 79.337 60.169 L 79.34 60.21 Z  M 75 106.453 C 71.911 106.453 68.93 106.007 66.11 105.179 L 75.551 77.745 L 85.22 104.248 C 85.29 104.403 85.366 104.543 85.448 104.683 C 82.181 105.829 78.666 106.459 75 106.459 M 43.532 75 C 43.532 70.438 44.512 66.104 46.259 62.196 L 61.263 103.318 C 50.774 98.217 43.535 87.457 43.532 75 Z  M 75 40 C 55.706 40 40 55.706 40 75 C 40 94.294 55.706 110 75 110 C 94.294 110 110 94.294 110 75 C 110 55.706 94.294 40 75 40 Z " fill="rgb(238,238,238)"/></g></svg>