<svg width="150" height="150" viewBox="0 0 150 150" fill="none" xmlns="http://www.w3.org/2000/svg">
<path d="M75 140C110.899 140 140 110.899 140 75C140 39.1015 110.899 10 75 10C39.1015 10 10 39.1015 10 75C10 110.899 39.1015 140 75 140Z" fill="#673DE6"/>
<path fill-rule="evenodd" clip-rule="evenodd" d="M87.6276 40V60.8847L104.5 70.7527V48.6005L87.6276 40ZM45.0006 40.001V72.7739H99.8757L83.1798 63.5974L61.4302 63.5866V48.8209L45.0006 40.001ZM87.6276 100.941V86.303L65.7103 86.2877C65.7308 86.385 48.7371 76.9643 48.7371 76.9643L104.5 77.2277V110L87.6276 100.941ZM45.0006 79.5249L45 100.941L61.4302 109.541V89.1593L45.0006 79.5249Z" fill="white"/>
</svg>
