<svg width="150" height="150" viewBox="0 0 150 150" fill="none" xmlns="http://www.w3.org/2000/svg">
<path d="M75 140C110.899 140 140 110.899 140 75C140 39.1015 110.899 10 75 10C39.1015 10 10 39.1015 10 75C10 110.899 39.1015 140 75 140Z" fill="black"/>
<path d="M81.8452 53.0768H56V34H113.356L100.577 45.7659C95.4709 50.467 88.7852 53.0768 81.8452 53.0768Z" fill="white"/>
<path d="M60.5807 83.041L74.9593 60.9293C76.6456 58.3084 79.5474 56.7249 82.664 56.7249H98.9776L56.2616 124L56.0495 99.1784C55.8503 94.4461 56.0495 88.5315 60.5807 83.041Z" fill="white"/>
</svg>
