<svg width="150" height="150" viewBox="0 0 150 150" fill="none" xmlns="http://www.w3.org/2000/svg">
<path d="M75 140C110.899 140 140 110.899 140 75C140 39.1015 110.899 10 75 10C39.1015 10 10 39.1015 10 75C10 110.899 39.1015 140 75 140Z" fill="black"/>
<path d="M104.787 86.7483C106.419 85.1026 106.4 82.4659 104.766 80.8283L75.0032 51L62.5033 63.5248C61.1098 64.921 58.9765 65.1239 57.3682 64.1332L57.2847 64.2167L92.2765 99.2863L104.787 86.7483Z" fill="white"/>
<path d="M70.228 86.7603L57.7268 99.2893L25 66.4904L40.4532 51.0029L70.228 80.844C71.8583 82.4776 71.8583 85.1264 70.228 86.7603Z" fill="white"/>
<path d="M125 66.4903L109.553 81.9714L91.829 64.2198L91.912 64.1363C93.5207 65.127 95.6537 64.9241 97.0473 63.5277L109.547 51.0029L125 66.4903Z" fill="white"/>
</svg>
