<?xml version="1.0" encoding="UTF-8" standalone="no"?><!-- Generator: Gravit.io --><svg xmlns="http://www.w3.org/2000/svg" xmlns:xlink="http://www.w3.org/1999/xlink" style="isolation:isolate" viewBox="0 0 150 150" width="150pt" height="150pt"><circle vector-effect="non-scaling-stroke" cx="75" cy="75" r="65" fill="rgb(231,76,60)"/><g><path d=" M 32.241 76.776 L 27.759 76.776 L 27.759 79.621 L 32.759 79.621 L 32.759 81.862 L 25 81.862 L 25 69.793 L 32.5 69.793 L 32.5 72.034 L 27.759 72.034 L 27.759 74.534 L 32.241 74.534 L 32.241 76.776 Z " fill="rgb(255,255,255)"/><path d=" M 34.483 79.017 C 35.259 79.362 36.379 79.793 37.5 79.793 C 38.793 79.793 39.397 79.276 39.397 78.5 C 39.397 77.724 38.793 77.293 37.414 76.776 C 35.431 76.086 34.138 74.966 34.138 73.241 C 34.138 71.172 35.862 69.621 38.707 69.621 C 40.086 69.621 41.034 69.879 41.81 70.224 L 41.121 72.379 C 40.603 72.121 39.741 71.776 38.621 71.776 C 37.5 71.776 36.897 72.293 36.897 72.897 C 36.897 73.672 37.586 74.017 39.138 74.621 C 41.293 75.397 42.241 76.517 42.241 78.241 C 42.241 80.224 40.69 81.948 37.328 81.948 C 35.948 81.948 34.569 81.603 33.879 81.172 L 34.483 79.017 Z " fill="rgb(255,255,255)"/><path d=" M 52.414 81.517 C 51.897 81.776 50.776 82.034 49.31 82.034 C 45.172 82.034 43.017 79.448 43.017 76 C 43.017 71.862 45.948 69.621 49.655 69.621 C 51.034 69.621 52.155 69.879 52.672 70.138 L 52.155 72.293 C 51.638 72.034 50.862 71.862 49.828 71.862 C 47.672 71.862 45.948 73.155 45.948 75.828 C 45.948 78.241 47.414 79.793 49.828 79.793 C 50.69 79.793 51.552 79.621 52.069 79.362 L 52.414 81.517 Z " fill="rgb(255,255,255)"/><path d=" M 56.638 69.793 L 56.638 76.776 C 56.638 78.845 57.414 79.879 58.793 79.879 C 60.259 79.879 61.034 78.845 61.034 76.776 L 61.034 69.793 L 63.793 69.793 L 63.793 76.603 C 63.793 80.31 61.897 82.121 58.793 82.121 C 55.776 82.121 53.966 80.397 53.966 76.603 L 53.966 69.793 L 56.638 69.793 Z " fill="rgb(255,255,255)"/><path d=" M 72.759 76.776 L 68.276 76.776 L 68.276 79.621 L 73.276 79.621 L 73.276 81.862 L 65.517 81.862 L 65.517 69.793 L 73.017 69.793 L 73.017 72.034 L 68.276 72.034 L 68.276 74.534 L 72.759 74.534 L 72.759 76.776 Z " fill="rgb(255,255,255)"/><path d=" M 75 69.793 L 77.759 69.793 L 77.759 79.534 L 82.759 79.534 L 82.759 81.862 L 75 81.862 L 75 69.793 Z " fill="rgb(255,255,255)"/><path d=" M 87.5 78.759 L 86.638 81.862 L 83.793 81.862 L 87.5 69.793 L 91.121 69.793 L 94.828 81.862 L 91.897 81.862 L 90.948 78.759 L 87.5 78.759 Z  M 90.603 76.69 L 89.828 74.103 C 89.655 73.414 89.397 72.466 89.224 71.776 L 89.224 71.776 C 89.052 72.466 88.879 73.414 88.707 74.103 L 87.931 76.69 L 90.603 76.69 Z " fill="rgb(255,255,255)"/><path d=" M 98.276 63.759 L 98.276 87.897 L 111.207 87.897 L 125 98.241 L 125 63.759 L 98.276 63.759 Z  M 108.707 81.862 L 105.948 81.862 L 105.948 69.793 L 108.707 69.793 L 108.707 81.862 Z  M 119.31 72.552 L 116.207 72.552 L 116.207 81.862 L 113.448 81.862 L 113.448 72.552 L 110.345 72.552 L 110.345 69.793 L 119.31 69.793 L 119.31 72.552 Z " fill="rgb(255,255,255)"/></g></svg>