<svg width="150" height="150" viewBox="0 0 150 150" fill="none" xmlns="http://www.w3.org/2000/svg">
<path d="M75 140C110.899 140 140 110.899 140 75C140 39.1015 110.899 10 75 10C39.1015 10 10 39.1015 10 75C10 110.899 39.1015 140 75 140Z" fill="#278DAD"/>
<path d="M108.333 50C108.333 40.9667 93.0708 33.3333 75 33.3333C56.9292 33.3333 41.6667 40.9667 41.6667 50V58.3333C41.6667 67.3667 56.9292 75 75 75C93.0708 75 108.333 67.3667 108.333 58.3333V50ZM75 104.167C56.9292 104.167 41.6667 96.5333 41.6667 87.5V100C41.6667 109.033 56.9292 116.667 75 116.667C93.0708 116.667 108.333 109.033 108.333 100V87.5C108.333 96.5333 93.0708 104.167 75 104.167Z" fill="white"/>
<path d="M108.333 66.6667C108.333 75.7 93.0708 83.3333 75 83.3333C56.9292 83.3333 41.6667 75.7 41.6667 66.6667V79.1667C41.6667 88.2 56.9292 95.8333 75 95.8333C93.0708 95.8333 108.333 88.2 108.333 79.1667V66.6667Z" fill="white"/>
</svg>
