<?xml version="1.0" encoding="UTF-8" standalone="no"?><!-- Generator: Gravit.io --><svg xmlns="http://www.w3.org/2000/svg" xmlns:xlink="http://www.w3.org/1999/xlink" style="isolation:isolate" viewBox="0 0 150 150" width="150pt" height="150pt"><circle vector-effect="non-scaling-stroke" cx="75" cy="75" r="65" fill="rgb(86,61,124)"/><path d=" M 96.333 43 L 53.667 43 C 47.781 43.016 43.016 47.781 43 53.667 L 43 96.333 C 43 102.2 47.8 107 53.667 107 L 96.333 107 C 102.2 107 107 102.2 107 96.333 L 107 53.667 C 107 47.8 102.2 43 96.333 43 Z  M 90.501 87.947 C 89.968 89.232 89.123 90.365 88.04 91.237 C 86.92 92.144 85.501 92.891 83.755 93.424 C 82.011 93.965 79.936 94.237 77.533 94.237 L 60.381 94.237 L 60.381 56.904 L 78.52 56.904 C 81.875 56.904 84.563 57.659 86.573 59.197 C 88.6 60.744 89.608 63.048 89.608 66.157 C 89.608 68.037 89.149 69.651 88.227 70.984 C 87.309 72.309 85.987 73.347 84.28 74.067 L 84.28 74.189 C 86.557 74.669 88.32 75.749 89.48 77.429 C 90.64 79.109 91.235 81.232 91.235 83.795 C 91.235 85.229 90.957 86.595 90.435 87.869 L 90.501 87.941 L 90.501 87.947 Z  M 83.099 78.747 C 82.005 77.747 80.469 77.259 78.485 77.259 L 66.96 77.259 L 66.96 88.907 L 78.517 88.907 C 80.491 88.907 82.037 88.395 83.131 87.36 C 84.224 86.333 84.784 84.869 84.784 82.987 C 84.765 81.147 84.224 79.723 83.131 78.747 L 83.085 78.747 L 83.099 78.747 Z  M 81.499 71.219 C 82.555 70.323 83.072 69.04 83.072 67.368 C 83.072 65.491 82.605 64.157 81.659 63.395 C 80.72 62.635 79.365 62.24 77.584 62.24 L 66.917 62.24 L 66.917 72.541 L 77.584 72.541 C 79.139 72.541 80.464 72.088 81.488 71.219 L 81.499 71.219 Z " fill="rgb(255,255,255)"/></svg>