<?xml version="1.0" encoding="UTF-8" standalone="no"?><!-- Generator: Gravit.io --><svg xmlns="http://www.w3.org/2000/svg" xmlns:xlink="http://www.w3.org/1999/xlink" style="isolation:isolate" viewBox="0 0 150 150" width="150pt" height="150pt"><circle vector-effect="non-scaling-stroke" cx="75" cy="75" r="65" fill="rgb(0,136,204)"/><path d=" M 34.688 74.648 L 34.688 74.648 L 34.688 74.648 Q 34.688 71.832 35.744 69.038 L 35.744 69.038 L 35.744 69.038 Q 36.8 66.244 38.824 64.044 L 38.824 64.044 L 38.824 64.044 Q 40.848 61.844 43.752 60.48 L 43.752 60.48 L 43.752 60.48 Q 46.656 59.116 50.352 59.116 L 50.352 59.116 L 50.352 59.116 Q 54.752 59.116 57.986 61.008 L 57.986 61.008 L 57.986 61.008 Q 61.22 62.9 62.804 65.936 L 62.804 65.936 L 57.26 69.808 L 57.26 69.808 Q 56.732 68.576 55.918 67.762 L 55.918 67.762 L 55.918 67.762 Q 55.104 66.948 54.136 66.442 L 54.136 66.442 L 54.136 66.442 Q 53.168 65.936 52.156 65.738 L 52.156 65.738 L 52.156 65.738 Q 51.144 65.54 50.176 65.54 L 50.176 65.54 L 50.176 65.54 Q 48.108 65.54 46.568 66.376 L 46.568 66.376 L 46.568 66.376 Q 45.028 67.212 44.016 68.532 L 44.016 68.532 L 44.016 68.532 Q 43.004 69.852 42.52 71.524 L 42.52 71.524 L 42.52 71.524 Q 42.036 73.196 42.036 74.912 L 42.036 74.912 L 42.036 74.912 Q 42.036 76.76 42.608 78.476 L 42.608 78.476 L 42.608 78.476 Q 43.18 80.192 44.258 81.512 L 44.258 81.512 L 44.258 81.512 Q 45.336 82.832 46.854 83.602 L 46.854 83.602 L 46.854 83.602 Q 48.372 84.372 50.264 84.372 L 50.264 84.372 L 50.264 84.372 Q 51.232 84.372 52.266 84.13 L 52.266 84.13 L 52.266 84.13 Q 53.3 83.888 54.246 83.382 L 54.246 83.382 L 54.246 83.382 Q 55.192 82.876 55.984 82.062 L 55.984 82.062 L 55.984 82.062 Q 56.776 81.248 57.26 80.06 L 57.26 80.06 L 63.156 83.536 L 63.156 83.536 Q 62.452 85.252 61.066 86.616 L 61.066 86.616 L 61.066 86.616 Q 59.68 87.98 57.876 88.904 L 57.876 88.904 L 57.876 88.904 Q 56.072 89.828 54.048 90.312 L 54.048 90.312 L 54.048 90.312 Q 52.024 90.796 50.088 90.796 L 50.088 90.796 L 50.088 90.796 Q 46.7 90.796 43.862 89.41 L 43.862 89.41 L 43.862 89.41 Q 41.024 88.024 38.978 85.736 L 38.978 85.736 L 38.978 85.736 Q 36.932 83.448 35.81 80.544 L 35.81 80.544 L 35.81 80.544 Q 34.688 77.64 34.688 74.648 Z  M 88.676 62.46 L 85.508 68.444 L 85.508 68.444 Q 85.376 68.268 84.584 67.784 L 84.584 67.784 L 84.584 67.784 Q 83.792 67.3 82.604 66.772 L 82.604 66.772 L 82.604 66.772 Q 81.416 66.244 80.008 65.848 L 80.008 65.848 L 80.008 65.848 Q 78.6 65.452 77.192 65.452 L 77.192 65.452 L 77.192 65.452 Q 73.32 65.452 73.32 68.048 L 73.32 68.048 L 73.32 68.048 Q 73.32 68.84 73.738 69.368 L 73.738 69.368 L 73.738 69.368 Q 74.156 69.896 74.97 70.314 L 74.97 70.314 L 74.97 70.314 Q 75.784 70.732 77.016 71.084 L 77.016 71.084 L 77.016 71.084 Q 78.248 71.436 79.876 71.876 L 79.876 71.876 L 79.876 71.876 Q 82.12 72.492 83.924 73.218 L 83.924 73.218 L 83.924 73.218 Q 85.728 73.944 86.982 75.022 L 86.982 75.022 L 86.982 75.022 Q 88.236 76.1 88.918 77.64 L 88.918 77.64 L 88.918 77.64 Q 89.6 79.18 89.6 81.336 L 89.6 81.336 L 89.6 81.336 Q 89.6 83.976 88.61 85.802 L 88.61 85.802 L 88.61 85.802 Q 87.62 87.628 85.992 88.75 L 85.992 88.75 L 85.992 88.75 Q 84.364 89.872 82.252 90.378 L 82.252 90.378 L 82.252 90.378 Q 80.14 90.884 77.896 90.884 L 77.896 90.884 L 77.896 90.884 Q 76.18 90.884 74.376 90.62 L 74.376 90.62 L 74.376 90.62 Q 72.572 90.356 70.856 89.85 L 70.856 89.85 L 70.856 89.85 Q 69.14 89.344 67.534 88.64 L 67.534 88.64 L 67.534 88.64 Q 65.928 87.936 64.564 87.012 L 64.564 87.012 L 67.732 80.72 L 67.732 80.72 Q 67.908 80.94 68.876 81.556 L 68.876 81.556 L 68.876 81.556 Q 69.844 82.172 71.274 82.788 L 71.274 82.788 L 71.274 82.788 Q 72.704 83.404 74.464 83.888 L 74.464 83.888 L 74.464 83.888 Q 76.224 84.372 78.028 84.372 L 78.028 84.372 L 78.028 84.372 Q 81.856 84.372 81.856 82.04 L 81.856 82.04 L 81.856 82.04 Q 81.856 81.16 81.284 80.588 L 81.284 80.588 L 81.284 80.588 Q 80.712 80.016 79.7 79.554 L 79.7 79.554 L 79.7 79.554 Q 78.688 79.092 77.302 78.696 L 77.302 78.696 L 77.302 78.696 Q 75.916 78.3 74.288 77.816 L 74.288 77.816 L 74.288 77.816 Q 72.132 77.156 70.548 76.386 L 70.548 76.386 L 70.548 76.386 Q 68.964 75.616 67.93 74.604 L 67.93 74.604 L 67.93 74.604 Q 66.896 73.592 66.39 72.272 L 66.39 72.272 L 66.39 72.272 Q 65.884 70.952 65.884 69.192 L 65.884 69.192 L 65.884 69.192 Q 65.884 66.728 66.808 64.836 L 66.808 64.836 L 66.808 64.836 Q 67.732 62.944 69.316 61.646 L 69.316 61.646 L 69.316 61.646 Q 70.9 60.348 72.99 59.688 L 72.99 59.688 L 72.99 59.688 Q 75.08 59.028 77.412 59.028 L 77.412 59.028 L 77.412 59.028 Q 79.04 59.028 80.624 59.336 L 80.624 59.336 L 80.624 59.336 Q 82.208 59.644 83.66 60.128 L 83.66 60.128 L 83.66 60.128 Q 85.112 60.612 86.366 61.228 L 86.366 61.228 L 86.366 61.228 Q 87.62 61.844 88.676 62.46 L 88.676 62.46 L 88.676 62.46 Z  M 115.736 62.46 L 112.568 68.444 L 112.568 68.444 Q 112.436 68.268 111.644 67.784 L 111.644 67.784 L 111.644 67.784 Q 110.852 67.3 109.664 66.772 L 109.664 66.772 L 109.664 66.772 Q 108.476 66.244 107.068 65.848 L 107.068 65.848 L 107.068 65.848 Q 105.66 65.452 104.252 65.452 L 104.252 65.452 L 104.252 65.452 Q 100.38 65.452 100.38 68.048 L 100.38 68.048 L 100.38 68.048 Q 100.38 68.84 100.798 69.368 L 100.798 69.368 L 100.798 69.368 Q 101.216 69.896 102.03 70.314 L 102.03 70.314 L 102.03 70.314 Q 102.844 70.732 104.076 71.084 L 104.076 71.084 L 104.076 71.084 Q 105.308 71.436 106.936 71.876 L 106.936 71.876 L 106.936 71.876 Q 109.18 72.492 110.984 73.218 L 110.984 73.218 L 110.984 73.218 Q 112.788 73.944 114.042 75.022 L 114.042 75.022 L 114.042 75.022 Q 115.296 76.1 115.978 77.64 L 115.978 77.64 L 115.978 77.64 Q 116.66 79.18 116.66 81.336 L 116.66 81.336 L 116.66 81.336 Q 116.66 83.976 115.67 85.802 L 115.67 85.802 L 115.67 85.802 Q 114.68 87.628 113.052 88.75 L 113.052 88.75 L 113.052 88.75 Q 111.424 89.872 109.312 90.378 L 109.312 90.378 L 109.312 90.378 Q 107.2 90.884 104.956 90.884 L 104.956 90.884 L 104.956 90.884 Q 103.24 90.884 101.436 90.62 L 101.436 90.62 L 101.436 90.62 Q 99.632 90.356 97.916 89.85 L 97.916 89.85 L 97.916 89.85 Q 96.2 89.344 94.594 88.64 L 94.594 88.64 L 94.594 88.64 Q 92.988 87.936 91.624 87.012 L 91.624 87.012 L 94.792 80.72 L 94.792 80.72 Q 94.968 80.94 95.936 81.556 L 95.936 81.556 L 95.936 81.556 Q 96.904 82.172 98.334 82.788 L 98.334 82.788 L 98.334 82.788 Q 99.764 83.404 101.524 83.888 L 101.524 83.888 L 101.524 83.888 Q 103.284 84.372 105.088 84.372 L 105.088 84.372 L 105.088 84.372 Q 108.916 84.372 108.916 82.04 L 108.916 82.04 L 108.916 82.04 Q 108.916 81.16 108.344 80.588 L 108.344 80.588 L 108.344 80.588 Q 107.772 80.016 106.76 79.554 L 106.76 79.554 L 106.76 79.554 Q 105.748 79.092 104.362 78.696 L 104.362 78.696 L 104.362 78.696 Q 102.976 78.3 101.348 77.816 L 101.348 77.816 L 101.348 77.816 Q 99.192 77.156 97.608 76.386 L 97.608 76.386 L 97.608 76.386 Q 96.024 75.616 94.99 74.604 L 94.99 74.604 L 94.99 74.604 Q 93.956 73.592 93.45 72.272 L 93.45 72.272 L 93.45 72.272 Q 92.944 70.952 92.944 69.192 L 92.944 69.192 L 92.944 69.192 Q 92.944 66.728 93.868 64.836 L 93.868 64.836 L 93.868 64.836 Q 94.792 62.944 96.376 61.646 L 96.376 61.646 L 96.376 61.646 Q 97.96 60.348 100.05 59.688 L 100.05 59.688 L 100.05 59.688 Q 102.14 59.028 104.472 59.028 L 104.472 59.028 L 104.472 59.028 Q 106.1 59.028 107.684 59.336 L 107.684 59.336 L 107.684 59.336 Q 109.268 59.644 110.72 60.128 L 110.72 60.128 L 110.72 60.128 Q 112.172 60.612 113.426 61.228 L 113.426 61.228 L 113.426 61.228 Q 114.68 61.844 115.736 62.46 L 115.736 62.46 L 115.736 62.46 Z " fill="rgb(255,255,255)"/></svg>