<?xml version="1.0" encoding="UTF-8" standalone="no"?><!-- Generator: Gravit.io --><svg xmlns="http://www.w3.org/2000/svg" xmlns:xlink="http://www.w3.org/1999/xlink" style="isolation:isolate" viewBox="0 0 150 150" width="150pt" height="150pt"><circle vector-effect="non-scaling-stroke" cx="75" cy="75" r="65" fill="rgb(251,109,67)"/><g><g><g><circle vector-effect="non-scaling-stroke" cx="74.7600143744428" cy="49.686328451163675" r="10.085079479578908" fill="rgb(255,255,255)"/><path d=" M 104.508 93.928 C 99.645 82.511 82.407 64.894 82.072 64.677 C 80.338 62.805 77.803 61.886 75.242 61.849 L 75.242 61.841 C 75.24 61.841 74.76 61.841 74.759 61.841 L 74.759 61.849 C 72.198 61.887 69.661 62.806 67.928 64.677 C 67.593 64.894 50.355 82.511 45.491 93.928 C 44.303 96.72 45.416 99.348 47.279 100.898 C 46.817 102.43 46.806 104.14 47.324 105.79 C 48.215 108.632 50.521 110.399 53.336 110.399 C 58.722 110.399 91.246 110.399 96.662 110.399 C 99.477 110.399 101.782 108.631 102.673 105.79 C 103.192 104.14 103.181 102.43 102.718 100.898 C 104.585 99.348 105.698 96.72 104.508 93.928 Z  M 58.72 92.129 C 60.788 88.75 63.146 85.659 65.709 82.686 C 65.709 85.752 65.798 93.425 65.952 94.122 C 65.432 93.988 60.601 92.771 58.72 92.129 Z  M 84.05 94.122 C 84.203 93.425 84.291 85.752 84.291 82.686 C 86.857 85.659 89.215 88.75 91.282 92.129 C 89.402 92.771 84.571 93.988 84.05 94.122 Z " fill="rgb(255,255,255)"/></g></g></g></svg>