<svg width="150" height="150" viewBox="0 0 150 150" fill="none" xmlns="http://www.w3.org/2000/svg">
<path d="M75 140C110.899 140 140 110.899 140 75C140 39.1015 110.899 10 75 10C39.1015 10 10 39.1015 10 75C10 110.899 39.1015 140 75 140Z" fill="#1C1C20"/>
<path d="M100.959 73.2436L93.7196 66.0046L97.4425 50.6993L81.9304 54.2154L74.8982 47.1832L109.645 38.4964L100.959 73.2436Z" fill="#BAFFA9"/>
<path d="M88.9627 121.228L26.9141 59.1793L61.6613 50.4925L68.6935 57.5246L43.874 63.7295L57.9384 77.7939L74.2778 73.8641L70.1413 89.9968L84.2056 104.061L90.4105 79.2417L97.6495 86.4807L88.9627 121.228Z" fill="#7ACB16"/>
</svg>
