<svg width="150" height="150" viewBox="0 0 150 150" fill="none" xmlns="http://www.w3.org/2000/svg">
<circle cx="75" cy="75" r="65" fill="#222222"/>
<path d="M61.3387 115C68.6987 115 74.672 109.027 74.672 101.667V88.3333H61.3387C53.9787 88.3333 48.0053 94.3067 48.0053 101.667C48.0053 109.027 53.9787 115 61.3387 115Z" fill="#0ACF83"/>
<path d="M48.0053 75C48.0053 67.64 53.9787 61.6667 61.3387 61.6667H74.672V88.3333H61.3387C53.9787 88.3333 48.0053 82.36 48.0053 75Z" fill="#A259FF"/>
<path d="M48.0086 48.3334C48.0086 40.9734 53.9819 35 61.3419 35H74.6752V61.6667H61.3419C53.9819 61.6667 48.0086 55.6934 48.0086 48.3334Z" fill="#F24E1E"/>
<path d="M74.672 35H88.0053C95.3653 35 101.339 40.9734 101.339 48.3334C101.339 55.6934 95.3653 61.6667 88.0053 61.6667H74.672V35Z" fill="#FF7262"/>
<path d="M101.339 75C101.339 82.36 95.3653 88.3333 88.0053 88.3333C80.6453 88.3333 74.672 82.36 74.672 75C74.672 67.64 80.6453 61.6667 88.0053 61.6667C95.3653 61.6667 101.339 67.64 101.339 75Z" fill="#1ABCFE"/>
</svg>
