<svg width="150" height="150" viewBox="0 0 150 150" fill="none" xmlns="http://www.w3.org/2000/svg">
<path d="M75 135C108.137 135 135 108.137 135 75C135 41.8629 108.137 15 75 15C41.8629 15 15 41.8629 15 75C15 108.137 41.8629 135 75 135Z" fill="white"/>
<path d="M75 10C39.159 10 10 39.159 10 75C10 110.841 39.159 140 75 140C75.0035 140 75.007 140 75.0088 140C75.0096 140 75.0105 140 75.0118 140C110.847 139.993 140 110.837 140 75C140 39.159 110.841 10 75 10ZM75.0004 32.6585C81.6891 32.6585 87.1307 38.1001 87.1307 44.7888C87.1307 51.4774 81.6891 56.9191 75.0004 56.9191C68.3118 56.9191 62.8702 51.4774 62.8702 44.7888C62.8702 38.0997 68.3118 32.6585 75.0004 32.6585ZM75 130.845C60.8655 130.845 49.3664 119.346 49.3664 105.211C49.3664 91.0762 60.8655 79.5771 75 79.5771C94.1822 79.5771 109.789 63.971 109.789 44.7883C109.789 38.8407 108.286 33.2389 105.644 28.3379C120.813 38.3326 130.845 55.5153 130.845 74.9996C130.845 105.793 105.793 130.845 75 130.845Z" fill="black"/>
<path d="M75 115.488C68.6041 115.488 63.4006 110.285 63.4006 103.889C63.4006 97.4931 68.6041 92.2896 75 92.2896C81.3958 92.2896 86.5993 97.4931 86.5993 103.889C86.5993 110.285 81.3958 115.488 75 115.488Z" fill="black"/>
</svg>
