<?xml version="1.0" encoding="UTF-8" standalone="no"?><!-- Generator: Gravit.io --><svg xmlns="http://www.w3.org/2000/svg" xmlns:xlink="http://www.w3.org/1999/xlink" style="isolation:isolate" viewBox="0 0 150 150" width="150pt" height="150pt"><defs><clipPath id="_clipPath_HSg8zXCcp4lOR3GYRWZoTKWpykjLb4k2"><rect width="150" height="150"/></clipPath></defs><g clip-path="url(#_clipPath_HSg8zXCcp4lOR3GYRWZoTKWpykjLb4k2)"><circle vector-effect="non-scaling-stroke" cx="75" cy="75" r="65" fill="rgb(255,202,40)"/><path d=" M 46.986 87.687 L 55.155 35.142 C 55.277 34.343 55.897 33.712 56.694 33.577 C 57.49 33.442 58.284 33.833 58.661 34.548 L 67.446 51.028 L 46.986 87.687 Z  M 105 100.437 L 97.221 52.081 C 97.104 51.39 96.613 50.822 95.945 50.608 C 95.278 50.393 94.547 50.569 94.05 51.062 L 45 100.437 L 72.14 115.732 C 73.842 116.689 75.92 116.689 77.622 115.732 L 105 100.437 Z  M 82.945 58.24 L 76.658 46.212 C 76.335 45.596 75.696 45.21 75 45.21 C 74.304 45.21 73.665 45.596 73.342 46.212 L 45.743 95.67 L 82.945 58.24 Z " fill="rgb(34,34,34)"/></g></svg>