<?xml version="1.0" encoding="UTF-8" standalone="no"?><!-- Generator: Gravit.io --><svg xmlns="http://www.w3.org/2000/svg" xmlns:xlink="http://www.w3.org/1999/xlink" style="isolation:isolate" viewBox="0 0 150 150" width="150pt" height="150pt"><rect x="37" y="30" width="80" height="90" transform="matrix(1,0,0,1,0,0)" fill="rgb(255,255,255)"/><g><g><g><g><path d=" M 74.997 10.003 C 39.102 10.003 10 39.104 10 75.006 C 10 110.907 39.102 139.997 74.997 139.997 C 110.893 139.997 140 110.896 140 75.006 C 140 39.104 110.898 10.003 74.997 10.003 Z  M 103.295 49.876 C 103.295 49.876 92.424 49.697 88.022 56.564 C 86.812 58.461 85.211 61.785 83.448 65.718 L 94.911 65.718 L 94.911 81.181 L 76.843 81.181 C 74.244 87.306 71.851 92.817 70.289 95.5 C 66.273 102.355 59.406 107.906 53.476 110.388 C 47.569 112.859 40.507 112.664 40.507 112.664 L 40.507 97.592 C 40.507 97.592 51.764 99.109 57.872 86.329 C 63.98 73.539 71.232 50.244 82.684 41.659 C 94.136 33.069 103.306 35.166 103.295 35.166 L 103.295 49.876 Z " fill="rgb(208,20,20)"/></g></g></g></g></svg>