<?xml version="1.0" encoding="UTF-8" standalone="no"?><!-- Generator: Gravit.io --><svg xmlns="http://www.w3.org/2000/svg" xmlns:xlink="http://www.w3.org/1999/xlink" style="isolation:isolate" viewBox="0 0 150 150" width="150pt" height="150pt"><circle vector-effect="non-scaling-stroke" cx="75" cy="75" r="65" fill="rgb(102,51,153)"/><path d=" M 75.001 39.999 C 55.522 39.999 40 55.521 40 74.997 C 40 94.473 55.522 110.001 74.999 110.001 C 94.475 110.001 110 94.479 110 75 C 110 55.521 94.481 39.999 75.001 39.999 Z  M 47.608 75.303 L 74.698 102.394 C 59.783 102.394 47.608 90.219 47.608 75.303 Z  M 81.089 101.784 L 48.218 68.913 C 50.952 56.738 61.913 47.606 74.999 47.606 C 83.773 47.624 92.018 51.804 97.218 58.871 L 93.264 62.215 C 89.077 56.087 82.12 52.438 74.698 52.477 C 65.219 52.416 56.763 58.42 53.695 67.389 L 82.306 96.003 C 89.31 93.566 94.784 87.481 96.308 80.174 L 84.436 80.174 L 84.436 75 L 102.395 75 C 102.395 88.088 93.264 99.046 81.089 101.784 Z " fill="rgb(255,255,255)"/></svg>