<?xml version="1.0" encoding="iso-8859-1"?>
<!-- Generator: Adobe Illustrator 19.0.0, SVG Export Plug-In . SVG Version: 6.00 Build 0)  -->
<svg version="1.1" id="Layer_1" xmlns="http://www.w3.org/2000/svg" xmlns:xlink="http://www.w3.org/1999/xlink" x="0px" y="0px"
	 viewBox="0 0 512 512" style="enable-background:new 0 0 512 512;" xml:space="preserve">
<path style="fill:#707487;" d="M453.18,401.37l1.114,40.091c0.168,3.533-1.856,6.803-5.091,8.23l-64.922,28.634l-0.013,0.005
	l0.503-76.96H453.18z"/>
<g>
	<polygon style="fill:#5B5D6E;" points="427.482,459.27 384.242,478.33 384.771,401.37 425.749,401.37 	"/>
	<path style="fill:#5B5D6E;" d="M392.819,76.426l-37.732-60.371c-3.125-5-8.606-8.038-14.503-8.038H171.417
		c-5.897,0-11.377,3.038-14.503,8.038l-37.732,60.371l136.818,51.307L392.819,76.426z"/>
	<path style="fill:#5B5D6E;" d="M127.733,461.228v34.205c0,4.722,3.829,8.551,8.551,8.551h239.432c4.722,0,8.551-3.829,8.551-8.551
		v-34.205H127.733z"/>
</g>
<path style="fill:#707487;" d="M59.324,401.37l-1.114,40.091c-0.168,3.533,1.856,6.803,5.091,8.23l64.406,28.639l0,0l0.026-76.96
	H59.324z"/>
<polygon style="fill:#5B5D6E;" points="85.022,459.27 127.733,478.33 127.733,401.37 86.755,401.37 "/>
<path style="fill:#707487;" d="M453.795,126.47c-0.681-20.07-13.007-37.897-31.544-45.62l-63.954-26.648
	c-5.16-2.15-11.044-1.643-15.76,1.359l-72.764,46.304c-8.404,5.348-19.143,5.348-27.546,0l-72.764-46.304
	c-4.716-3.001-10.6-3.508-15.76-1.359L89.75,80.851c-18.536,7.724-30.863,25.551-31.544,45.62l-9.128,268.983
	c-0.121,3.559,1.977,6.821,5.265,8.187l56.288,23.382h1.198l-0.748,25.215c-0.247,9.614,7.48,17.541,17.097,17.541h255.646
	c9.617,0,17.344-7.927,17.097-17.541l-0.748-25.215l0,0l57.485-23.382c3.289-1.366,5.387-4.628,5.265-8.187L453.795,126.47z"/>
<g>
	<path style="fill:#5B5D6E;" d="M462.923,395.453l-9.127-268.983c-0.388-11.415-4.643-22.028-11.563-30.546l-33.883,33.882
		c-9.622,9.622-15.028,22.672-15.028,36.279v12.954l6.851,247.983l57.485-23.382C460.946,402.274,463.044,399.013,462.923,395.453z"
		/>
	<path style="fill:#5B5D6E;" d="M104.156,129.808L69.995,95.647c-7.059,8.562-11.397,19.285-11.788,30.824l-9.128,268.983
		c-0.12,3.559,1.977,6.821,5.266,8.187l56.286,23.383h1.198l7.353-247.983v-12.953C119.182,152.48,113.778,139.43,104.156,129.808z"
		/>
</g>
<g>
	<path style="fill:#4E4F5F;" d="M256.001,80.372L347.823,9.74c-2.245-1.056-4.681-1.723-7.239-1.723H171.417
		c-2.559,0-4.995,0.668-7.239,1.723L256.001,80.372z"/>
	<path style="fill:#4E4F5F;" d="M114.907,170.489h-4.563c-9.244,0-16.815,7.345-17.095,16.586l-6.947,229.842l24.329,10.106h1.031
		l7.52-248.866v-3.393C119.182,172.403,117.268,170.489,114.907,170.489z"/>
	<path style="fill:#4E4F5F;" d="M393.322,174.764c0-2.361,1.914-4.276,4.276-4.276h4.563c9.244,0,16.815,7.345,17.095,16.586
		l6.947,229.438l-26.03,10.51l-6.851-248.866V174.764z"/>
</g>
<path style="fill:#5B5D6E;" d="M315.859,315.858c8.551,59.858,34.205,102.614,34.205,102.614H161.938
	c0,0,25.653-42.756,34.205-102.614H315.859z"/>
<path d="M470.935,395.182l-9.128-268.983c-0.785-23.138-15.101-43.844-36.473-52.748L390.149,58.79l-28.237-46.673
	C357.392,4.643,349.157,0,340.421,0H171.58c-8.735,0-16.971,4.643-21.492,12.117L121.851,58.79L86.666,73.451
	c-21.371,8.905-35.687,29.609-36.473,52.748l-9.128,268.982c-0.232,6.807,3.811,13.135,10.067,15.8l-1.433,30.098
	c-0.323,6.793,3.641,13.202,9.864,15.947l60.154,26.53v11.876c0,9.136,7.432,16.568,16.568,16.568h239.432
	c9.136,0,16.568-7.432,16.568-16.568v-11.876l60.153-26.53c6.223-2.745,10.187-9.153,9.864-15.947l-1.433-30.098
	C467.124,408.315,471.167,401.987,470.935,395.182z M365.095,48.351l-3.714-1.548c-7.573-3.155-16.226-2.409-23.147,1.996
	L265.47,95.103c-5.095,3.243-11.509,3.608-16.906,1.104l99.246-76.343c0.13,0.183,0.268,0.358,0.386,0.553L365.095,48.351z
	 M258.503,68.333l-71.912-52.3h139.903L258.503,68.333z M163.806,20.416c0.158-0.262,0.34-0.506,0.523-0.748l80.927,58.856
	l-11.217,8.628l-60.271-38.354c-6.921-4.405-15.574-5.151-23.147-1.996l-3.714,1.548L163.806,20.416z M66.218,126.743
	c0.573-16.884,11.02-31.994,26.615-38.492l63.954-26.648c2.738-1.141,5.868-0.871,8.373,0.722l65.721,41.824v117.647
	c0,4.427,3.589,8.017,8.017,8.017c4.427,0,8.017-3.589,8.017-8.017V112.623c5.936,1.653,12.236,1.653,18.171,0v109.173
	c0,4.427,3.589,8.017,8.017,8.017c4.427,0,8.017-3.589,8.017-8.017V104.149l65.722-41.824c2.502-1.593,5.634-1.862,8.372-0.722
	l63.954,26.648c15.595,6.498,26.043,21.608,26.615,38.492l9.128,268.983c0.007,0.221-0.125,0.426-0.329,0.511l-46.727,19.411
	l-7.024-236.846c-0.131-4.425-3.859-7.919-8.251-7.775c-4.426,0.131-7.907,3.826-7.775,8.251l8.1,273.166
	c0.064,2.47-0.851,4.805-2.576,6.574c-1.724,1.77-4.035,2.744-6.506,2.744H128.178c-2.471,0-4.782-0.975-6.506-2.744
	c-1.725-1.769-2.64-4.105-2.577-6.542l8.101-273.198c0.131-4.426-3.35-8.12-7.775-8.251c-4.408-0.143-8.119,3.349-8.251,7.775
	l-7.024,236.846l-46.727-19.411c-0.204-0.084-0.336-0.29-0.329-0.512L66.218,126.743z M65.715,441.841l1.158-24.315l36.764,15.272
	l-0.571,19.234c-0.062,2.402,0.218,4.754,0.805,7.012l-37.839-16.689C65.833,442.268,65.705,442.06,65.715,441.841z
	 M375.717,495.967H136.284c-0.295,0-0.534-0.241-0.534-0.534v-16.959c0-0.017,0-0.033,0-0.05v-0.627h240.501v0.627
	c0,0.017,0,0.033,0,0.05v16.959C376.251,495.726,376.012,495.967,375.717,495.967z M445.967,442.356l-37.841,16.69
	c0.589-2.265,0.869-4.629,0.807-7.045l-0.57-19.202l36.764-15.272l1.158,24.315C446.296,442.06,446.168,442.268,445.967,442.356z"/>
<path d="M161.938,426.489h188.125c2.888,0,5.553-1.553,6.976-4.067c1.424-2.514,1.384-5.598-0.102-8.074
	c-0.248-0.415-24.916-42.034-33.142-99.623c-0.564-3.95-3.946-6.883-7.937-6.883H196.143c-3.989,0-7.372,2.933-7.937,6.883
	c-8.201,57.406-32.897,99.213-33.142,99.623c-1.486,2.476-1.525,5.56-0.102,8.074C156.385,424.935,159.05,426.489,161.938,426.489z
	 M203.012,323.875h105.977c6.552,39.275,19.779,70.408,27.737,86.58h-161.45C183.233,394.283,196.46,363.15,203.012,323.875z"/>
<g>
</g>
<g>
</g>
<g>
</g>
<g>
</g>
<g>
</g>
<g>
</g>
<g>
</g>
<g>
</g>
<g>
</g>
<g>
</g>
<g>
</g>
<g>
</g>
<g>
</g>
<g>
</g>
<g>
</g>
</svg>
