<?xml version="1.0" encoding="UTF-8" standalone="no"?><!-- Generator: Gravit.io --><svg xmlns="http://www.w3.org/2000/svg" xmlns:xlink="http://www.w3.org/1999/xlink" style="isolation:isolate" viewBox="0 0 150 150" width="150pt" height="150pt"><circle vector-effect="non-scaling-stroke" cx="75" cy="75" r="65" fill="rgb(240,219,79)"/><path d=" M 34.788 98.04 L 37.38 88.392 L 37.38 88.392 Q 38.1 88.968 40.44 89.832 L 40.44 89.832 L 40.44 89.832 Q 42.78 90.696 45.876 90.696 L 45.876 90.696 L 45.876 90.696 Q 48.54 90.696 50.124 89.796 L 50.124 89.796 L 50.124 89.796 Q 51.708 88.896 52.572 87.024 L 52.572 87.024 L 52.572 87.024 Q 53.436 85.152 53.688 82.236 L 53.688 82.236 L 53.688 82.236 Q 53.94 79.32 53.94 75.288 L 53.94 75.288 L 53.94 49.296 L 65.748 49.296 L 65.748 75.288 L 65.748 75.288 Q 65.748 81.12 65.136 85.908 L 65.136 85.908 L 65.136 85.908 Q 64.524 90.696 62.472 94.08 L 62.472 94.08 L 62.472 94.08 Q 60.42 97.464 56.46 99.336 L 56.46 99.336 L 56.46 99.336 Q 52.5 101.208 45.876 101.208 L 45.876 101.208 L 45.876 101.208 Q 39.396 101.208 34.788 98.04 L 34.788 98.04 L 34.788 98.04 Z  M 110.82 54.48 L 105.636 64.272 L 105.636 64.272 Q 105.42 63.984 104.124 63.192 L 104.124 63.192 L 104.124 63.192 Q 102.828 62.4 100.884 61.536 L 100.884 61.536 L 100.884 61.536 Q 98.94 60.672 96.636 60.024 L 96.636 60.024 L 96.636 60.024 Q 94.332 59.376 92.028 59.376 L 92.028 59.376 L 92.028 59.376 Q 85.692 59.376 85.692 63.624 L 85.692 63.624 L 85.692 63.624 Q 85.692 64.92 86.376 65.784 L 86.376 65.784 L 86.376 65.784 Q 87.06 66.648 88.392 67.332 L 88.392 67.332 L 88.392 67.332 Q 89.724 68.016 91.74 68.592 L 91.74 68.592 L 91.74 68.592 Q 93.756 69.168 96.42 69.888 L 96.42 69.888 L 96.42 69.888 Q 100.092 70.896 103.044 72.084 L 103.044 72.084 L 103.044 72.084 Q 105.996 73.272 108.048 75.036 L 108.048 75.036 L 108.048 75.036 Q 110.1 76.8 111.216 79.32 L 111.216 79.32 L 111.216 79.32 Q 112.332 81.84 112.332 85.368 L 112.332 85.368 L 112.332 85.368 Q 112.332 89.688 110.712 92.676 L 110.712 92.676 L 110.712 92.676 Q 109.092 95.664 106.428 97.5 L 106.428 97.5 L 106.428 97.5 Q 103.764 99.336 100.308 100.164 L 100.308 100.164 L 100.308 100.164 Q 96.852 100.992 93.18 100.992 L 93.18 100.992 L 93.18 100.992 Q 90.372 100.992 87.42 100.56 L 87.42 100.56 L 87.42 100.56 Q 84.468 100.128 81.66 99.3 L 81.66 99.3 L 81.66 99.3 Q 78.852 98.472 76.224 97.32 L 76.224 97.32 L 76.224 97.32 Q 73.596 96.168 71.364 94.656 L 71.364 94.656 L 76.548 84.36 L 76.548 84.36 Q 76.836 84.72 78.42 85.728 L 78.42 85.728 L 78.42 85.728 Q 80.004 86.736 82.344 87.744 L 82.344 87.744 L 82.344 87.744 Q 84.684 88.752 87.564 89.544 L 87.564 89.544 L 87.564 89.544 Q 90.444 90.336 93.396 90.336 L 93.396 90.336 L 93.396 90.336 Q 99.66 90.336 99.66 86.52 L 99.66 86.52 L 99.66 86.52 Q 99.66 85.08 98.724 84.144 L 98.724 84.144 L 98.724 84.144 Q 97.788 83.208 96.132 82.452 L 96.132 82.452 L 96.132 82.452 Q 94.476 81.696 92.208 81.048 L 92.208 81.048 L 92.208 81.048 Q 89.94 80.4 87.276 79.608 L 87.276 79.608 L 87.276 79.608 Q 83.748 78.528 81.156 77.268 L 81.156 77.268 L 81.156 77.268 Q 78.564 76.008 76.872 74.352 L 76.872 74.352 L 76.872 74.352 Q 75.18 72.696 74.352 70.536 L 74.352 70.536 L 74.352 70.536 Q 73.524 68.376 73.524 65.496 L 73.524 65.496 L 73.524 65.496 Q 73.524 61.464 75.036 58.368 L 75.036 58.368 L 75.036 58.368 Q 76.548 55.272 79.14 53.148 L 79.14 53.148 L 79.14 53.148 Q 81.732 51.024 85.152 49.944 L 85.152 49.944 L 85.152 49.944 Q 88.572 48.864 92.388 48.864 L 92.388 48.864 L 92.388 48.864 Q 95.052 48.864 97.644 49.368 L 97.644 49.368 L 97.644 49.368 Q 100.236 49.872 102.612 50.664 L 102.612 50.664 L 102.612 50.664 Q 104.988 51.456 107.04 52.464 L 107.04 52.464 L 107.04 52.464 Q 109.092 53.472 110.82 54.48 L 110.82 54.48 L 110.82 54.48 Z " fill="rgb(0,0,0)"/></svg>