<?xml version="1.0" encoding="UTF-8" standalone="no"?><!-- Generator: Gravit.io --><svg xmlns="http://www.w3.org/2000/svg" xmlns:xlink="http://www.w3.org/1999/xlink" style="isolation:isolate" viewBox="0 0 150 150" width="150pt" height="150pt"><circle vector-effect="non-scaling-stroke" cx="75" cy="75" r="65" fill="rgb(7,105,173)"/><g><path d=" M 49.887 45.762 C 44.793 53.083 45.427 62.608 49.319 70.388 L 49.603 70.941 L 49.786 71.292 L 49.899 71.494 L 50.102 71.857 C 50.223 72.069 50.347 72.281 50.474 72.493 L 50.686 72.843 C 50.826 73.069 50.97 73.293 51.117 73.517 L 51.3 73.8 C 51.503 74.103 51.711 74.404 51.925 74.702 L 51.943 74.725 L 52.048 74.867 C 52.233 75.122 52.424 75.374 52.617 75.624 L 52.831 75.896 C 53.004 76.113 53.179 76.328 53.357 76.543 L 53.558 76.783 C 53.797 77.065 54.042 77.346 54.29 77.62 L 54.305 77.635 L 54.333 77.667 C 54.576 77.932 54.825 78.192 55.078 78.452 L 55.317 78.692 C 55.512 78.889 55.711 79.082 55.911 79.275 L 56.154 79.506 C 56.422 79.759 56.693 80.007 56.969 80.248 L 56.982 80.259 L 57.124 80.379 C 57.367 80.591 57.614 80.799 57.864 81.004 L 58.17 81.249 C 58.374 81.412 58.579 81.573 58.787 81.731 L 59.117 81.981 C 59.346 82.15 59.577 82.315 59.809 82.478 L 60.061 82.657 L 60.131 82.707 C 60.351 82.859 60.578 83.006 60.803 83.152 L 61.094 83.346 C 61.44 83.564 61.792 83.781 62.147 83.99 L 62.438 84.154 C 62.699 84.305 62.961 84.453 63.227 84.597 L 63.665 84.823 L 64.23 85.117 L 64.36 85.18 L 64.592 85.291 C 64.888 85.433 65.186 85.572 65.488 85.707 L 65.677 85.791 C 66.022 85.942 66.371 86.087 66.722 86.226 L 66.977 86.326 C 67.302 86.452 67.632 86.575 67.963 86.691 L 68.087 86.734 C 68.45 86.862 68.817 86.979 69.187 87.094 L 69.452 87.173 C 69.827 87.287 70.2 87.421 70.587 87.494 C 95.222 91.986 102.378 72.69 102.378 72.69 C 96.367 80.52 85.7 82.585 75.592 80.286 C 75.209 80.199 74.838 80.079 74.464 79.97 L 74.183 79.884 C 73.819 79.772 73.456 79.655 73.097 79.531 L 72.948 79.477 C 72.625 79.364 72.307 79.244 71.99 79.122 L 71.721 79.016 C 71.374 78.879 71.028 78.736 70.687 78.587 L 70.481 78.495 C 70.188 78.362 69.897 78.229 69.609 78.089 L 69.356 77.968 C 69.13 77.858 68.906 77.741 68.681 77.625 L 68.232 77.389 C 67.958 77.243 67.69 77.091 67.423 76.936 L 67.15 76.784 C 66.795 76.574 66.444 76.358 66.097 76.138 L 65.813 75.949 C 65.561 75.787 65.31 75.621 65.064 75.451 L 64.822 75.281 C 64.584 75.113 64.347 74.942 64.114 74.77 L 63.8 74.532 C 63.585 74.368 63.372 74.202 63.161 74.032 L 62.876 73.804 C 62.607 73.583 62.342 73.36 62.08 73.132 L 61.993 73.06 C 61.709 72.811 61.431 72.555 61.156 72.299 L 60.92 72.071 C 60.716 71.878 60.515 71.683 60.319 71.482 L 60.083 71.246 C 59.832 70.99 59.586 70.73 59.345 70.466 L 59.308 70.426 C 59.053 70.148 58.804 69.863 58.56 69.575 L 58.364 69.342 C 58.182 69.123 58.002 68.9 57.826 68.676 L 57.628 68.43 C 57.415 68.155 57.209 67.881 57.006 67.602 C 51.395 59.948 49.378 49.39 53.863 40.721 M 65.699 39.594 C 62.016 44.895 62.215 51.992 65.089 57.598 C 65.571 58.537 66.113 59.45 66.718 60.318 C 67.27 61.11 67.882 62.051 68.615 62.686 C 68.88 62.978 69.158 63.264 69.442 63.544 L 69.659 63.759 C 69.934 64.026 70.214 64.289 70.503 64.544 L 70.538 64.573 L 70.546 64.582 C 70.866 64.862 71.197 65.132 71.532 65.398 L 71.756 65.573 C 72.093 65.83 72.436 66.084 72.788 66.326 L 72.817 66.349 L 73.289 66.658 L 73.512 66.806 C 73.763 66.967 74.018 67.124 74.277 67.274 L 74.385 67.338 C 74.608 67.466 74.834 67.592 75.06 67.716 L 75.301 67.84 L 75.773 68.086 L 75.845 68.118 C 76.17 68.278 76.497 68.432 76.831 68.578 L 77.049 68.668 C 77.316 68.781 77.586 68.892 77.858 68.996 L 78.204 69.123 C 78.451 69.215 78.697 69.298 78.947 69.382 L 79.282 69.489 C 79.636 69.598 79.987 69.738 80.356 69.799 C 99.376 72.95 103.767 58.305 103.767 58.305 C 99.809 64.007 92.143 66.726 83.964 64.603 C 83.6 64.508 83.242 64.404 82.886 64.292 L 82.562 64.187 C 82.31 64.106 82.058 64.019 81.809 63.928 L 81.469 63.802 C 81.196 63.696 80.926 63.587 80.658 63.474 L 80.439 63.382 C 80.103 63.235 79.773 63.081 79.447 62.92 L 78.95 62.667 L 78.663 62.52 C 78.451 62.405 78.24 62.285 78.033 62.163 L 77.883 62.078 C 77.625 61.928 77.371 61.773 77.12 61.613 L 76.89 61.459 L 76.397 61.132 C 76.046 60.891 75.705 60.638 75.369 60.381 L 75.137 60.198 C 71.557 57.371 68.719 53.508 67.37 49.127 C 65.955 44.584 66.26 39.484 68.71 35.344 M 78.998 34.985 C 76.827 38.181 76.613 42.151 78.12 45.68 C 79.709 49.427 82.965 52.366 86.766 53.76 L 87.238 53.923 L 87.446 53.989 C 87.67 54.06 87.892 54.142 88.124 54.185 C 98.626 56.214 101.475 48.796 102.233 47.703 C 99.738 51.296 95.544 52.159 90.399 50.909 C 89.993 50.811 89.546 50.664 89.154 50.525 C 88.652 50.345 88.157 50.141 87.675 49.911 C 86.762 49.471 85.891 48.939 85.083 48.329 C 80.479 44.836 77.619 38.172 80.624 32.745" fill="rgb(255,255,255)"/><path d=" M 76.634 98.336 L 73.706 98.336 C 73.544 98.336 73.382 98.466 73.347 98.625 L 72.308 103.434 L 71.269 108.243 C 71.235 108.401 71.073 108.532 70.911 108.532 L 68.839 108.532 C 66.788 108.532 67.025 107.113 67.445 105.17 L 67.458 105.112 L 67.503 104.866 L 67.512 104.82 L 67.605 104.322 L 67.706 103.787 L 67.812 103.243 L 68.285 100.935 L 68.758 98.626 C 68.791 98.466 68.684 98.336 68.522 98.336 L 65.517 98.336 C 65.355 98.336 65.194 98.466 65.161 98.625 L 64.514 101.691 L 63.868 104.757 L 63.867 104.761 L 63.807 105.046 C 63.063 108.444 63.26 111.684 67.305 111.786 L 67.423 111.788 L 73.772 111.788 C 73.934 111.788 74.096 111.658 74.13 111.499 L 75.499 105.063 L 76.868 98.626 C 76.902 98.466 76.797 98.337 76.634 98.336 L 76.634 98.336 Z  M 45.276 98.302 L 42.06 98.302 C 41.898 98.302 41.735 98.433 41.699 98.591 L 41.395 99.936 L 41.09 101.282 C 41.054 101.44 41.158 101.57 41.32 101.57 L 44.56 101.57 C 44.723 101.57 44.885 101.44 44.919 101.281 L 45.214 99.936 L 45.508 98.591 C 45.542 98.433 45.438 98.302 45.276 98.302 L 45.276 98.302 Z  M 44.343 102.49 L 41.102 102.49 C 40.94 102.49 40.777 102.621 40.741 102.778 L 40.286 104.795 L 39.831 106.811 L 39.705 107.388 L 39.267 109.446 L 38.831 111.505 C 38.797 111.664 38.727 111.92 38.675 112.074 C 38.675 112.074 38.069 113.875 37.051 113.855 L 36.924 113.852 L 36.043 113.836 L 36.042 113.836 C 35.88 113.834 35.718 113.961 35.679 114.118 L 35.343 115.531 L 35.008 116.943 C 34.97 117.101 35.072 117.231 35.234 117.234 C 35.811 117.241 37.104 117.255 37.886 117.255 C 40.429 117.255 41.769 115.847 42.628 111.793 L 43.633 107.141 L 44.576 102.778 C 44.61 102.621 44.505 102.49 44.343 102.49 Z  M 104.014 101.4 L 103.88 100.845 L 103.748 100.276 L 103.68 99.99 C 103.417 98.966 102.644 98.376 100.966 98.376 L 98.354 98.374 L 95.948 98.37 L 93.241 98.37 C 93.079 98.37 92.918 98.5 92.884 98.659 L 92.764 99.225 L 92.623 99.893 L 92.583 100.08 L 91.365 105.79 L 90.207 111.21 C 90.173 111.369 90.162 111.565 90.181 111.644 C 90.2 111.723 90.513 111.788 90.675 111.788 L 93.117 111.788 C 93.28 111.788 93.486 111.759 93.574 111.723 C 93.663 111.687 93.794 111.368 93.826 111.209 L 94.26 109.062 L 94.695 106.914 L 94.695 106.91 L 94.754 106.624 L 95.28 104.157 L 95.745 101.979 C 95.78 101.82 95.94 101.691 96.102 101.69 L 103.786 101.686 C 103.949 101.688 104.051 101.558 104.014 101.4 L 104.014 101.4 Z  M 113.906 96.383 L 113.314 96.385 L 110.855 96.385 C 110.692 96.385 110.483 96.495 110.393 96.63 L 104.954 104.597 C 104.862 104.731 104.758 104.712 104.722 104.554 L 104.321 102.799 C 104.285 102.64 104.122 102.51 103.96 102.51 L 100.464 102.51 C 100.301 102.51 100.205 102.638 100.249 102.794 L 101.816 108.282 C 101.86 108.439 101.864 108.695 101.823 108.853 L 101.141 111.509 C 101.1 111.667 101.2 111.795 101.363 111.795 L 104.818 111.795 C 104.98 111.795 105.147 111.666 105.187 111.509 L 105.87 108.853 C 105.91 108.695 106.023 108.46 106.121 108.33 L 114.951 96.612 C 115.049 96.482 114.996 96.376 114.833 96.377 L 113.906 96.383 L 113.906 96.383 Z  M 86.13 103.256 L 86.13 103.253 C 86.11 103.429 85.947 103.559 85.784 103.559 L 81.351 103.559 C 81.197 103.559 81.12 103.455 81.143 103.326 L 81.147 103.315 L 81.144 103.317 L 81.146 103.302 L 81.166 103.227 C 81.59 102.102 82.452 101.363 84.072 101.363 C 85.897 101.362 86.254 102.253 86.13 103.256 L 86.13 103.256 Z  M 84.829 98.139 C 79.14 98.139 77.791 101.593 77.034 105.079 C 76.278 108.632 76.343 111.953 82.231 111.953 L 82.945 111.953 L 83.122 111.953 L 83.164 111.953 L 83.871 111.951 L 83.883 111.951 C 85.438 111.944 86.998 111.933 87.629 111.928 C 87.791 111.925 87.948 111.795 87.982 111.637 L 88.22 110.472 L 88.267 110.245 L 88.551 108.855 C 88.583 108.697 88.477 108.566 88.314 108.566 L 83.021 108.566 C 80.915 108.566 80.29 108.007 80.521 106.362 L 88.982 106.362 L 88.982 106.362 L 88.987 106.362 C 89.122 106.359 89.246 106.267 89.296 106.143 L 89.316 106.07 L 89.315 106.071 C 90.571 101.332 90.211 98.14 84.829 98.139 L 84.829 98.139 Z  M 57.937 103.238 L 57.857 103.521 L 57.857 103.522 L 57.218 105.786 L 56.579 108.05 C 56.535 108.207 56.366 108.335 56.203 108.335 L 52.821 108.335 C 50.256 108.335 49.631 106.328 50.256 103.37 C 50.88 100.343 52.105 98.462 54.63 98.271 C 58.081 98.011 58.771 100.437 57.937 103.238 L 57.937 103.238 Z  M 60.257 108.161 C 60.257 108.161 61.851 104.289 62.213 102.054 C 62.707 99.061 61.208 94.719 55.42 94.719 C 49.664 94.719 47.164 98.864 46.211 103.37 C 45.258 107.908 46.507 111.888 52.23 111.855 L 56.745 111.838 L 60.964 111.823 C 61.126 111.822 61.292 111.693 61.334 111.536 L 62.069 108.733 C 62.11 108.575 62.011 108.446 61.848 108.444 L 61.143 108.44 L 60.439 108.436 C 60.301 108.435 60.222 108.345 60.238 108.227 L 60.257 108.161 L 60.257 108.161 Z  M 88.75 105.569 C 88.75 105.676 88.663 105.764 88.555 105.764 C 88.449 105.764 88.361 105.676 88.361 105.569 C 88.361 105.462 88.448 105.376 88.555 105.376 C 88.663 105.376 88.75 105.462 88.75 105.569 Z " fill="rgb(255,255,255)"/></g></svg>