<?xml version="1.0" encoding="UTF-8" standalone="no"?><!-- Generator: Gravit.io --><svg xmlns="http://www.w3.org/2000/svg" xmlns:xlink="http://www.w3.org/1999/xlink" style="isolation:isolate" viewBox="0 0 150 150" width="150pt" height="150pt"><circle vector-effect="non-scaling-stroke" cx="75" cy="75" r="65" fill="rgb(0,0,0)"/><path d=" M 104.954 96.541 L 45.046 96.541 C 43.708 96.541 42.424 96.01 41.478 95.063 C 40.532 94.117 40 92.833 40 91.495 L 40 58.505 C 40 55.718 42.259 53.459 45.046 53.459 L 104.954 53.459 C 106.292 53.459 107.576 53.99 108.522 54.937 C 109.468 55.883 110 57.167 110 58.505 L 110 91.489 C 110.001 92.828 109.469 94.112 108.523 95.059 C 107.577 96.006 106.293 96.538 104.954 96.538 L 104.954 96.541 Z  M 56.825 86.443 L 56.825 73.317 L 63.557 81.732 L 70.286 73.317 L 70.286 86.443 L 77.019 86.443 L 77.019 63.56 L 70.286 63.56 L 63.557 71.975 L 56.825 63.56 L 50.093 63.56 L 50.093 86.449 L 56.825 86.443 Z  M 101.926 75 L 95.194 75 L 95.194 63.557 L 88.464 63.557 L 88.464 75 L 81.732 75 L 91.828 86.781 L 101.926 75 Z " fill="rgb(255,255,255)"/></svg>