<?xml version="1.0" encoding="UTF-8" standalone="no"?><!-- Generator: Gravit.io --><svg xmlns="http://www.w3.org/2000/svg" xmlns:xlink="http://www.w3.org/1999/xlink" style="isolation:isolate" viewBox="0 0 150 150" width="150pt" height="150pt"><circle vector-effect="non-scaling-stroke" cx="75" cy="75" r="65" fill="rgb(68,121,161)"/><path d=" M 89.683 53.338 C 89.3 53.338 89.04 53.385 88.77 53.448 L 88.77 53.492 L 88.817 53.492 C 88.997 53.838 89.303 54.092 89.53 54.402 C 89.71 54.758 89.863 55.115 90.043 55.468 L 90.09 55.418 C 90.403 55.198 90.557 54.845 90.557 54.308 C 90.423 54.152 90.403 53.995 90.29 53.842 C 90.157 53.618 89.87 53.508 89.69 53.332 L 89.683 53.338 Z  M 54.233 97.318 L 51.143 97.318 C 51.043 92.112 50.733 87.218 50.243 82.618 L 50.217 82.618 L 45.517 97.318 L 43.167 97.318 L 38.5 82.618 L 38.467 82.618 C 38.123 87.028 37.907 91.928 37.817 97.318 L 35 97.318 C 35.183 90.765 35.64 84.618 36.367 78.885 L 40.2 78.885 L 44.65 92.432 L 44.677 92.432 L 49.167 78.885 L 52.817 78.885 C 53.623 85.602 54.097 91.752 54.243 97.318 L 54.233 97.318 Z  M 67.623 83.718 C 66.363 90.535 64.703 95.495 62.65 98.585 C 61.043 100.972 59.283 102.162 57.373 102.162 C 56.863 102.162 56.24 102.008 55.487 101.702 L 55.487 100.055 C 55.853 100.112 56.287 100.142 56.773 100.142 C 57.667 100.142 58.383 99.892 58.93 99.402 C 59.587 98.802 59.913 98.128 59.913 97.385 C 59.913 96.868 59.657 95.818 59.147 94.238 L 55.767 83.718 L 58.8 83.718 L 61.223 91.585 C 61.77 93.372 62 94.618 61.907 95.328 C 63.24 91.782 64.167 87.905 64.69 83.718 L 67.623 83.718 Z  M 108.707 97.318 L 99.94 97.318 L 99.94 78.885 L 102.89 78.885 L 102.89 95.052 L 108.707 95.052 L 108.707 97.318 Z  M 97.64 97.768 L 94.253 96.102 C 94.553 95.848 94.843 95.575 95.103 95.268 C 96.547 93.582 97.263 91.075 97.263 87.758 C 97.263 81.658 94.87 78.605 90.08 78.605 C 87.733 78.605 85.9 79.378 84.58 80.928 C 83.147 82.622 82.427 85.115 82.427 88.412 C 82.427 91.652 83.06 94.032 84.34 95.545 C 85.507 96.912 87.263 97.595 89.617 97.595 C 90.497 97.595 91.303 97.485 92.033 97.268 L 96.45 99.842 L 97.65 97.768 L 97.64 97.768 Z  M 86.667 93.628 C 85.917 92.428 85.543 90.495 85.543 87.842 C 85.543 83.198 86.957 80.875 89.777 80.875 C 91.253 80.875 92.343 81.432 93.033 82.542 C 93.78 83.748 94.153 85.662 94.153 88.285 C 94.153 92.965 92.74 95.312 89.92 95.312 C 88.437 95.312 87.353 94.755 86.66 93.645 L 86.667 93.628 Z  M 81.14 92.212 C 81.14 93.778 80.567 95.065 79.42 96.065 C 78.273 97.065 76.743 97.565 74.807 97.565 C 72.997 97.565 71.26 96.992 69.563 95.848 L 70.353 94.262 C 71.813 94.995 73.13 95.355 74.32 95.355 C 75.427 95.355 76.297 95.112 76.93 94.622 C 77.557 94.132 77.93 93.442 77.93 92.572 C 77.93 91.472 77.163 90.538 75.77 89.755 C 74.477 89.045 71.893 87.565 71.893 87.565 C 70.487 86.542 69.787 85.445 69.787 83.642 C 69.787 82.142 70.31 80.942 71.353 80.025 C 72.403 79.098 73.753 78.642 75.42 78.642 C 77.127 78.642 78.687 79.095 80.087 80.008 L 79.377 81.595 C 78.177 81.088 76.993 80.828 75.83 80.828 C 74.887 80.828 74.157 81.055 73.65 81.515 C 73.14 81.968 72.823 82.548 72.823 83.262 C 72.823 84.355 73.603 85.295 75.043 86.095 C 76.353 86.812 79 88.328 79 88.328 C 80.443 89.345 81.16 90.428 81.16 92.222 L 81.14 92.212 Z  M 112.413 72.705 C 110.63 72.658 109.247 72.838 108.09 73.332 C 107.757 73.465 107.223 73.465 107.177 73.888 C 107.36 74.065 107.387 74.355 107.543 74.602 C 107.81 75.048 108.27 75.645 108.697 75.958 C 109.163 76.325 109.63 76.678 110.12 76.992 C 110.987 77.525 111.97 77.842 112.82 78.378 C 113.303 78.692 113.797 79.088 114.287 79.422 C 114.53 79.588 114.687 79.888 115 79.995 L 115 79.928 C 114.847 79.728 114.8 79.438 114.65 79.215 C 114.427 78.992 114.203 78.792 113.983 78.572 C 113.337 77.705 112.533 76.948 111.667 76.322 C 110.953 75.835 109.393 75.155 109.1 74.338 L 109.057 74.292 C 109.543 74.248 110.123 74.072 110.59 73.938 C 111.347 73.738 112.04 73.782 112.823 73.585 C 113.177 73.495 113.533 73.385 113.89 73.272 L 113.89 73.072 C 113.49 72.672 113.19 72.128 112.777 71.755 C 111.643 70.772 110.387 69.815 109.097 69.012 C 108.397 68.565 107.51 68.278 106.773 67.898 C 106.507 67.765 106.06 67.698 105.907 67.475 C 105.507 66.988 105.273 66.342 104.99 65.762 C 104.35 64.535 103.723 63.178 103.167 61.885 C 102.767 61.012 102.523 60.142 102.033 59.342 C 99.733 55.552 97.243 53.255 93.413 51.008 C 92.59 50.542 91.603 50.342 90.56 50.095 C 90.003 50.068 89.447 50.028 88.893 50.005 C 88.527 49.848 88.173 49.425 87.86 49.222 C 86.593 48.422 83.313 46.688 82.38 48.982 C 81.78 50.428 83.27 51.855 83.787 52.588 C 84.17 53.098 84.653 53.682 84.92 54.255 C 85.077 54.642 85.12 55.038 85.277 55.442 C 85.63 56.422 85.967 57.515 86.433 58.432 C 86.677 58.898 86.943 59.388 87.257 59.808 C 87.437 60.052 87.743 60.165 87.813 60.565 C 87.5 61.018 87.48 61.678 87.3 62.232 C 86.5 64.755 86.813 67.875 87.947 69.732 C 88.303 70.285 89.153 71.512 90.29 71.042 C 91.29 70.642 91.07 69.375 91.357 68.258 C 91.423 67.992 91.38 67.815 91.517 67.635 L 91.517 67.685 C 91.83 68.312 92.143 68.908 92.43 69.535 C 93.117 70.628 94.317 71.762 95.32 72.518 C 95.853 72.918 96.277 73.612 96.943 73.858 L 96.943 73.792 L 96.893 73.792 C 96.75 73.598 96.56 73.505 96.38 73.348 C 95.98 72.948 95.53 72.458 95.213 72.015 C 94.28 70.758 93.457 69.382 92.723 67.955 C 92.357 67.255 92.05 66.502 91.757 65.812 C 91.623 65.545 91.623 65.145 91.4 65.012 C 91.067 65.498 90.577 65.922 90.333 66.522 C 89.91 67.482 89.867 68.662 89.707 69.888 C 89.617 69.912 89.66 69.888 89.617 69.935 C 88.903 69.762 88.66 69.022 88.393 68.402 C 87.727 66.818 87.617 64.275 88.193 62.452 C 88.35 61.985 89.017 60.512 88.75 60.065 C 88.61 59.642 88.17 59.398 87.927 59.055 C 87.637 58.642 87.327 58.105 87.127 57.632 C 86.593 56.385 86.327 55.005 85.747 53.758 C 85.48 53.182 85.013 52.578 84.633 52.048 C 84.21 51.448 83.743 51.025 83.407 50.315 C 83.297 50.072 83.14 49.668 83.317 49.402 C 83.363 49.222 83.457 49.152 83.63 49.102 C 83.923 48.862 84.747 49.175 85.037 49.308 C 85.86 49.642 86.553 49.955 87.243 50.422 C 87.557 50.642 87.893 51.065 88.293 51.175 L 88.76 51.175 C 89.473 51.332 90.277 51.222 90.943 51.418 C 92.127 51.798 93.193 52.352 94.15 52.952 C 97.07 54.805 99.47 57.435 101.1 60.572 C 101.367 61.085 101.483 61.555 101.727 62.088 C 102.193 63.188 102.77 64.298 103.243 65.362 C 103.71 66.412 104.16 67.482 104.83 68.352 C 105.163 68.818 106.503 69.062 107.103 69.305 C 107.547 69.505 108.237 69.688 108.637 69.932 C 109.403 70.398 110.15 70.932 110.87 71.445 C 111.237 71.698 112.347 72.255 112.413 72.705 Z " fill="rgb(255,255,255)"/></svg>