<svg width="150" height="150" viewBox="0 0 150 150" fill="none" xmlns="http://www.w3.org/2000/svg">
<path d="M75 140C110.899 140 140 110.899 140 75C140 39.1015 110.899 10 75 10C39.1015 10 10 39.1015 10 75C10 110.899 39.1015 140 75 140Z" fill="#333333"/>
<path d="M75 122.652C73.6957 122.652 72.4783 122.304 71.3478 121.696L59.7826 114.826C58.0435 113.87 58.913 113.522 59.4348 113.348C61.7826 112.565 62.2174 112.391 64.6522 111C64.913 110.826 65.2609 110.913 65.5217 111.087L74.3913 116.391C74.7391 116.565 75.1739 116.565 75.4348 116.391L110.13 96.3043C110.478 96.1304 110.652 95.7826 110.652 95.3478V55.2609C110.652 54.8261 110.478 54.4783 110.13 54.3043L75.4348 34.3043C75.087 34.1304 74.6522 34.1304 74.3913 34.3043L39.6957 54.3043C39.3478 54.4783 39.1739 54.913 39.1739 55.2609V95.3478C39.1739 95.6956 39.3478 96.1304 39.6957 96.3043L49.1739 101.783C54.3043 104.391 57.5217 101.348 57.5217 98.3043V58.7391C57.5217 58.2174 57.9565 57.6957 58.5652 57.6957H63C63.5217 57.6957 64.0435 58.1304 64.0435 58.7391V98.3043C64.0435 105.174 60.3043 109.174 53.7826 109.174C51.7826 109.174 50.2174 109.174 45.7826 107L36.6522 101.783C34.3913 100.478 33 98.0435 33 95.4348V55.3478C33 52.7391 34.3913 50.3043 36.6522 49L71.3478 28.913C73.5217 27.6957 76.4783 27.6957 78.6522 28.913L113.348 49C115.609 50.3043 117 52.7391 117 55.3478V95.4348C117 98.0435 115.609 100.478 113.348 101.783L78.6522 121.87C77.5217 122.391 76.2174 122.652 75 122.652ZM85.6957 95.087C70.4783 95.087 67.3478 88.1304 67.3478 82.2174C67.3478 81.6956 67.7826 81.1739 68.3913 81.1739H72.913C73.4348 81.1739 73.8696 81.5217 73.8696 82.0435C74.5652 86.6522 76.5652 88.913 85.7826 88.913C93.087 88.913 96.2174 87.2609 96.2174 83.3478C96.2174 81.087 95.3478 79.4348 83.9565 78.3043C74.4783 77.3478 68.5652 75.2609 68.5652 67.6956C68.5652 60.6522 74.4783 56.4783 84.3913 56.4783C95.5217 56.4783 101 60.3043 101.696 68.6522C101.696 68.913 101.609 69.1739 101.435 69.4348C101.261 69.6087 101 69.7826 100.739 69.7826H96.2174C95.7826 69.7826 95.3478 69.4348 95.2609 69C94.2174 64.2174 91.5217 62.6522 84.3913 62.6522C76.3913 62.6522 75.4348 65.4348 75.4348 67.5217C75.4348 70.0435 76.5652 70.8261 87.3478 72.2174C98.0435 73.6087 103.087 75.6087 103.087 83.087C103 90.7391 96.7391 95.087 85.6957 95.087Z" fill="#539E43"/>
</svg>
