<?xml version="1.0" encoding="UTF-8" standalone="no"?><!-- Generator: Gravit.io --><svg xmlns="http://www.w3.org/2000/svg" xmlns:xlink="http://www.w3.org/1999/xlink" style="isolation:isolate" viewBox="0 0 150 150" width="150pt" height="150pt"><circle vector-effect="non-scaling-stroke" cx="75" cy="75" r="65" fill="rgb(118,74,188)"/><path d=" M 88.516 88.136 C 91.051 87.917 93.017 85.686 92.888 83.02 C 92.754 80.354 90.569 78.213 87.906 78.213 L 87.728 78.213 C 84.978 78.303 82.834 80.616 82.921 83.373 C 83.009 84.77 83.58 85.908 84.362 86.736 C 81.305 92.681 76.717 97.05 69.766 100.723 C 65.09 103.167 60.152 104.089 55.345 103.432 C 51.325 102.867 48.181 101.07 46.256 98.188 C 43.374 93.815 43.111 89.099 45.512 84.379 C 47.265 80.969 49.884 78.478 51.635 77.253 C 51.197 76.119 50.672 74.196 50.41 72.755 C 37.47 82.022 38.786 94.693 42.718 100.682 C 45.646 105.051 51.635 107.846 58.189 107.846 C 59.936 107.846 61.774 107.717 63.565 107.28 C 74.929 105.095 83.537 98.278 88.475 88.227 L 88.516 88.136 Z  M 104.115 77.21 C 97.345 69.255 87.378 64.886 76.014 64.886 L 74.526 64.886 C 73.788 63.27 72.085 62.263 70.16 62.263 L 70.029 62.263 C 67.278 62.263 65.134 64.626 65.224 67.377 C 65.312 69.996 67.54 72.184 70.206 72.184 L 70.422 72.184 C 72.391 72.096 74.095 70.871 74.792 69.124 L 76.411 69.124 C 83.146 69.124 89.522 71.09 95.335 74.934 C 99.79 77.863 102.984 81.707 104.775 86.299 C 106.344 90.056 106.259 93.728 104.643 96.791 C 102.152 101.595 97.955 104.132 92.407 104.132 C 88.91 104.132 85.503 103.039 83.752 102.254 C 82.705 103.123 80.955 104.567 79.686 105.442 C 83.531 107.186 87.422 108.193 91.179 108.193 C 99.702 108.193 106.035 103.389 108.441 98.754 C 111.06 93.509 110.845 84.683 104.156 77.122 L 104.115 77.21 Z  M 58.93 89.706 C 59.014 92.328 61.243 94.513 63.912 94.513 L 64.087 94.513 C 66.884 94.425 69.025 92.112 68.894 89.355 C 68.894 86.733 66.622 84.551 63.956 84.551 L 63.778 84.551 C 63.603 84.551 63.343 84.551 63.121 84.636 C 59.496 78.516 57.964 71.959 58.536 64.886 C 58.883 59.554 60.633 54.919 63.778 51.074 C 66.4 47.796 71.338 46.177 74.704 46.092 C 84.143 45.914 88.078 57.675 88.382 62.351 L 92.751 63.661 C 91.745 49.327 82.834 41.807 74.311 41.807 C 66.312 41.807 58.93 47.621 55.955 56.144 C 51.891 67.508 54.557 78.432 59.539 87.174 C 59.105 87.742 58.842 88.746 58.93 89.706 Z " fill="rgb(255,255,255)"/></svg>