<?xml version="1.0" encoding="UTF-8" standalone="no"?><!-- Generator: Gravit.io --><svg xmlns="http://www.w3.org/2000/svg" xmlns:xlink="http://www.w3.org/1999/xlink" style="isolation:isolate" viewBox="0 0 150 150" width="150pt" height="150pt"><circle vector-effect="non-scaling-stroke" cx="75" cy="75" r="65" fill="rgb(255,62,0)"/><path d=" M 105.568 44.009 C 97.864 32.823 82.772 29.589 71.161 36.637 L 51.5 49.135 C 46.128 52.5 42.44 57.988 41.353 64.232 C 40.4 69.42 41.229 74.777 43.706 79.435 C 42.009 81.975 40.873 84.847 40.37 87.861 C 39.244 94.201 40.711 100.729 44.443 105.977 C 52.156 117.141 67.212 120.398 78.85 113.42 L 98.511 100.921 C 103.869 97.55 107.544 92.062 108.622 85.824 C 109.567 80.648 108.738 75.304 106.27 70.657 C 111.488 62.462 111.21 51.919 105.568 44.009 Z  M 69.195 107.065 C 62.872 108.709 56.196 106.227 52.483 100.851 C 50.201 97.691 49.358 93.794 50.025 89.932 L 50.412 88.071 L 50.763 86.913 L 51.816 87.615 C 54.133 89.37 56.731 90.634 59.505 91.477 L 60.207 91.723 L 60.137 92.425 C 60.067 93.408 60.347 94.496 60.909 95.339 C 62.068 96.989 64.069 97.797 66 97.27 C 66.421 97.13 66.843 96.989 67.194 96.778 L 86.785 84.28 C 87.768 83.648 88.4 82.7 88.645 81.576 C 88.856 80.418 88.575 79.224 87.943 78.276 C 86.785 76.661 84.783 75.924 82.852 76.415 C 82.431 76.556 81.975 76.731 81.623 76.942 L 74.215 81.646 C 67.201 85.814 58.158 83.852 53.501 77.152 C 51.243 73.993 50.356 70.056 51.043 66.234 C 51.721 62.445 53.981 59.124 57.258 57.105 L 76.814 44.606 C 78.042 43.834 79.377 43.272 80.816 42.851 C 87.136 41.201 93.806 43.693 97.528 49.03 C 100.169 52.738 100.91 57.472 99.529 61.81 L 99.178 62.968 L 98.16 62.266 C 95.818 60.558 93.207 59.253 90.436 58.404 L 89.734 58.194 L 89.804 57.491 C 89.874 56.473 89.593 55.385 89.032 54.542 C 87.873 52.892 85.872 52.19 83.941 52.681 C 83.519 52.822 83.098 52.962 82.747 53.173 L 63.121 65.777 C 62.138 66.444 61.506 67.357 61.295 68.516 C 61.085 69.639 61.366 70.868 61.998 71.781 C 63.121 73.431 65.157 74.133 67.053 73.642 C 67.51 73.501 67.931 73.361 68.282 73.15 L 75.76 68.375 C 76.989 67.568 78.358 66.971 79.763 66.585 C 86.117 64.934 92.753 67.427 96.475 72.799 C 98.757 75.959 99.634 79.856 99.002 83.683 C 98.342 87.459 96.108 90.777 92.858 92.811 L 73.268 105.275 C 71.993 106.045 70.624 106.647 69.195 107.065 Z " fill="rgb(255,255,255)"/></svg>