<svg width="150" height="150" viewBox="0 0 150 150" fill="none" xmlns="http://www.w3.org/2000/svg">
<path d="M75 140C110.899 140 140 110.899 140 75C140 39.1015 110.899 10 75 10C39.1015 10 10 39.1015 10 75C10 110.899 39.1015 140 75 140Z" fill="#5865F2"/>
<path d="M56.4566 96.291C53.1529 96.291 50.3351 95.7468 48.0031 94.6586C45.6711 93.5314 43.7666 92.0156 42.2897 90.1112C40.8516 88.1678 39.7828 85.9719 39.0832 83.5233C38.4224 81.0358 38.0921 78.4317 38.0921 75.7111V54.5482H47.6533V75.7111C47.6533 77.2657 47.8087 78.7815 48.1197 80.2585C48.4306 81.6965 48.9359 82.9791 49.6355 84.1063C50.3351 85.2334 51.229 86.1273 52.3173 86.7881C53.4444 87.4488 54.8242 87.7792 56.4566 87.7792C58.1278 87.7792 59.527 87.4488 60.6542 86.7881C61.7813 86.0885 62.6752 85.1751 63.336 84.048C63.9967 82.882 64.4825 81.5799 64.7935 80.1419C65.1044 78.7038 65.2599 77.2269 65.2599 75.7111V54.5482H74.8211V75.7111C74.8211 78.5872 74.4518 81.269 73.7134 83.7565C73.0138 86.2439 71.9255 88.4399 70.4486 90.3444C68.9716 92.21 67.0672 93.6675 64.7352 94.7169C62.442 95.7663 59.6825 96.291 56.4566 96.291ZM88.2925 54.5482L97.2707 68.8317L106.249 54.5482H116.626L102.926 75.5362L116.16 95.9412H105.782L97.2707 82.2407L88.7589 95.9412H78.3232L91.5573 75.5362L77.8568 54.5482H88.2925Z" fill="white"/>
<path d="M96.3584 54.3084C94.6385 54.3084 93.1519 53.9294 91.8984 53.1715C90.6741 52.3845 89.7413 51.3642 89.1 50.1108C88.4587 48.8573 88.1381 47.5019 88.1381 46.0444C88.1381 44.5577 88.4587 43.1877 89.1 41.9342C89.7413 40.6808 90.6741 39.6751 91.8984 38.9172C93.1519 38.1593 94.6385 37.7803 96.3584 37.7803C98.1365 37.7803 99.6378 38.1593 100.862 38.9172C102.086 39.6751 103.019 40.6808 103.66 41.9342C104.302 43.1877 104.622 44.5577 104.622 46.0444C104.622 47.5019 104.302 48.8573 103.66 50.1108C103.019 51.3642 102.086 52.3845 100.862 53.1715C99.6378 53.9294 98.1365 54.3084 96.3584 54.3084ZM93.1665 46.0444C93.1665 46.8314 93.3122 47.531 93.6037 48.1432C93.8952 48.7553 94.2742 49.2363 94.7406 49.5861C95.2361 49.9067 95.7754 50.0671 96.3584 50.0671C96.9997 50.0671 97.5535 49.9067 98.0199 49.5861C98.4863 49.2363 98.8653 48.7553 99.1568 48.1432C99.4483 47.531 99.594 46.8314 99.594 46.0444C99.594 45.2282 99.4483 44.5286 99.1568 43.9456C98.8653 43.3334 98.4718 42.867 97.9762 42.5464C97.5098 42.1966 96.9705 42.0217 96.3584 42.0217C95.7754 42.0217 95.2361 42.1966 94.7406 42.5464C94.2742 42.867 93.8952 43.3334 93.6037 43.9456C93.3122 44.5577 93.1665 45.2573 93.1665 46.0444Z" fill="white"/>
</svg>
