<?xml version="1.0" encoding="UTF-8" standalone="no"?><!-- Generator: Gravit.io --><svg xmlns="http://www.w3.org/2000/svg" xmlns:xlink="http://www.w3.org/1999/xlink" style="isolation:isolate" viewBox="0 0 150 150" width="150pt" height="150pt"><defs><clipPath id="_clipPath_nyVmrPhMj6MfkKRCT7IkpyQs9VNX1G3m"><rect width="150" height="150"/></clipPath></defs><g clip-path="url(#_clipPath_nyVmrPhMj6MfkKRCT7IkpyQs9VNX1G3m)"><circle vector-effect="non-scaling-stroke" cx="75" cy="75" r="65" fill="rgb(34,34,34)"/><path d=" M 107.691 47.403 L 93.208 40.434 C 91.53 39.626 89.525 39.967 88.209 41.284 L 60.473 66.587 L 48.393 57.416 C 47.269 56.563 45.696 56.633 44.652 57.583 L 40.776 61.107 C 40.165 61.662 39.817 62.449 39.816 63.274 C 39.816 64.1 40.163 64.887 40.773 65.443 L 51.249 75.001 L 40.773 84.559 C 40.163 85.115 39.816 85.903 39.816 86.728 C 39.817 87.554 40.165 88.341 40.776 88.896 L 44.655 92.417 C 45.699 93.367 47.272 93.437 48.396 92.584 L 60.476 83.413 L 88.212 108.716 C 89.527 110.033 91.531 110.374 93.208 109.566 L 107.697 102.597 C 109.219 101.862 110.185 100.322 110.184 98.633 L 110.184 51.367 C 110.184 49.677 109.215 48.136 107.691 47.403 L 107.691 47.403 Z  M 92.604 90.974 L 71.558 75.001 L 92.604 59.028 L 92.604 90.974 Z " fill="rgb(0,122,204)"/></g></svg>