<?xml version="1.0" encoding="UTF-8" standalone="no"?><!-- Generator: Gravit.io --><svg xmlns="http://www.w3.org/2000/svg" xmlns:xlink="http://www.w3.org/1999/xlink" style="isolation:isolate" viewBox="0 0 150 150" width="150pt" height="150pt"><circle vector-effect="non-scaling-stroke" cx="75" cy="75" r="65" fill="rgb(43,58,66)"/><path d=" M 107.848 95.928 L 76.381 113.65 L 76.381 99.847 L 95.986 89.11 L 107.847 95.928 L 107.848 95.928 Z  M 110 93.988 L 110 56.926 L 98.485 63.543 L 98.485 87.364 L 110 93.988 Z  M 42.152 95.928 L 73.619 113.65 L 73.619 99.847 L 54.014 89.11 L 42.153 95.928 L 42.152 95.928 Z  M 40 93.988 L 40 56.926 L 51.515 63.543 L 51.515 87.364 L 40 93.988 Z  M 41.347 54.528 L 73.619 36.35 L 73.619 49.696 L 52.944 61.017 L 52.787 61.107 L 41.347 54.528 Z  M 108.653 54.528 L 76.381 36.35 L 76.381 49.696 L 97.056 61.018 L 97.213 61.108 L 108.653 54.529 L 108.653 54.528 Z  M 73.619 96.708 L 54.277 86.12 L 54.277 65.139 L 73.619 76.259 L 73.619 96.708 L 73.619 96.708 Z  M 76.381 96.708 L 95.723 86.12 L 95.723 65.139 L 76.381 76.259 L 76.381 96.708 Z  M 55.587 62.711 L 75.004 52.078 L 94.421 62.711 L 75.004 73.876 L 55.587 62.711 Z " fill="rgb(141,214,249)"/></svg>