<svg width="641" height="577" viewBox="0 0 641 577" fill="none" xmlns="http://www.w3.org/2000/svg">
<path d="M295.297 543.868C281.522 528.432 247.127 498.339 218.863 476.994C135.119 413.752 123.721 404.6 89.7192 373.291C27.0347 315.571 0.413616 257.581 0.504842 178.951C0.549353 140.567 3.16561 125.779 13.9147 103.154C32.1514 64.7683 59.015 36.2447 93.36 18.7995C117.685 6.44369 129.683 0.954215 170.304 0.729634C212.798 0.4948 221.743 5.44936 246.739 19.1815C277.164 35.8958 308.479 71.6172 314.952 96.9921L318.951 112.664L328.81 91.0799C384.526 -30.893 562.408 -29.0681 624.312 94.1115C643.95 133.188 646.106 216.625 628.693 263.624C605.977 324.934 563.313 371.675 464.686 443.301C400.005 490.275 326.801 561.347 321.706 571.329C315.79 582.917 321.423 573.145 295.297 543.868Z" fill="#F7DF1E"/>
<path d="M337.248 306.498C345.397 320.609 356 330.981 374.752 330.981C390.504 330.981 400.568 322.631 400.568 311.095C400.568 297.27 390.228 292.373 372.889 284.33L363.385 280.005C335.951 267.61 317.725 252.083 317.725 219.257C317.725 189.019 339.45 166 373.403 166C397.575 166 414.953 174.922 427.475 198.281L397.87 218.44C391.352 206.045 384.32 201.162 373.403 201.162C362.267 201.162 355.21 208.653 355.21 218.44C355.21 230.535 362.274 235.432 378.585 242.923L388.09 247.241C420.392 261.931 438.63 276.907 438.63 310.577C438.63 346.876 411.742 366.762 375.631 366.762C340.324 366.762 317.513 348.919 306.352 325.532L337.248 306.498ZM202.947 309.991C208.919 321.228 214.352 330.729 227.414 330.729C239.905 330.729 247.785 325.546 247.785 305.394V168.302H285.802V305.939C285.802 347.687 262.722 366.687 229.033 366.687C198.593 366.687 180.965 349.982 172 329.86L202.947 309.991Z" fill="#282C34"/>
</svg>
