<svg width="1024" height="1024" viewBox="0 0 1024 1024" fill="none" xmlns="http://www.w3.org/2000/svg">
<path d="M512 955.733C757.067 955.733 955.733 757.067 955.733 512C955.733 266.933 757.067 68.2667 512 68.2667C266.933 68.2667 68.2667 266.933 68.2667 512C68.2667 757.067 266.933 955.733 512 955.733Z" fill="black"/>
<path d="M510.362 408.04C548.385 408.04 579.209 377.215 579.209 339.192C579.209 301.169 548.385 270.345 510.362 270.345C472.338 270.345 441.514 301.169 441.514 339.192C441.514 377.215 472.338 408.04 510.362 408.04Z" fill="white"/>
<path d="M713.441 641.215C680.243 563.275 562.565 443.01 560.278 441.528C548.441 428.749 531.135 422.475 513.652 422.223V422.168C513.638 422.168 510.362 422.168 510.355 422.168V422.223C492.872 422.482 475.553 428.756 463.722 441.528C461.435 443.01 343.757 563.275 310.552 641.215C302.442 660.275 310.04 678.216 322.758 688.797C319.604 699.256 319.529 710.929 323.065 722.193C329.148 741.595 344.89 753.657 364.107 753.657C400.876 753.657 622.906 753.657 659.879 753.657C679.096 753.657 694.832 741.588 700.914 722.193C704.457 710.929 704.382 699.256 701.222 688.797C713.967 678.216 721.565 660.275 713.441 641.215ZM400.862 628.934C414.979 605.867 431.077 584.765 448.574 564.47C448.574 585.4 449.181 637.781 450.232 642.54C446.683 641.625 413.703 633.317 400.862 628.934ZM573.781 642.54C574.826 637.781 575.427 585.4 575.427 564.47C592.944 584.765 609.041 605.867 623.152 628.934C610.318 633.317 577.338 641.625 573.781 642.54Z" fill="white"/>
</svg>
