<?xml version="1.0" encoding="UTF-8" standalone="no"?><!-- Generator: Gravit.io --><svg xmlns="http://www.w3.org/2000/svg" xmlns:xlink="http://www.w3.org/1999/xlink" style="isolation:isolate" viewBox="0 0 150 150" width="150pt" height="150pt"><circle vector-effect="non-scaling-stroke" cx="75" cy="75" r="65" fill="rgb(0,153,153)"/><path d=" M 30.275 81.609 L 30.275 78.899 C 31.814 79.387 33.185 79.631 34.367 79.631 C 36.008 79.631 36.822 79.199 36.822 78.328 C 36.829 78.018 36.697 77.72 36.462 77.517 C 36.225 77.281 35.599 76.961 34.589 76.549 C 32.791 75.805 31.608 75.178 31.064 74.645 C 30.36 73.962 29.975 73.016 30.001 72.036 C 30.001 70.685 30.523 69.645 31.555 68.939 C 32.569 68.233 33.905 67.888 35.542 67.888 C 36.443 67.888 37.753 68.049 39.465 68.387 L 39.465 70.985 C 38.341 70.511 37.137 70.254 35.918 70.227 C 34.378 70.227 33.616 70.647 33.616 71.499 C 33.616 71.815 33.767 72.062 34.082 72.269 C 34.333 72.427 35.047 72.772 36.203 73.294 C 37.877 74.033 38.988 74.675 39.548 75.231 C 40.215 75.899 40.574 76.814 40.539 77.757 C 40.585 79.165 39.835 80.478 38.598 81.151 C 37.554 81.789 36.195 82.112 34.532 82.112 C 33.099 82.112 31.67 81.943 30.275 81.609 Z  M 42.701 68.124 L 46.523 68.124 L 46.523 81.827 L 42.697 81.827 L 42.701 68.124 Z  M 50.033 81.827 L 50.033 68.124 L 59.854 68.124 L 59.854 70.602 L 53.723 70.602 L 53.723 73.703 L 59.061 73.703 L 59.061 75.963 L 53.723 75.963 L 53.723 79.214 L 60.011 79.214 L 60.011 81.831 L 50.033 81.827 Z  M 62.515 81.827 L 62.515 68.124 L 67.478 68.124 L 70.921 76.883 L 74.461 68.124 L 79.179 68.124 L 79.179 81.827 L 75.542 81.827 L 75.542 72.126 L 71.525 81.969 L 69.156 81.969 L 65.214 72.126 L 65.214 81.831 L 62.511 81.831 L 62.515 81.827 Z  M 82.686 81.827 L 82.686 68.124 L 92.503 68.124 L 92.503 70.602 L 86.376 70.602 L 86.376 73.703 L 91.711 73.703 L 91.711 75.963 L 86.376 75.963 L 86.376 79.214 L 92.668 79.214 L 92.668 81.831 L 82.686 81.827 Z  M 95.187 81.827 L 95.187 68.124 L 99.617 68.124 L 104.328 77.303 L 104.328 68.128 L 107.031 68.128 L 107.031 81.831 L 102.706 81.831 L 97.882 72.539 L 97.882 81.834 L 95.187 81.827 Z  M 109.745 81.609 L 109.745 78.899 C 111.269 79.387 112.636 79.631 113.837 79.631 C 115.474 79.631 116.288 79.199 116.288 78.328 C 116.292 78.022 116.169 77.728 115.947 77.517 C 115.699 77.281 115.068 76.961 114.058 76.549 C 112.257 75.813 111.078 75.182 110.53 74.645 C 109.823 73.96 109.436 73.009 109.464 72.025 C 109.464 70.677 109.982 69.645 111.014 68.939 C 112.035 68.233 113.364 67.888 114.997 67.888 C 115.932 67.888 117.122 68.031 118.586 68.323 L 118.924 68.387 L 118.924 70.985 C 117.799 70.511 116.596 70.254 115.376 70.227 C 113.841 70.227 113.075 70.647 113.075 71.499 C 113.075 71.815 113.225 72.062 113.54 72.265 C 113.788 72.423 114.494 72.764 115.68 73.294 C 117.343 74.03 118.451 74.675 119.01 75.231 C 119.676 75.899 120.034 76.814 119.997 77.757 C 119.997 79.244 119.359 80.378 118.083 81.151 C 117.02 81.789 115.665 82.112 113.995 82.112 C 112.564 82.112 111.142 81.939 109.745 81.609 Z " fill="rgb(255,255,255)"/></svg>