<?xml version="1.0" encoding="UTF-8" standalone="no"?><!-- Generator: Gravit.io --><svg xmlns="http://www.w3.org/2000/svg" xmlns:xlink="http://www.w3.org/1999/xlink" style="isolation:isolate" viewBox="0 0 150 150" width="150pt" height="150pt"><circle vector-effect="non-scaling-stroke" cx="75" cy="75" r="65" fill="rgb(0,0,0)"/><g><path d=" M 27.5 75.118 C 27.5 70.739 28.052 66.518 29.196 62.454 C 30.301 58.43 31.919 54.603 33.97 51.092 C 36.061 47.542 38.507 44.306 41.387 41.426 C 44.267 38.507 47.463 36.061 50.974 34.01 C 54.485 31.958 58.272 30.38 62.297 29.236 C 66.4 28.052 70.621 27.5 75 27.5 C 79.34 27.5 83.561 28.052 87.625 29.196 C 91.688 30.341 95.475 31.919 98.987 33.97 C 102.498 36.022 105.733 38.507 108.613 41.387 C 111.532 44.306 113.978 47.502 116.03 51.053 C 118.081 54.603 119.659 58.391 120.804 62.415 C 121.948 66.439 122.5 70.66 122.5 75.079 C 122.5 79.458 121.948 83.679 120.804 87.743 C 119.659 91.767 118.081 95.554 116.03 99.066 C 113.978 102.577 119.028 115.083 116.109 117.963 C 113.189 120.843 102.498 113.978 98.987 116.069 C 95.475 118.16 91.688 119.738 87.625 120.843 C 83.561 121.948 79.34 122.5 75 122.5 C 70.621 122.5 66.4 121.948 62.336 120.843 C 58.312 119.738 54.525 118.121 51.013 116.069 C 47.502 114.018 44.306 111.532 41.426 108.652 C 38.547 105.772 36.061 102.577 34.01 99.066 C 31.919 95.554 30.341 91.806 29.236 87.743 C 28.092 83.758 27.5 79.537 27.5 75.118 Z " fill="rgb(255,255,255)"/><g><g><g><path d=" M 41.348 64.072 C 41.505 64.19 41.703 64.387 41.979 64.585 C 42.216 64.821 42.531 65.019 42.847 65.255 C 43.32 65.571 43.794 65.808 44.267 66.005 C 44.74 66.202 45.214 66.281 45.766 66.281 C 46.24 66.281 46.634 66.242 46.989 66.123 C 47.305 66.005 47.581 65.887 47.778 65.689 C 47.975 65.492 48.094 65.295 48.173 65.058 C 48.252 64.821 48.291 64.585 48.291 64.309 C 48.291 64.032 48.173 63.756 47.975 63.52 C 47.739 63.283 47.502 63.086 47.147 62.888 C 46.831 62.691 46.476 62.573 46.161 62.415 C 45.806 62.297 45.529 62.178 45.253 62.099 C 44.109 61.705 43.123 61.271 42.294 60.837 C 41.466 60.363 40.756 59.89 40.164 59.298 C 39.612 58.746 39.178 58.115 38.902 57.444 C 38.625 56.773 38.468 56.024 38.468 55.195 C 38.468 54.327 38.625 53.538 38.98 52.789 C 39.336 52.078 39.848 51.447 40.48 50.934 C 41.15 50.422 41.939 50.027 42.847 49.751 C 43.754 49.475 44.819 49.317 45.924 49.317 C 46.792 49.317 47.62 49.396 48.37 49.593 C 49.12 49.79 49.948 50.106 50.698 50.5 C 51.013 50.698 51.329 50.895 51.605 51.092 C 51.881 51.289 52.157 51.487 52.355 51.684 C 52.552 51.881 52.749 52.039 52.868 52.236 C 52.986 52.394 53.065 52.552 53.065 52.67 C 53.065 52.789 53.025 52.907 52.986 53.025 C 52.946 53.144 52.828 53.262 52.71 53.38 L 50.54 55.669 C 50.382 55.826 50.224 55.905 50.066 55.905 C 49.948 55.905 49.83 55.866 49.711 55.787 C 49.593 55.708 49.475 55.629 49.356 55.511 L 49.199 55.511 C 49.001 55.353 48.804 55.195 48.567 54.998 C 48.331 54.84 48.094 54.682 47.818 54.525 C 47.542 54.406 47.265 54.288 46.989 54.169 C 46.713 54.091 46.397 54.051 46.082 54.051 C 45.766 54.051 45.49 54.091 45.214 54.13 C 44.938 54.169 44.701 54.248 44.504 54.367 C 44.306 54.485 44.149 54.643 43.991 54.801 C 43.873 54.998 43.794 55.195 43.794 55.471 C 43.794 55.748 43.873 55.945 43.991 56.142 C 44.109 56.339 44.306 56.497 44.583 56.694 C 44.859 56.852 45.174 57.01 45.569 57.168 C 45.963 57.326 46.397 57.483 46.95 57.641 C 47.936 57.957 48.883 58.312 49.711 58.667 C 50.54 59.022 51.289 59.456 51.881 59.969 C 52.473 60.482 52.986 61.074 53.301 61.744 C 53.657 62.415 53.814 63.283 53.814 64.23 C 53.814 65.255 53.617 66.202 53.183 67.07 C 52.749 67.899 52.197 68.648 51.447 69.24 C 50.698 69.832 49.83 70.305 48.843 70.621 C 47.857 70.936 46.752 71.094 45.608 71.094 C 44.543 71.094 43.478 70.897 42.413 70.502 C 41.387 70.108 40.401 69.595 39.493 68.924 C 39.099 68.648 38.783 68.372 38.547 68.096 C 38.31 67.82 38.073 67.623 37.915 67.465 L 37.876 67.425 C 37.876 67.425 37.876 67.386 37.836 67.386 C 37.797 67.386 37.836 67.386 37.797 67.346 C 37.797 67.346 37.797 67.307 37.757 67.307 C 37.757 67.307 37.757 67.307 37.718 67.267 C 37.521 67.031 37.402 66.833 37.402 66.715 C 37.402 66.557 37.521 66.36 37.718 66.163 L 40.164 63.835 C 40.361 63.677 40.519 63.638 40.637 63.638 C 40.716 63.638 40.795 63.677 40.914 63.717 C 41.071 63.875 41.19 63.993 41.348 64.072 Z " fill="rgb(23,23,20)"/><path d=" M 56.26 60.403 C 56.26 59.417 56.379 58.43 56.655 57.523 C 56.892 56.615 57.286 55.748 57.76 54.919 C 58.233 54.13 58.785 53.38 59.456 52.71 C 60.127 52.039 60.837 51.487 61.626 51.013 C 62.415 50.54 63.283 50.185 64.19 49.909 C 65.098 49.632 66.084 49.514 67.07 49.514 C 68.056 49.514 69.003 49.632 69.95 49.909 C 70.858 50.185 71.725 50.54 72.554 51.013 C 73.343 51.487 74.093 52.039 74.763 52.71 C 75.434 53.38 75.986 54.091 76.46 54.919 C 76.933 55.708 77.288 56.576 77.564 57.523 C 77.841 58.43 77.959 59.417 77.959 60.403 C 77.959 61.389 77.841 62.375 77.564 63.283 C 77.288 64.19 76.933 65.058 76.46 65.847 C 75.986 66.636 75.434 67.386 74.763 68.017 C 74.093 68.648 73.382 69.24 72.554 69.713 C 71.765 70.187 70.897 70.542 69.95 70.818 C 69.043 71.055 68.056 71.213 67.07 71.213 C 66.084 71.213 65.098 71.094 64.19 70.818 C 63.283 70.581 62.415 70.187 61.626 69.713 C 60.837 69.24 57.72 70.621 57.049 69.95 C 56.379 69.279 58.233 66.636 57.76 65.847 C 57.286 65.058 56.931 64.19 56.655 63.283 C 56.379 62.375 56.26 61.389 56.26 60.403 Z " fill="rgb(23,23,20)"/><path d=" M 61.705 60.403 C 61.705 61.192 61.823 61.902 62.099 62.612 C 62.375 63.322 62.73 63.875 63.204 64.387 C 63.677 64.9 64.23 65.295 64.9 65.571 C 65.532 65.847 66.281 66.005 67.031 66.005 C 67.78 66.005 68.53 65.847 69.161 65.571 C 69.832 65.295 70.384 64.9 70.858 64.387 C 71.331 63.875 71.686 63.283 71.962 62.612 C 72.238 61.941 72.357 61.192 72.357 60.403 C 72.357 59.614 72.238 58.904 71.962 58.233 C 71.686 57.562 71.331 56.971 70.858 56.458 C 70.384 55.945 69.832 55.55 69.161 55.274 C 68.49 54.998 67.78 54.84 67.031 54.84 C 66.281 54.84 65.532 54.998 64.9 55.274 C 64.269 55.55 63.677 55.984 63.204 56.458 C 62.73 56.971 62.375 57.562 62.099 58.233 C 61.823 58.904 61.705 59.614 61.705 60.403 Z " fill="rgb(255,208,0)"/><path d=" M 80.799 50.5 C 80.799 50.343 80.839 50.185 80.957 50.066 C 81.076 49.948 81.233 49.869 81.431 49.869 L 85.613 49.869 C 85.77 49.869 85.928 49.909 86.047 50.027 C 86.165 50.145 86.244 50.303 86.244 50.461 L 86.244 65.847 L 94.016 65.847 C 94.174 65.847 94.331 65.887 94.45 66.005 C 94.568 66.123 94.647 66.281 94.647 66.478 L 94.647 70.187 C 94.647 70.345 94.608 70.502 94.489 70.621 C 94.371 70.739 94.213 70.818 94.016 70.818 L 81.391 70.818 C 80.957 70.818 80.76 70.621 80.76 70.187 L 80.76 50.5 L 80.799 50.5 Z " fill="rgb(23,23,20)"/><path d=" M 62.454 73.738 C 62.612 73.816 62.73 73.974 62.809 74.093 C 62.888 74.25 62.888 74.408 62.77 74.645 L 60.403 78.038 C 60.284 78.196 60.206 78.275 60.087 78.314 C 59.969 78.353 59.811 78.314 59.653 78.196 C 59.18 77.841 58.667 77.564 58.115 77.407 C 57.562 77.209 56.971 77.13 56.339 77.13 C 55.55 77.13 54.84 77.288 54.209 77.564 C 53.578 77.841 52.986 78.275 52.512 78.748 C 52.039 79.261 51.684 79.853 51.408 80.523 C 51.132 81.194 51.013 81.944 51.013 82.693 C 51.013 83.443 51.132 84.192 51.408 84.863 C 51.684 85.534 52.039 86.125 52.512 86.638 C 52.986 87.151 53.538 87.546 54.209 87.822 C 54.88 88.098 55.55 88.256 56.339 88.256 C 56.971 88.256 57.562 88.177 58.115 87.98 C 58.667 87.782 59.18 87.506 59.653 87.151 C 59.811 87.033 59.969 86.993 60.087 87.033 C 60.206 87.033 60.324 87.151 60.442 87.27 L 62.849 90.741 C 62.967 90.939 62.967 91.136 62.888 91.254 C 62.809 91.412 62.691 91.53 62.533 91.609 C 61.665 92.201 60.679 92.674 59.693 92.99 C 58.667 93.306 57.602 93.463 56.458 93.463 C 55.471 93.463 54.485 93.345 53.578 93.069 C 52.67 92.832 51.802 92.438 51.013 91.964 C 50.224 91.491 49.475 90.939 48.843 90.268 C 48.173 89.597 47.62 88.887 47.147 88.098 C 46.674 87.309 46.319 86.441 46.042 85.534 C 45.806 84.626 45.648 83.64 45.648 82.654 C 45.648 81.667 45.766 80.681 46.042 79.774 C 46.279 78.866 46.674 77.998 47.147 77.17 C 47.62 76.381 48.173 75.631 48.843 74.961 C 49.514 74.29 50.224 73.738 51.013 73.264 C 51.802 72.791 52.67 72.436 53.578 72.159 C 54.485 71.883 55.471 71.765 56.458 71.765 C 57.602 71.765 58.667 71.923 59.653 72.238 C 60.64 72.672 61.586 73.146 62.454 73.738 Z " fill="rgb(23,23,20)"/><path d=" M 64.151 82.733 C 64.151 81.746 64.269 80.76 64.545 79.853 C 64.782 78.945 65.176 78.077 65.65 77.249 C 66.123 76.46 66.676 75.71 67.346 75.039 C 68.017 74.369 68.727 73.816 69.516 73.343 C 70.305 72.87 71.173 72.515 72.081 72.238 C 72.988 71.962 73.974 71.844 74.961 71.844 C 75.947 71.844 76.894 71.962 77.841 72.238 C 78.748 72.515 79.616 72.87 80.444 73.343 C 81.233 73.816 81.983 74.369 82.654 75.039 C 83.324 75.71 83.877 76.42 84.35 77.249 C 84.824 78.038 85.179 78.906 85.455 79.853 C 85.731 80.76 85.849 81.746 85.849 82.733 C 85.849 83.719 85.731 84.705 85.455 85.613 C 85.179 86.52 84.824 87.388 84.35 88.177 C 83.877 88.966 85.021 91.806 84.35 92.477 C 83.679 93.148 81.273 91.57 80.444 92.043 C 79.655 92.517 78.787 92.872 77.841 93.148 C 76.933 93.385 75.947 93.542 74.961 93.542 C 73.974 93.542 72.988 93.424 72.081 93.148 C 71.173 92.911 70.305 92.517 69.516 92.043 C 68.727 91.57 67.978 91.017 67.346 90.347 C 66.676 89.676 66.123 88.966 65.65 88.177 C 65.176 87.388 64.821 86.52 64.545 85.613 C 64.269 84.705 64.151 83.719 64.151 82.733 Z " fill="rgb(23,23,20)"/><path d=" M 69.595 82.733 C 69.595 83.522 69.713 84.232 69.99 84.942 C 70.266 85.652 70.621 86.204 71.094 86.717 C 71.568 87.23 72.12 87.625 72.791 87.901 C 73.422 88.177 74.172 88.335 74.921 88.335 C 75.671 88.335 76.42 88.177 77.051 87.901 C 77.722 87.625 78.275 87.23 78.748 86.717 C 79.221 86.204 79.576 85.613 79.853 84.942 C 80.129 84.271 80.247 83.522 80.247 82.733 C 80.247 81.944 80.129 81.233 79.853 80.563 C 79.576 79.892 79.221 79.3 78.748 78.787 C 78.275 78.275 77.722 77.88 77.051 77.604 C 76.381 77.328 75.671 77.17 74.921 77.17 C 74.172 77.17 73.422 77.328 72.791 77.604 C 72.159 77.88 71.568 78.314 71.094 78.787 C 70.621 79.3 70.266 79.892 69.99 80.563 C 69.753 81.194 69.595 81.944 69.595 82.733 Z " fill="rgb(255,208,0)"/><path d=" M 90.347 72.83 C 90.347 72.672 90.426 72.515 90.544 72.396 C 90.662 72.278 90.82 72.199 91.017 72.199 L 95.909 72.199 C 96.265 72.199 96.501 72.396 96.58 72.751 L 100.407 85.573 L 104.273 72.751 C 104.392 72.396 104.628 72.199 104.983 72.199 L 109.797 72.199 C 109.954 72.199 110.112 72.278 110.27 72.357 C 110.388 72.475 110.467 72.633 110.507 72.791 C 110.822 76.105 111.177 79.419 111.532 82.654 C 111.887 85.928 112.203 89.203 112.558 92.517 L 112.558 92.596 C 112.558 92.951 112.361 93.148 111.927 93.148 L 107.942 93.148 C 107.508 93.148 107.272 92.951 107.272 92.517 L 106.049 81.588 L 102.853 92.596 C 102.853 92.674 102.774 92.793 102.656 92.951 C 102.537 93.069 102.419 93.148 102.301 93.148 L 98.592 93.148 C 98.474 93.148 98.355 93.069 98.237 92.951 C 98.119 92.832 98.04 92.714 98.04 92.596 L 94.844 81.628 L 93.621 92.517 C 93.621 92.951 93.385 93.148 92.911 93.148 L 88.926 93.148 C 88.532 93.148 88.335 92.951 88.335 92.517 L 90.347 72.83 Z " fill="rgb(23,23,20)"/></g><g><path d=" M 45.49 99.618 C 45.648 99.736 45.845 99.815 46.042 99.894 C 46.24 99.973 46.437 100.012 46.634 100.012 C 46.989 100.012 47.265 99.894 47.265 99.618 C 47.265 99.381 46.989 99.184 46.674 99.026 C 46.2 98.829 45.569 98.553 45.569 97.922 C 45.569 97.606 45.687 97.369 45.924 97.211 C 46.161 97.014 46.437 96.935 46.792 96.935 C 47.186 96.935 47.542 97.014 47.857 97.172 L 47.857 97.882 C 47.739 97.803 47.581 97.724 47.384 97.685 C 47.186 97.645 47.029 97.606 46.91 97.606 C 46.595 97.606 46.358 97.724 46.358 97.961 C 46.358 98.237 46.792 98.316 47.226 98.553 C 47.384 98.632 47.502 98.711 47.62 98.789 C 47.857 98.947 48.054 99.263 48.054 99.657 C 48.054 99.973 47.936 100.21 47.699 100.407 C 47.463 100.604 47.147 100.723 46.713 100.723 C 46.2 100.723 45.806 100.644 45.49 100.446 L 45.49 99.618 Z " fill="rgb(23,23,20)"/><path d=" M 50.737 98.474 C 50.974 98.711 51.092 99.026 51.092 99.381 C 51.092 99.736 50.974 100.052 50.737 100.289 C 50.5 100.525 50.145 100.644 49.751 100.644 C 49.317 100.644 49.001 100.525 48.765 100.289 C 48.528 100.052 48.409 99.736 48.409 99.381 C 48.409 99.026 48.528 98.711 48.804 98.474 C 49.041 98.237 49.396 98.119 49.79 98.119 C 50.185 98.079 50.5 98.198 50.737 98.474 Z  M 49.159 99.342 C 49.159 99.736 49.396 100.052 49.79 100.052 C 50.185 100.052 50.422 99.736 50.422 99.342 C 50.422 98.947 50.185 98.671 49.79 98.671 C 49.396 98.671 49.159 98.987 49.159 99.342 Z " fill="rgb(23,23,20)"/><path d=" M 52.355 100.565 L 51.605 100.565 L 51.605 96.699 L 52.355 96.699 L 52.355 100.565 Z " fill="rgb(23,23,20)"/><path d=" M 52.986 98.158 L 53.735 98.158 L 53.735 99.539 C 53.735 99.815 53.893 100.052 54.13 100.052 C 54.446 100.052 54.643 99.815 54.643 99.381 L 54.643 98.158 L 55.392 98.158 L 55.392 100.565 L 54.801 100.565 L 54.722 100.249 L 54.643 100.249 C 54.446 100.486 54.209 100.604 53.854 100.604 C 53.262 100.604 52.986 100.289 52.986 99.657 L 52.986 98.158 Z " fill="rgb(23,23,20)"/><path d=" M 57.799 98.198 L 57.799 98.789 C 57.641 98.711 57.483 98.671 57.286 98.671 C 56.892 98.671 56.576 98.947 56.576 99.381 C 56.576 99.815 56.852 100.052 57.286 100.052 C 57.523 100.052 57.72 100.012 57.917 99.894 L 57.917 100.486 C 57.72 100.604 57.444 100.644 57.128 100.644 C 56.734 100.644 56.418 100.525 56.221 100.289 C 55.984 100.052 55.905 99.776 55.905 99.381 C 55.905 98.987 56.024 98.671 56.26 98.434 C 56.497 98.198 56.813 98.079 57.207 98.079 C 57.404 98.079 57.602 98.119 57.799 98.198 Z " fill="rgb(23,23,20)"/><path d=" M 58.351 97.369 C 58.351 97.132 58.549 96.975 58.746 96.975 C 58.983 96.975 59.14 97.172 59.14 97.369 C 59.14 97.606 58.983 97.764 58.746 97.764 C 58.509 97.764 58.351 97.566 58.351 97.369 Z  M 59.101 100.565 L 58.351 100.565 L 58.351 98.158 L 59.101 98.158 L 59.101 100.565 Z " fill="rgb(23,23,20)"/><path d=" M 61.863 98.474 C 62.099 98.711 62.218 99.026 62.218 99.381 C 62.218 99.736 62.099 100.052 61.863 100.289 C 61.626 100.525 61.271 100.644 60.876 100.644 C 60.442 100.644 60.127 100.525 59.89 100.289 C 59.653 100.052 59.535 99.736 59.535 99.381 C 59.535 99.026 59.653 98.711 59.929 98.474 C 60.166 98.237 60.521 98.119 60.916 98.119 C 61.31 98.079 61.626 98.198 61.863 98.474 Z  M 60.245 99.342 C 60.245 99.736 60.482 100.052 60.876 100.052 C 61.271 100.052 61.507 99.736 61.507 99.342 C 61.507 98.947 61.271 98.671 60.876 98.671 C 60.521 98.671 60.245 98.987 60.245 99.342 Z " fill="rgb(23,23,20)"/><path d=" M 65.137 100.565 L 64.387 100.565 L 64.387 99.184 C 64.387 98.868 64.23 98.671 63.993 98.671 C 63.677 98.671 63.48 98.908 63.48 99.342 L 63.48 100.565 L 62.73 100.565 L 62.73 98.158 L 63.283 98.158 C 63.283 98.198 63.322 98.277 63.322 98.355 C 63.322 98.434 63.362 98.474 63.362 98.513 L 63.401 98.513 C 63.598 98.237 63.914 98.119 64.269 98.119 C 64.821 98.119 65.137 98.474 65.137 99.066 L 65.137 100.565 L 65.137 100.565 Z " fill="rgb(23,23,20)"/><path d=" M 68.017 99.342 L 68.017 99.5 L 66.281 99.5 C 66.321 99.894 66.557 100.052 66.991 100.052 C 67.307 100.052 67.583 99.973 67.859 99.776 L 67.859 100.368 C 67.583 100.525 67.267 100.644 66.912 100.644 C 66.478 100.644 66.123 100.525 65.887 100.289 C 65.65 100.052 65.532 99.736 65.532 99.381 C 65.532 99.026 65.65 98.711 65.887 98.474 C 66.123 98.237 66.4 98.119 66.794 98.119 C 67.544 98.079 68.017 98.592 68.017 99.342 Z  M 66.321 99.066 L 67.346 99.066 C 67.267 98.75 67.11 98.632 66.833 98.632 C 66.597 98.632 66.4 98.789 66.321 99.066 Z " fill="rgb(23,23,20)"/><path d=" M 68.333 99.815 C 68.569 100.012 68.924 100.131 69.161 100.131 C 69.398 100.131 69.516 100.052 69.516 99.934 C 69.516 99.578 68.372 99.539 68.372 98.829 C 68.372 98.395 68.727 98.119 69.279 98.119 C 69.556 98.119 69.792 98.158 70.069 98.277 L 70.069 98.868 C 69.832 98.75 69.595 98.671 69.398 98.671 C 69.201 98.671 69.082 98.75 69.082 98.868 C 69.082 99.145 70.187 99.145 70.187 99.934 C 70.187 100.368 69.832 100.683 69.201 100.683 C 68.846 100.683 68.53 100.604 68.293 100.486 L 68.293 99.815 L 68.333 99.815 Z " fill="rgb(23,23,20)"/><path d=" M 73.856 98.316 L 73.856 97.527 C 73.856 97.172 73.856 96.896 73.856 96.738 L 74.566 96.738 L 74.566 98.671 C 74.566 99.539 74.566 100.17 74.566 100.604 L 74.014 100.604 L 73.935 100.328 C 73.738 100.565 73.382 100.683 73.067 100.683 C 72.712 100.683 72.396 100.565 72.199 100.328 C 72.002 100.091 71.883 99.815 71.883 99.421 C 71.883 99.026 72.002 98.711 72.238 98.474 C 72.475 98.237 72.751 98.119 73.106 98.119 C 73.382 98.079 73.619 98.198 73.856 98.316 L 73.856 98.316 Z  M 72.593 99.381 C 72.593 99.776 72.83 100.052 73.225 100.052 C 73.58 100.052 73.856 99.736 73.856 99.342 C 73.856 98.947 73.619 98.671 73.225 98.671 C 72.83 98.671 72.593 98.987 72.593 99.381 Z " fill="rgb(23,23,20)"/><path d=" M 77.485 99.342 L 77.485 99.5 L 75.75 99.5 C 75.789 99.894 76.026 100.052 76.46 100.052 C 76.775 100.052 77.051 99.973 77.328 99.776 L 77.328 100.368 C 77.051 100.525 76.736 100.644 76.381 100.644 C 75.947 100.644 75.592 100.525 75.355 100.289 C 75.118 100.052 75 99.736 75 99.381 C 75 99.026 75.118 98.711 75.355 98.474 C 75.592 98.237 75.868 98.119 76.262 98.119 C 77.012 98.079 77.485 98.592 77.485 99.342 Z  M 75.789 99.066 L 76.815 99.066 C 76.736 98.75 76.578 98.632 76.302 98.632 C 76.065 98.632 75.828 98.789 75.789 99.066 Z " fill="rgb(23,23,20)"/><path d=" M 82.18 100.446 C 81.904 100.604 81.549 100.644 81.154 100.644 C 80.563 100.644 80.089 100.486 79.734 100.131 C 79.379 99.776 79.221 99.342 79.221 98.789 C 79.221 98.277 79.419 97.803 79.734 97.448 C 80.089 97.093 80.563 96.896 81.154 96.896 C 81.51 96.896 81.825 96.935 82.062 97.054 L 82.062 97.724 C 81.825 97.606 81.549 97.566 81.273 97.566 C 80.918 97.566 80.642 97.685 80.405 97.882 C 80.168 98.079 80.05 98.395 80.05 98.789 C 80.05 99.539 80.523 99.973 81.233 99.973 C 81.549 99.973 81.865 99.894 82.18 99.736 L 82.18 100.446 Z " fill="rgb(23,23,20)"/><path d=" M 84.863 98.474 C 85.1 98.711 85.218 99.026 85.218 99.381 C 85.218 99.736 85.1 100.052 84.863 100.289 C 84.626 100.525 84.271 100.644 83.877 100.644 C 83.443 100.644 83.127 100.525 82.89 100.289 C 82.654 100.052 82.535 99.736 82.535 99.381 C 82.535 99.026 82.654 98.711 82.93 98.474 C 83.167 98.237 83.522 98.119 83.916 98.119 C 84.311 98.079 84.626 98.198 84.863 98.474 Z  M 83.285 99.342 C 83.285 99.736 83.522 100.052 83.916 100.052 C 84.311 100.052 84.547 99.736 84.547 99.342 C 84.547 98.947 84.311 98.671 83.916 98.671 C 83.522 98.671 83.285 98.987 83.285 99.342 Z " fill="rgb(23,23,20)"/><path d=" M 86.402 98.474 L 86.402 98.474 C 86.638 98.237 86.875 98.119 87.191 98.119 C 87.546 98.119 87.822 98.277 87.94 98.592 C 88.137 98.277 88.414 98.119 88.729 98.119 C 89.36 98.119 89.597 98.474 89.597 99.223 L 89.597 100.604 L 88.848 100.604 L 88.848 99.184 C 88.848 98.908 88.729 98.711 88.453 98.711 C 88.177 98.711 87.98 98.908 87.98 99.381 L 87.98 100.604 L 87.23 100.604 L 87.23 99.223 C 87.23 98.908 87.112 98.711 86.836 98.711 C 86.559 98.711 86.362 98.947 86.362 99.342 L 86.362 100.604 L 85.613 100.604 L 85.613 98.198 L 86.204 98.198 L 86.402 98.474 Z " fill="rgb(23,23,20)"/><path d=" M 90.228 98.158 L 90.978 98.158 L 90.978 99.539 C 90.978 99.815 91.136 100.052 91.373 100.052 C 91.688 100.052 91.885 99.815 91.885 99.381 L 91.885 98.158 L 92.635 98.158 L 92.635 100.565 L 92.043 100.565 L 91.964 100.249 L 91.925 100.249 C 91.728 100.486 91.491 100.604 91.136 100.604 C 90.544 100.604 90.268 100.289 90.268 99.657 L 90.268 98.158 L 90.228 98.158 Z " fill="rgb(23,23,20)"/><path d=" M 95.633 100.565 L 94.884 100.565 L 94.884 99.184 C 94.884 98.868 94.726 98.671 94.489 98.671 C 94.174 98.671 93.976 98.908 93.976 99.342 L 93.976 100.565 L 93.227 100.565 L 93.227 98.158 L 93.779 98.158 C 93.779 98.198 93.819 98.277 93.819 98.355 C 93.819 98.434 93.858 98.474 93.858 98.513 L 93.897 98.513 C 94.095 98.237 94.41 98.119 94.765 98.119 C 95.318 98.119 95.633 98.474 95.633 99.066 L 95.633 100.565 L 95.633 100.565 Z " fill="rgb(23,23,20)"/><path d=" M 96.265 97.369 C 96.265 97.132 96.462 96.975 96.659 96.975 C 96.896 96.975 97.054 97.172 97.054 97.369 C 97.054 97.606 96.896 97.764 96.659 97.764 C 96.422 97.764 96.265 97.566 96.265 97.369 Z  M 97.014 100.565 L 96.265 100.565 L 96.265 98.158 L 97.014 98.158 L 97.014 100.565 Z " fill="rgb(23,23,20)"/><path d=" M 99.5 98.198 L 99.5 98.789 C 99.342 98.711 99.184 98.671 98.987 98.671 C 98.592 98.671 98.277 98.947 98.277 99.381 C 98.277 99.815 98.553 100.052 98.987 100.052 C 99.223 100.052 99.421 100.012 99.618 99.894 L 99.618 100.486 C 99.421 100.604 99.145 100.644 98.829 100.644 C 98.434 100.644 98.119 100.525 97.922 100.289 C 97.685 100.052 97.606 99.776 97.606 99.381 C 97.606 98.987 97.724 98.671 97.961 98.434 C 98.198 98.198 98.513 98.079 98.908 98.079 C 99.105 98.079 99.342 98.119 99.5 98.198 Z " fill="rgb(23,23,20)"/><path d=" M 101.472 100.289 L 101.472 100.289 C 101.275 100.525 100.959 100.644 100.604 100.644 C 100.091 100.644 99.815 100.328 99.815 99.973 C 99.815 99.46 100.17 99.145 100.959 99.145 L 101.433 99.145 L 101.433 99.105 C 101.433 98.829 101.235 98.671 100.88 98.671 C 100.644 98.671 100.368 98.75 100.131 98.868 L 100.131 98.316 C 100.407 98.198 100.723 98.119 101.038 98.119 C 101.788 98.119 102.143 98.474 102.143 99.145 L 102.143 100.604 L 101.551 100.604 L 101.472 100.289 Z  M 100.92 100.131 C 101.235 100.131 101.433 99.894 101.433 99.618 L 101.433 99.539 L 101.038 99.539 C 100.683 99.539 100.525 99.657 100.525 99.855 C 100.525 100.052 100.683 100.131 100.92 100.131 Z " fill="rgb(23,23,20)"/><path d=" M 104.628 98.198 L 104.628 98.789 C 104.471 98.711 104.313 98.671 104.115 98.671 C 103.721 98.671 103.405 98.947 103.405 99.381 C 103.405 99.815 103.681 100.052 104.115 100.052 C 104.352 100.052 104.549 100.012 104.747 99.894 L 104.747 100.486 C 104.549 100.604 104.273 100.644 103.958 100.644 C 103.563 100.644 103.248 100.525 103.05 100.289 C 102.814 100.052 102.735 99.776 102.735 99.381 C 102.735 98.987 102.853 98.671 103.09 98.434 C 103.326 98.198 103.642 98.079 104.037 98.079 C 104.234 98.079 104.431 98.119 104.628 98.198 Z " fill="rgb(23,23,20)"/><path d=" M 105.181 97.369 C 105.181 97.132 105.378 96.975 105.575 96.975 C 105.812 96.975 105.97 97.172 105.97 97.369 C 105.97 97.606 105.812 97.764 105.575 97.764 C 105.338 97.764 105.181 97.566 105.181 97.369 Z  M 105.93 100.565 L 105.181 100.565 L 105.181 98.158 L 105.93 98.158 L 105.93 100.565 Z " fill="rgb(23,23,20)"/><path d=" M 108.81 98.474 C 109.047 98.711 109.165 99.026 109.165 99.381 C 109.165 99.736 109.047 100.052 108.81 100.289 C 108.574 100.525 108.218 100.644 107.824 100.644 C 107.39 100.644 107.074 100.525 106.838 100.289 C 106.601 100.052 106.483 99.736 106.483 99.381 C 106.483 99.026 106.601 98.711 106.877 98.474 C 107.114 98.237 107.469 98.119 107.863 98.119 C 108.218 98.079 108.534 98.198 108.81 98.474 Z  M 107.193 99.342 C 107.193 99.736 107.429 100.052 107.824 100.052 C 108.218 100.052 108.455 99.736 108.455 99.342 C 108.455 98.947 108.218 98.671 107.824 98.671 C 107.429 98.671 107.193 98.987 107.193 99.342 Z  M 107.942 97.803 L 107.508 97.803 L 108.14 96.817 L 108.652 97.054 L 107.942 97.803 Z " fill="rgb(23,23,20)"/><path d=" M 112.045 100.565 L 111.296 100.565 L 111.296 99.184 C 111.296 98.868 111.138 98.671 110.901 98.671 C 110.586 98.671 110.388 98.908 110.388 99.342 L 110.388 100.565 L 109.639 100.565 L 109.639 98.158 L 110.191 98.158 C 110.191 98.198 110.23 98.277 110.23 98.355 C 110.23 98.434 110.27 98.474 110.27 98.513 L 110.309 98.513 C 110.507 98.237 110.822 98.119 111.177 98.119 C 111.73 98.119 112.045 98.474 112.045 99.066 L 112.045 100.565 L 112.045 100.565 Z " fill="rgb(23,23,20)"/></g></g></g></g></svg>