<?xml version="1.0" encoding="UTF-8" standalone="no"?><!-- Generator: Gravit.io --><svg xmlns="http://www.w3.org/2000/svg" xmlns:xlink="http://www.w3.org/1999/xlink" style="isolation:isolate" viewBox="0 0 150 150" width="150pt" height="150pt"><circle vector-effect="non-scaling-stroke" cx="75" cy="75" r="65" fill="rgb(242,245,250)"/><g><path d=" M 48 66 L 63 66 L 63 84 L 87 84 L 87 66 L 102 66 L 120 99 L 105 99 L 96.424 83.276 L 75 99 L 53.576 83.276 L 45 99 L 30 99 L 48 66 L 48 66 Z " fill-rule="evenodd" fill="rgb(0,154,217)"/><path d=" M 120 66 L 120 51 L 30 51 L 30 66 L 45 66 L 46.641 63 L 66.018 63 L 66.018 81 L 84 81 L 84 63 L 103.359 63 L 105 66 L 120 66 L 120 66 Z " fill-rule="evenodd" fill="rgb(0,154,217)"/></g></svg>