<?xml version="1.0" encoding="UTF-8" standalone="no"?><!-- Generator: Gravit.io --><svg xmlns="http://www.w3.org/2000/svg" xmlns:xlink="http://www.w3.org/1999/xlink" style="isolation:isolate" viewBox="0 0 150 150" width="150pt" height="150pt"><circle vector-effect="non-scaling-stroke" cx="75" cy="75" r="65" fill="rgb(11,35,67)"/><g><path d=" M 85.419 67.678 C 85.419 67.678 87.128 61.225 93.96 64.831 L 98.325 66.729 L 101.553 64.642 C 101.553 64.642 103.64 63.313 104.212 65.4 L 108.955 75.65 C 108.955 75.65 110.475 77.927 107.436 77.927 C 107.436 77.927 104.779 78.117 104.779 81.153 L 104.687 87.174 C 104.687 87.174 104.311 91.094 99.946 91.284 L 90.464 91.284 C 90.464 91.284 86.549 90.34 85.408 86.543 L 85.419 67.678 L 85.419 67.678 Z " fill-rule="evenodd" fill="rgb(255,255,255)"/><path d=" M 114.839 63.503 C 114.839 63.503 103.831 59.518 94.15 60.464 C 94.15 60.464 83.142 59.325 82.382 67.299 L 82.249 92.231 C 82.249 92.231 83.198 94.128 81.934 94.759 L 46.697 94.82 L 46.697 92.354 L 76.876 92.231 C 76.876 92.231 79.536 90.834 77.068 88.937 L 46.887 88.937 L 46.697 86.09 L 76.117 86.09 C 76.117 86.09 78.204 86.295 76.876 83.067 L 35.161 83.067 L 35.309 80.965 L 67.395 80.855 L 67.395 77.379 L 35.477 77.379 L 35.499 74.891 L 67.395 74.851 L 67.577 71.855 L 36.11 71.691 C 36.11 71.691 34.78 69.099 38.006 68.53 L 58.277 68.816 C 58.277 68.816 61.459 66.446 58.233 65.687 L 42.114 65.687 L 43.693 63.159 L 59.179 63.159 C 59.179 63.159 60.761 60.189 59.81 59.997 L 49.544 60.085 L 60.553 49.078 L 62.971 43.803 C 62.546 43.793 91.492 43.573 93.2 45.47 C 93.2 45.47 100.791 46.421 100.791 50.406 L 88.453 50.786 L 88.834 51.545 C 88.834 51.545 93.389 52.874 93.77 54.012 C 93.77 54.012 100.791 51.545 104.397 51.925 C 104.397 51.925 114.271 51.734 114.839 63.503 L 114.839 63.503 Z  M 57.517 97.858 L 57.517 100.325 L 77.635 100.325 L 80.669 97.604 L 57.517 97.858 L 57.517 97.858 Z  M 57.517 103.744 L 57.517 106.209 L 68.905 106.209 L 73.842 103.744 L 57.517 103.744 Z " fill-rule="evenodd" fill="rgb(255,255,255)"/></g></svg>