<?xml version="1.0" encoding="UTF-8" standalone="no"?><!-- Generator: Gravit.io --><svg xmlns="http://www.w3.org/2000/svg" xmlns:xlink="http://www.w3.org/1999/xlink" style="isolation:isolate" viewBox="0 0 150 150" width="150pt" height="150pt"><g><path d=" M 111.227 109.222 L 111.227 41.214 L 110.007 41.214 C 108.524 52.897 106.17 62.924 103.293 71.207 C 96.667 91.261 87.25 101.375 75.044 101.375 C 62.837 101.375 53.421 91.348 46.62 71.207 C 43.742 62.924 41.563 52.985 40.08 41.214 L 38.86 41.214 L 38.86 109.222 C 49.759 105.996 61.791 104.427 75.044 104.427 C 88.122 104.339 100.241 105.996 111.227 109.222 Z  M 140 75.044 C 140 92.918 133.635 108.263 120.993 120.993 C 108.35 133.722 93.005 140 75.044 140 C 57.17 140 41.824 133.635 29.095 120.993 C 16.365 108.263 10 93.005 10 75.044 C 10 57.17 16.365 41.824 29.095 29.007 C 41.824 16.19 57.17 10 75.044 10 C 92.918 10 108.263 16.365 120.993 29.095 C 133.635 41.824 140 57.17 140 75.044 Z " fill="rgb(232,52,14)"/></g></svg>