<?xml version="1.0" encoding="UTF-8" standalone="no"?><!-- Generator: Gravit.io --><svg xmlns="http://www.w3.org/2000/svg" xmlns:xlink="http://www.w3.org/1999/xlink" style="isolation:isolate" viewBox="0 0 150 150" width="150pt" height="150pt"><circle vector-effect="non-scaling-stroke" cx="75" cy="75" r="65" fill="rgb(0,0,0)"/><g><path d=" M 38.759 79.797 L 46.853 79.797 L 46.078 93.27 L 56.303 79.797 L 66.283 79.797 L 49.082 100.877 L 37.5 100.877 L 38.759 79.797 Z " fill="rgb(255,255,255)"/><path d=" M 91.012 79.837 L 99.268 79.837 L 97.921 83.467 L 90.661 86.453 L 96.282 86.453 L 90.602 100.856 L 82.815 100.856 L 91.012 79.837 Z " fill="rgb(255,255,255)"/><path d=" M 101.551 82.764 L 110.978 79.778 L 108.987 84.813 L 112.5 84.345 L 110.802 88.502 L 106.528 88.912 L 104.186 94.884 C 104.186 94.884 102.605 97.753 105.064 97.753 C 105.064 97.753 105.942 97.811 107.055 97.519 L 105.65 100.797 L 98.214 100.797 L 98.214 100.915 C 98.214 100.915 93.881 100.739 95.579 96.64 L 101.551 82.764 Z " fill="rgb(255,255,255)"/><path d=" M 83.326 86.369 C 86.389 90.823 80.049 97.448 80.049 97.448 C 75.382 101.579 68.364 101.082 68.364 101.082 C 63.092 101.26 61.06 99.336 61.06 99.336 C 58.139 96.914 60.776 91.818 60.776 91.818 C 64.159 83.481 75.346 83.946 75.346 83.946 C 81.615 83.734 83.326 86.369 83.326 86.369 Z  M 73.956 87.295 C 73.956 87.295 71.89 87.118 70.392 89.184 C 70.392 89.184 67.613 93.922 67.684 96.665 C 67.684 96.665 67.649 98.803 71.39 97.556 C 71.39 97.556 74.631 96.523 76.128 88.899 C 76.128 88.899 76.486 87.189 73.956 87.295 Z " fill="rgb(255,255,255)"/><path d=" M 66.735 60.087 C 66.735 60.087 64.383 55.716 61.068 53.604 C 61.068 53.604 45.799 54.612 41.044 48.899 C 41.044 48.899 50.333 70.504 75.426 72.455 C 75.426 72.455 70.267 67.437 70.129 66.182 C 70.129 66.182 58.279 66.6 50.613 56.145 C 50.613 56.145 53.582 58.591 66.735 60.087 Z " fill="rgb(251,187,21)"/><path d=" M 64.171 53.592 C 64.171 53.592 67.613 56.189 69.692 59.76 C 69.692 59.76 79.953 59.436 89.436 69.697 C 89.436 69.697 78.916 65.735 73.134 65.996 C 73.134 65.996 75.083 69.308 78.784 72.426 C 78.784 72.426 91.512 71.192 98.722 77.231 C 98.72 77.231 86.65 53.864 64.171 53.592 Z " fill="rgb(255,0,0)"/></g></svg>