<svg viewBox="0 0 64 25" version="1.1" xmlns="http://www.w3.org/2000/svg" xmlns:xlink="http://www.w3.org/1999/xlink">
  <g>
    <path d="M45.2301017,17.9362712 C44.8347119,18.1738305 44.2690169,18.4271186 43.6702373,18.6950508 C44.3210847,19.3670508 46.0040678,20.7202712 48.503322,20.7202712 C49.0706441,20.7202712 49.2604746,20.443661 49.2604746,20.1334237 C49.2604746,19.716339 48.8471864,19.4955932 48.1968814,19.3019661 C47.3757288,19.0519322 45.9834576,18.711322 45.9834576,17.6699661 C45.9834576,17.5598644 46.0002712,17.4546441 46.0322712,17.3689492 C45.8012203,17.6130169 45.5094237,17.7789831 45.2301017,17.9362712 Z M52.8618305,7.80040678 C52.5635254,7.80040678 52.3048136,8.06779661 52.3048136,8.36230508 C52.3048136,8.63566102 52.4978983,8.94915254 52.7826441,9.32664407 C53.1736949,9.84461017 53.8126102,10.600678 53.8126102,11.3008814 C53.8126102,11.7537627 53.5468475,12.0428475 53.3841356,12.155661 C53.5235254,12.1247458 53.6612881,12.1144407 53.8044746,12.1144407 C54.3105085,12.1144407 55.2103051,12.2549153 56.100339,12.4854237 C55.9576949,11.515661 55.4028475,9.44759322 53.3797966,8.00216949 C53.1807458,7.86223729 53.0147797,7.80040678 52.8618305,7.80040678 Z M51.9571525,18.2866441 C52.0498983,18.7416949 52.1285424,19.3572881 52.1800678,20.0482712 C52.7907797,19.7185085 53.8554576,19.0541017 54.7275932,17.8760678 C55.3594576,16.9594576 55.7092881,16.0987119 55.7092881,15.7315254 C55.7092881,15.3713898 55.3594576,15.2216949 55.1300339,15.2216949 C54.8094915,15.2216949 54.5128136,15.4663051 54.1825085,15.9256949 C53.691661,16.6258983 52.9296271,17.8315932 51.9327458,17.5061695 C51.8215593,17.4660339 51.7174237,17.4258983 51.6463729,17.3678644 C51.8085424,17.6574915 51.8850169,17.9791186 51.9571525,18.2866441 Z M51.5764068,14.4173559 C51.9929492,13.1628475 52.4631864,12.5732881 52.9572881,12.3107797 C52.3275932,12.3872542 51.456,11.9907797 50.4699661,11.2851525 C49.3863051,10.500339 48.9632542,9.87877966 48.8602034,9.33857627 C48.7419661,9.95037288 48.0818983,10.6538305 47.1056271,11.3589153 C46.0094915,12.1410169 45.2816271,12.3427797 44.736,12.2690169 C45.2870508,12.5684068 45.7572881,13.4025763 46.1331525,14.5448136 C46.3560678,15.2113898 46.4547797,15.6924746 46.4547797,16.1166102 C46.4547797,16.484339 46.3875254,16.7620339 46.2757966,16.9882034 C46.7438644,16.5656949 47.6903051,16.3747797 48.8997966,16.3747797 C50.2465085,16.3747797 50.9618983,16.6378305 51.355661,17.0164068 C51.2634576,16.7989153 51.2151864,16.5347797 51.2200678,16.2277966 C51.2200678,15.7185085 51.3480678,15.131661 51.5764068,14.4173559 Z M48.7690847,24.9269153 C47.5633898,24.9269153 46.0892203,24.695322 44.9334237,24.1697627 C43.6317288,23.5416949 43.2108475,22.9326102 43.2108475,20.8574915 C43.2108475,20.0271186 43.2688814,19.4391864 43.3117288,18.8338983 C42.5974237,19.1072542 41.824,19.3822373 41.0663051,19.6241356 C39.1522712,20.2522034 38.3235254,18.1863051 37.9351864,16.9936271 C37.5533559,15.8687458 37.4237288,14.8366102 37.4237288,13.9471186 C37.4237288,11.8779661 38.0789153,11.1777627 39.6588475,10.6673898 C40.4615593,10.4108475 41.4855593,10.1505085 42.0729492,9.99755932 C41.5978305,9.42155932 41.0912542,8.77667797 40.6275254,8.13233898 C40.3400678,7.75484746 40.2207458,7.38549153 40.2207458,7.03891525 C40.2207458,5.88691525 41.4047458,4.94427119 42.1895593,4.3780339 C43.163661,3.71688136 44.9784407,2.71186441 46.6104407,2.71186441 C47.4993898,2.71186441 48.0791864,3.09261017 48.8146441,4.03416949 C49.3152542,4.704 49.8874576,5.57830508 50.2134237,6.0919322 C50.6180339,5.46061017 51.0801356,4.78481356 51.5514576,4.15023729 C51.9826441,3.62413559 52.5109153,3.40718644 53.0467797,3.40718644 C54.0067797,3.40718644 55.0052881,3.98861017 55.6658983,4.46155932 C56.5732881,5.14874576 57.6439322,6.19715254 58.2459661,7.28515254 C58.5898305,7.8779661 58.7688136,8.36501695 58.7688136,8.83254237 C58.7688136,9.38250847 58.5214915,9.9259661 58.0056949,10.6245424 C57.5099661,11.2954576 56.8417627,12.1144407 56.4474576,12.5732881 C57.1872542,12.7549831 57.9829153,12.987661 58.7330169,13.2355254 C59.7841356,13.5777627 60.096,14.3652881 60.096,15.2146441 C60.096,16.8103051 58.9835932,19.2282034 57.7990508,20.4897627 C57.124339,21.2067797 56.5857627,21.5435932 55.9110508,21.5435932 C55.5205424,21.5435932 55.0926102,21.4578983 54.5637966,21.2870508 C53.7572881,21.0294237 52.7674576,20.6513898 52.2077288,20.4284746 C52.2549153,21.1769492 52.2722712,21.5425085 52.2722712,22.788339 C52.2722712,24.7772203 50.0317288,24.9269153 48.7690847,24.9269153 Z M48.9247458,6.34305085 C47.7987797,6.34305085 46.2909831,6.57464407 44.8428475,7.616 C44.5559322,7.8139661 44.4593898,8.02332203 44.4593898,8.19308475 C44.4593898,8.36827119 44.599322,8.76962712 45.0858305,8.76962712 C45.7865763,8.76962712 46.724339,8.15945763 47.6903051,8.15945763 C48.5944407,8.15945763 48.8146441,8.80216949 48.8471864,8.89871186 C48.8743051,8.48379661 49.2420339,7.60081356 50.0013559,6.41681356 C49.7328814,6.37179661 49.3591864,6.34305085 48.9247458,6.34305085 Z M42.3202712,10.2904407 C41.8955932,11.1652881 41.1178305,13.1650169 41.8842034,15.4505763 C42.0534237,15.976678 42.3858983,16.0764746 42.6825763,15.9815593 C43.0920678,15.848678 43.1745085,15.4494915 43.163661,14.7867119 C43.1408814,13.9378983 43.0378305,12.5190508 44.0444746,12.2023051 C44.1437288,12.155661 44.219661,12.1458983 44.2972203,12.1540339 C43.8823051,11.9490169 43.1918644,11.2851525 42.3202712,10.2904407 Z M34.5415593,5.99484826 L31.3090169,5.99484826 C29.0988475,3.7179669 26.1949831,2.47972961 23.2368814,2.47972961 C20.2277966,2.48678046 17.3749153,3.7179669 15.1582373,5.99484826 L11.9322034,5.99484826 C14.3517288,2.40488216 18.6804068,8.0079828e-07 23.2368814,8.0079828e-07 C27.8622373,-0.00162631785 32.1990508,2.47647538 34.5415593,5.99484826 Z" fill="#ED1C24"></path>
    <path d="M10.4970847,18.0382373 L12.0992542,19.9598644 L12.0547797,20.0103051 C10.7254237,21.5772203 9.13572881,22.3365424 7.18427119,22.3365424 C5.22413559,22.3365424 3.43755932,21.6818983 2.13749153,20.4892203 C0.74359322,19.1994576 -1.15463195e-14,17.3808814 -1.15463195e-14,15.2347119 C-1.15463195e-14,13.0825763 0.74359322,11.2672542 2.13749153,9.98020339 C3.43755932,8.78752542 5.22413559,8.13559322 7.18427119,8.13559322 C9.13572881,8.13559322 10.7254237,8.88949153 12.0547797,10.4574915 L12.0992542,10.5057627 L10.4970847,12.4322712 L10.4379661,12.3709831 C9.44650847,11.3524068 8.29505085,10.8181695 7.10508475,10.8181695 C4.63132203,10.8181695 2.83877966,12.6795932 2.83877966,15.2347119 C2.83877966,17.8001356 4.63132203,19.6452881 7.10508475,19.6452881 C8.29505085,19.6452881 9.44650847,19.1132203 10.4379661,18.103322 L10.4970847,18.0382373 Z M14.1016949,21.8570847 L14.1016949,8.13559322 L16.9171525,8.13559322 L16.9171525,21.8570847 L14.1016949,21.8570847 Z M27.5216271,18.7910508 L27.6816271,18.6885424 L27.0063729,21.335322 L26.976,21.3543051 C26.5166102,21.6374237 25.7469831,22.0111186 24.4854237,21.984 C22.6120678,21.9536271 21.3602712,20.5092881 21.3602712,18.3962034 L21.3602712,10.651661 L18.9830508,10.651661 L18.9830508,8.07159322 L21.3602712,8.07159322 L21.3602712,5.27783051 L24.1242034,3.79661017 L24.1242034,8.07159322 L26.9814237,8.07159322 L26.9814237,10.651661 L24.1242034,10.651661 L24.1242034,17.9357288 C24.1242034,19.0031186 24.5266441,19.4825763 25.4394576,19.4825763 C26.0680678,19.4825763 26.7704407,19.2498983 27.5216271,18.7910508 Z M29.8305085,21.8570847 L29.8305085,8.13559322 L32.6481356,8.13559322 L32.6481356,21.8570847 L29.8305085,21.8570847 Z M62.6066441,4.17084746 C62.6066441,4.07322034 62.5746441,3.99945763 62.5133559,3.95010169 C62.4498983,3.90183051 62.3707119,3.87688136 62.276339,3.87688136 L61.7312542,3.87688136 L61.7312542,4.46427119 L62.276339,4.46427119 C62.3707119,4.46427119 62.4498983,4.44040678 62.5133559,4.39376271 C62.5746441,4.34657627 62.6066441,4.27227119 62.6066441,4.17084746 Z M62.9575593,4.16 C62.9575593,4.32433898 62.9174237,4.45722034 62.8387797,4.55918644 C62.7574237,4.6600678 62.6505763,4.73057627 62.5187797,4.76908475 L62.9418305,5.60325424 L62.5307119,5.60325424 L62.1282712,4.80488136 L61.7312542,4.80488136 L61.7312542,5.60325424 L61.3792542,5.60325424 L61.3792542,3.53627119 L62.2828475,3.53627119 C62.3745085,3.53627119 62.4602034,3.54874576 62.5431864,3.5720678 C62.624,3.59701695 62.6961356,3.63444068 62.7574237,3.68542373 C62.8176271,3.73640678 62.8664407,3.80094915 62.903322,3.87959322 C62.9402034,3.95769492 62.9575593,4.0520678 62.9575593,4.16 Z M63.6870508,4.60637288 C63.6870508,4.38237288 63.6469153,4.17355932 63.5677288,3.97884746 C63.4869153,3.78522034 63.3746441,3.61654237 63.2303729,3.47281356 C63.0882712,3.32962712 62.9190508,3.21789831 62.724339,3.13708475 C62.5307119,3.05627119 62.3218983,3.01667797 62.0984407,3.01667797 C61.8701017,3.01667797 61.6607458,3.05627119 61.4692881,3.13708475 C61.2762034,3.21789831 61.1086102,3.32962712 60.9648814,3.47281356 C60.8206102,3.61654237 60.7099661,3.78522034 60.6291525,3.97884746 C60.548339,4.17355932 60.507661,4.38237288 60.507661,4.60637288 C60.507661,4.83362712 60.548339,5.04352542 60.6291525,5.23552542 C60.7099661,5.4280678 60.8206102,5.59620339 60.9648814,5.73938983 C61.1086102,5.88257627 61.2762034,5.99538983 61.4692881,6.07511864 C61.6607458,6.1559322 61.8701017,6.19552542 62.0984407,6.19552542 C62.3218983,6.19552542 62.5307119,6.1559322 62.724339,6.07511864 C62.9190508,5.99538983 63.0882712,5.88257627 63.2303729,5.73938983 C63.3746441,5.59620339 63.4869153,5.4280678 63.5677288,5.23552542 C63.6469153,5.04352542 63.6870508,4.83362712 63.6870508,4.60637288 Z M63.9918644,4.60637288 C63.9918644,4.87538983 63.9441356,5.1259661 63.8470508,5.35647458 C63.7505085,5.58752542 63.6187119,5.78766102 63.4484068,5.95742373 C63.2797288,6.12664407 63.0790508,6.25952542 62.8490847,6.35552542 C62.6174915,6.4520678 62.3674576,6.50033898 62.0984407,6.50033898 C61.8277966,6.50033898 61.5783051,6.4520678 61.348339,6.35552542 C61.1178305,6.25952542 60.9176949,6.12664407 60.7468475,5.95742373 C60.5781695,5.78766102 60.4447458,5.58752542 60.3482034,5.35647458 C60.2511186,5.1259661 60.2033898,4.87538983 60.2033898,4.60637288 C60.2033898,4.33681356 60.2511186,4.08732203 60.3482034,3.85627119 C60.4447458,3.62522034 60.5781695,3.42454237 60.7468475,3.25532203 C60.9176949,3.08555932 61.1178305,2.95267797 61.348339,2.85722034 C61.5783051,2.76013559 61.8277966,2.71186441 62.0984407,2.71186441 C62.3674576,2.71186441 62.6174915,2.76013559 62.8490847,2.85722034 C63.0790508,2.95267797 63.2797288,3.08555932 63.4484068,3.25532203 C63.6187119,3.42454237 63.7505085,3.62522034 63.8470508,3.85627119 C63.9441356,4.08732203 63.9918644,4.33681356 63.9918644,4.60637288 Z M38.199322,4.17084746 C38.199322,4.07322034 38.167322,3.99945763 38.1060339,3.95010169 C38.0431186,3.90183051 37.9633898,3.87688136 37.8690169,3.87688136 L37.3239322,3.87688136 L37.3239322,4.46427119 L37.8690169,4.46427119 C37.9633898,4.46427119 38.0431186,4.44040678 38.1060339,4.39376271 C38.167322,4.34657627 38.199322,4.27227119 38.199322,4.17084746 Z M38.5507797,4.16 C38.5507797,4.32433898 38.5101017,4.45722034 38.4314576,4.55918644 C38.3501017,4.6600678 38.2432542,4.73057627 38.1114576,4.76908475 L38.5350508,5.60325424 L38.1233898,5.60325424 L37.7209492,4.80488136 L37.3239322,4.80488136 L37.3239322,5.60325424 L36.9724746,5.60325424 L36.9724746,3.53627119 L37.8755254,3.53627119 C37.9671864,3.53627119 38.0528814,3.54874576 38.1358644,3.5720678 C38.216678,3.59701695 38.2888136,3.63444068 38.3501017,3.68542373 C38.4103051,3.73640678 38.4591186,3.80094915 38.4965424,3.87959322 C38.5328814,3.95769492 38.5507797,4.0520678 38.5507797,4.16 Z M39.2802712,4.60637288 C39.2802712,4.38237288 39.2395932,4.17355932 39.1604068,3.97884746 C39.0795932,3.78522034 38.967322,3.61654237 38.8230508,3.47281356 C38.6809492,3.32962712 38.5122712,3.21789831 38.3170169,3.13708475 C38.1233898,3.05627119 37.9145763,3.01667797 37.6911186,3.01667797 C37.4627797,3.01667797 37.2539661,3.05627119 37.0619661,3.13708475 C36.8688814,3.21789831 36.7018305,3.32962712 36.5581017,3.47281356 C36.4132881,3.61654237 36.3026441,3.78522034 36.2218305,3.97884746 C36.1410169,4.17355932 36.1008814,4.38237288 36.1008814,4.60637288 C36.1008814,4.83362712 36.1410169,5.04352542 36.2218305,5.23552542 C36.3026441,5.4280678 36.4132881,5.59620339 36.5581017,5.73938983 C36.7018305,5.88257627 36.8688814,5.99538983 37.0619661,6.07511864 C37.2539661,6.1559322 37.4627797,6.19552542 37.6911186,6.19552542 C37.9145763,6.19552542 38.1233898,6.1559322 38.3170169,6.07511864 C38.5122712,5.99538983 38.6809492,5.88257627 38.8230508,5.73938983 C38.967322,5.59620339 39.0795932,5.4280678 39.1604068,5.23552542 C39.2395932,5.04352542 39.2802712,4.83362712 39.2802712,4.60637288 Z M39.5845424,4.60637288 C39.5845424,4.87538983 39.5368136,5.1259661 39.4402712,5.35647458 C39.3431864,5.58752542 39.2113898,5.78766102 39.0410847,5.95742373 C38.8724068,6.12664407 38.6722712,6.25952542 38.4417627,6.35552542 C38.2101695,6.4520678 37.960678,6.50033898 37.6911186,6.50033898 C37.4204746,6.50033898 37.1709831,6.4520678 36.9410169,6.35552542 C36.7105085,6.25952542 36.5103729,6.12664407 36.3395254,5.95742373 C36.1708475,5.78766102 36.0374237,5.58752542 35.9408814,5.35647458 C35.8437966,5.1259661 35.7966102,4.87538983 35.7966102,4.60637288 C35.7966102,4.33681356 35.8437966,4.08732203 35.9408814,3.85627119 C36.0374237,3.62522034 36.1708475,3.42454237 36.3395254,3.25532203 C36.5103729,3.08555932 36.7105085,2.95267797 36.9410169,2.85722034 C37.1709831,2.76013559 37.4204746,2.71186441 37.6911186,2.71186441 C37.960678,2.71186441 38.2101695,2.76013559 38.4417627,2.85722034 C38.6722712,2.95267797 38.8724068,3.08555932 39.0410847,3.25532203 C39.2113898,3.42454237 39.3431864,3.62522034 39.4402712,3.85627119 C39.5368136,4.08732203 39.5845424,4.33681356 39.5845424,4.60637288 Z" fill="#056DAE"></path>
  </g>
</svg>
