<?xml version="1.0" encoding="utf-8"?>
<!-- Generator: Adobe Illustrator 23.0.0, SVG Export Plug-In . SVG Version: 6.00 Build 0)  -->
<svg version="1.1"
	 id="svg8" xmlns:cc="http://creativecommons.org/ns#" xmlns:dc="http://purl.org/dc/elements/1.1/" xmlns:inkscape="http://www.inkscape.org/namespaces/inkscape" xmlns:rdf="http://www.w3.org/1999/02/22-rdf-syntax-ns#" xmlns:sodipodi="http://sodipodi.sourceforge.net/DTD/sodipodi-0.dtd" xmlns:svg="http://www.w3.org/2000/svg"
	 xmlns="http://www.w3.org/2000/svg" xmlns:xlink="http://www.w3.org/1999/xlink" x="0px" y="0px" viewBox="0 0 450 100"
	 style="enable-background:new 0 0 450 100; background-color: #FFF" xml:space="preserve">
<style type="text/css">
	.st0{fill:#0C2F59;}
	.st1{fill:#1B458F;}
	.st2{fill:#E41D25;}
</style>
<sodipodi:namedview  bordercolor="#666666" borderopacity="1.0" fit-margin-bottom="0.3" fit-margin-left="0.3" fit-margin-right="0.3" fit-margin-top="0.3" id="base" inkscape:current-layer="layer1" inkscape:cx="451.73565" inkscape:cy="-10.201303" inkscape:document-units="px" inkscape:pageopacity="0" inkscape:pageshadow="2" inkscape:window-height="1001" inkscape:window-maximized="1" inkscape:window-width="1920" inkscape:window-x="-9" inkscape:window-y="-9" inkscape:zoom="1.4" pagecolor="#00ffff" showgrid="false" units="px">
	</sodipodi:namedview>
<g id="layer1" transform="translate(-42.229916,-105.38279)" inkscape:groupmode="layer" inkscape:label="Layer 1">
	<g id="g10" transform="matrix(0.16287104,0,0,-0.16287104,42.309291,122.55951)">
		<g id="g12" transform="scale(0.1)">
			<path id="path14" inkscape:connector-curvature="0" class="st0" d="M22783.3-3025.6c-71.2,0-126.8,55.1-126.8,130.1
				c0,73.6,55.6,129.3,126.8,129.3c70.8,0,126-55.7,126-129.3C22909.3-2970.5,22854.1-3025.6,22783.3-3025.6z M22783.3-2740.2
				c-85.6,0-158.3-65.9-158.3-155.3c0-90,72.7-155.7,158.3-155.7c85,0,157.3,65.7,157.3,155.7
				C22940.6-2806.1,22868.3-2740.2,22783.3-2740.2L22783.3-2740.2"/>
			<path id="path16" inkscape:connector-curvature="0" class="st0" d="M22750.2-2884.7v55.4h36.9c18.8,0,39.1-3.6,39.1-26.3
				c0-27.5-20.3-29.1-43.2-29.1H22750.2z M22808.2-2906.2c26.5,3,46.5,16.9,46.5,48.9c0,35.6-20.6,51.2-63.4,51.2h-68.2v-179.3h27.1
				v77.7h31.4l47.4-77.7h30.5L22808.2-2906.2L22808.2-2906.2"/>
			<path id="path18" inkscape:connector-curvature="0" class="st0" d="M4198-1231.8c79-0.9,133.1-24.3,177-45
				c91.5-43.4,198.6-93.3,332.8-158.2c0-0.6,216.3,154.2,227.9,162.2c73.9,49.9,144.8,11.9,167.7-31.2
				c80.8-152.5,229.7-468.6,308.3-758c9-34.9-1.9-88.4-56.2-105.2c-31.4-8.8-85.2-16.7-141.4-23.8c-78.5-9.7-77.1-73.3-77.1-111.5
				c0-47.7,0.6-366.6,0.6-475.9c1.8-67-49.3-286.1-302.4-286.1c-16.9,0-579.8,0-577.3,0c-218.4-0.9-394,183.9-395.2,380.3
				c-0.2,129.2,0,1028,0.3,1128.7C3864.1-1360.9,4038.9-1229.5,4198-1231.8L4198-1231.8"/>
			<path id="path20" inkscape:connector-curvature="0" class="st0" d="M3284.6-3064.5H1407.4v-208.5h2202.6
				c0,0,79.9,184.4,79.9,388.6c0,10.8,0.7,1415.1,0.7,1415.1c0,111.5,45.4,300.4,274.8,350.3c6.3,1.4,12.7,2.8,19.4,4
				c650,153.5,1319.9,13.7,1698.2-149.1c67.8-33.1,83.3,21.1,81.3,44.2c7.8,318-234,680.6-678.5,702.4
				c-361.5,8.3-561.8-121.2-635.2-157c-6.2-3.2-15-1.8-23.4,7.5c-66.5,65.6-208.7,164.1-368.7,209.6c-24,5.3-25.8,40.8,1.4,43.6
				c341.7,36.9,641.5-2.3,766-22.3c28.9-5,50.8,11.9,39.3,38.4c-9.2,20.4-16.1,29.4-30.7,60.6c-30.5,65.7-110.9,134.9-213.2,163.6
				c-269,74.8-726.9,139.4-1134.4,141.8c-459,2.9-943-88.7-1065.3-116.6c-29.2-6.2-70.3-16.8-77.8-18c-33.4-6.8-41.4-38.7-26.6-54.1
				c8.8-9.7,34.3-31.2,46.4-46c15.1-19,22-46-6.6-74.1l-849-762.2h580.9h6.6c37.7,1.3,73.7-33.4,73.7-76.8
				c0.4-38.9-31.3-76.3-70.9-76.3h-4.6h-754.6L1108-1465.7h987.9l5.6,0.5c38.9-0.5,69-40,68.3-77c-0.3-33.6-28.9-75-68.3-75l-6-0.6
				H938.8l-231.3-208.5h1995.3l6.4-0.2c39.3,0,69.8-40.7,70.1-76c0.6-40.8-28.3-77.4-68.6-77.2h-5.4H707.1v-208.5h1993.7l6-0.5
				c45.8-0.4,72.5-41.7,72.3-79.2c-0.3-35.2-33.5-72.5-73.2-72.5h-5.3H707.1v-209.7h2602.7h6.3c43.4-1.2,71-38.4,69.8-79.2
				c-1.2-35.3-30.5-72.5-69.5-72.5h-5.8H1408.2V-2912h1876.4l39.9,0.5c35.1,0,65.4-43.7,65.4-79c0-35.5-31-73.9-66.4-73.9
				L3284.6-3064.5L3284.6-3064.5"/>
			<path id="path22" inkscape:connector-curvature="0" class="st0" d="M2108.6-3785.1l-0.2-213.6c0,0,282.1-0.9,442.9,0
				c396.6,3.1,656.4,213.6,656.4,213.6H2108.6L2108.6-3785.1"/>
			<path id="path24" inkscape:connector-curvature="0" class="st0" d="M2108.6-3425.8l-0.2-209h1274.1
				c58.7,59.9,134.2,168.7,154.3,208.5L2108.6-3425.8L2108.6-3425.8"/>
			<path id="path26" inkscape:connector-curvature="0" class="st0" d="M21792.7-2842.9c-14.6-0.9-28.6-1.7-41.9-2.3
				c-13.4,0.6-27.3,0.8-41.8,2.3c-79,7.1-141.5,35.3-198.6,79.1c-16.1,13.6-32.1,28.7-47.7,46.4c-83.2,93.7-127.9,253.4-138.6,379.1
				c-24.3,294.1,34,723.9,395.2,752.6c9.2,0.9,18.1,0.9,27.5,0.9c0.9,0,2.5,0.4,4,0.4c1.5,0,2.7-0.4,4.3-0.4c8.7,0,18,0,26.7-0.9
				c361.6-28.7,420.4-458.5,396.1-752.6c-10.6-125.8-51.2-282.2-138.9-379.1c-15.9-17.7-31.9-32.9-47.5-46.4
				C21934-2807.5,21866.6-2837.2,21792.7-2842.9z M22657.1-2135.2c-0.3,4-0.8,7.2-1.2,11.7c-7.3,161.9-61,307.1-136.9,419.5
				c-158,247.6-434.9,381.2-768.2,376.8c-332.9,4.4-610.1-129.2-768.3-376.8c-75.8-112.4-129.6-257.6-137-419.5
				c-0.3-4.5-0.9-7.7-1.2-11.7c-45.1-543.5,271.6-919.4,811.7-962.9c32.6-2.6,63.7-3.9,94.9-3.6c31-0.3,62.8,0.9,95.1,3.6
				C22385.8-3054.6,22702.6-2678.7,22657.1-2135.2L22657.1-2135.2"/>
			<path id="path28" inkscape:connector-curvature="0" class="st0" d="M19066.3-1730.8c0,134.4,13,370.8,13,370.8h-0.2h-442.4h-0.8
				c0,0,13.5-236.4,13.5-370.8l-0.9-968.7c0-134.7-12.5-363.2-12.5-363.2h1.4h441.1h0.8c0,0-11.9,228.5-11.9,363.2L19066.3-1730.8
				L19066.3-1730.8"/>
			<path id="path30" inkscape:connector-curvature="0" class="st0" d="M16480.3-2799.5c-92.9,0-214,0-308-0.5
				c-4.3,171.1-6.2,336.5-6.5,486.5l-0.9,23.5h0.5c0,1.7,0,2.8,0,4h511.3v240.9h-510.5c1.2,259.3,6.2,429.7,6.2,429.7l634.5,0.1
				v255.5c-443.2-1.6-1084.3,0-1084.3,0s9.4-235.1,9.4-369.6v-966.9c0-123-7.6-332.1-9.1-366.3h1125.8l1.2,270
				C16849.8-2792.4,16628.1-2799.5,16480.3-2799.5L16480.3-2799.5"/>
			<path id="path32" inkscape:connector-curvature="0" class="st0" d="M9098.7-2799.5c-92.4,0-214.4,0-308.2-0.5
				c-4.2,171.1-6,336.5-6.8,486.5l-0.3,23.5h0.3c0,1.7,0,2.8,0,4H9295v240.9h-510.5c1.4,259.3,6,429.7,6,429.7l634.9,0.1v255.5
				c-443.5-1.6-1084.2,0-1084.2,0s9.4-235.1,9.4-369.6v-966.9c0-123-7.7-332.1-9-366.3h1125.8l0.9,270
				C9468.3-2792.4,9246.5-2799.5,9098.7-2799.5L9098.7-2799.5"/>
			<path id="path34" inkscape:connector-curvature="0" class="st0" d="M17929.2-2146.8l488.5,786.8h-338.6l-2.5-7.5
				c-102.7-176.9-230.2-391.4-281.2-470.1l-19.6-31.5l-283.5,509.1h-508.8l490.7-881.2l-511.2-821.5h336.7
				c217.5,372.6,330.3,543.7,330.3,543.7l303.4-543.7h507.1L17929.2-2146.8L17929.2-2146.8"/>
			<path id="path36" inkscape:connector-curvature="0" class="st0" d="M20447.6-2831.5c-394.1,0-606.4,289.6-595.8,646.2
				c9.6,310.5,151.2,574.5,489.6,597.1c129.8,8.6,235.4-13.7,417.3-62.4l-18.5,266.1c0,0-154.1,49.2-374.8,57.6
				c-280.7,10.6-534.8-43.3-737.4-230.4c-180.4-165.7-287.9-410.9-287.9-648.9c0-263.4,108.3-506,311.5-674.1
				c211.4-178.5,438.4-219.1,708.3-219.1c176.8,0,280.8,11.8,452.6,58.6l-25.2,261.1C20750-2791.9,20625.8-2831.5,20447.6-2831.5
				L20447.6-2831.5"/>
			<path id="path38" inkscape:connector-curvature="0" class="st0" d="M14760.1-1104.3h493.3l13.8-113.9
				c110.1-1137.5,177.8-1845.3,177.8-1845.3h-513.6l-50.8,704.9l-47.2,629.9l-435.2-1333.7c-114.7-0.3-274.8,0-274.8,0
				s-137.8,473.9-162.9,539.8l-249.2,800.1c0,0-38.6-445.3-53.1-635.6c-30.2-381.9-56.8-705.3-56.8-705.3h-383.3
				c0,0,157,1593.1,168.8,1689.9c12,99.7,30.7,269.3,30.7,269.3h503.7l417.3-1147L14760.1-1104.3L14760.1-1104.3"/>
			<path id="path40" inkscape:connector-curvature="0" class="st0" d="M12150.4-2841.8c-14-1.6-27.7-1.9-41.1-2
				c-13.8,0.1-27.3,0.1-41.8,2c-79.1,7.2-140.9,35-198,78.8c-16.4,12.8-31.8,28.8-47.6,45.8c-82.5,93.2-127.3,252.3-137.9,378.2
				c-24.4,292.2,34.4,720,393.9,748.6c9.2,0.4,18.1,1.1,27.1,1.1c1.3,0,2.8,0.7,4.4,0c0.9,0.7,2.7,0,3.7,0c8.9,0,18.1-0.8,27.3-1.1
				c359.2-28.6,418.2-456.3,393.5-748.6c-10.3-125.9-50.9-281.4-138-378.2c-15.8-17-31.4-33-47.4-45.8
				C12291.5-2806.7,12224.4-2836.1,12150.4-2841.8L12150.4-2841.8z M13011.6-2137.7c-0.5,4-1.3,8-1.5,11.3
				c-7,162.3-60.5,306.5-136.5,418.5c-157,246.7-432.8,379.4-764.3,374.9c-332.3,4.5-608.1-128.2-765.2-374.9
				c-75.1-112-129-256.2-136.2-418.5c-0.1-3.2-1.1-7.2-1.1-11.3c-45.5-541,270.1-915.3,807.6-958.7c32-2.2,63.3-2.9,94.8-2.9
				c30.6,0,62.2,0.7,94.4,2.9C12740.9-3053,13056.8-2678.7,13011.6-2137.7L13011.6-2137.7"/>
			<path id="path42" inkscape:connector-curvature="0" class="st0" d="M6979.4-2229l213.2,634.3l12.7,37.4l223.2-671.6H6979.4z
				 M8234.4-3062.5c-15,35-106.2,250.9-173.1,425.1l-575.7,1533h-448.3c0,0-127.4-359.5-145.8-418.8l-420.4-1188.5
				c-54.6-152-131.3-351.2-131.3-351.2h365.8c0,0,103.5,330.3,124.8,390.1l56.4,164.9h634l86.1-251.4
				c18.4-47.1,93.2-299.6,94.6-303.4H8234.4L8234.4-3062.5"/>
			<path id="path44" inkscape:connector-curvature="0" class="st0" d="M10447.1-2112.3c-66-34.1-215.1-24.7-288.8-20.3l5.6,486.9
				l41.1,2.6c135.7,10.9,234.7-7.5,275.4-25.9c61-26.8,96.5-83.8,99.8-180.2C10585.3-1992.5,10530.8-2069.2,10447.1-2112.3z
				 M11229.3-3062.7c-105.9,152.1-145,214.9-226.4,326.2l-305.2,474.3c146.9,72.5,284.9,194.1,305.9,448.6
				c12.9,159.2-72.1,290.9-122.6,335.6c-73.5,65.4-144.9,92-246.6,104.4c-81.8,10.6-140.6,11.2-189.7,14.1h-719
				c0,0,8.5-235.2,8.5-370v-962.8c0-135.2-8.5-370.2-8.5-370.2h442.3c0,0-12.9,235-12.9,370.2l3.3,308.8c0,0,96.3,0,164.1-0.8
				l279.7-512.8c37.6-65.3,92-147,104.8-165.7L11229.3-3062.7L11229.3-3062.7"/>
			<path id="path46" inkscape:connector-curvature="0" class="st1" d="M26192.7-459.2l-18.6,8.5l4.6,10.1l50.3-22.7l-4.8-10.2
				l-18.6,8.4l-24.5-54.7l-13,5.8L26192.7-459.2L26192.7-459.2"/>
			<path id="path48" inkscape:connector-curvature="0" class="st1" d="M26238.7-467.3l20.7-9.9l-8.6-55.9l0.2-0.2l38.9,41.1
				l20.5-10.1l-31.2-64l-12.2,6.1l25.7,52.7h-0.1l-43-44.2l-12.2,6.1l8.5,61.1l-0.3,0l-25.8-52.6l-12.2,6L26238.7-467.3
				L26238.7-467.3"/>
			<path id="path50" inkscape:connector-curvature="0" class="st1" d="M26390.5-1021l-1.4-1.7c243.4-244.7,403.7-574.7,429.6-946
				c57.3-820.3-561.1-1531.8-1381.4-1589.1c-385.3-27-746.9,95.3-1027.7,317.8l-1.5-1.6c291.2-271.7,690.3-426.6,1119.2-396.7
				c820.3,57.4,1438.8,769,1381.4,1589.2C26879.5-1634.4,26683.6-1271.4,26390.5-1021L26390.5-1021"/>
			<path id="path52" inkscape:connector-curvature="0" class="st1" d="M23751.5-2713.9c-47.2-26.4-58-66.2-33.6-127.5
				c22.4-55.8,57.5-80.1,95-65.1c30,12,35.2,37.9,22.6,105.1l-5.5,26.1c-12.2,66.2-14.3,94.7-6.2,123.1c7.6,31.9,26,52.9,53.9,64
				c67.4,26.9,131-14.5,169-109.5c40.8-102.4,18.9-179.5-60.8-212.7l-20,50c55.5,24.2,69.4,76.2,39.8,150.4
				c-24.3,60.8-62.9,87.6-103.6,71.4c-32.7-13.2-40.5-43.6-28.4-112.5l4.7-28.8l4.4-25.5c8.8-51.3,9.8-69.3,4.8-91.1
				c-6.6-27.1-24-47-52-58.2c-63.1-25.3-123.8,11.9-158,97.4c-36.9,92.4-17.2,161.2,53.9,192.9L23751.5-2713.9L23751.5-2713.9"/>
			<path id="path54" inkscape:connector-curvature="0" class="st1" d="M23709.4-2176.4l226,190.3l1.5-70.2l-191.4-158.5l62.1-68.4
				l134.2,3l1.2-55.2l-384-8.5l-1.2,55.2l151.1,3.3l20.7-0.2l19.7,0.5l-13,13.5l-13.1,13.7l-169.9,183.4l-1.8,72.8L23709.4-2176.4
				L23709.4-2176.4"/>
			<path id="path56" inkscape:connector-curvature="0" class="st1" d="M23879.4-1581.8l148.1-51.9l-18.3-52.2l-147.9,52.2
				l-265.4-80.1l22.3,63.5l164.7,45.9l20.3,5.7c8.2,2.6,13.5,3.4,28,6.4c-13,15.3-16,19-29.4,37.9l-101.6,137.4l21.1,60.5
				L23879.4-1581.8L23879.4-1581.8"/>
			<path id="path58" inkscape:connector-curvature="0" class="st1" d="M24139.3-877l-81.1-99.2l242.2-198.2l-58.2-71.3l-242.3,198.4
				l-80.8-98.7l-54.8,45l220.2,268.8L24139.3-877L24139.3-877"/>
			<path id="path60" inkscape:connector-curvature="0" class="st1" d="M24657.5-513.2l-193.8-113.2l41.3-70.7l178,103.9l33.2-56.7
				l-178-104l47.9-81.6l197.5,115.6l35.7-61.3l-276.8-161.9l-194.2,331.4l273.4,159.8L24657.5-513.2L24657.5-513.2"/>
			<path id="path62" inkscape:connector-curvature="0" class="st1" d="M25181.2-464.3c-21,35.2-29.3,50.7-41.3,78.1
				c-3.6-27.3-7.2-47.7-16.3-87.3l-16-73.2l111.5,17.8L25181.2-464.3z M25400.7-662.2l-100.5-6.5l-49.6,83l-154.8-24.7l-21.7-94.6
				l-95.7-24.7l101.1,419.6l94.5,15L25400.7-662.2L25400.7-662.2"/>
			<path id="path64" inkscape:connector-curvature="0" class="st1" d="M26017.5-785.1l-80.9,30.8l30.8,114.1
				c3.5,13.4,8.3,31.8,15.2,55c6.3,24.1,11.9,42.8,16.1,56.6c4.9,15.5,9.7,31.5,14.8,48.1l9.2,27.3c-22.8-38.8-31.7-52.5-52.5-83.9
				c-8.8-13.8-17-25.3-23.6-35l-108.9-152.6l-69.9,18.4l-21.9,183.5c-1.7,9.2-2.5,22.6-3.8,40.8c-1.2,24.2-2.7,42.4-3.2,55.2
				c-0.4,10.2-0.4,25.7-0.2,46.5l-9.5-46.3c-11.4-50.6-16.4-72.6-31.8-132.9l-31.9-123.7l-85,13.3l96.3,375.5l129-24.9L25824-497
				c4.8-41.7,5.4-76.6,3.7-126c14.5,28.2,19.7,37.7,36.4,63.6c11.2,17.5,20.9,32,29.6,45.4l101.1,145.1l122.6-41.6L26017.5-785.1
				L26017.5-785.1"/>
			<path id="path66" inkscape:connector-curvature="0" class="st1" d="M26008.6-2023.7c110.6,74.6,203,114.5,260.2,112.5
				c33.9-1.3,74.5-11.4,74.5-53.3c0-43-41-79.1-121.2-107.7c-70.2-25.2-178.2-31.5-296-18.3
				C25958.4-2061.1,25985.5-2039.2,26008.6-2023.7z M24450.9-2160.2c-69,4.7-102.6,32.6-102.6,85.4c0,7,4.7,175,389.6,194.3
				c43.9,2.3,93.1,3.7,167.8-4.8c-3.2-0.1-43.7-37.3-43.7-37.3l-24-21.8C24745-2028.5,24589.6-2169.6,24450.9-2160.2z
				 M25283.6-1524.7c-46.7-40.8-138.9-129.4-228-214.9l-100.9-96.7c-82.6,15-164,22-247.7,22c-187.3,0-358.5-51.5-436.5-131.1
				c-29.9-30.6-44.6-63.7-43.9-98.7c1.9-90.4,105.5-136,137.2-147.8c166-62,305.5-44.1,451.9,58.4
				c80.8,56.6,178.4,147.6,254.1,220.3c59.1-13.7,126.3-31,198.2-52.2l66.7-19.6c-86.3-84.4-174.7-174.1-256.8-246.4l-6.2-5.7
				c-114.1-100.5-196.7-173.2-315.6-199.7c-83.9-18.6-143.5-1.1-163,11.1c-1.8-0.3-4.6-3.8-4.6-3.8c69.1-56.7,134.3-89,246.6-79.4
				c107,9.3,230.4,76.8,356.9,194.9l170.6,167.6l119.4,118.7c0-0.8,241.5-70.9,241.5-70.9c1.9-0.6,4.4-1.3,4.4-1.3
				c-2.5,0-149.4-145.5-149.4-145.5l-128.4-127.7c-131.7-127.7-203.2-194.1-279.8-248.4c-127.4-90.1-235.8-137.1-332-143.5
				c-49.4-3.1-121,0.2-180.8,35.2c-2.7,0.5-6.3-2.7-6.3-2.7c65-55.7,144.6-122.1,281.4-118.2c155.1,4.2,292.1,78.8,505.8,275.1
				c97.4,89.4,194.1,189.3,279.6,277.7l158.5,160.8c104.6-23.4,198-32.7,301.3-30.6c150.5,2.9,278.9,75,280.6,157.3
				c1.2,60.8-48.7,93.3-78.5,112.6c-24.8,16.2-92.1,53.6-185,53.6c-112.8,0-230.4-49.8-349.7-147.9l-79.5-70.1
				c0.8,0.6-29.1,8-29.1,8l-220.9,61.8c65,60.9,120.6,113.2,170.7,157.6c120.8,107.5,254.6,151.7,332.7,156.8
				c56.8,3.7,156.4-1.3,197.2-30.2c1.9,0.2,4.5,4.4,4.5,4.4c-108.7,93.2-202.8,105.5-280.6,105.5c-76.3,0-199.1-24.5-349.3-140.8
				c-61.3-47.5-140.8-126.9-224.2-210.8c0,0.5-111.7,34.3-111.7,34.3l-27,8.6c0,0-117.3,35.6-117.4,35.6c2.6,0,67,63.1,67,63.1
				c79.1,77.6,153.9,150.9,212.3,200c212,178.4,345.3,201.6,438.2,202c101.7,0.4,182.4-20.5,240-62.2c1.7,0.3,4.3,4.1,4.3,4.1
				c-119.1,107.6-204.6,142-352.4,143.3C25590.1-1320.1,25435.1-1392.3,25283.6-1524.7L25283.6-1524.7"/>
			<path id="path68" inkscape:connector-curvature="0" class="st2" d="M13264.4-3943.3c0,0,774.8,633.1,2730.7,633.1
				c1474,0,2357.5-470.9,4081.1-470.9c1550.4,0,2585.2,532.8,2585.2,532.8s-908.8-709.1-2732.4-709.1s-2405.1,477.2-4206.5,477.2
				S13264.4-3943.3,13264.4-3943.3"/>
		</g>
	</g>
</g>
</svg>
