<?xml version="1.0" encoding="iso-8859-1"?>
<!-- Generator: Adobe Illustrator 19.0.0, SVG Export Plug-In . SVG Version: 6.00 Build 0)  -->
<svg version="1.1" id="Layer_1" xmlns="http://www.w3.org/2000/svg" xmlns:xlink="http://www.w3.org/1999/xlink" x="0px" y="0px"
	 viewBox="0 0 504 504" style="enable-background:new 0 0 504 504;" xml:space="preserve">
<path style="fill:#FFC3A9;" d="M469.6,307.2C469.6,428,372,476,251.2,476c-120,0-217.6-48-217.6-168.8c0-120,97.6-217.6,217.6-217.6
	C372,89.6,469.6,187.2,469.6,307.2z"/>
<path style="fill:#F2AF97;" d="M252.8,89.6c120,0,217.6,97.6,217.6,217.6C470.4,428,372.8,476,252.8,476"/>
<g>
	<path style="fill:#00233F;" d="M165.6,233.6c-14.4,0.8-25.6,7.2-24.8,14.4l52-3.2C192,237.6,180,232.8,165.6,233.6z"/>
	<path style="fill:#00233F;" d="M336.8,233.6c14.4,0.8,25.6,7.2,24.8,14.4l-51.2-4C310.4,237.6,322.4,232.8,336.8,233.6z"/>
</g>
<g>
	<path style="fill:#FCD4C5;" d="M156.8,348c-34.4,0-61.6,8-61.6,17.6s28,4.8,61.6,4.8c34.4,0,61.6,4.8,61.6-4.8
		C218.4,356,190.4,348,156.8,348z"/>
	<path style="fill:#FCD4C5;" d="M346.4,348c-34.4,0-61.6,8-61.6,17.6s28,4.8,61.6,4.8c34.4,0,61.6,4.8,61.6-4.8
		C408.8,356,380.8,348,346.4,348z"/>
</g>
<g>
	<path style="fill:#E59177;" d="M196,335.2c0,13.6-11.2,25.6-25.6,25.6c-13.6,0-25.6-11.2-25.6-25.6c0-13.6,11.2-25.6,25.6-25.6
		C184.8,310.4,196,321.6,196,335.2z"/>
	<path style="fill:#E59177;" d="M360.8,335.2c0,13.6-11.2,25.6-25.6,25.6c-13.6,0-25.6-11.2-25.6-25.6c0-13.6,11.2-25.6,25.6-25.6
		C349.6,310.4,360.8,321.6,360.8,335.2z"/>
</g>
<path style="fill:#1E4784;" d="M196,328c0,13.6-11.2,25.6-25.6,25.6c-13.6,0-25.6-11.2-25.6-25.6c0-13.6,11.2-25.6,25.6-25.6
	C184.8,303.2,196,314.4,196,328z"/>
<path style="fill:#00233F;" d="M170.4,303.2c14.4,0,25.6,11.2,25.6,25.6c0,13.6-11.2,25.6-25.6,25.6"/>
<path style="fill:#1E4784;" d="M360.8,328c0,13.6-11.2,25.6-25.6,25.6c-13.6,0-25.6-11.2-25.6-25.6c0-13.6,11.2-25.6,25.6-25.6
	C349.6,303.2,360.8,314.4,360.8,328z"/>
<path style="fill:#00233F;" d="M335.2,303.2c14.4,0,25.6,11.2,25.6,25.6c0,13.6-11.2,25.6-25.6,25.6"/>
<path style="fill:#1E4784;" d="M333.6,108c0,17.6-36.8,16-82.4,16s-82.4,2.4-82.4-16c0-17.6,36.8-32,82.4-32S333.6,90.4,333.6,108z"
	/>
<path style="fill:#00233F;" d="M333.6,108c0,17.6-36.8,16-82.4,16s-82.4,2.4-82.4-16"/>
<path style="fill:#1E4784;" d="M278.4,77.6c-24.8-3.2-42.4-22.4-40-41.6c0-3.2,1.6-5.6,2.4-8c-10.4,4.8-19.2,15.2-20.8,27.2
	c-2.4,19.2,11.2,36.8,30.4,39.2c14.4,1.6,28-4.8,34.4-16.8C282.4,78.4,280,78.4,278.4,77.6z"/>
<path style="fill:#A51339;" d="M312,390.4c0,12.8-27.2,46.4-60.8,46.4s-60.8-33.6-60.8-46.4s27.2-7.2,60.8-7.2S312,377.6,312,390.4z
	"/>
<path style="fill:#6B0525;" d="M191.2,390.4c0-12.8,27.2-7.2,60.8-7.2s60.8-5.6,60.8,7.2"/>
<ellipse style="fill:#FFC3A9;" cx="44.8" cy="246.4" rx="44.8" ry="44"/>
<ellipse style="fill:#F2AF97;" cx="459.2" cy="246.4" rx="44.8" ry="44"/>
<g>
</g>
<g>
</g>
<g>
</g>
<g>
</g>
<g>
</g>
<g>
</g>
<g>
</g>
<g>
</g>
<g>
</g>
<g>
</g>
<g>
</g>
<g>
</g>
<g>
</g>
<g>
</g>
<g>
</g>
</svg>
