<?xml version="1.0" encoding="iso-8859-1"?>
<!-- Generator: Adobe Illustrator 19.0.0, SVG Export Plug-In . SVG Version: 6.00 Build 0)  -->
<svg version="1.1" id="Layer_1" xmlns="http://www.w3.org/2000/svg" xmlns:xlink="http://www.w3.org/1999/xlink" x="0px" y="0px"
	 viewBox="0 0 392.533 392.533" style="enable-background:new 0 0 392.533 392.533;" xml:space="preserve">
<path style="fill:#FFFFFF;" d="M306.101,84.558H193.939v31.354c0,17.325-14.093,31.354-31.354,31.354s-31.354-14.093-31.354-31.354
	V84.558H86.497c-6.012,0-10.925,4.848-10.925,10.925v264.339c0,6.012,4.848,10.925,10.925,10.925h219.539
	c6.012,0,10.925-4.849,10.925-10.925V95.418C316.962,89.471,312.048,84.558,306.101,84.558z"/>
<path style="fill:#56ACE0;" d="M97.358,347.41V107.96c0-0.84,0.711-1.552,1.552-1.552h194.715c0.84,0,1.552,0.711,1.552,1.552
	V347.41c0,0.84-0.711,1.552-1.552,1.552H98.909C98.069,348.962,97.358,348.25,97.358,347.41z"/>
<g>
	<path style="fill:#FFC10D;" d="M225.293,166.465c6.723,0,12.218-5.495,12.218-12.218c0-6.723-5.495-12.218-12.218-12.218
		c-6.723,0-12.218,5.495-12.218,12.218C213.139,160.97,218.699,166.465,225.293,166.465z"/>
	<path style="fill:#FFC10D;" d="M225.293,220.832c-14.675,0-27.539,8.986-33.099,21.786h66.133
		C252.832,229.818,240.032,220.832,225.293,220.832z"/>
</g>
<path style="fill:#FFFFFF;" d="M162.586,125.479c5.236,0,9.568-4.331,9.568-9.568V84.558h-19.135v31.354
	C153.018,121.212,157.35,125.479,162.586,125.479z"/>
<g>
	<path style="fill:#194F82;" d="M225.293,188.251c18.747,0,34.004-15.192,34.004-34.004c0-18.747-15.192-34.004-34.004-34.004
		c-18.747,0-34.004,15.192-34.004,34.004C191.354,172.994,206.61,188.251,225.293,188.251z M225.293,142.093
		c6.723,0,12.218,5.495,12.218,12.218c0,6.723-5.495,12.218-12.218,12.218c-6.723,0-12.218-5.495-12.218-12.218
		C213.139,147.588,218.699,142.093,225.293,142.093z"/>
	<path style="fill:#194F82;" d="M225.293,199.046c-30.19,0-55.531,23.596-57.665,53.721c-0.259,3.038,0.84,6.012,2.909,8.21
		c2.069,2.263,4.978,3.491,7.952,3.491h93.608c3.038,0,5.947-1.228,7.952-3.491c2.069-2.263,3.103-5.172,2.909-8.21
		C280.889,222.642,255.547,199.046,225.293,199.046z M192.259,242.618c5.56-12.8,18.36-21.786,33.099-21.786
		s27.539,8.986,33.099,21.786H192.259z"/>
	<path style="fill:#194F82;" d="M272.162,317.091H124.251c-6.012,0-10.925,4.848-10.925,10.925c0,6.012,4.848,10.925,10.925,10.925
		h147.911c6.012,0,10.925-4.849,10.925-10.925C283.022,322.004,278.174,317.091,272.162,317.091z"/>
	<path style="fill:#194F82;" d="M272.162,278.432H124.251c-6.012,0-10.925,4.848-10.925,10.925c0,6.012,4.848,10.925,10.925,10.925
		h147.911c6.012,0,10.925-4.848,10.925-10.925C283.022,283.281,278.174,278.432,272.162,278.432z"/>
	<path style="fill:#194F82;" d="M124.186,253.996h16.549c6.012,0,10.925-4.848,10.925-10.925c0-6.012-4.848-10.925-10.925-10.925
		h-16.549c-6.012,0-10.925,4.848-10.925,10.925S118.174,253.996,124.186,253.996z"/>
	<path style="fill:#194F82;" d="M124.121,207.838h33.552c6.012,0,10.925-4.848,10.925-10.925c0-6.012-4.848-10.925-10.925-10.925
		h-33.552c-6.012,0-10.925,4.848-10.925,10.925C113.196,202.99,118.044,207.838,124.121,207.838z"/>
	<path style="fill:#194F82;" d="M306.101,62.772H193.939V50.554C193.939,22.626,171.248,0,143.386,0
		c-27.927,0-50.554,22.626-50.554,50.554v12.218h-6.335c-18.036,0-32.711,14.675-32.711,32.711v264.339
		c0,18.036,14.675,32.711,32.711,32.711h219.539c18.036,0,32.711-14.675,32.711-32.711V95.418
		C338.747,77.446,324.073,62.772,306.101,62.772z M114.683,50.554c0-15.838,12.929-28.768,28.768-28.768
		s28.768,12.929,28.768,28.768v12.218h-19.135v-1.616c0-6.012-4.848-10.925-10.925-10.925c-6.012,0-10.925,4.848-10.925,10.925
		v1.616h-16.549C114.683,62.772,114.683,50.554,114.683,50.554z M172.154,84.558v31.354c0,5.236-4.331,9.568-9.568,9.568
		s-9.568-4.267-9.568-9.568V84.558C153.018,84.558,172.154,84.558,172.154,84.558z M316.962,359.822
		c0,6.012-4.849,10.925-10.925,10.925H86.432c-6.012,0-10.925-4.849-10.925-10.925V95.418c0-6.012,4.848-10.925,10.925-10.925
		h44.735v31.354c0,17.325,14.093,31.354,31.354,31.354c17.325,0,31.354-14.093,31.354-31.354V84.493h112.097
		c6.012,0,10.925,4.848,10.925,10.925v264.404H316.962z"/>
</g>
<g>
</g>
<g>
</g>
<g>
</g>
<g>
</g>
<g>
</g>
<g>
</g>
<g>
</g>
<g>
</g>
<g>
</g>
<g>
</g>
<g>
</g>
<g>
</g>
<g>
</g>
<g>
</g>
<g>
</g>
</svg>
