<svg width="302" height="396" viewBox="0 0 302 396" fill="none" xmlns="http://www.w3.org/2000/svg">
<path d="M149.103 305.692C149.71 303.869 152.29 303.869 152.897 305.692L175.98 374.94C179.434 385.301 171.722 396 160.801 396H141.199C130.278 396 122.566 385.301 126.02 374.94L149.103 305.692Z" fill="#624937"/>
<path fill-rule="evenodd" clip-rule="evenodd" d="M55 2.25931C55 0.22797 57.6775 -0.509693 58.7178 1.23502L122.379 108H179.8L243.285 2.19161C244.329 0.452229 247 1.19215 247 3.2206V145.333L294.761 177.174C303.162 182.775 304.339 194.661 297.199 201.8L182 317H183L197.068 359.203C198.209 362.626 196.918 366.388 193.916 368.389L177.626 379.25C161.502 389.998 140.498 389.998 124.374 379.25L108.084 368.389C105.082 366.388 103.791 362.626 104.932 359.203L119 317H120L4.80046 201.8C-2.33901 194.661 -1.16201 182.775 7.23899 177.174L54.9999 145.333L55 2.25931Z" fill="url(#paint0_linear_157_2)"/>
<path d="M79.7548 163.245C83.435 159.565 89.5939 160.323 92.2716 164.786L130.884 229.14C131.955 230.925 129.925 232.955 128.14 231.884L63.7861 193.272C59.3232 190.594 58.565 184.435 62.2452 180.755L79.7548 163.245Z" fill="#482E21"/>
<path d="M222.245 163.245C218.565 159.565 212.406 160.323 209.728 164.786L171.116 229.14C170.045 230.925 172.075 232.955 173.86 231.884L238.214 193.272C242.677 190.594 243.435 184.435 239.755 180.755L222.245 163.245Z" fill="#482E21"/>
<path d="M63.4264 31.2593C63.4264 29.228 66.1039 28.4903 67.1442 30.2351L98.6562 83.0833C99.2019 83.9984 98.9343 85.1807 98.0478 85.7717L66.5358 106.78C65.2067 107.666 63.4264 106.713 63.4264 105.116L63.4264 31.2593Z" fill="#482E21"/>
<path d="M239.46 31.2184C239.46 29.1901 236.788 28.4508 235.745 30.1902L204.102 82.9449C203.553 83.8602 203.82 85.0454 204.708 85.6376L236.373 106.753C237.702 107.639 239.483 106.686 239.483 105.088L239.46 31.2184Z" fill="#482E21"/>
<defs>
<linearGradient id="paint0_linear_157_2" x1="151" y1="0.255859" x2="151" y2="387.311" gradientUnits="userSpaceOnUse">
<stop stop-color="#E7762E"/>
<stop offset="1" stop-color="#E7562E"/>
</linearGradient>
</defs>
</svg>
