<?xml version="1.0" encoding="iso-8859-1"?>
<!-- Generator: Adobe Illustrator 19.0.0, SVG Export Plug-In . SVG Version: 6.00 Build 0)  -->
<svg version="1.1" id="Layer_1" xmlns="http://www.w3.org/2000/svg" xmlns:xlink="http://www.w3.org/1999/xlink" x="0px" y="0px"
	 viewBox="0 0 512 512" style="enable-background:new 0 0 512 512;" xml:space="preserve">
<path style="fill:#005A95;" d="M438.081,242.684H73.919c-7.012,0-12.697,5.684-12.697,12.697v243.922
	c0,7.012,5.684,12.697,12.697,12.697h364.16c7.012,0,12.697-5.684,12.697-12.697V255.381
	C450.777,248.369,445.092,242.684,438.081,242.684z"/>
<path style="fill:#31AAEF;" d="M256,242.684H73.919c-7.012,0-12.697,5.684-12.697,12.697v243.922
	c0,7.012,5.684,12.697,12.697,12.697H256L256,242.684L256,242.684z"/>
<path style="fill:#00507C;" d="M450.777,492.68L255.985,362.045L61.223,493.214v6.089c0,7.012,5.684,12.697,12.697,12.697h4.867
	l177.228-119.36L433.994,512h4.087c7.012,0,12.697-5.684,12.697-12.697v-6.623H450.777z"/>
<path style="fill:#005A95;" d="M256.423,362.339l-0.438-0.293L61.223,493.214v6.089c0,7.012,5.684,12.697,12.697,12.697h4.867
	l177.228-119.36l0.409,0.273V362.339z"/>
<g>
	<path style="fill:#00507C;" d="M256,242.684H73.919c-5.385,0-10.186,3.398-11.975,8.477c-1.789,5.08-0.18,10.735,4.016,14.111
		l174.614,140.5c4.357,3.505,9.834,5.435,15.425,5.435V242.684H256z"/>
	<path style="fill:#00507C;" d="M450.055,258.838c-1.789,5.08-6.59,8.477-11.975,8.477H73.919c-5.385,0-10.186-3.398-11.975-8.477
		c-1.789-5.08-0.18-10.735,4.016-14.111l174.615-140.501c4.357-3.505,9.834-5.435,15.425-5.435c5.591,0,11.069,1.93,15.425,5.435
		l174.615,140.5C450.235,248.103,451.845,253.758,450.055,258.838z"/>
	<path style="fill:#00507C;" d="M256,267.315H73.919c-5.385,0-10.186-3.398-11.975-8.477c-1.789-5.08-0.18-10.735,4.016-14.111
		l174.615-140.501c4.357-3.505,9.834-5.435,15.425-5.435V267.315z"/>
	<path style="fill:#00507C;" d="M450.055,251.162c-1.789-5.08-6.59-8.477-11.975-8.477H73.919c-5.385,0-10.186,3.398-11.975,8.477
		c-1.789,5.08-0.18,10.735,4.016,14.111l174.614,140.5c4.357,3.505,9.834,5.435,15.425,5.435s11.069-1.93,15.425-5.435
		L446.04,265.274C450.235,261.897,451.845,256.241,450.055,251.162z"/>
</g>
<path style="fill:#ACACB2;" d="M385.313,36.784H126.686c-9.784,0-17.715,7.932-17.715,17.715v188.186v57.197L236.79,402.727
	l3.785,3.046c4.356,3.505,9.834,5.435,15.425,5.435c5.591,0,11.069-1.93,15.425-5.435l3.785-3.046l127.818-102.846v-57.197V54.499
	C403.028,44.716,395.097,36.784,385.313,36.784z"/>
<path style="fill:#E1E1E3;" d="M256.423,36.784H126.686c-9.784,0-17.715,7.932-17.715,17.715v188.186v57.197L236.79,402.727
	l3.785,3.046c4.356,3.505,9.834,5.435,15.425,5.435c0.142,0,0.281-0.016,0.423-0.018V36.784L256.423,36.784z"/>
<g>
	<path style="fill:#3B4E56;" d="M286.421,176.233H181.908c-9.784,0-17.714-7.932-17.714-17.714c0-9.783,7.932-17.715,17.714-17.715
		h104.513c9.784,0,17.715,7.932,17.715,17.715C304.136,168.301,296.205,176.233,286.421,176.233z"/>
	<path style="fill:#3B4E56;" d="M330.105,262.446H181.895c-9.784,0-17.715-7.932-17.715-17.715c0-9.784,7.932-17.714,17.715-17.714
		h148.209c9.784,0,17.715,7.932,17.715,17.714C347.82,254.514,339.888,262.446,330.105,262.446z"/>
	<path style="fill:#3B4E56;" d="M330.105,327.401H181.895c-9.784,0-17.715-7.932-17.715-17.715c0-9.784,7.932-17.714,17.715-17.714
		h148.209c9.784,0,17.715,7.932,17.715,17.714C347.82,319.47,339.888,327.401,330.105,327.401z"/>
</g>
<g>
	<path style="fill:#4F6873;" d="M256.423,227.016h-74.528c-9.784,0-17.715,7.932-17.715,17.714c0,9.784,7.932,17.715,17.715,17.715
		h74.528V227.016z"/>
	<path style="fill:#4F6873;" d="M256.423,291.972h-74.528c-9.784,0-17.715,7.932-17.715,17.714c0,9.784,7.932,17.715,17.715,17.715
		h74.528V291.972z"/>
	<path style="fill:#4F6873;" d="M257.224,140.803h-75.315c-9.784,0-17.714,7.932-17.714,17.715s7.932,17.714,17.714,17.714h75.315
		V140.803z"/>
</g>
<circle style="fill:#940009;" cx="374.54" cy="70.404" r="70.404"/>
<path style="fill:#FF0029;" d="M304.137,70.402c0,38.881,31.52,70.401,70.402,70.401V0C335.657,0,304.137,31.52,304.137,70.402z"/>
<g>
</g>
<g>
</g>
<g>
</g>
<g>
</g>
<g>
</g>
<g>
</g>
<g>
</g>
<g>
</g>
<g>
</g>
<g>
</g>
<g>
</g>
<g>
</g>
<g>
</g>
<g>
</g>
<g>
</g>
</svg>
