<?xml version="1.0" encoding="utf-8"?>
<!-- Generator: Adobe Illustrator 23.0.3, SVG Export Plug-In . SVG Version: 6.00 Build 0)  -->
<svg version="1.1" id="logo" xmlns="http://www.w3.org/2000/svg" xmlns:xlink="http://www.w3.org/1999/xlink" x="0px" y="0px"
	 viewBox="0 0 2394.7 889.2" style="enable-background:new 0 0 2394.7 889.2;" xml:space="preserve">
<style type="text/css">
	.st0{fill:#4092CC;}
	.st1{fill:url(#SVGID_1_);}
</style>
<g>
	<g>
		<path class="st0" d="M950.2,395.6c0-6.7,8.7-10.1,9.2-9.4c8,13.8,22.9,25,45,25c22.9,0,36.5-10.3,36.5-27.5
			c0-19.5-19.5-24.8-40.8-29.8c-22.5-5.3-45.7-12.6-45.7-42.2c0-23.4,21.3-40.8,49.8-40.8c30.8,0,49.1,16.1,49.1,25.7
			c0,6.7-8.7,10.1-9.2,9.4c-6.9-12.2-21.3-21.6-39.7-21.6c-20.7,0-34.9,10.8-34.9,26.9c0,19,15.6,22.9,38.1,28.2
			c23.6,5.5,48.7,14.2,48.7,43.6c0,25.2-20.4,41.8-51.6,41.8C971.5,424.8,950.2,406.4,950.2,395.6z"/>
		<path class="st0" d="M1073.9,367.2c0-33,23.6-57.1,56.5-57.1c32.6,0,56.2,24.3,56.2,57.6c0,33-23.6,57.1-56.2,57.1
			C1097.5,424.8,1073.9,400.5,1073.9,367.2z M1171.4,367.7c0-25.5-17.4-44.5-41.1-44.5s-41.3,18.6-41.3,44.1s17.7,44.5,41.3,44.5
			C1153.8,411.7,1171.4,393.1,1171.4,367.7z"/>
		<path class="st0" d="M1211.4,415.8V267.4c0-0.5,2.3-1.6,5-1.6c5,0,9.9,2.5,9.9,14.5v135.6c0,5.5-2.8,7.1-6.7,7.1h-1.6
			C1214.1,423,1211.4,421.4,1211.4,415.8z"/>
		<path class="st0" d="M1337.8,408.5v-3.4c-7.8,11.7-20.4,19.7-37.2,19.7c-28.9,0-43.4-19.3-43.4-48.2V319c0-5.5,2.8-7.1,6.7-7.1
			h1.6c3.9,0,6.7,1.6,6.7,7.1v56.7c0,22,11,35.1,30.5,35.1c15.8,0,28.5-9.4,34.9-23.2V319c0-5.5,2.8-7.1,6.7-7.1h1.6
			c3.9,0,6.7,1.6,6.7,7.1v102.4c0,0.5-2.3,1.6-5,1.6C1342.4,423,1337.8,420.4,1337.8,408.5z"/>
		<path class="st0" d="M1375.9,367.2c0-33,24.1-57.1,56.2-57.1c31.9,0,47,20.4,47,30.3c0,6.7-9.4,8-9.9,7.1
			c-5.7-13.5-16.3-24.1-37.2-24.1c-23.4,0-41.1,18.4-41.1,43.8c0,25.5,17.4,44.3,41.1,44.3c20.9,0,31.4-10.6,37.2-24.1
			c0.5-0.9,9.9,0.5,9.9,7.1c0,9.9-15.1,30.3-47,30.3C1400,424.8,1375.9,400.5,1375.9,367.2z"/>
		<path class="st0" d="M1501,275.6c0-6.7,3.4-9.9,10.1-9.9c6.4,0,9.6,3.2,9.6,9.9s-3.4,9.9-10.1,9.9
			C1504.4,285.5,1501,282.1,1501,275.6z M1503.3,415.8V319c0-5.5,2.8-7.1,6.7-7.1h1.6c3.9,0,6.7,1.6,6.7,7.1v96.8
			c0,5.5-2.8,7.1-6.7,7.1h-1.6C1506,423,1503.3,421.4,1503.3,415.8z"/>
		<path class="st0" d="M1542.7,367.2c0-33,23.6-57.1,56.5-57.1c32.6,0,56.2,24.3,56.2,57.6c0,33-23.6,57.1-56.2,57.1
			C1566.4,424.8,1542.7,400.5,1542.7,367.2z M1640.3,367.7c0-25.5-17.4-44.5-41.1-44.5s-41.3,18.6-41.3,44.1s17.7,44.5,41.3,44.5
			C1622.6,411.7,1640.3,393.1,1640.3,367.7z"/>
		<path class="st0" d="M1693.8,330c7.6-11.7,20.2-20,37.2-20c28.9,0,43.4,19.3,43.4,48.2v57.6c0,5.5-2.8,7.1-6.7,7.1h-1.6
			c-3.9,0-6.7-1.6-6.7-7.1v-56.7c0-21.8-10.8-35.1-29.4-35.1c-17,0-29.6,9.4-36,23.2v68.6c0,5.5-2.8,7.1-6.7,7.1h-1.6
			c-3.9,0-6.7-1.6-6.7-7.1V313.5c0-0.5,2.3-1.6,5-1.6c5,0,9.6,2.5,9.6,14.5v3.6H1693.8z"/>
		<path class="st0" d="M1796.8,367.9c0-33.3,23.4-57.8,55.1-57.8c30.8,0,50.9,21.8,50.9,55.1v1.4c0,4.1-1.6,5-6.2,5h-84.9
			c1.1,23.4,18.1,39.9,41.5,39.9c21.3,0,31-9.2,37.4-19.5c0.5-0.7,8.7,1.4,8.7,8.5c0,7.6-16.5,24.3-46.1,24.3
			C1820,424.8,1796.8,401.4,1796.8,367.9z M1812.2,358.7h74.8c-1.4-21.6-14.7-35.6-35.1-35.6
			C1831.2,323.1,1815.4,337.8,1812.2,358.7z"/>
		<path class="st0" d="M1917.7,402.5c0-6.2,7.6-8.5,8-8c7.3,10.1,19.3,17.7,37.4,17.7s28.2-7.3,28.2-18.4
			c0-13.1-11.5-15.8-32.1-20.2c-17-3.7-38.3-8.5-38.3-30.5c0-19.5,16.5-33,41.8-33c26.6,0,40.4,12.6,40.4,20.9
			c0,5.7-7.8,8.5-8.3,7.8c-6.2-9.4-17.2-16.1-32.1-16.1c-17.9,0-27.5,7.6-27.5,18.4c0,11.7,10.3,14.9,30.5,19.3
			c17.7,3.9,40.2,8.7,40.2,31.2c0,20.2-16.5,33.3-43.1,33.3C1933.6,424.8,1917.7,410.8,1917.7,402.5z"/>
		<path class="st0" d="M2061.9,367.7c0-34.4,22.3-57.6,52.6-57.6c19.3,0,33.3,9.2,39.7,19.3v-62c0-0.5,2.3-1.6,5-1.6
			c5,0,9.9,2.5,9.9,14.5v135.6c0,5.5-2.8,7.1-6.7,7.1h-1.6c-3.9,0-6.4-1.6-6.4-7.1V404c-9.9,13.3-22.7,20.9-40.8,20.9
			C2084.6,424.8,2061.9,402.3,2061.9,367.7z M2154.3,376.6v-27.8c-6.9-15.8-19.5-25.7-38.8-25.7c-23.2,0-38.6,17.9-38.6,44.3
			c0,25.7,16.1,44.3,38.1,44.3C2135.1,411.7,2153.4,396.8,2154.3,376.6z"/>
		<path class="st0" d="M2192.4,367.9c0-33.3,23.4-57.8,55.1-57.8c30.8,0,50.9,21.8,50.9,55.1v1.4c0,4.1-1.6,5-6.2,5h-84.9
			c1.1,23.4,18.1,39.9,41.5,39.9c21.3,0,31-9.2,37.4-19.5c0.5-0.7,8.7,1.4,8.7,8.5c0,7.6-16.5,24.3-46.1,24.3
			C2215.6,424.8,2192.4,401.4,2192.4,367.9z M2207.8,358.7h74.8c-1.4-21.6-14.7-35.6-35.1-35.6
			C2226.9,323.1,2211,337.8,2207.8,358.7z"/>
	</g>
	<g>
		<path class="st0" d="M941.2,553.4c0-45.4,30.5-77.3,74.4-77.3c35.6,0,55.3,20.7,55.3,29.4c0,8-8.7,10.1-9.2,9.4
			c-9.4-16.3-28.7-25.2-46.6-25.2c-34,0-57.8,26.2-57.8,63.3c0,36.9,24.6,63.6,58.3,63.6c22,0,41.1-11.2,48-29.1
			c0.2-0.9,10.1,1.1,10.1,9.2c0,9.6-20.4,33.5-58.8,33.5C971.5,630.1,941.2,598.6,941.2,553.4z"/>
		<path class="st0" d="M1090.4,572.5c0-33,23.6-57.1,56.5-57.1c32.6,0,56.2,24.3,56.2,57.6c0,33-23.6,57.1-56.2,57.1
			C1114,630.1,1090.4,605.7,1090.4,572.5z M1187.9,572.9c0-25.5-17.4-44.5-41.1-44.5s-41.3,18.6-41.3,44.1s17.7,44.5,41.3,44.5
			C1170.2,617,1187.9,598.4,1187.9,572.9z"/>
		<path class="st0" d="M1241.4,534.4c7.6-11,19.7-19,34.4-19c17.2,0,30.3,8,36.3,23.4c7.3-13.1,20.7-23.4,38.8-23.4
			c27.5,0,42.2,15.8,42.2,46.1v59.7c0,5.5-2.8,7.1-6.7,7.1h-1.6c-3.9,0-6.7-1.6-6.7-7.1v-58.8c0-21.8-9.4-33-28.2-33
			c-13.5,0-26.2,9-32.6,22v69.8c0,5.5-2.8,7.1-6.7,7.1h-1.6c-3.9,0-6.7-1.6-6.7-7.1v-57.6c0-22.9-9.4-34.2-28.2-34.2
			c-13.5,0-26.2,9-32.6,22v69.8c0,5.5-2.8,7.1-6.7,7.1h-1.6c-3.9,0-6.7-1.6-6.7-7.1V518.8c0-0.5,2.3-1.6,5-1.6c5,0,9.6,2.5,9.6,14.5
			v2.7H1241.4z"/>
		<path class="st0" d="M1502.5,613.8v-3.4c-7.8,11.7-20.4,19.7-37.2,19.7c-28.9,0-43.4-19.3-43.4-48.2v-57.6c0-5.5,2.8-7.1,6.7-7.1
			h1.6c3.9,0,6.7,1.6,6.7,7.1V581c0,22,11,35.1,30.5,35.1c15.8,0,28.5-9.4,34.9-23.2v-68.6c0-5.5,2.8-7.1,6.7-7.1h1.6
			c3.9,0,6.7,1.6,6.7,7.1v102.4c0,0.5-2.3,1.6-5,1.6C1507.1,628.2,1502.5,625.7,1502.5,613.8z"/>
		<path class="st0" d="M1562.7,535.3c7.6-11.7,20.2-20,37.2-20c28.9,0,43.4,19.3,43.4,48.2v57.6c0,5.5-2.8,7.1-6.7,7.1h-1.6
			c-3.9,0-6.7-1.6-6.7-7.1v-56.7c0-21.8-10.8-35.1-29.4-35.1c-17,0-29.6,9.4-36,23.2v68.6c0,5.5-2.8,7.1-6.7,7.1h-1.6
			c-3.9,0-6.7-1.6-6.7-7.1V518.8c0-0.5,2.3-1.6,5-1.6c5,0,9.6,2.5,9.6,14.5v3.6H1562.7z"/>
		<path class="st0" d="M1671.9,480.9c0-6.7,3.4-9.9,10.1-9.9c6.4,0,9.6,3.2,9.6,9.9c0,6.7-3.4,9.9-10.1,9.9
			C1675.3,490.8,1671.9,487.3,1671.9,480.9z M1674.2,621.1v-96.8c0-5.5,2.8-7.1,6.7-7.1h1.6c3.9,0,6.7,1.6,6.7,7.1v96.8
			c0,5.5-2.8,7.1-6.7,7.1h-1.6C1677,628.2,1674.2,626.6,1674.2,621.1z"/>
		<path class="st0" d="M1713.7,572.5c0-33,24.1-57.1,56.2-57.1c31.9,0,47,20.4,47,30.3c0,6.7-9.4,8-9.9,7.1
			c-5.7-13.5-16.3-24.1-37.2-24.1c-23.4,0-41.1,18.4-41.1,43.8c0,25.5,17.4,44.3,41.1,44.3c20.9,0,31.4-10.6,37.2-24.1
			c0.5-0.9,9.9,0.5,9.9,7.1c0,9.9-15.1,30.3-47,30.3C1737.8,630.1,1713.7,605.7,1713.7,572.5z"/>
		<path class="st0" d="M1833,599.3c0-25.5,25.5-36,76-37.2h2.3v-3.9c0-18.8-11-29.1-30.8-29.1c-17.7,0-28.9,9-34.9,20.2
			c0,0.2-8.5-0.7-8.5-8.7c0-7.8,15.6-25.2,44.5-25.2c27.8,0,44.3,16.1,44.3,42.5v68.8c0,0.5-2.3,1.6-5,1.6c-5,0-9.4-2.5-9.4-14.5
			v-4.1c-8.7,12.6-23.4,20.2-40.8,20.2C1846.8,629.8,1833,617.7,1833,599.3z M1911.3,583.9v-10.1l-6.4,0.2
			c-37.4,1.4-56.7,8-56.7,25.2c0,11,9,18.1,23.9,18.1C1894.5,617.4,1911.3,603.4,1911.3,583.9z"/>
		<path class="st0" d="M1948.4,572.5c0-33,24.1-57.1,56.2-57.1c31.9,0,47,20.4,47,30.3c0,6.7-9.4,8-9.9,7.1
			c-5.7-13.5-16.3-24.1-37.2-24.1c-23.4,0-41.1,18.4-41.1,43.8c0,25.5,17.4,44.3,41.1,44.3c20.9,0,31.4-10.6,37.2-24.1
			c0.5-0.9,9.9,0.5,9.9,7.1c0,9.9-15.1,30.3-47,30.3C1972.5,630.1,1948.4,605.7,1948.4,572.5z"/>
		<path class="st0" d="M2073.5,480.9c0-6.7,3.4-9.9,10.1-9.9c6.4,0,9.6,3.2,9.6,9.9c0,6.7-3.4,9.9-10.1,9.9
			C2077,490.8,2073.5,487.3,2073.5,480.9z M2075.8,621.1v-96.8c0-5.5,2.8-7.1,6.7-7.1h1.6c3.9,0,6.7,1.6,6.7,7.1v96.8
			c0,5.5-2.8,7.1-6.7,7.1h-1.6C2078.6,628.2,2075.8,626.6,2075.8,621.1z"/>
		<path class="st0" d="M2115.3,572.5c0-33,23.6-57.1,56.5-57.1c32.6,0,56.2,24.3,56.2,57.6c0,33-23.6,57.1-56.2,57.1
			C2138.9,630.1,2115.3,605.7,2115.3,572.5z M2212.8,572.9c0-25.5-17.4-44.5-41.1-44.5s-41.3,18.6-41.3,44.1s17.7,44.5,41.3,44.5
			C2195.1,617,2212.8,598.4,2212.8,572.9z M2189.4,471.5c3.7-2.8,7.3-4.1,10.6-4.1c3.7,0,6.9,2.5,6.9,6.2c0,3.9-2.8,7.6-8.5,11.5
			c-15.4,10.6-36.5,17.2-37.6,15.8C2159.8,499.7,2174.7,481.8,2189.4,471.5z"/>
		<path class="st0" d="M2266.3,535.3c7.6-11.7,20.2-20,37.2-20c28.9,0,43.4,19.3,43.4,48.2v57.6c0,5.5-2.8,7.1-6.7,7.1h-1.6
			c-3.9,0-6.7-1.6-6.7-7.1v-56.7c0-21.8-10.8-35.1-29.4-35.1c-17,0-29.6,9.4-36,23.2v68.6c0,5.5-2.8,7.1-6.7,7.1h-1.6
			c-3.9,0-6.7-1.6-6.7-7.1V518.8c0-0.5,2.3-1.6,5-1.6c5,0,9.6,2.5,9.6,14.5v3.6H2266.3z"/>
	</g>
	
		<linearGradient id="SVGID_1_" gradientUnits="userSpaceOnUse" x1="431.15" y1="936.4133" x2="431.15" y2="38.0401" gradientTransform="matrix(1 0 0 -1 0 889.01)">
		<stop  offset="0" style="stop-color:#00ACEC"/>
		<stop  offset="9.344202e-02" style="stop-color:#00A0DF"/>
		<stop  offset="0.3955" style="stop-color:#007DB9"/>
		<stop  offset="0.6383" style="stop-color:#0068A2"/>
		<stop  offset="0.79" style="stop-color:#006099"/>
		<stop  offset="1" style="stop-color:#006099"/>
	</linearGradient>
	<path class="st1" d="M431.1,15.9c-230.3,0-417,186.7-417,417c0,29.4,3.1,58.8,9.2,87.5c9.1,42.7,24.6,69.3,65.1,88.3
		c37.7,17.7,78.1,32.8,119.1,41c28.2,5.6,57.2,9,85.9,10.8c121.2,7.5,254.1-50.1,287-161.7C613.5,386,548.4,305,490.7,283
		s-177.6-2.8-187.9,98.2c-11.7,114.7,74,124.3,119.7,129.9c-42.5,20.9-165.5,9.4-192-80C204,341.8,248,243.7,329.3,199.3
		c86.3-47.1,266.3-70.4,361.3,121.4c85.8,173.3-56.9,306-88.9,334.5c-38.2,33.9-258.1,160-497.8,36.1
		c76.4,96.6,194.6,158.5,327.3,158.5c230.3,0,417-186.7,417-417C848.1,202.6,661.4,15.9,431.1,15.9z"/>
</g>
</svg>
