<?xml version="1.0" encoding="iso-8859-1"?>
<!-- Generator: Adobe Illustrator 19.0.0, SVG Export Plug-In . SVG Version: 6.00 Build 0)  -->
<svg version="1.1" id="Layer_1" xmlns="http://www.w3.org/2000/svg" xmlns:xlink="http://www.w3.org/1999/xlink" x="0px" y="0px"
	 viewBox="0 0 512 512" style="enable-background:new 0 0 512 512;" xml:space="preserve">
<path style="fill:#F2E7BF;" d="M299.346,86.692c-0.001,0-0.002,0-0.003,0V425.46c0.001,0,0.002,0,0.003,0
	c93.548,0,169.384-75.836,169.384-169.384S392.893,86.692,299.346,86.692z"/>
<circle style="opacity:0.08;enable-background:new    ;" cx="367.226" cy="327.807" r="37.156"/>
<path style="opacity:0.08;enable-background:new    ;" d="M315.682,409.122c-5.513,0-10.963-0.273-16.341-0.788v17.125
	c0.001,0,0.002,0,0.003,0c50.932,0,96.608-22.484,127.66-58.062C397.235,393.378,358.299,409.122,315.682,409.122z"/>
<path style="fill:#E18C36;" d="M288.327,6.362l-59.689,103.386h70.709V0C295.06,0,290.775,2.121,288.327,6.362z"/>
<path style="fill:#EC8560;" d="M114.98,87.293l30.897,115.312l99.998-99.998L130.564,71.71
	C121.102,69.175,112.445,77.832,114.98,87.293z"/>
<path style="fill:#E18C36;" d="M49.633,267.094l103.386,59.689V185.366L49.633,245.055C41.15,249.953,41.15,262.197,49.633,267.094z
	"/>
<path style="fill:#EC8560;" d="M130.564,440.44l115.312-30.897l-99.998-99.998L114.98,424.857
	C112.445,434.318,121.102,442.975,130.564,440.44z"/>
<path style="fill:#E18C36;" d="M228.636,402.402l59.689,103.386c2.042,3.537,5.362,5.599,8.892,6.186
	c1.11,0.185,2.127-0.66,2.127-1.785V402.402L228.636,402.402L228.636,402.402z"/>
<path style="opacity:0.1;enable-background:new    ;" d="M140.033,180.793l5.845,21.812l92.608-92.608
	C197.568,120.73,162.699,146.383,140.033,180.793z"/>
<path style="opacity:0.1;enable-background:new    ;" d="M129.675,198.843c-11.184,22.609-17.48,48.067-17.48,74.999
	c0,10.594,0.982,20.958,2.843,31.014l37.981,21.929V185.366L129.675,198.843z"/>
<path style="opacity:0.1;enable-background:new    ;" d="M145.877,309.545l-12.447,46.453
	c15.387,27.687,38.306,50.606,65.992,65.992l46.453-12.447L145.877,309.545z"/>
<path style="opacity:0.1;enable-background:new    ;" d="M228.636,402.401l21.929,37.981c10.055,1.861,20.42,2.843,31.014,2.843
	c6.003,0,11.927-0.33,17.767-0.94v-39.884H228.636z"/>
<path style="fill:#F7D64C;" d="M129.962,256.075c0,93.548,75.836,169.384,169.384,169.384V86.692
	C205.798,86.692,129.962,162.527,129.962,256.075z"/>
<g>
	<path style="fill:#394049;" d="M320.558,283.383c-8.33,0-15.862-3.486-21.212-9.076c-5.351,5.59-12.882,9.076-21.213,9.076
		c-16.196,0-29.373-13.176-29.373-29.373c0-4.508,3.654-8.16,8.16-8.16c4.507,0,8.16,3.652,8.16,8.16
		c0,7.197,5.856,13.053,13.053,13.053c7.197,0,13.053-5.856,13.053-13.053c0-4.508,3.654-8.16,8.16-8.16
		c4.507,0,8.16,3.652,8.16,8.16c0,7.197,5.855,13.053,13.052,13.053c7.197,0,13.053-5.856,13.053-13.053
		c0-4.508,3.654-8.16,8.16-8.16c4.507,0,8.16,3.652,8.16,8.16C349.93,270.207,336.754,283.383,320.558,283.383z"/>
	<path style="fill:#394049;" d="M201.368,230.475c-4.507,0-8.16-3.652-8.16-8.16v-9.01c0-4.508,3.654-8.16,8.16-8.16
		s8.16,3.652,8.16,8.16v9.01C209.528,226.822,205.875,230.475,201.368,230.475z"/>
	<path style="fill:#394049;" d="M397.323,230.475c-4.507,0-8.16-3.652-8.16-8.16v-9.01c0-4.508,3.654-8.16,8.16-8.16
		c4.507,0,8.16,3.652,8.16,8.16v9.01C405.483,226.822,401.829,230.475,397.323,230.475z"/>
</g>
<g>
</g>
<g>
</g>
<g>
</g>
<g>
</g>
<g>
</g>
<g>
</g>
<g>
</g>
<g>
</g>
<g>
</g>
<g>
</g>
<g>
</g>
<g>
</g>
<g>
</g>
<g>
</g>
<g>
</g>
</svg>
