<?xml version="1.0" encoding="iso-8859-1"?>
<!-- Generator: Adobe Illustrator 18.0.0, SVG Export Plug-In . SVG Version: 6.00 Build 0)  -->
<!DOCTYPE svg PUBLIC "-//W3C//DTD SVG 1.1//EN" "http://www.w3.org/Graphics/SVG/1.1/DTD/svg11.dtd">
<svg version="1.1" id="Capa_1" xmlns="http://www.w3.org/2000/svg" xmlns:xlink="http://www.w3.org/1999/xlink" x="0px" y="0px"
	 viewBox="0 0 135.528 135.528" style="enable-background:new 0 0 135.528 135.528;" xml:space="preserve">
<g>
	<linearGradient id="SVGID_1_" gradientUnits="userSpaceOnUse" x1="21.2643" y1="21.2643" x2="116.4661" y2="116.4661">
		<stop  offset="0" style="stop-color:#B3E7E4"/>
		<stop  offset="1" style="stop-color:#81D7D2"/>
	</linearGradient>
	<circle style="fill:#0C9BAA;" cx="67.764" cy="67.764" r="67.764"/>
	<g>
		<g>
			<circle style="fill:#FFF99A;" cx="68.393" cy="67.84" r="34.592"/>
			<g>
				<path style="fill:#FFD800;" d="M68.393,27.913c2.9,0,5.725,0.317,8.449,0.904L68.07,15.585l-8.5,13.318
					C62.409,28.262,65.36,27.913,68.393,27.913z"/>
				<path style="fill:#FFD800;" d="M46.875,34.215l-16.028-3.25l3.527,15.972C37.529,41.813,41.812,37.461,46.875,34.215z"/>
				<path style="fill:#FFD800;" d="M120.127,68.254l-12.536-8.001c0.473,2.457,0.729,4.992,0.729,7.588
					c0,3.064-0.357,6.044-1.011,8.911L120.127,68.254z"/>
				<path style="fill:#FFD800;" d="M101.736,45.883l3.011-14.853l-14.73,3.253C94.681,37.295,98.679,41.249,101.736,45.883z"/>
				<path style="fill:#FFD800;" d="M28.465,67.84c0-3.105,0.366-6.123,1.037-9.025l-14.101,9.347l14.182,9.052
					C28.859,74.206,28.465,71.07,28.465,67.84z"/>
				<path style="fill:#FFD800;" d="M89.825,101.52l15.009,3.043l-3.219-14.578C98.533,94.602,94.51,98.533,89.825,101.52z"/>
				<path style="fill:#FFD800;" d="M68.393,107.768c-3.323,0-6.548-0.413-9.634-1.177l8.852,13.352l8.22-12.878
					C73.419,107.519,70.935,107.768,68.393,107.768z"/>
				<path style="fill:#FFD800;" d="M33.804,87.775l-3.39,16.723l15.762-3.481C41.106,97.617,36.867,93.079,33.804,87.775z"/>
			</g>
		</g>
	</g>
</g>
<g>
</g>
<g>
</g>
<g>
</g>
<g>
</g>
<g>
</g>
<g>
</g>
<g>
</g>
<g>
</g>
<g>
</g>
<g>
</g>
<g>
</g>
<g>
</g>
<g>
</g>
<g>
</g>
<g>
</g>
</svg>
